<svg xmlns="http://www.w3.org/2000/svg" xmlns:xlink="http://www.w3.org/1999/xlink" version="1.1" width="154px" height="154px" style="shape-rendering:geometricPrecision;text-rendering:geometricPrecision;image-rendering:optimizeQuality;fill-rule:evenodd;clip-rule:evenodd;">
<g/>
<g/>
<g><path style="opacity: .7;" fill="#a27d7b" d="M 71.5,11.5 C 70.5,12.1667 69.5,12.8333 68.5,13.5C 67.5,13.5 66.5,13.5 65.5,13.5C 65.1667,13.5 64.8333,13.5 64.5,13.5C 66.5145,12.0762 68.8478,11.4095 71.5,11.5 Z"/></g>
<g><path style="opacity:1" fill="#8b3f38" d="M 114.5,22.5 C 107.197,16.2699 98.6966,12.6033 89,11.5C 87.9302,11.528 87.0968,11.8614 86.5,12.5C 80.4707,12.4255 74.4707,12.7588 68.5,13.5C 69.5,12.8333 70.5,12.1667 71.5,11.5C 80.1188,10.3915 88.7855,10.2249 97.5,11C 104.525,12.8442 110.191,16.6775 114.5,22.5 Z"/></g>
<g><path style="opacity:1" fill="#c05548" d="M 86.5,12.5 C 87.1667,12.5 87.5,12.8333 87.5,13.5C 79.169,13.6577 71.169,14.991 63.5,17.5C 62.325,17.719 61.325,17.3857 60.5,16.5C 62.5435,15.9348 64.2102,14.9348 65.5,13.5C 66.5,13.5 67.5,13.5 68.5,13.5C 74.4707,12.7588 80.4707,12.4255 86.5,12.5 Z"/></g>
<g><path style="opacity:1" fill="#9a362e" d="M 87.5,13.5 C 87.5291,16.6557 89.1957,18.3223 92.5,18.5C 93.7193,17.7366 94.7193,16.7366 95.5,15.5C 96.1667,17.1667 96.8333,18.8333 97.5,20.5C 98.451,19.6744 99.451,19.5078 100.5,20C 107.947,27.7208 111.947,36.8874 112.5,47.5C 111.778,47.9175 111.278,48.5842 111,49.5C 110.432,43.3255 109.099,37.3255 107,31.5C 106.051,29.9069 104.885,28.5736 103.5,27.5C 97.5513,20.4008 89.8846,17.4008 80.5,18.5C 77.1667,18.6667 73.8333,18.8333 70.5,19C 64.9255,20.7881 59.9255,23.6215 55.5,27.5C 54.479,26.9984 54.3123,26.3317 55,25.5C 56.4998,23.5313 58.3331,22.198 60.5,21.5C 62.1344,20.7934 63.4677,19.6268 64.5,18C 64.2716,17.6012 63.9382,17.4346 63.5,17.5C 71.169,14.991 79.169,13.6577 87.5,13.5 Z"/></g>
<g><path style="opacity:1" fill="#783932" d="M 64.5,13.5 C 64.8333,13.5 65.1667,13.5 65.5,13.5C 64.2102,14.9348 62.5435,15.9348 60.5,16.5C 61.325,17.3857 62.325,17.719 63.5,17.5C 63.9382,17.4346 64.2716,17.6012 64.5,18C 63.4677,19.6268 62.1344,20.7934 60.5,21.5C 59.3346,19.8906 58.0012,19.5573 56.5,20.5C 56.5,20.1667 56.5,19.8333 56.5,19.5C 56.9528,18.5416 57.6195,17.7083 58.5,17C 55.3359,17.0423 52.3359,17.8757 49.5,19.5C 48.5,19.5 47.5,19.5 46.5,19.5C 51.9778,16.1185 57.9778,14.1185 64.5,13.5 Z"/></g>
<g><path style="opacity:1" fill="#d58674" d="M 56.5,19.5 C 54.4352,19.5172 52.4352,19.8505 50.5,20.5C 49.8333,20.5 49.5,20.1667 49.5,19.5C 52.3359,17.8757 55.3359,17.0423 58.5,17C 57.6195,17.7083 56.9528,18.5416 56.5,19.5 Z"/></g>
<g><path style="opacity:1" fill="#43221d" d="M 103.5,27.5 C 102.909,28.1515 102.243,28.8182 101.5,29.5C 105.483,34.7526 107.15,40.4193 106.5,46.5C 106.44,45.9569 106.107,45.6236 105.5,45.5C 104.482,46.1925 103.482,46.8592 102.5,47.5C 99.5547,48.4675 96.5547,48.6342 93.5,48C 89.5915,45.5943 86.5915,42.4276 84.5,38.5C 85.2143,33.8053 87.2143,29.8053 90.5,26.5C 94.4453,25.5752 94.4453,24.4085 90.5,23C 84.1667,22.3333 77.8333,22.3333 71.5,23C 68.8261,23.6701 66.4927,24.8368 64.5,26.5C 62.5853,26.2155 60.9187,26.5489 59.5,27.5C 57.5956,27.7376 56.2623,28.7376 55.5,30.5C 54.2905,30.9321 53.2905,31.5987 52.5,32.5C 46.7508,40.0703 45.0842,48.4036 47.5,57.5C 47.2627,58.791 47.596,59.791 48.5,60.5C 48.6643,63.8174 49.6643,66.8174 51.5,69.5C 51.5,70.1667 51.5,70.8333 51.5,71.5C 50.0755,69.9689 49.4088,70.3023 49.5,72.5C 49.1667,72.5 48.8333,72.5 48.5,72.5C 47.0074,68.1778 45.5074,63.8445 44,59.5C 43.5012,55.5138 43.3345,51.5138 43.5,47.5C 45.1691,40.5046 47.8358,33.8379 51.5,27.5C 52.8109,24.8646 54.4776,22.5313 56.5,20.5C 58.0012,19.5573 59.3346,19.8906 60.5,21.5C 58.3331,22.198 56.4998,23.5313 55,25.5C 54.3123,26.3317 54.479,26.9984 55.5,27.5C 59.9255,23.6215 64.9255,20.7881 70.5,19C 73.8333,18.8333 77.1667,18.6667 80.5,18.5C 89.8846,17.4008 97.5513,20.4008 103.5,27.5 Z"/></g>
<g><path style="opacity:1" fill="#892f2a" d="M 87.5,13.5 C 102.499,13.9939 113.166,20.9939 119.5,34.5C 119.557,35.609 119.89,36.609 120.5,37.5C 119.548,38.452 118.548,39.452 117.5,40.5C 118.603,40.9976 119.603,41.3309 120.5,41.5C 119.902,42.7946 119.402,44.1279 119,45.5C 117.736,43.393 115.903,42.393 113.5,42.5C 113.784,44.4147 113.451,46.0813 112.5,47.5C 111.947,36.8874 107.947,27.7208 100.5,20C 99.451,19.5078 98.451,19.6744 97.5,20.5C 96.8333,18.8333 96.1667,17.1667 95.5,15.5C 94.7193,16.7366 93.7193,17.7366 92.5,18.5C 89.1957,18.3223 87.5291,16.6557 87.5,13.5 Z"/></g>
<g><path style="opacity:1" fill="#b32921" d="M 87.5,26.5 C 85.4224,28.3904 84.0891,30.7238 83.5,33.5C 82.4928,36.322 81.6595,39.322 81,42.5C 79.8873,41.695 78.7206,41.0283 77.5,40.5C 77.5,40.1667 77.5,39.8333 77.5,39.5C 77.5,36.5 77.5,33.5 77.5,30.5C 74.2719,30.2994 71.1052,30.6328 68,31.5C 67.5,31.1667 67,30.8333 66.5,30.5C 68.5096,29.9347 70.1763,28.9347 71.5,27.5C 75.0708,26.7325 78.5708,25.7325 82,24.5C 84.1114,24.7006 85.9448,25.3673 87.5,26.5 Z"/></g>
<g><path style="opacity:1" fill="#8a2721" d="M 59.5,27.5 C 60.0431,27.56 60.3764,27.8933 60.5,28.5C 58.9263,29.9842 57.593,31.6508 56.5,33.5C 55.6143,32.675 55.281,31.675 55.5,30.5C 56.2623,28.7376 57.5956,27.7376 59.5,27.5 Z"/></g>
<g><path style="opacity:1" fill="#a04a40" d="M 46.5,19.5 C 47.5,19.5 48.5,19.5 49.5,19.5C 49.5,20.1667 49.8333,20.5 50.5,20.5C 47.0611,22.3936 43.7278,24.5603 40.5,27C 37.9709,30.6936 34.9709,33.8603 31.5,36.5C 33.6719,28.3287 38.6719,22.662 46.5,19.5 Z"/></g>
<g><path style="opacity:1" fill="#5a271f" d="M 59.5,27.5 C 60.9187,26.5489 62.5853,26.2155 64.5,26.5C 59.2922,30.9201 56.7922,36.5868 57,43.5C 56.5357,42.9056 56.369,42.2389 56.5,41.5C 56.876,37.5907 55.5427,34.5907 52.5,32.5C 53.2905,31.5987 54.2905,30.9321 55.5,30.5C 55.281,31.675 55.6143,32.675 56.5,33.5C 57.593,31.6508 58.9263,29.9842 60.5,28.5C 60.3764,27.8933 60.0431,27.56 59.5,27.5 Z"/></g>
<g><path style="opacity:1" fill="#75332b" d="M 87.5,26.5 C 88.5,26.5 89.5,26.5 90.5,26.5C 87.2143,29.8053 85.2143,33.8053 84.5,38.5C 83.5489,37.0813 83.2155,35.4147 83.5,33.5C 84.0891,30.7238 85.4224,28.3904 87.5,26.5 Z"/></g>
<g><path style="opacity:1" fill="#c1695a" d="M 86.5,12.5 C 87.0968,11.8614 87.9302,11.528 89,11.5C 98.6966,12.6033 107.197,16.2699 114.5,22.5C 118.767,26.6953 121.767,31.6953 123.5,37.5C 122.363,36.2112 121.03,35.2112 119.5,34.5C 113.166,20.9939 102.499,13.9939 87.5,13.5C 87.5,12.8333 87.1667,12.5 86.5,12.5 Z"/></g>
<g><path style="opacity:1" fill="#8b2c26" d="M 51.5,27.5 C 47.8358,33.8379 45.1691,40.5046 43.5,47.5C 43.6366,39.7445 46.3032,33.0778 51.5,27.5 Z"/></g>
<g><path style="opacity:1" fill="#7c312a" d="M 90.5,43.5 C 92.8722,42.0863 95.0388,42.4197 97,44.5C 97.2022,42.7444 97.7022,41.0777 98.5,39.5C 99.4776,39.9767 100.311,40.6433 101,41.5C 101.613,35.6026 99.1126,31.6026 93.5,29.5C 91.7951,30.545 90.2951,31.8783 89,33.5C 88.6012,33.2716 88.4346,32.9382 88.5,32.5C 90.5527,27.6539 93.886,26.4872 98.5,29C 101.873,32.7041 103.873,37.0375 104.5,42C 103.343,45.3231 101.009,46.8231 97.5,46.5C 94.4995,46.8284 92.1661,45.8284 90.5,43.5 Z"/></g>
<g><path style="opacity:1" fill="#673732" d="M 90.5,43.5 C 89.2101,42.9423 88.3768,41.9423 88,40.5C 87.1993,37.633 87.3659,34.9664 88.5,32.5C 88.4346,32.9382 88.6012,33.2716 89,33.5C 90.2951,31.8783 91.7951,30.545 93.5,29.5C 99.1126,31.6026 101.613,35.6026 101,41.5C 100.311,40.6433 99.4776,39.9767 98.5,39.5C 97.7022,41.0777 97.2022,42.7444 97,44.5C 95.0388,42.4197 92.8722,42.0863 90.5,43.5 Z"/></g>
<g><path style="opacity:1" fill="#993b31" d="M 52.5,32.5 C 55.5427,34.5907 56.876,37.5907 56.5,41.5C 54.8632,40.7822 53.1966,40.6155 51.5,41C 50.6705,42.8161 49.8372,44.6494 49,46.5C 48.6667,45.8333 48.3333,45.1667 48,44.5C 47.501,48.8206 47.3343,53.1539 47.5,57.5C 45.0842,48.4036 46.7508,40.0703 52.5,32.5 Z"/></g>
<g><path style="opacity: .7;" fill="#ad736b" d="M 123.5,37.5 C 124.924,39.5145 125.59,41.8478 125.5,44.5C 124.076,42.4855 123.41,40.1522 123.5,37.5 Z"/></g>
<g><path style="opacity:1" fill="#782d28" d="M 84.5,38.5 C 86.5915,42.4276 89.5915,45.5943 93.5,48C 96.5547,48.6342 99.5547,48.4675 102.5,47.5C 96.0732,50.9692 90.5732,49.6359 86,43.5C 84.9914,41.9751 84.4914,40.3084 84.5,38.5 Z"/></g>
<g><path style="opacity:1" fill="#a6362e" d="M 90.5,26.5 C 89.5,26.5 88.5,26.5 87.5,26.5C 85.9448,25.3673 84.1114,24.7006 82,24.5C 78.5708,25.7325 75.0708,26.7325 71.5,27.5C 70.1763,28.9347 68.5096,29.9347 66.5,30.5C 67,30.8333 67.5,31.1667 68,31.5C 71.1052,30.6328 74.2719,30.2994 77.5,30.5C 77.5,33.5 77.5,36.5 77.5,39.5C 76.5269,37.0521 76.1936,34.3854 76.5,31.5C 68.8306,33.0167 65.664,37.6833 67,45.5C 68.8864,48.242 71.3864,49.9087 74.5,50.5C 73.5054,57.482 70.1721,63.1486 64.5,67.5C 58.2915,62.7524 54.9581,56.4191 54.5,48.5C 53.513,51.7683 53.1796,55.1016 53.5,58.5C 51.8985,57.4812 50.8985,55.9812 50.5,54C 51.3295,52.5349 51.4962,51.0349 51,49.5C 48.7232,52.6986 47.8898,56.3652 48.5,60.5C 47.596,59.791 47.2627,58.791 47.5,57.5C 47.3343,53.1539 47.501,48.8206 48,44.5C 48.3333,45.1667 48.6667,45.8333 49,46.5C 49.8372,44.6494 50.6705,42.8161 51.5,41C 53.1966,40.6155 54.8632,40.7822 56.5,41.5C 56.369,42.2389 56.5357,42.9056 57,43.5C 56.7922,36.5868 59.2922,30.9201 64.5,26.5C 66.4927,24.8368 68.8261,23.6701 71.5,23C 77.8333,22.3333 84.1667,22.3333 90.5,23C 94.4453,24.4085 94.4453,25.5752 90.5,26.5 Z"/></g>
<g><path style="opacity:1" fill="#682c25" d="M 103.5,27.5 C 104.885,28.5736 106.051,29.9069 107,31.5C 109.099,37.3255 110.432,43.3255 111,49.5C 111.278,48.5842 111.778,47.9175 112.5,47.5C 113.451,46.0813 113.784,44.4147 113.5,42.5C 115.903,42.393 117.736,43.393 119,45.5C 119.402,44.1279 119.902,42.7946 120.5,41.5C 119.603,41.3309 118.603,40.9976 117.5,40.5C 118.548,39.452 119.548,38.452 120.5,37.5C 123.396,42.68 123.063,47.68 119.5,52.5C 119.667,52.8333 119.833,53.1667 120,53.5C 121.617,51.2368 123.45,49.2368 125.5,47.5C 125.5,48.5 125.5,49.5 125.5,50.5C 122.5,53.8333 119.5,57.1667 116.5,60.5C 114.023,56.8992 111.523,53.2326 109,49.5C 108.809,55.0829 108.309,60.5829 107.5,66C 108.056,66.3826 108.389,66.8826 108.5,67.5C 106.917,65.4922 105.917,63.1589 105.5,60.5C 106.314,55.8809 106.647,51.2142 106.5,46.5C 107.15,40.4193 105.483,34.7526 101.5,29.5C 102.243,28.8182 102.909,28.1515 103.5,27.5 Z"/></g>
<g><path style="opacity:1" fill="#ab3128" d="M 56.5,19.5 C 56.5,19.8333 56.5,20.1667 56.5,20.5C 54.4776,22.5313 52.8109,24.8646 51.5,27.5C 46.3032,33.0778 43.6366,39.7445 43.5,47.5C 42.8826,47.6107 42.3826,47.944 42,48.5C 41.6667,52.1667 41.3333,55.8333 41,59.5C 40.6667,59.1667 40.3333,58.8333 40,58.5C 39.3893,62.2721 38.3893,62.2721 37,58.5C 36.9977,61.0512 36.1644,63.0512 34.5,64.5C 33.928,63.0267 33.0946,61.6934 32,60.5C 31.7612,53.4522 31.2612,46.4522 30.5,39.5C 30.5569,38.391 30.8902,37.391 31.5,36.5C 34.9709,33.8603 37.9709,30.6936 40.5,27C 43.7278,24.5603 47.0611,22.3936 50.5,20.5C 52.4352,19.8505 54.4352,19.5172 56.5,19.5 Z"/></g>
<g><path style="opacity:1" fill="#ab463d" d="M 119.5,34.5 C 121.03,35.2112 122.363,36.2112 123.5,37.5C 123.41,40.1522 124.076,42.4855 125.5,44.5C 125.5,45.5 125.5,46.5 125.5,47.5C 123.45,49.2368 121.617,51.2368 120,53.5C 119.833,53.1667 119.667,52.8333 119.5,52.5C 123.063,47.68 123.396,42.68 120.5,37.5C 119.89,36.609 119.557,35.609 119.5,34.5 Z"/></g>
<g><path style="opacity:1" fill="#ac362f" d="M 83.5,33.5 C 83.2155,35.4147 83.5489,37.0813 84.5,38.5C 84.4914,40.3084 84.9914,41.9751 86,43.5C 90.5732,49.6359 96.0732,50.9692 102.5,47.5C 103.482,46.8592 104.482,46.1925 105.5,45.5C 106.107,45.6236 106.44,45.9569 106.5,46.5C 106.647,51.2142 106.314,55.8809 105.5,60.5C 105.167,61.8333 104.833,63.1667 104.5,64.5C 103.143,65.5903 102.143,66.9236 101.5,68.5C 100.513,65.2927 99.5133,61.9593 98.5,58.5C 99.0096,56.9121 100.01,55.7455 101.5,55C 97.0281,53.5634 92.3614,53.0634 87.5,53.5C 82.4978,50.5165 79.1645,46.1832 77.5,40.5C 78.7206,41.0283 79.8873,41.695 81,42.5C 81.6595,39.322 82.4928,36.322 83.5,33.5 Z"/></g>
<g><path style="opacity:1" fill="#672d23" d="M 57.5,44.5 C 59.9655,48.067 62.4655,51.7337 65,55.5C 65.6877,56.3317 65.521,56.9984 64.5,57.5C 60.8698,53.8686 58.5365,49.5352 57.5,44.5 Z"/></g>
<g><path style="opacity: .7;" fill="#8a8582" d="M 125.5,50.5 C 123.524,55.1122 121.19,59.4456 118.5,63.5C 117.833,63.1667 117.167,62.8333 116.5,62.5C 116.5,61.8333 116.5,61.1667 116.5,60.5C 119.5,57.1667 122.5,53.8333 125.5,50.5 Z"/></g>
<g><path style="opacity:1" fill="#b42f27" d="M 116.5,60.5 C 116.5,61.1667 116.5,61.8333 116.5,62.5C 116.39,66.0002 115.557,69.3335 114,72.5C 113.329,71.7476 112.496,71.4142 111.5,71.5C 111.262,69.5956 110.262,68.2623 108.5,67.5C 108.389,66.8826 108.056,66.3826 107.5,66C 108.309,60.5829 108.809,55.0829 109,49.5C 111.523,53.2326 114.023,56.8992 116.5,60.5 Z"/></g>
<g><path style="opacity:1" fill="#4b241d" d="M 77.5,39.5 C 77.5,39.8333 77.5,40.1667 77.5,40.5C 79.1645,46.1832 82.4978,50.5165 87.5,53.5C 89.6845,55.5848 92.3511,56.5848 95.5,56.5C 94.8835,61.626 93.0502,66.2927 90,70.5C 89.6667,67.1667 89.3333,63.8333 89,60.5C 88.6174,59.944 88.1174,59.6107 87.5,59.5C 87.0679,58.2905 86.4013,57.2905 85.5,56.5C 83.9408,54.3757 81.9408,52.709 79.5,51.5C 76.957,56.8802 73.7903,61.8802 70,66.5C 69.1048,68.8045 68.2715,71.1378 67.5,73.5C 60.7207,70.3901 56.054,65.3901 53.5,58.5C 53.1796,55.1016 53.513,51.7683 54.5,48.5C 54.9581,56.4191 58.2915,62.7524 64.5,67.5C 70.1721,63.1486 73.5054,57.482 74.5,50.5C 71.3864,49.9087 68.8864,48.242 67,45.5C 65.664,37.6833 68.8306,33.0167 76.5,31.5C 76.1936,34.3854 76.5269,37.0521 77.5,39.5 Z"/></g>
<g><path style="opacity:1" fill="#8f2620" d="M 89.5,57.5 C 90.8333,57.5 92.1667,57.5 93.5,57.5C 92.597,65.288 91.2636,65.288 89.5,57.5 Z"/></g>
<g><path style="opacity:1" fill="#942b24" d="M 72.5,33.5 C 73.5,33.5 74.5,33.5 75.5,33.5C 74.8952,39.1825 76.2285,44.3492 79.5,49C 72.0729,50.0508 68.5729,46.8841 69,39.5C 69.926,37.3083 71.0927,35.3083 72.5,33.5 Z"/></g>
<g><path style="opacity:1" fill="#793c38" d="M 71.5,38.5 C 73.6088,40.8895 75.2755,43.7228 76.5,47C 74.8925,46.9813 73.2259,46.8146 71.5,46.5C 70.4696,43.7705 70.4696,41.1038 71.5,38.5 Z"/></g>
<g><path style="opacity:1" fill="#b4342b" d="M 53.5,58.5 C 53.4598,61.4245 54.2932,64.0912 56,66.5C 58.3447,69.3437 60.8447,72.0103 63.5,74.5C 62.5022,77.0278 61.6689,77.0278 61,74.5C 60.586,74.9574 60.086,75.2907 59.5,75.5C 58.3777,74.3698 57.0443,73.7031 55.5,73.5C 53.8058,72.4726 52.4725,71.1392 51.5,69.5C 49.6643,66.8174 48.6643,63.8174 48.5,60.5C 47.8898,56.3652 48.7232,52.6986 51,49.5C 51.4962,51.0349 51.3295,52.5349 50.5,54C 50.8985,55.9812 51.8985,57.4812 53.5,58.5 Z"/></g>
<g><path style="opacity:1" fill="#9c463e" d="M 30.5,39.5 C 31.2612,46.4522 31.7612,53.4522 32,60.5C 33.0946,61.6934 33.928,63.0267 34.5,64.5C 36.6643,69.5003 39.331,74.167 42.5,78.5C 43.9958,85.5593 43.8292,92.5593 42,99.5C 41.5065,97.8659 41.3398,96.1992 41.5,94.5C 41.8168,90.2984 41.4834,86.2984 40.5,82.5C 40.1667,81.5 39.5,80.8333 38.5,80.5C 37.207,75.2472 34.8737,70.5806 31.5,66.5C 29.5498,57.4045 29.2164,48.4045 30.5,39.5 Z"/></g>
<g><path style="opacity:1" fill="#662a24" d="M 85.5,56.5 C 86.4013,57.2905 87.0679,58.2905 87.5,59.5C 84.1092,63.2588 80.9425,67.2588 78,71.5C 77.2018,74.7107 77.7018,77.7107 79.5,80.5C 79.3764,81.1067 79.0431,81.44 78.5,81.5C 76.1096,77.8277 75.2763,73.8277 76,69.5C 78.3873,66.6226 81.054,63.9559 84,61.5C 85.0086,59.9751 85.5086,58.3084 85.5,56.5 Z"/></g>
<g><path style="opacity:1" fill="#97322c" d="M 43.5,47.5 C 43.3345,51.5138 43.5012,55.5138 44,59.5C 45.5074,63.8445 47.0074,68.1778 48.5,72.5C 47.5416,72.0472 46.7083,71.3805 46,70.5C 44.4804,67.6177 43.1471,64.6177 42,61.5C 42.3173,66.8103 44.3173,71.477 48,75.5C 48.49,76.7932 48.6567,78.1266 48.5,79.5C 46.2776,79.822 44.4443,79.1554 43,77.5C 42.6012,77.7284 42.4346,78.0618 42.5,78.5C 39.331,74.167 36.6643,69.5003 34.5,64.5C 36.1644,63.0512 36.9977,61.0512 37,58.5C 38.3893,62.2721 39.3893,62.2721 40,58.5C 40.3333,58.8333 40.6667,59.1667 41,59.5C 41.3333,55.8333 41.6667,52.1667 42,48.5C 42.3826,47.944 42.8826,47.6107 43.5,47.5 Z"/></g>
<g><path style="opacity:1" fill="#6f302a" d="M 108.5,67.5 C 110.262,68.2623 111.262,69.5956 111.5,71.5C 114.129,74.6306 116.962,77.6306 120,80.5C 120.692,81.4368 120.525,82.1034 119.5,82.5C 116.871,79.3694 114.038,76.3694 111,73.5C 110.345,71.3716 109.511,69.3716 108.5,67.5 Z"/></g>
<g><path style="opacity: .7;" fill="#97918e" d="M 31.5,66.5 C 34.8737,70.5806 37.207,75.2472 38.5,80.5C 36.4424,78.0734 34.6091,75.4068 33,72.5C 31.872,70.6547 31.372,68.6547 31.5,66.5 Z"/></g>
<g><path style="opacity:1" fill="#9e352d" d="M 87.5,53.5 C 92.3614,53.0634 97.0281,53.5634 101.5,55C 100.01,55.7455 99.0096,56.9121 98.5,58.5C 99.5133,61.9593 100.513,65.2927 101.5,68.5C 96.7405,77.0582 89.4072,81.8915 79.5,83C 75.9733,83.8075 72.6399,83.6408 69.5,82.5C 72.7131,82.81 75.7131,82.4767 78.5,81.5C 79.0431,81.44 79.3764,81.1067 79.5,80.5C 77.7018,77.7107 77.2018,74.7107 78,71.5C 80.9425,67.2588 84.1092,63.2588 87.5,59.5C 88.1174,59.6107 88.6174,59.944 89,60.5C 89.3333,63.8333 89.6667,67.1667 90,70.5C 93.0502,66.2927 94.8835,61.626 95.5,56.5C 92.3511,56.5848 89.6845,55.5848 87.5,53.5 Z"/></g>
<g><path style="opacity:1" fill="#251915" d="M 51.5,71.5 C 52.2485,73.3325 53.2485,74.9991 54.5,76.5C 54.5674,77.9587 54.2341,79.2921 53.5,80.5C 52.6787,83.6414 52.1787,86.9748 52,90.5C 51.8247,85.9805 51.3247,81.6472 50.5,77.5C 50.634,75.7085 50.3007,74.0418 49.5,72.5C 49.4088,70.3023 50.0755,69.9689 51.5,71.5 Z"/></g>
<g><path style="opacity:1" fill="#b43e34" d="M 85.5,56.5 C 85.5086,58.3084 85.0086,59.9751 84,61.5C 81.054,63.9559 78.3873,66.6226 76,69.5C 75.2763,73.8277 76.1096,77.8277 78.5,81.5C 75.7131,82.4767 72.7131,82.81 69.5,82.5C 63.6492,81.3292 58.9826,78.3292 55.5,73.5C 57.0443,73.7031 58.3777,74.3698 59.5,75.5C 60.086,75.2907 60.586,74.9574 61,74.5C 61.6689,77.0278 62.5022,77.0278 63.5,74.5C 60.8447,72.0103 58.3447,69.3437 56,66.5C 54.2932,64.0912 53.4598,61.4245 53.5,58.5C 56.054,65.3901 60.7207,70.3901 67.5,73.5C 68.2715,71.1378 69.1048,68.8045 70,66.5C 73.7903,61.8802 76.957,56.8802 79.5,51.5C 81.9408,52.709 83.9408,54.3757 85.5,56.5 Z"/></g>
<g><path style="opacity:1" fill="#652d28" d="M 104.5,64.5 C 100.995,76.2894 92.9951,82.9561 80.5,84.5C 76.1715,85.713 71.8381,85.713 67.5,84.5C 62.9192,82.0524 58.5859,79.3857 54.5,76.5C 53.2485,74.9991 52.2485,73.3325 51.5,71.5C 51.5,70.8333 51.5,70.1667 51.5,69.5C 52.4725,71.1392 53.8058,72.4726 55.5,73.5C 58.9826,78.3292 63.6492,81.3292 69.5,82.5C 72.6399,83.6408 75.9733,83.8075 79.5,83C 89.4072,81.8915 96.7405,77.0582 101.5,68.5C 102.143,66.9236 103.143,65.5903 104.5,64.5 Z"/></g>
<g><path style="opacity:1" fill="#a93c34" d="M 116.5,62.5 C 117.167,62.8333 117.833,63.1667 118.5,63.5C 118.5,63.8333 118.5,64.1667 118.5,64.5C 119.728,67.0751 121.395,69.4084 123.5,71.5C 121.83,73.3414 120.83,75.508 120.5,78C 121.856,79.5671 122.523,81.4004 122.5,83.5C 120.632,84.2632 118.965,85.2632 117.5,86.5C 115.574,87.2423 113.741,88.2423 112,89.5C 110.219,94.8463 108.053,100.013 105.5,105C 100.136,105.171 94.8025,105.671 89.5,106.5C 88.316,108.046 87.316,109.713 86.5,111.5C 85.5481,109.955 85.2148,108.288 85.5,106.5C 86.343,104.827 87.6763,103.66 89.5,103C 94.8229,102.501 100.156,102.334 105.5,102.5C 107.136,97.962 108.469,93.2954 109.5,88.5C 112.798,86.5146 116.131,84.5146 119.5,82.5C 120.525,82.1034 120.692,81.4368 120,80.5C 116.962,77.6306 114.129,74.6306 111.5,71.5C 112.496,71.4142 113.329,71.7476 114,72.5C 115.557,69.3335 116.39,66.0002 116.5,62.5 Z"/></g>
<g><path style="opacity:1" fill="#8d3731" d="M 118.5,64.5 C 122.509,68.5428 126.509,72.5428 130.5,76.5C 130.733,78.0618 131.4,79.3951 132.5,80.5C 130.395,80.1393 128.562,81.1393 127,83.5C 126.667,82.8333 126.333,82.1667 126,81.5C 125.29,82.9733 124.124,83.6399 122.5,83.5C 122.523,81.4004 121.856,79.5671 120.5,78C 120.83,75.508 121.83,73.3414 123.5,71.5C 121.395,69.4084 119.728,67.0751 118.5,64.5 Z"/></g>
<g><path style="opacity:1" fill="#783731" d="M 105.5,71.5 C 108.066,74.2889 110.4,77.2889 112.5,80.5C 109.769,83.0496 106.769,85.383 103.5,87.5C 102.787,89.7759 102.287,92.1093 102,94.5C 101.617,95.056 101.117,95.3893 100.5,95.5C 96.2026,94.4087 91.8692,93.4087 87.5,92.5C 86.0465,90.3561 86.3799,88.5227 88.5,87C 91.9518,86.1083 94.9518,84.4416 97.5,82C 98.1667,81.3333 98.8333,81.3333 99.5,82C 98.3044,82.6543 98.3044,83.1543 99.5,83.5C 101.028,82.1387 102.695,80.972 104.5,80C 105.487,77.4478 104.487,75.9478 101.5,75.5C 102.5,73.8333 103.833,72.5 105.5,71.5 Z"/></g>
<g><path style="opacity:1" fill="#371e1a" d="M 105.5,60.5 C 105.917,63.1589 106.917,65.4922 108.5,67.5C 109.511,69.3716 110.345,71.3716 111,73.5C 114.038,76.3694 116.871,79.3694 119.5,82.5C 116.131,84.5146 112.798,86.5146 109.5,88.5C 108.442,89.6002 107.608,90.9336 107,92.5C 106.517,91.552 106.351,90.552 106.5,89.5C 106.511,87.9826 107.177,86.8159 108.5,86C 111.21,84.9848 113.543,83.4848 115.5,81.5C 113.08,77.0799 109.747,73.7466 105.5,71.5C 103.833,72.5 102.5,73.8333 101.5,75.5C 94.9834,83.4092 86.4834,87.4092 76,87.5C 67.9321,86.7783 60.4321,84.445 53.5,80.5C 54.2341,79.2921 54.5674,77.9587 54.5,76.5C 58.5859,79.3857 62.9192,82.0524 67.5,84.5C 71.8381,85.713 76.1715,85.713 80.5,84.5C 92.9951,82.9561 100.995,76.2894 104.5,64.5C 104.833,63.1667 105.167,61.8333 105.5,60.5 Z"/></g>
<g><path style="opacity: .7;" fill="#998482" d="M 38.5,80.5 C 39.5,80.8333 40.1667,81.5 40.5,82.5C 40.81,85.7131 40.4767,88.7131 39.5,91.5C 39.6773,87.7657 39.3439,84.0991 38.5,80.5 Z"/></g>
<g><path style="opacity:1" fill="#70302a" d="M 132.5,80.5 C 133.043,80.56 133.376,80.8933 133.5,81.5C 129.655,86.0153 124.989,89.3487 119.5,91.5C 118.791,90.596 117.791,90.2627 116.5,90.5C 116.433,89.0413 116.766,87.7079 117.5,86.5C 118.965,85.2632 120.632,84.2632 122.5,83.5C 124.124,83.6399 125.29,82.9733 126,81.5C 126.333,82.1667 126.667,82.8333 127,83.5C 128.562,81.1393 130.395,80.1393 132.5,80.5 Z"/></g>
<g><path style="opacity: .7;" fill="#8f8c8b" d="M 134.5,79.5 C 135.797,81.6934 135.797,84.0268 134.5,86.5C 130.388,90.9533 125.722,94.6199 120.5,97.5C 120.343,96.1266 120.51,94.7932 121,93.5C 125.694,90.651 130.027,87.3177 134,83.5C 134.49,82.2068 134.657,80.8734 134.5,79.5 Z"/></g>
<g><path style="opacity:1" fill="#952d27" d="M 105.5,71.5 C 109.747,73.7466 113.08,77.0799 115.5,81.5C 113.543,83.4848 111.21,84.9848 108.5,86C 107.177,86.8159 106.511,87.9826 106.5,89.5C 104.935,91.5093 103.935,93.8427 103.5,96.5C 102.733,97.172 102.066,98.0053 101.5,99C 99.1902,99.4966 96.8568,99.6633 94.5,99.5C 93.448,99.6495 92.448,99.4828 91.5,99C 95.0329,98.6295 98.0329,97.4628 100.5,95.5C 101.117,95.3893 101.617,95.056 102,94.5C 102.287,92.1093 102.787,89.7759 103.5,87.5C 106.769,85.383 109.769,83.0496 112.5,80.5C 110.4,77.2889 108.066,74.2889 105.5,71.5 Z"/></g>
<g><path style="opacity:1" fill="#ae4940" d="M 48.5,72.5 C 48.8333,72.5 49.1667,72.5 49.5,72.5C 50.3007,74.0418 50.634,75.7085 50.5,77.5C 50.1734,82.2137 50.5067,86.8804 51.5,91.5C 59.3437,96.9248 67.677,101.591 76.5,105.5C 76.6309,106.376 76.2975,107.043 75.5,107.5C 66.5071,102.916 57.6737,97.9164 49,92.5C 48.501,88.1794 48.3343,83.8461 48.5,79.5C 48.6567,78.1266 48.49,76.7932 48,75.5C 44.3173,71.477 42.3173,66.8103 42,61.5C 43.1471,64.6177 44.4804,67.6177 46,70.5C 46.7083,71.3805 47.5416,72.0472 48.5,72.5 Z"/></g>
<g><path style="opacity:1" fill="#763834" d="M 66.5,98.5 C 61.9634,96.0699 57.6301,93.4032 53.5,90.5C 54.3171,88.0314 54.8171,85.3647 55,82.5C 57.7542,84.1274 60.5875,85.6274 63.5,87C 61.8695,90.0623 62.8695,91.729 66.5,92C 67.8333,93.6667 69.1667,95.3333 70.5,97C 68.9419,97.21 67.6085,97.71 66.5,98.5 Z"/></g>
<g><path style="opacity:1" fill="#522621" d="M 109.5,88.5 C 108.469,93.2954 107.136,97.962 105.5,102.5C 100.156,102.334 94.8229,102.501 89.5,103C 87.6763,103.66 86.343,104.827 85.5,106.5C 85.1667,106.5 84.8333,106.5 84.5,106.5C 83.5084,106.672 82.8417,106.338 82.5,105.5C 84.9214,103.762 87.5881,102.429 90.5,101.5C 94.8461,101.666 99.1794,101.499 103.5,101C 105.036,99.4006 105.536,97.5672 105,95.5C 104.617,96.056 104.117,96.3893 103.5,96.5C 103.935,93.8427 104.935,91.5093 106.5,89.5C 106.351,90.552 106.517,91.552 107,92.5C 107.608,90.9336 108.442,89.6002 109.5,88.5 Z"/></g>
<g><path style="opacity:1" fill="#3f211c" d="M 50.5,77.5 C 51.3247,81.6472 51.8247,85.9805 52,90.5C 52.1787,86.9748 52.6787,83.6414 53.5,80.5C 53.5,83.8333 53.5,87.1667 53.5,90.5C 57.6301,93.4032 61.9634,96.0699 66.5,98.5C 71.5992,101.383 76.9325,103.717 82.5,105.5C 82.8417,106.338 83.5084,106.672 84.5,106.5C 84.6716,107.492 84.3382,108.158 83.5,108.5C 81.0462,107.773 78.7128,106.773 76.5,105.5C 67.677,101.591 59.3437,96.9248 51.5,91.5C 50.5067,86.8804 50.1734,82.2137 50.5,77.5 Z"/></g>
<g><path style="opacity:1" fill="#7e312b" d="M 101.5,75.5 C 104.487,75.9478 105.487,77.4478 104.5,80C 102.695,80.972 101.028,82.1387 99.5,83.5C 98.3044,83.1543 98.3044,82.6543 99.5,82C 98.8333,81.3333 98.1667,81.3333 97.5,82C 94.9518,84.4416 91.9518,86.1083 88.5,87C 86.3799,88.5227 86.0465,90.3561 87.5,92.5C 91.8692,93.4087 96.2026,94.4087 100.5,95.5C 98.0329,97.4628 95.0329,98.6295 91.5,99C 92.448,99.4828 93.448,99.6495 94.5,99.5C 93.1667,100.167 91.8333,100.833 90.5,101.5C 87.5881,102.429 84.9214,103.762 82.5,105.5C 76.9325,103.717 71.5992,101.383 66.5,98.5C 67.6085,97.71 68.9419,97.21 70.5,97C 69.1667,95.3333 67.8333,93.6667 66.5,92C 62.8695,91.729 61.8695,90.0623 63.5,87C 60.5875,85.6274 57.7542,84.1274 55,82.5C 54.8171,85.3647 54.3171,88.0314 53.5,90.5C 53.5,87.1667 53.5,83.8333 53.5,80.5C 60.4321,84.445 67.9321,86.7783 76,87.5C 86.4834,87.4092 94.9834,83.4092 101.5,75.5 Z"/></g>
<g><path style="opacity:1" fill="#b25a52" d="M 20.5,95.5 C 26.5653,97.1359 32.5653,99.3026 38.5,102C 34.642,101.678 30.8087,100.844 27,99.5C 25.3164,99.6834 25.1498,100.35 26.5,101.5C 24.3589,99.8894 22.0256,98.3894 19.5,97C 18.2881,95.8932 18.6214,95.3932 20.5,95.5 Z"/></g>
<g><path style="opacity:1" fill="#77332c" d="M 117.5,86.5 C 116.766,87.7079 116.433,89.0413 116.5,90.5C 117.791,90.2627 118.791,90.596 119.5,91.5C 117.946,100.228 114.946,108.394 110.5,116C 104.263,114.706 97.9296,114.039 91.5,114C 88.1372,115.899 86.1372,118.732 85.5,122.5C 81.9935,121.752 78.6602,120.419 75.5,118.5C 75.5,118.167 75.5,117.833 75.5,117.5C 76.1635,115.958 76.8302,114.291 77.5,112.5C 79.8493,111.457 81.8493,110.124 83.5,108.5C 84.3382,108.158 84.6716,107.492 84.5,106.5C 84.8333,106.5 85.1667,106.5 85.5,106.5C 85.2148,108.288 85.5481,109.955 86.5,111.5C 87.316,109.713 88.316,108.046 89.5,106.5C 94.8025,105.671 100.136,105.171 105.5,105C 108.053,100.013 110.219,94.8463 112,89.5C 113.741,88.2423 115.574,87.2423 117.5,86.5 Z"/></g>
<g><path style="opacity:1" fill="#2c1b17" d="M 90.5,101.5 C 91.8333,100.833 93.1667,100.167 94.5,99.5C 96.8568,99.6633 99.1902,99.4966 101.5,99C 102.066,98.0053 102.733,97.172 103.5,96.5C 104.117,96.3893 104.617,96.056 105,95.5C 105.536,97.5672 105.036,99.4006 103.5,101C 99.1794,101.499 94.8461,101.666 90.5,101.5 Z"/></g>
<g><path style="opacity:1" fill="#69413c" d="M 25.5,95.5 C 23.8333,95.5 22.1667,95.5 20.5,95.5C 18.6214,95.3932 18.2881,95.8932 19.5,97C 22.0256,98.3894 24.3589,99.8894 26.5,101.5C 28.9416,104.729 31.6082,107.729 34.5,110.5C 34.5,110.833 34.5,111.167 34.5,111.5C 33.325,111.719 32.325,111.386 31.5,110.5C 29.7639,108.097 27.7639,106.097 25.5,104.5C 22.5,101.833 19.5,99.1667 16.5,96.5C 13.597,94.755 13.9303,93.755 17.5,93.5C 20.3857,93.8043 23.0524,94.471 25.5,95.5 Z"/></g>
<g><path style="opacity:1" fill="#81342e" d="M 48.5,79.5 C 48.3343,83.8461 48.501,88.1794 49,92.5C 57.6737,97.9164 66.5071,102.916 75.5,107.5C 76.2975,107.043 76.6309,106.376 76.5,105.5C 78.7128,106.773 81.0462,107.773 83.5,108.5C 81.8493,110.124 79.8493,111.457 77.5,112.5C 76.8302,114.291 76.1635,115.958 75.5,117.5C 64.9287,111.382 53.9287,106.048 42.5,101.5C 40.4357,99.3403 40.1024,97.007 41.5,94.5C 41.3398,96.1992 41.5065,97.8659 42,99.5C 43.8292,92.5593 43.9958,85.5593 42.5,78.5C 42.4346,78.0618 42.6012,77.7284 43,77.5C 44.4443,79.1554 46.2776,79.822 48.5,79.5 Z"/></g>
<g><path style="opacity: .7;" fill="#908d8c" d="M 16.5,96.5 C 19.5,99.1667 22.5,101.833 25.5,104.5C 30.3337,112.168 35.1671,119.834 40,127.5C 60.4747,131.038 80.9747,134.372 101.5,137.5C 101.082,138.222 100.416,138.722 99.5,139C 100.308,139.308 100.975,139.808 101.5,140.5C 100.333,140.833 99.1667,141.167 98,141.5C 78.2459,137.654 58.4125,134.321 38.5,131.5C 33.4636,118.284 25.4636,107.117 14.5,98C 15.4158,97.7216 16.0825,97.2216 16.5,96.5 Z"/></g>
<g><path style="opacity:1" fill="#512721" d="M 42.5,101.5 C 53.9287,106.048 64.9287,111.382 75.5,117.5C 75.5,117.833 75.5,118.167 75.5,118.5C 74.8333,118.5 74.5,118.833 74.5,119.5C 65.976,114.07 56.976,109.403 47.5,105.5C 45.8599,104.68 44.1932,103.847 42.5,103C 41.2617,102.31 41.2617,101.81 42.5,101.5 Z"/></g>
<g><path style="opacity:1" fill="#432822" d="M 130.5,76.5 C 131.833,77.5 133.167,78.5 134.5,79.5C 134.657,80.8734 134.49,82.2068 134,83.5C 130.027,87.3177 125.694,90.651 121,93.5C 120.51,94.7932 120.343,96.1266 120.5,97.5C 119.232,99.9052 118.565,102.572 118.5,105.5C 116.865,109.991 114.532,114.157 111.5,118C 104.579,118.584 97.9127,117.918 91.5,116C 88.1951,118.781 86.5285,122.281 86.5,126.5C 82.5,124.167 78.5,121.833 74.5,119.5C 74.5,118.833 74.8333,118.5 75.5,118.5C 78.6602,120.419 81.9935,121.752 85.5,122.5C 86.1372,118.732 88.1372,115.899 91.5,114C 97.9296,114.039 104.263,114.706 110.5,116C 114.946,108.394 117.946,100.228 119.5,91.5C 124.989,89.3487 129.655,86.0153 133.5,81.5C 133.376,80.8933 133.043,80.56 132.5,80.5C 131.4,79.3951 130.733,78.0618 130.5,76.5 Z"/></g>
<g><path style="opacity: .7;" fill="#8c8887" d="M 118.5,105.5 C 118.01,111.808 115.677,117.308 111.5,122C 105.441,122.845 99.6073,122.012 94,119.5C 90.2617,120.404 88.095,122.737 87.5,126.5C 87.1667,126.5 86.8333,126.5 86.5,126.5C 86.5285,122.281 88.1951,118.781 91.5,116C 97.9127,117.918 104.579,118.584 111.5,118C 114.532,114.157 116.865,109.991 118.5,105.5 Z"/></g>
<g><path style="opacity:1" fill="#6e4340" d="M 60.5,125.5 C 58.5853,125.216 56.9187,125.549 55.5,126.5C 51.5,125.833 47.5,125.167 43.5,124.5C 44.2998,122.259 45.9664,121.259 48.5,121.5C 48.5,119.833 48.5,118.167 48.5,116.5C 52.4335,117.788 56.4335,119.121 60.5,120.5C 61.6086,119.41 62.6086,119.41 63.5,120.5C 62.2371,122.029 61.2371,123.695 60.5,125.5 Z"/></g>
<g><path style="opacity:1" fill="#7a413d" d="M 40.5,82.5 C 41.4834,86.2984 41.8168,90.2984 41.5,94.5C 40.1024,97.007 40.4357,99.3403 42.5,101.5C 41.2617,101.81 41.2617,102.31 42.5,103C 44.1932,103.847 45.8599,104.68 47.5,105.5C 47.9528,106.458 48.6195,107.292 49.5,108C 57.0897,111.604 64.4231,115.604 71.5,120C 73.9193,121.509 74.9193,123.675 74.5,126.5C 69.7697,126.717 65.1031,126.383 60.5,125.5C 61.2371,123.695 62.2371,122.029 63.5,120.5C 62.6086,119.41 61.6086,119.41 60.5,120.5C 56.4335,119.121 52.4335,117.788 48.5,116.5C 48.5,118.167 48.5,119.833 48.5,121.5C 45.9664,121.259 44.2998,122.259 43.5,124.5C 42.791,125.404 41.791,125.737 40.5,125.5C 39.699,120.263 37.699,115.596 34.5,111.5C 34.5,111.167 34.5,110.833 34.5,110.5C 31.6082,107.729 28.9416,104.729 26.5,101.5C 25.1498,100.35 25.3164,99.6834 27,99.5C 30.8087,100.844 34.642,101.678 38.5,102C 32.5653,99.3026 26.5653,97.1359 20.5,95.5C 22.1667,95.5 23.8333,95.5 25.5,95.5C 29.7826,96.9875 34.116,98.3208 38.5,99.5C 39.0916,96.8728 39.4249,94.2062 39.5,91.5C 40.4767,88.7131 40.81,85.7131 40.5,82.5 Z"/></g>
<g><path style="opacity:1" fill="#6f4542" d="M 34.5,110.5 C 33.7577,108.574 32.7577,106.741 31.5,105C 33.7637,105.585 36.097,105.419 38.5,104.5C 39.5,104.667 40.5,104.833 41.5,105C 40.2888,105.893 40.2888,106.726 41.5,107.5C 44.4562,109.096 47.4562,110.596 50.5,112C 49.062,112.219 47.7287,112.719 46.5,113.5C 45.2542,115.515 43.7542,117.181 42,118.5C 39.738,115.671 37.238,113.004 34.5,110.5 Z"/></g>
<g><path style="opacity:1" fill="#863933" d="M 47.5,105.5 C 56.976,109.403 65.976,114.07 74.5,119.5C 78.5,121.833 82.5,124.167 86.5,126.5C 86.8333,126.5 87.1667,126.5 87.5,126.5C 91.1219,128.787 94.4552,131.453 97.5,134.5C 97.0831,135.124 96.4164,135.457 95.5,135.5C 82.28,132.255 68.9467,129.255 55.5,126.5C 56.9187,125.549 58.5853,125.216 60.5,125.5C 65.1031,126.383 69.7697,126.717 74.5,126.5C 74.9193,123.675 73.9193,121.509 71.5,120C 64.4231,115.604 57.0897,111.604 49.5,108C 48.6195,107.292 47.9528,106.458 47.5,105.5 Z"/></g>
<g><path style="opacity:1" fill="#462a25" d="M 25.5,104.5 C 27.7639,106.097 29.7639,108.097 31.5,110.5C 32.325,111.386 33.325,111.719 34.5,111.5C 37.699,115.596 39.699,120.263 40.5,125.5C 41.791,125.737 42.791,125.404 43.5,124.5C 47.5,125.167 51.5,125.833 55.5,126.5C 68.9467,129.255 82.28,132.255 95.5,135.5C 96.4164,135.457 97.0831,135.124 97.5,134.5C 99.2303,135.026 100.564,136.026 101.5,137.5C 80.9747,134.372 60.4747,131.038 40,127.5C 35.1671,119.834 30.3337,112.168 25.5,104.5 Z"/></g>
</svg>