<svg xmlns="http://www.w3.org/2000/svg" xmlns:xlink="http://www.w3.org/1999/xlink" version="1.1" width="154px" height="154px" style="shape-rendering:geometricPrecision;text-rendering:geometricPrecision;image-rendering:optimizeQuality;fill-rule:evenodd;clip-rule:evenodd;">
<g/>
<g/>
<g/>
<g><path style="opacity: .7;" fill="#8e7272" d="M 78.5,3.5 C 76.901,3.23219 75.5676,3.56552 74.5,4.5C 73.8333,4.5 73.1667,4.5 72.5,4.5C 73.1342,3.05322 74.3009,2.38655 76,2.5C 77.0698,2.52804 77.9032,2.86137 78.5,3.5 Z"/></g>
<g><path style="opacity: .7;" fill="#7b5854" d="M 78.5,3.5 C 80.0269,3.42702 81.0269,4.09368 81.5,5.5C 79.9731,5.57298 78.9731,4.90632 78.5,3.5 Z"/></g>
<g><path style="opacity:1" fill="#8f2c25" d="M 74.5,4.5 C 75.5676,3.56552 76.901,3.23219 78.5,3.5C 78.9731,4.90632 79.9731,5.57298 81.5,5.5C 82.4916,5.32842 83.1583,5.66175 83.5,6.5C 82.1266,6.34332 80.7932,6.50999 79.5,7C 80.8333,8 82.1667,9 83.5,10C 80.1728,12.1329 77.0062,11.9663 74,9.5C 73.9101,7.23191 75.0768,5.73191 77.5,5C 76.552,4.51722 75.552,4.35055 74.5,4.5 Z"/></g>
<g><path style="opacity: .7;" fill="#7b5954" d="M 83.5,6.5 C 85.0269,6.42702 86.0269,7.09368 86.5,8.5C 84.9731,8.57298 83.9731,7.90632 83.5,6.5 Z"/></g>
<g><path style="opacity: .7;" fill="#88574c" d="M 72.5,4.5 C 68.8333,7.83333 65.1667,11.1667 61.5,14.5C 60.5,14.8333 59.8333,15.5 59.5,16.5C 58.8333,16.5 58.1667,16.5 57.5,16.5C 58.9599,14.5372 60.6266,12.7038 62.5,11C 65.7196,8.56334 69.053,6.39667 72.5,4.5 Z"/></g>
<g><path style="opacity:1" fill="#b7382e" d="M 72.5,4.5 C 73.1667,4.5 73.8333,4.5 74.5,4.5C 75.552,4.35055 76.552,4.51722 77.5,5C 75.0768,5.73191 73.9101,7.23191 74,9.5C 77.0062,11.9663 80.1728,12.1329 83.5,10C 82.1667,9 80.8333,8 79.5,7C 80.7932,6.50999 82.1266,6.34332 83.5,6.5C 83.9731,7.90632 84.9731,8.57298 86.5,8.5C 86.8039,9.14987 87.1373,9.81654 87.5,10.5C 86.0986,11.5207 84.7653,12.5207 83.5,13.5C 78.8366,13.6091 74.8366,15.2757 71.5,18.5C 70.548,17.467 70.548,16.3004 71.5,15C 71.2409,13.7387 70.5742,12.7387 69.5,12C 66.8015,12.4836 64.1348,13.3169 61.5,14.5C 65.1667,11.1667 68.8333,7.83333 72.5,4.5 Z"/></g>
<g><path style="opacity:1" fill="#351e18" d="M 83.5,13.5 C 88.4486,13.6311 92.1153,15.9644 94.5,20.5C 94.7031,22.0443 95.3698,23.3777 96.5,24.5C 93.6594,25.9746 90.6594,27.1413 87.5,28C 88.2438,29.0386 89.2438,29.5386 90.5,29.5C 90.7329,31.0618 91.3995,32.3951 92.5,33.5C 91.391,33.4431 90.391,33.1098 89.5,32.5C 86.328,30.7481 83.328,28.7481 80.5,26.5C 81.2389,26.631 81.9056,26.4643 82.5,26C 81.1667,25.3333 81.1667,24.6667 82.5,24C 84.5,23.6667 86.5,23.3333 88.5,23C 87.376,22.7508 86.376,22.2508 85.5,21.5C 86.0522,19.9974 86.0522,18.3307 85.5,16.5C 83.5,16.5 81.5,16.5 79.5,16.5C 80.8333,15.5 82.1667,14.5 83.5,13.5 Z"/></g>
<g><path style="opacity:1" fill="#832922" d="M 83.5,13.5 C 82.1667,14.5 80.8333,15.5 79.5,16.5C 76.8333,17.8333 74.1667,19.1667 71.5,20.5C 68.994,19.2504 66.3274,18.5838 63.5,18.5C 63.719,17.325 63.3857,16.325 62.5,15.5C 61.5832,16.1272 60.5832,16.4606 59.5,16.5C 59.8333,15.5 60.5,14.8333 61.5,14.5C 64.1348,13.3169 66.8015,12.4836 69.5,12C 70.5742,12.7387 71.2409,13.7387 71.5,15C 70.548,16.3004 70.548,17.467 71.5,18.5C 74.8366,15.2757 78.8366,13.6091 83.5,13.5 Z"/></g>
<g><path style="opacity:1" fill="#6a2a23" d="M 71.5,20.5 C 71.5,21.1667 71.5,21.8333 71.5,22.5C 66.2796,20.3272 60.9462,18.6605 55.5,17.5C 55.8417,16.6618 56.5084,16.3284 57.5,16.5C 58.1667,16.5 58.8333,16.5 59.5,16.5C 60.5832,16.4606 61.5832,16.1272 62.5,15.5C 63.3857,16.325 63.719,17.325 63.5,18.5C 66.3274,18.5838 68.994,19.2504 71.5,20.5 Z"/></g>
<g><path style="opacity:1" fill="#91382e" d="M 86.5,8.5 C 93.1171,12.7303 98.1171,18.397 101.5,25.5C 101.5,25.8333 101.5,26.1667 101.5,26.5C 100.325,26.719 99.325,26.3857 98.5,25.5C 97.8671,23.2145 96.5338,21.5478 94.5,20.5C 92.1153,15.9644 88.4486,13.6311 83.5,13.5C 84.7653,12.5207 86.0986,11.5207 87.5,10.5C 87.1373,9.81654 86.8039,9.14987 86.5,8.5 Z"/></g>
<g><path style="opacity:1" fill="#231915" d="M 79.5,16.5 C 81.5,16.5 83.5,16.5 85.5,16.5C 86.0522,18.3307 86.0522,19.9974 85.5,21.5C 86.376,22.2508 87.376,22.7508 88.5,23C 86.5,23.3333 84.5,23.6667 82.5,24C 81.1667,24.6667 81.1667,25.3333 82.5,26C 81.9056,26.4643 81.2389,26.631 80.5,26.5C 77.6484,24.9091 74.6484,23.5758 71.5,22.5C 71.5,21.8333 71.5,21.1667 71.5,20.5C 74.1667,19.1667 76.8333,17.8333 79.5,16.5 Z"/></g>
<g><path style="opacity:1" fill="#804039" d="M 52.5,22.5 C 52.5,23.8333 52.5,25.1667 52.5,26.5C 52.8333,27.1667 53.1667,27.8333 53.5,28.5C 52.5,28.5 51.5,28.5 50.5,28.5C 50.1667,28.5 49.8333,28.5 49.5,28.5C 49.461,25.911 50.461,23.911 52.5,22.5 Z"/></g>
<g><path style="opacity:1" fill="#ae2d26" d="M 76.5,34.5 C 69.1198,31.405 61.4532,29.405 53.5,28.5C 53.1667,27.8333 52.8333,27.1667 52.5,26.5C 56.2864,24.9213 57.2864,22.2546 55.5,18.5C 60.0489,20.0205 65.0489,22.1871 70.5,25C 65.6035,26.0601 65.9368,27.2268 71.5,28.5C 72,29.5 72.5,30.5 73,31.5C 73.5356,29.4328 73.0356,27.5994 71.5,26C 73.4645,25.376 75.1311,25.876 76.5,27.5C 77.1735,29.6887 78.1735,31.6887 79.5,33.5C 78.675,34.3857 77.675,34.719 76.5,34.5 Z"/></g>
<g><path style="opacity:1" fill="#6d2820" d="M 94.5,20.5 C 96.5338,21.5478 97.8671,23.2145 98.5,25.5C 99.325,26.3857 100.325,26.719 101.5,26.5C 98.0023,27.8134 94.3356,28.8134 90.5,29.5C 89.2438,29.5386 88.2438,29.0386 87.5,28C 90.6594,27.1413 93.6594,25.9746 96.5,24.5C 95.3698,23.3777 94.7031,22.0443 94.5,20.5 Z"/></g>
<g><path style="opacity:1" fill="#552e29" d="M 50.5,28.5 C 51.5,28.5 52.5,28.5 53.5,28.5C 54.9842,30.0737 56.6508,31.407 58.5,32.5C 54.9812,32.7407 52.3145,31.4074 50.5,28.5 Z"/></g>
<g><path style="opacity:1" fill="#7b2b25" d="M 53.5,28.5 C 61.4532,29.405 69.1198,31.405 76.5,34.5C 78.8895,37.0283 81.8895,38.5283 85.5,39C 86.2524,39.6708 86.5858,40.5041 86.5,41.5C 86.1667,41.5 85.8333,41.5 85.5,41.5C 81.9785,39.5736 78.3118,37.9069 74.5,36.5C 73.7025,36.9569 73.3691,37.6236 73.5,38.5C 71.9731,38.573 70.9731,37.9063 70.5,36.5C 70.9382,36.5654 71.2716,36.3988 71.5,36C 67.9675,34.3677 64.3008,33.2011 60.5,32.5C 59.8333,32.5 59.1667,32.5 58.5,32.5C 56.6508,31.407 54.9842,30.0737 53.5,28.5 Z"/></g>
<g><path style="opacity: .7;" fill="#847e7d" d="M 101.5,25.5 C 102.461,27.2646 102.795,29.2646 102.5,31.5C 100.143,31.3367 97.8098,31.5034 95.5,32C 94.944,32.3826 94.6107,32.8826 94.5,33.5C 93.8333,33.5 93.1667,33.5 92.5,33.5C 91.3995,32.3951 90.7329,31.0618 90.5,29.5C 94.3356,28.8134 98.0023,27.8134 101.5,26.5C 101.5,26.1667 101.5,25.8333 101.5,25.5 Z"/></g>
<g><path style="opacity: .7;" fill="#92908e" d="M 49.5,28.5 C 49.8333,28.5 50.1667,28.5 50.5,28.5C 52.3145,31.4074 54.9812,32.7407 58.5,32.5C 59.1667,32.5 59.8333,32.5 60.5,32.5C 58.6373,34.1625 56.6373,35.8291 54.5,37.5C 53.7003,35.3175 52.2003,33.6508 50,32.5C 49.51,31.2068 49.3433,29.8734 49.5,28.5 Z"/></g>
<g><path style="opacity:1" fill="#462a24" d="M 60.5,32.5 C 64.3008,33.2011 67.9675,34.3677 71.5,36C 71.2716,36.3988 70.9382,36.5654 70.5,36.5C 67.4773,35.3224 64.4773,35.3224 61.5,36.5C 58.6703,36.6941 56.0037,37.3608 53.5,38.5C 53.5,37.8333 53.8333,37.5 54.5,37.5C 56.6373,35.8291 58.6373,34.1625 60.5,32.5 Z"/></g>
<g><path style="opacity: .7;" fill="#734942" d="M 97.5,36.5 C 100.198,36.8449 102.198,38.1782 103.5,40.5C 101.147,39.6597 99.1475,38.3264 97.5,36.5 Z"/></g>
<g><path style="opacity:1" fill="#732f27" d="M 61.5,36.5 C 59.2063,38.653 56.5396,40.3197 53.5,41.5C 53.5,40.5 53.5,39.5 53.5,38.5C 56.0037,37.3608 58.6703,36.6941 61.5,36.5 Z"/></g>
<g><path style="opacity:1" fill="#9d2c24" d="M 70.5,36.5 C 70.9731,37.9063 71.9731,38.573 73.5,38.5C 73.5,38.8333 73.5,39.1667 73.5,39.5C 72.0048,39.9887 70.6715,40.6554 69.5,41.5C 63.2155,44.2666 57.2155,47.6 51.5,51.5C 50.9569,51.44 50.6236,51.1067 50.5,50.5C 52.543,49.4206 53.8763,47.754 54.5,45.5C 53.2418,46.0164 52.2418,45.3497 51.5,43.5C 52.2427,42.8182 52.9094,42.1515 53.5,41.5C 56.5396,40.3197 59.2063,38.653 61.5,36.5C 64.4773,35.3224 67.4773,35.3224 70.5,36.5 Z"/></g>
<g><path style="opacity:1" fill="#201510" d="M 85.5,41.5 C 85.5,42.1667 85.1667,42.5 84.5,42.5C 83.8333,42.5 83.1667,42.5 82.5,42.5C 79.5917,41.184 76.5917,40.184 73.5,39.5C 73.5,39.1667 73.5,38.8333 73.5,38.5C 73.3691,37.6236 73.7025,36.9569 74.5,36.5C 78.3118,37.9069 81.9785,39.5736 85.5,41.5 Z"/></g>
<g><path style="opacity:1" fill="#6a2a22" d="M 73.5,39.5 C 76.5917,40.184 79.5917,41.184 82.5,42.5C 82.0618,42.4346 81.7284,42.6012 81.5,43C 83.3325,43.7485 84.9991,44.7485 86.5,46C 83.9238,46.6058 81.5904,46.1058 79.5,44.5C 77.8653,45.0463 76.1986,45.3796 74.5,45.5C 74.7332,42.0464 73.3999,41.0464 70.5,42.5C 70.5,41.8333 70.1667,41.5 69.5,41.5C 70.6715,40.6554 72.0048,39.9887 73.5,39.5 Z"/></g>
<g><path style="opacity:1" fill="#702a23" d="M 88.5,42.5 C 91.7541,42.7936 94.4208,44.127 96.5,46.5C 93.1485,46.47 90.4818,45.1367 88.5,42.5 Z"/></g>
<g><path style="opacity: .85;" fill="#a65043" d="M 89.5,32.5 C 90.391,33.1098 91.391,33.4431 92.5,33.5C 93.1667,33.5 93.8333,33.5 94.5,33.5C 95.6935,34.2719 96.6935,35.2719 97.5,36.5C 99.1475,38.3264 101.147,39.6597 103.5,40.5C 108.381,42.7094 112.381,46.0427 115.5,50.5C 114.127,50.6567 112.793,50.49 111.5,50C 104.224,43.8683 96.8909,38.035 89.5,32.5 Z"/></g>
<g><path style="opacity:1" fill="#6f2d27" d="M 53.5,41.5 C 52.9094,42.1515 52.2427,42.8182 51.5,43.5C 52.2418,45.3497 53.2418,46.0164 54.5,45.5C 53.8763,47.754 52.543,49.4206 50.5,50.5C 50.6236,51.1067 50.9569,51.44 51.5,51.5C 49.1321,53.5333 47.1321,55.8666 45.5,58.5C 45.1667,58.5 44.8333,58.5 44.5,58.5C 43.7611,58.631 43.0944,58.4643 42.5,58C 44.9574,56.4877 44.9574,55.1544 42.5,54C 43.7119,52.8932 43.3786,52.3932 41.5,52.5C 39.8712,53.6253 38.3712,54.9586 37,56.5C 36.3333,55.8333 36.3333,55.1667 37,54.5C 41.1937,50.3063 45.3604,46.1396 49.5,42C 50.7932,41.51 52.1266,41.3433 53.5,41.5 Z"/></g>
<g><path style="opacity:1" fill="#6a261d" d="M 66.5,53.5 C 65.8333,53.8333 65.1667,54.1667 64.5,54.5C 63.9032,53.8614 63.0698,53.528 62,53.5C 60.4495,54.0535 58.9495,54.7202 57.5,55.5C 56.8333,55.1667 56.1667,54.8333 55.5,54.5C 56.6527,53.3132 56.6527,52.3132 55.5,51.5C 56.9361,50.5714 58.2695,49.4048 59.5,48C 63.2076,49.2365 66.0409,48.0698 68,44.5C 68.0855,47.5759 67.5855,50.5759 66.5,53.5 Z"/></g>
<g><path style="opacity:1" fill="#341b14" d="M 69.5,41.5 C 70.1667,41.5 70.5,41.8333 70.5,42.5C 69.6314,44.717 69.298,47.0504 69.5,49.5C 68.5655,50.5676 68.2322,51.901 68.5,53.5C 67.8333,53.5 67.1667,53.5 66.5,53.5C 67.5855,50.5759 68.0855,47.5759 68,44.5C 66.0409,48.0698 63.2076,49.2365 59.5,48C 58.2695,49.4048 56.9361,50.5714 55.5,51.5C 51.8537,53.4819 48.8537,56.1485 46.5,59.5C 46.5,58.8333 46.1667,58.5 45.5,58.5C 47.1321,55.8666 49.1321,53.5333 51.5,51.5C 57.2155,47.6 63.2155,44.2666 69.5,41.5 Z"/></g>
<g><path style="opacity:1" fill="#60241f" d="M 69.5,49.5 C 68.9197,53.649 69.5864,57.3157 71.5,60.5C 71.189,61.4778 70.5223,62.1445 69.5,62.5C 68.5159,59.5719 68.1826,56.5719 68.5,53.5C 68.2322,51.901 68.5655,50.5676 69.5,49.5 Z"/></g>
<g><path style="opacity:1" fill="#45221c" d="M 85.5,41.5 C 85.8333,41.5 86.1667,41.5 86.5,41.5C 86.8417,42.3382 87.5084,42.6716 88.5,42.5C 90.4818,45.1367 93.1485,46.47 96.5,46.5C 102.774,50.4413 108.44,55.1079 113.5,60.5C 113.5,61.1667 113.167,61.5 112.5,61.5C 109.187,58.5222 105.853,55.5222 102.5,52.5C 99.4944,50.9962 98.8277,51.6629 100.5,54.5C 99.8333,54.1667 99.1667,53.8333 98.5,53.5C 94.4073,49.0706 89.7406,45.404 84.5,42.5C 85.1667,42.5 85.5,42.1667 85.5,41.5 Z"/></g>
<g><path style="opacity: .7;" fill="#834037" d="M 115.5,50.5 C 118.573,52.5691 120.906,55.2358 122.5,58.5C 120.537,57.0401 118.704,55.3734 117,53.5C 116.667,54.1667 116.333,54.8333 116,55.5C 115.506,53.8659 115.34,52.1992 115.5,50.5 Z"/></g>
<g><path style="opacity:1" fill="#5b302c" d="M 53.5,38.5 C 53.5,39.5 53.5,40.5 53.5,41.5C 52.1266,41.3433 50.7932,41.51 49.5,42C 45.3604,46.1396 41.1937,50.3063 37,54.5C 36.3333,55.1667 36.3333,55.8333 37,56.5C 38.3712,54.9586 39.8712,53.6253 41.5,52.5C 41.9699,55.3456 41.1366,57.6789 39,59.5C 38.3964,57.3143 37.2297,57.1476 35.5,59C 33.1088,60.3086 33.1088,61.3086 35.5,62C 34.9535,62.9246 34.2868,63.7579 33.5,64.5C 32.5481,62.9547 32.2148,61.288 32.5,59.5C 36.8536,52.6349 42.187,46.4682 48.5,41C 50.0779,39.9055 51.7446,39.0722 53.5,38.5 Z"/></g>
<g><path style="opacity:1" fill="#832820" d="M 55.5,51.5 C 56.6527,52.3132 56.6527,53.3132 55.5,54.5C 56.1667,54.8333 56.8333,55.1667 57.5,55.5C 58.9495,54.7202 60.4495,54.0535 62,53.5C 63.0698,53.528 63.9032,53.8614 64.5,54.5C 63.8333,54.5 63.5,54.8333 63.5,55.5C 61.6053,56.973 59.9387,58.6397 58.5,60.5C 58.3059,58.0882 56.9726,57.0882 54.5,57.5C 54.7746,62.2203 53.9412,62.5537 52,58.5C 51.5078,59.549 51.6744,60.549 52.5,61.5C 51.635,62.5827 50.635,62.7494 49.5,62C 50.7112,61.1072 50.7112,60.2739 49.5,59.5C 47.7118,60.2826 46.7118,61.6159 46.5,63.5C 44.3641,68.037 43.0307,72.7036 42.5,77.5C 42.5,74.8333 42.5,72.1667 42.5,69.5C 42.4755,65.5638 43.8088,62.2305 46.5,59.5C 48.8537,56.1485 51.8537,53.4819 55.5,51.5 Z"/></g>
<g><path style="opacity:1" fill="#852b23" d="M 82.5,42.5 C 83.1667,42.5 83.8333,42.5 84.5,42.5C 89.7406,45.404 94.4073,49.0706 98.5,53.5C 97.9569,53.56 97.6236,53.8933 97.5,54.5C 98.5,55.8333 99.5,57.1667 100.5,58.5C 100,58.8333 99.5,59.1667 99,59.5C 96.0809,57.8956 93.5809,55.8956 91.5,53.5C 88.7213,52.6112 86.0546,51.4445 83.5,50C 81.8333,49.3333 80.1667,49.3333 78.5,50C 80.0581,50.21 81.3915,50.71 82.5,51.5C 81.325,51.281 80.325,51.6143 79.5,52.5C 76.7574,55.1819 74.0907,57.8485 71.5,60.5C 69.5864,57.3157 68.9197,53.649 69.5,49.5C 69.298,47.0504 69.6314,44.717 70.5,42.5C 73.3999,41.0464 74.7332,42.0464 74.5,45.5C 76.1986,45.3796 77.8653,45.0463 79.5,44.5C 81.5904,46.1058 83.9238,46.6058 86.5,46C 84.9991,44.7485 83.3325,43.7485 81.5,43C 81.7284,42.6012 82.0618,42.4346 82.5,42.5 Z"/></g>
<g><path style="opacity:1" fill="#a2312a" d="M 55.5,17.5 C 60.9462,18.6605 66.2796,20.3272 71.5,22.5C 74.6484,23.5758 77.6484,24.9091 80.5,26.5C 83.328,28.7481 86.328,30.7481 89.5,32.5C 96.8909,38.035 104.224,43.8683 111.5,50C 112.793,50.49 114.127,50.6567 115.5,50.5C 115.34,52.1992 115.506,53.8659 116,55.5C 116.333,54.8333 116.667,54.1667 117,53.5C 118.704,55.3734 120.537,57.0401 122.5,58.5C 122.427,60.0269 123.094,61.0269 124.5,61.5C 124.427,63.0269 125.094,64.0269 126.5,64.5C 127.15,66.4352 127.483,68.4352 127.5,70.5C 126.518,71.1408 125.518,71.8075 124.5,72.5C 123.52,71.0186 122.353,69.6853 121,68.5C 120.601,68.7284 120.435,69.0618 120.5,69.5C 118.408,66.319 116.075,63.319 113.5,60.5C 108.44,55.1079 102.774,50.4413 96.5,46.5C 94.4208,44.127 91.7541,42.7936 88.5,42.5C 87.5084,42.6716 86.8417,42.3382 86.5,41.5C 86.5858,40.5041 86.2524,39.6708 85.5,39C 81.8895,38.5283 78.8895,37.0283 76.5,34.5C 77.675,34.719 78.675,34.3857 79.5,33.5C 78.1735,31.6887 77.1735,29.6887 76.5,27.5C 75.1311,25.876 73.4645,25.376 71.5,26C 73.0356,27.5994 73.5356,29.4328 73,31.5C 72.5,30.5 72,29.5 71.5,28.5C 65.9368,27.2268 65.6035,26.0601 70.5,25C 65.0489,22.1871 60.0489,20.0205 55.5,18.5C 57.2864,22.2546 56.2864,24.9213 52.5,26.5C 52.5,25.1667 52.5,23.8333 52.5,22.5C 53.1103,20.5659 54.1103,18.8993 55.5,17.5 Z"/></g>
<g><path style="opacity: .7;" fill="#684b47" d="M 122.5,58.5 C 123.906,58.9731 124.573,59.9731 124.5,61.5C 123.094,61.0269 122.427,60.0269 122.5,58.5 Z"/></g>
<g><path style="opacity:1" fill="#271915" d="M 82.5,51.5 C 86.0495,52.7232 89.0495,54.7232 91.5,57.5C 90.8927,61.898 89.8927,62.2313 88.5,58.5C 87.6143,59.325 87.281,60.325 87.5,61.5C 84.9369,62.0883 82.6036,63.0883 80.5,64.5C 79.8333,64.5 79.5,64.1667 79.5,63.5C 79.5569,62.391 79.8902,61.391 80.5,60.5C 81.2344,59.1225 81.9011,57.6225 82.5,56C 77.9568,56.9579 74.2901,59.4579 71.5,63.5C 70.3995,64.6049 69.7329,65.9382 69.5,67.5C 67.0061,74.1154 67.0061,80.7821 69.5,87.5C 69.9887,88.9952 70.6554,90.3285 71.5,91.5C 72.0906,92.1515 72.7573,92.8182 73.5,93.5C 72.8728,94.4168 72.5394,95.4168 72.5,96.5C 72.3059,98.9118 70.9726,99.9118 68.5,99.5C 68.1583,98.6618 67.4916,98.3284 66.5,98.5C 65.5,98.1667 64.8333,97.5 64.5,96.5C 66.0603,94.8706 65.727,93.704 63.5,93C 67.0273,89.7486 67.3606,86.2486 64.5,82.5C 63.6167,77.8969 63.2834,73.2303 63.5,68.5C 63.5,66.8333 63.5,65.1667 63.5,63.5C 61.8002,63.6261 60.3002,64.2927 59,65.5C 58.5,65.1667 58,64.8333 57.5,64.5C 60.2651,61.9583 62.2651,58.9583 63.5,55.5C 63.5,54.8333 63.8333,54.5 64.5,54.5C 65.1667,54.1667 65.8333,53.8333 66.5,53.5C 67.1667,53.5 67.8333,53.5 68.5,53.5C 68.1826,56.5719 68.5159,59.5719 69.5,62.5C 70.5223,62.1445 71.189,61.4778 71.5,60.5C 74.0907,57.8485 76.7574,55.1819 79.5,52.5C 80.325,51.6143 81.325,51.281 82.5,51.5 Z"/></g>
<g><path style="opacity:1" fill="#782823" d="M 80.5,60.5 C 80.5654,60.0618 80.3988,59.7284 80,59.5C 78.9054,60.6934 78.072,62.0267 77.5,63.5C 75.6923,62.6832 74.1923,63.3498 73,65.5C 72.7216,64.5842 72.2216,63.9175 71.5,63.5C 74.2901,59.4579 77.9568,56.9579 82.5,56C 81.9011,57.6225 81.2344,59.1225 80.5,60.5 Z"/></g>
<g><path style="opacity:1" fill="#aa3228" d="M 98.5,53.5 C 99.1667,53.8333 99.8333,54.1667 100.5,54.5C 103.338,58.1718 105.671,62.1718 107.5,66.5C 104.927,68.8435 101.927,69.1768 98.5,67.5C 96.9379,63.6082 94.6046,60.2749 91.5,57.5C 89.0495,54.7232 86.0495,52.7232 82.5,51.5C 81.3915,50.71 80.0581,50.21 78.5,50C 80.1667,49.3333 81.8333,49.3333 83.5,50C 86.0546,51.4445 88.7213,52.6112 91.5,53.5C 93.5809,55.8956 96.0809,57.8956 99,59.5C 99.5,59.1667 100,58.8333 100.5,58.5C 99.5,57.1667 98.5,55.8333 97.5,54.5C 97.6236,53.8933 97.9569,53.56 98.5,53.5 Z"/></g>
<g><path style="opacity:1" fill="#2f1b17" d="M 112.5,61.5 C 113.415,63.7541 114.748,65.7541 116.5,67.5C 115.757,68.1818 115.091,68.8485 114.5,69.5C 114.34,71.153 113.674,72.4863 112.5,73.5C 111.549,72.0813 111.216,70.4147 111.5,68.5C 109.801,68.4729 108.467,67.8062 107.5,66.5C 105.671,62.1718 103.338,58.1718 100.5,54.5C 98.8277,51.6629 99.4944,50.9962 102.5,52.5C 105.853,55.5222 109.187,58.5222 112.5,61.5 Z"/></g>
<g><path style="opacity: .7;" fill="#644842" d="M 124.5,61.5 C 125.906,61.9731 126.573,62.9731 126.5,64.5C 125.094,64.0269 124.427,63.0269 124.5,61.5 Z"/></g>
<g><path style="opacity:1" fill="#361c17" d="M 91.5,57.5 C 94.6046,60.2749 96.9379,63.6082 98.5,67.5C 97.8005,71.7978 97.4672,76.1311 97.5,80.5C 97.7022,82.9892 97.2022,85.3225 96,87.5C 93.5997,89.7293 91.433,92.0626 89.5,94.5C 89.2504,93.0779 88.417,92.0779 87,91.5C 85.9609,92.7101 84.7942,93.7101 83.5,94.5C 84.3195,92.1877 85.1529,89.8543 86,87.5C 87.3876,88.5536 88.8876,88.7203 90.5,88C 96.0692,81.0826 96.9026,73.5826 93,65.5C 91.5589,64.7402 90.0589,64.0736 88.5,63.5C 87.2801,63.8869 86.6135,64.7202 86.5,66C 87.5715,70.1236 87.7382,74.2903 87,78.5C 86.3024,75.9963 85.4691,73.663 84.5,71.5C 84.0046,69.5183 83.5046,67.5183 83,65.5C 82.3292,64.7476 81.4959,64.4142 80.5,64.5C 82.6036,63.0883 84.9369,62.0883 87.5,61.5C 87.281,60.325 87.6143,59.325 88.5,58.5C 89.8927,62.2313 90.8927,61.898 91.5,57.5 Z"/></g>
<g><path style="opacity:1" fill="#9d2d24" d="M 58.5,60.5 C 56.3084,63.5498 54.6417,66.8832 53.5,70.5C 52.5184,73.9619 52.185,77.6286 52.5,81.5C 48.6286,81.815 44.9619,81.4816 41.5,80.5C 44.8333,80.5 48.1667,80.5 51.5,80.5C 51.2244,76.6105 50.891,72.9438 50.5,69.5C 51.7472,67.677 52.4139,65.677 52.5,63.5C 51.5,63.5 50.5,63.5 49.5,63.5C 49.762,64.9778 49.4287,66.3112 48.5,67.5C 47.8281,66.0508 47.1614,64.7175 46.5,63.5C 46.7118,61.6159 47.7118,60.2826 49.5,59.5C 50.7112,60.2739 50.7112,61.1072 49.5,62C 50.635,62.7494 51.635,62.5827 52.5,61.5C 51.6744,60.549 51.5078,59.549 52,58.5C 53.9412,62.5537 54.7746,62.2203 54.5,57.5C 56.9726,57.0882 58.3059,58.0882 58.5,60.5 Z"/></g>
<g><path style="opacity:1" fill="#18130e" d="M 44.5,58.5 C 44.8333,58.5 45.1667,58.5 45.5,58.5C 46.1667,58.5 46.5,58.8333 46.5,59.5C 43.8088,62.2305 42.4755,65.5638 42.5,69.5C 39.8908,70.4431 37.8908,72.1097 36.5,74.5C 35.7777,73.4489 34.7777,72.7822 33.5,72.5C 33.1667,72.5 32.8333,72.5 32.5,72.5C 31.7375,71.7321 30.7375,71.2321 29.5,71C 32.9369,70.0068 35.4369,67.8402 37,64.5C 39.1337,61.8474 41.6337,59.8474 44.5,58.5 Z"/></g>
<g><path style="opacity:1" fill="#43231f" d="M 41.5,52.5 C 43.3786,52.3932 43.7119,52.8932 42.5,54C 44.9574,55.1544 44.9574,56.4877 42.5,58C 43.0944,58.4643 43.7611,58.631 44.5,58.5C 41.6337,59.8474 39.1337,61.8474 37,64.5C 35.4369,67.8402 32.9369,70.0068 29.5,71C 30.7375,71.2321 31.7375,71.7321 32.5,72.5C 31.325,72.281 30.325,72.6143 29.5,73.5C 30.1272,74.4168 30.4606,75.4168 30.5,76.5C 28.5879,74.3428 26.9213,72.0094 25.5,69.5C 26.1667,68.8333 26.8333,68.1667 27.5,67.5C 28.3833,64.2957 30.0499,61.6291 32.5,59.5C 32.2148,61.288 32.5481,62.9547 33.5,64.5C 34.2868,63.7579 34.9535,62.9246 35.5,62C 33.1088,61.3086 33.1088,60.3086 35.5,59C 37.2297,57.1476 38.3964,57.3143 39,59.5C 41.1366,57.6789 41.9699,55.3456 41.5,52.5 Z"/></g>
<g><path style="opacity: .7;" fill="#764038" d="M 27.5,67.5 C 26.8333,68.1667 26.1667,68.8333 25.5,69.5C 25.1667,69.5 24.8333,69.5 24.5,69.5C 23.8333,69.5 23.5,69.8333 23.5,70.5C 22.1667,70.5 20.8333,70.5 19.5,70.5C 21.3917,67.2139 24.0584,66.2139 27.5,67.5 Z"/></g>
<g><path style="opacity:1" fill="#a82a23" d="M 46.5,63.5 C 47.1614,64.7175 47.8281,66.0508 48.5,67.5C 49.4287,66.3112 49.762,64.9778 49.5,63.5C 50.5,63.5 51.5,63.5 52.5,63.5C 52.4139,65.677 51.7472,67.677 50.5,69.5C 50.891,72.9438 51.2244,76.6105 51.5,80.5C 48.1667,80.5 44.8333,80.5 41.5,80.5C 41.2627,79.209 41.596,78.209 42.5,77.5C 43.0307,72.7036 44.3641,68.037 46.5,63.5 Z"/></g>
<g><path style="opacity:1" fill="#9b2a23" d="M 77.5,63.5 C 75.9304,65.8511 75.0971,68.5177 75,71.5C 73.8904,73.0368 72.3904,73.7035 70.5,73.5C 70.7947,71.2646 70.4614,69.2646 69.5,67.5C 69.7329,65.9382 70.3995,64.6049 71.5,63.5C 72.2216,63.9175 72.7216,64.5842 73,65.5C 74.1923,63.3498 75.6923,62.6832 77.5,63.5 Z"/></g>
<g><path style="opacity:1" fill="#5a2820" d="M 79.5,63.5 C 79.5,64.1667 79.8333,64.5 80.5,64.5C 77.9947,69.8476 76.9947,75.5143 77.5,81.5C 76.5386,79.7354 76.2053,77.7354 76.5,75.5C 76.3082,71.0981 77.3082,67.0981 79.5,63.5 Z"/></g>
<g><path style="opacity:1" fill="#b0312a" d="M 127.5,70.5 C 128.823,72.7623 130.157,75.0956 131.5,77.5C 132.309,76.3189 132.309,74.9856 131.5,73.5C 131.747,72.2867 132.414,71.62 133.5,71.5C 134.833,73.8333 136.167,76.1667 137.5,78.5C 133.635,80.0249 130.302,82.3583 127.5,85.5C 127.5,85.1667 127.5,84.8333 127.5,84.5C 126.518,78.8953 124.185,73.8953 120.5,69.5C 120.435,69.0618 120.601,68.7284 121,68.5C 122.353,69.6853 123.52,71.0186 124.5,72.5C 125.518,71.8075 126.518,71.1408 127.5,70.5 Z"/></g>
<g><path style="opacity: .7;" fill="#975851" d="M 133.5,71.5 C 136.687,73.3438 138.687,76.0105 139.5,79.5C 139.167,79.5 138.833,79.5 138.5,79.5C 138.5,78.8333 138.167,78.5 137.5,78.5C 136.167,76.1667 134.833,73.8333 133.5,71.5 Z"/></g>
<g><path style="opacity:1" fill="#77261f" d="M 113.5,60.5 C 116.075,63.319 118.408,66.319 120.5,69.5C 124.185,73.8953 126.518,78.8953 127.5,84.5C 124.192,79.2903 120.858,74.6236 117.5,70.5C 116.609,69.8902 115.609,69.5569 114.5,69.5C 115.091,68.8485 115.757,68.1818 116.5,67.5C 114.748,65.7541 113.415,63.7541 112.5,61.5C 113.167,61.5 113.5,61.1667 113.5,60.5 Z"/></g>
<g><path style="opacity:1" fill="#9d2f29" d="M 32.5,72.5 C 32.8333,72.5 33.1667,72.5 33.5,72.5C 34.5498,75.0204 33.5498,76.3538 30.5,76.5C 30.4606,75.4168 30.1272,74.4168 29.5,73.5C 30.325,72.6143 31.325,72.281 32.5,72.5 Z"/></g>
<g><path style="opacity:1" fill="#b5352b" d="M 80.5,60.5 C 79.8902,61.391 79.5569,62.391 79.5,63.5C 77.3082,67.0981 76.3082,71.0981 76.5,75.5C 75.8354,77.3691 75.1687,79.3691 74.5,81.5C 73.2638,82.2458 71.9305,82.5792 70.5,82.5C 70.7845,84.4147 70.4511,86.0813 69.5,87.5C 67.0061,80.7821 67.0061,74.1154 69.5,67.5C 70.4614,69.2646 70.7947,71.2646 70.5,73.5C 72.3904,73.7035 73.8904,73.0368 75,71.5C 75.0971,68.5177 75.9304,65.8511 77.5,63.5C 78.072,62.0267 78.9054,60.6934 80,59.5C 80.3988,59.7284 80.5654,60.0618 80.5,60.5 Z"/></g>
<g><path style="opacity:1" fill="#b02d26" d="M 109.5,74.5 C 108.679,77.6414 108.179,80.9748 108,84.5C 107.392,86.0664 106.558,87.3998 105.5,88.5C 104.74,85.0401 103.24,84.7068 101,87.5C 100.833,87.1667 100.667,86.8333 100.5,86.5C 99.9817,81.8306 99.9817,76.8306 100.5,71.5C 103.5,71.5 106.5,71.5 109.5,71.5C 109.5,72.5 109.5,73.5 109.5,74.5 Z"/></g>
<g><path style="opacity:1" fill="#bd4135" d="M 114.5,69.5 C 115.609,69.5569 116.609,69.8902 117.5,70.5C 117.678,71.6948 118.011,72.8615 118.5,74C 117.685,75.6434 116.685,77.1434 115.5,78.5C 113.259,77.7002 112.259,76.0336 112.5,73.5C 113.674,72.4863 114.34,71.153 114.5,69.5 Z"/></g>
<g><path style="opacity: .7;" fill="#7c4c48" d="M 19.5,70.5 C 17.8333,72.8333 15.8333,74.8333 13.5,76.5C 13.5,76.1667 13.5,75.8333 13.5,75.5C 14.9108,73.086 16.9108,71.4194 19.5,70.5 Z"/></g>
<g><path style="opacity:1" fill="#71241e" d="M 24.5,69.5 C 24.8333,69.5 25.1667,69.5 25.5,69.5C 26.9213,72.0094 28.5879,74.3428 30.5,76.5C 31.571,80.9764 33.9043,84.6431 37.5,87.5C 38.7515,89.0009 39.7515,90.6675 40.5,92.5C 40.5,93.1667 40.5,93.8333 40.5,94.5C 37.6952,92.2078 35.3619,89.5411 33.5,86.5C 29.6884,81.2077 26.6884,75.541 24.5,69.5 Z"/></g>
<g><path style="opacity:1" fill="#4d2820" d="M 126.5,64.5 C 128.597,67.0527 130.93,69.386 133.5,71.5C 132.414,71.62 131.747,72.2867 131.5,73.5C 132.309,74.9856 132.309,76.3189 131.5,77.5C 130.157,75.0956 128.823,72.7623 127.5,70.5C 127.483,68.4352 127.15,66.4352 126.5,64.5 Z"/></g>
<g><path style="opacity:1" fill="#a3332b" d="M 19.5,70.5 C 20.8333,70.5 22.1667,70.5 23.5,70.5C 22.1391,72.8358 20.1391,74.5025 17.5,75.5C 19.0453,76.4519 20.712,76.7852 22.5,76.5C 22.5,77.5 22.5,78.5 22.5,79.5C 21.788,78.2613 20.788,77.7613 19.5,78C 21.4178,80.1088 21.7512,82.2754 20.5,84.5C 17.4275,82.4309 15.0941,79.7642 13.5,76.5C 15.8333,74.8333 17.8333,72.8333 19.5,70.5 Z"/></g>
<g><path style="opacity:1" fill="#652622" d="M 63.5,68.5 C 63.2834,73.2303 63.6167,77.8969 64.5,82.5C 64.5,85.5 64.5,88.5 64.5,91.5C 62.2776,91.822 60.4443,91.1554 59,89.5C 55.0069,82.4212 54.5069,75.0878 57.5,67.5C 59.8063,66.2291 61.8063,66.5624 63.5,68.5 Z"/></g>
<g><path style="opacity:1" fill="#b2302a" d="M 80.5,64.5 C 81.4959,64.4142 82.3292,64.7476 83,65.5C 83.5046,67.5183 84.0046,69.5183 84.5,71.5C 85.7385,84.4319 83.0718,96.4319 76.5,107.5C 76.5,108.167 76.1667,108.5 75.5,108.5C 73.9519,108.179 73.2852,107.179 73.5,105.5C 72.5,105.5 71.5,105.5 70.5,105.5C 70.6766,103.019 69.6766,101.186 67.5,100C 67.7284,99.6012 68.0618,99.4346 68.5,99.5C 70.9726,99.9118 72.3059,98.9118 72.5,96.5C 73.1174,96.3893 73.6174,96.056 74,95.5C 74.9428,92.176 75.7761,88.8426 76.5,85.5C 77.4345,84.4324 77.7678,83.099 77.5,81.5C 76.9947,75.5143 77.9947,69.8476 80.5,64.5 Z"/></g>
<g><path style="opacity:1" fill="#b63029" d="M 24.5,69.5 C 26.6884,75.541 29.6884,81.2077 33.5,86.5C 32.8783,87.6266 32.045,88.6266 31,89.5C 29.0982,88.7937 27.2648,87.7937 25.5,86.5C 24.242,84.3131 23.242,81.9798 22.5,79.5C 22.5,78.5 22.5,77.5 22.5,76.5C 20.712,76.7852 19.0453,76.4519 17.5,75.5C 20.1391,74.5025 22.1391,72.8358 23.5,70.5C 23.5,69.8333 23.8333,69.5 24.5,69.5 Z"/></g>
<g><path style="opacity:1" fill="#bc3e33" d="M 36.5,74.5 C 38.7409,75.2998 39.7409,76.9664 39.5,79.5C 38.3249,80.9738 37.3249,82.6404 36.5,84.5C 32.5144,81.1303 32.5144,77.7969 36.5,74.5 Z"/></g>
<g><path style="opacity:1" fill="#53241e" d="M 42.5,69.5 C 42.5,72.1667 42.5,74.8333 42.5,77.5C 41.596,78.209 41.2627,79.209 41.5,80.5C 44.9619,81.4816 48.6286,81.815 52.5,81.5C 52.185,77.6286 52.5184,73.9619 53.5,70.5C 53.5,75.1667 53.5,79.8333 53.5,84.5C 51.9582,83.6993 50.2915,83.366 48.5,83.5C 46.0521,82.5269 43.3854,82.1936 40.5,82.5C 40.7373,81.209 40.404,80.209 39.5,79.5C 39.7409,76.9664 38.7409,75.2998 36.5,74.5C 37.8908,72.1097 39.8908,70.4431 42.5,69.5 Z"/></g>
<g><path style="opacity:1" fill="#5e251f" d="M 83.5,94.5 C 82.5017,98.6582 81.0017,102.658 79,106.5C 78.3292,107.252 77.4959,107.586 76.5,107.5C 83.0718,96.4319 85.7385,84.4319 84.5,71.5C 85.4691,73.663 86.3024,75.9963 87,78.5C 87.7382,74.2903 87.5715,70.1236 86.5,66C 86.6135,64.7202 87.2801,63.8869 88.5,63.5C 90.0589,64.0736 91.5589,64.7402 93,65.5C 96.9026,73.5826 96.0692,81.0826 90.5,88C 88.8876,88.7203 87.3876,88.5536 86,87.5C 85.1529,89.8543 84.3195,92.1877 83.5,94.5 Z"/></g>
<g><path style="opacity:1" fill="#522620" d="M 107.5,66.5 C 108.467,67.8062 109.801,68.4729 111.5,68.5C 111.216,70.4147 111.549,72.0813 112.5,73.5C 112.259,76.0336 113.259,77.7002 115.5,78.5C 115.5,78.8333 115.5,79.1667 115.5,79.5C 114.045,81.1343 112.378,82.4676 110.5,83.5C 110.167,83.5 109.833,83.5 109.5,83.5C 109.5,80.5 109.5,77.5 109.5,74.5C 110.451,73.0813 110.784,71.4147 110.5,69.5C 107.15,69.335 103.817,69.5017 100.5,70C 99.9108,73.7041 98.9108,77.2041 97.5,80.5C 97.4672,76.1311 97.8005,71.7978 98.5,67.5C 101.927,69.1768 104.927,68.8435 107.5,66.5 Z"/></g>
<g><path style="opacity:1" fill="#97302a" d="M 119.5,81.5 C 118.833,81.1667 118.167,80.8333 117.5,80.5C 119.095,75.2506 120.761,75.2506 122.5,80.5C 121.675,81.3857 120.675,81.719 119.5,81.5 Z"/></g>
<g><path style="opacity:1" fill="#6e2d28" d="M 137.5,78.5 C 138.167,78.5 138.5,78.8333 138.5,79.5C 135.365,82.9006 131.698,85.5673 127.5,87.5C 127.5,86.8333 127.5,86.1667 127.5,85.5C 130.302,82.3583 133.635,80.0249 137.5,78.5 Z"/></g>
<g><path style="opacity:1" fill="#a12e25" d="M 109.5,74.5 C 109.5,73.5 109.5,72.5 109.5,71.5C 106.5,71.5 103.5,71.5 100.5,71.5C 99.9817,76.8306 99.9817,81.8306 100.5,86.5C 100.667,86.8333 100.833,87.1667 101,87.5C 103.24,84.7068 104.74,85.0401 105.5,88.5C 104.442,89.6002 103.608,90.9336 103,92.5C 102.086,91.3463 101.253,91.513 100.5,93C 101.609,94.813 100.942,95.6463 98.5,95.5C 98.6738,90.9786 98.0071,90.6452 96.5,94.5C 94.1959,96.668 91.5292,97.5014 88.5,97C 89.2524,96.3292 89.5858,95.4959 89.5,94.5C 91.433,92.0626 93.5997,89.7293 96,87.5C 97.2022,85.3225 97.7022,82.9892 97.5,80.5C 98.9108,77.2041 99.9108,73.7041 100.5,70C 103.817,69.5017 107.15,69.335 110.5,69.5C 110.784,71.4147 110.451,73.0813 109.5,74.5 Z"/></g>
<g><path style="opacity:1" fill="#1a130f" d="M 115.5,79.5 C 116.167,79.8333 116.833,80.1667 117.5,80.5C 118.167,80.8333 118.833,81.1667 119.5,81.5C 117.669,85.154 115.336,88.4873 112.5,91.5C 112.167,91.5 111.833,91.5 111.5,91.5C 110.957,91.44 110.624,91.1067 110.5,90.5C 112.85,87.9408 112.85,85.6074 110.5,83.5C 112.378,82.4676 114.045,81.1343 115.5,79.5 Z"/></g>
<g><path style="opacity:1" fill="#3a201a" d="M 127.5,84.5 C 127.5,84.8333 127.5,85.1667 127.5,85.5C 127.5,86.1667 127.5,86.8333 127.5,87.5C 124.974,84.9368 123.307,85.6034 122.5,89.5C 118.872,88.3821 116.205,89.7154 114.5,93.5C 113.818,92.7573 113.151,92.0906 112.5,91.5C 115.336,88.4873 117.669,85.154 119.5,81.5C 120.675,81.719 121.675,81.3857 122.5,80.5C 120.761,75.2506 119.095,75.2506 117.5,80.5C 116.833,80.1667 116.167,79.8333 115.5,79.5C 115.5,79.1667 115.5,78.8333 115.5,78.5C 116.685,77.1434 117.685,75.6434 118.5,74C 118.011,72.8615 117.678,71.6948 117.5,70.5C 120.858,74.6236 124.192,79.2903 127.5,84.5 Z"/></g>
<g><path style="opacity:1" fill="#8f2f28" d="M 76.5,75.5 C 76.2053,77.7354 76.5386,79.7354 77.5,81.5C 77.7678,83.099 77.4345,84.4324 76.5,85.5C 76.631,84.7611 76.4643,84.0944 76,83.5C 75.2652,85.8713 74.4318,88.2046 73.5,90.5C 73.0431,91.2975 72.3764,91.6309 71.5,91.5C 70.6554,90.3285 69.9887,88.9952 69.5,87.5C 70.4511,86.0813 70.7845,84.4147 70.5,82.5C 71.9305,82.5792 73.2638,82.2458 74.5,81.5C 75.1687,79.3691 75.8354,77.3691 76.5,75.5 Z"/></g>
<g><path style="opacity:1" fill="#412620" d="M 22.5,79.5 C 23.242,81.9798 24.242,84.3131 25.5,86.5C 26.7298,88.2972 27.3964,90.2972 27.5,92.5C 25.1956,89.8587 22.8623,87.192 20.5,84.5C 21.7512,82.2754 21.4178,80.1088 19.5,78C 20.788,77.7613 21.788,78.2613 22.5,79.5 Z"/></g>
<g><path style="opacity:1" fill="#3e1f1a" d="M 33.5,72.5 C 34.7777,72.7822 35.7777,73.4489 36.5,74.5C 32.5144,77.7969 32.5144,81.1303 36.5,84.5C 37.3249,82.6404 38.3249,80.9738 39.5,79.5C 40.404,80.209 40.7373,81.209 40.5,82.5C 43.3854,82.1936 46.0521,82.5269 48.5,83.5C 47.0222,83.238 45.6888,83.5713 44.5,84.5C 45.3367,87.507 46.6701,90.1737 48.5,92.5C 49.7787,95.1117 51.4453,97.4451 53.5,99.5C 48.5746,97.7431 45.0746,94.4098 43,89.5C 42.0862,90.6537 41.2529,90.487 40.5,89C 41.6719,87.1316 41.5053,85.2983 40,83.5C 38.5187,84.4709 37.6854,85.8042 37.5,87.5C 33.9043,84.6431 31.571,80.9764 30.5,76.5C 33.5498,76.3538 34.5498,75.0204 33.5,72.5 Z"/></g>
<g><path style="opacity:1" fill="#2b1914" d="M 109.5,83.5 C 109.833,83.5 110.167,83.5 110.5,83.5C 112.85,85.6074 112.85,87.9408 110.5,90.5C 110.624,91.1067 110.957,91.44 111.5,91.5C 110.41,92.8571 109.076,93.8571 107.5,94.5C 104.991,95.9213 102.657,97.5879 100.5,99.5C 99.8333,99.5 99.5,99.1667 99.5,98.5C 105.079,95.0115 108.412,90.0115 109.5,83.5 Z"/></g>
<g><path style="opacity:1" fill="#4c241d" d="M 76.5,85.5 C 75.7761,88.8426 74.9428,92.176 74,95.5C 73.6174,96.056 73.1174,96.3893 72.5,96.5C 72.5394,95.4168 72.8728,94.4168 73.5,93.5C 72.7573,92.8182 72.0906,92.1515 71.5,91.5C 72.3764,91.6309 73.0431,91.2975 73.5,90.5C 74.4318,88.2046 75.2652,85.8713 76,83.5C 76.4643,84.0944 76.631,84.7611 76.5,85.5 Z"/></g>
<g><path style="opacity:1" fill="#af3329" d="M 48.5,83.5 C 50.2915,83.366 51.9582,83.6993 53.5,84.5C 55.8,89.7981 59.4666,93.7981 64.5,96.5C 64.8333,97.5 65.5,98.1667 66.5,98.5C 65.7494,99.5735 64.7494,99.7401 63.5,99C 60.3081,96.3076 56.9748,93.8076 53.5,91.5C 51.9291,92.3094 50.2624,92.6427 48.5,92.5C 46.6701,90.1737 45.3367,87.507 44.5,84.5C 45.6888,83.5713 47.0222,83.238 48.5,83.5 Z"/></g>
<g><path style="opacity:1" fill="#361c17" d="M 63.5,55.5 C 62.2651,58.9583 60.2651,61.9583 57.5,64.5C 58,64.8333 58.5,65.1667 59,65.5C 60.3002,64.2927 61.8002,63.6261 63.5,63.5C 63.5,65.1667 63.5,66.8333 63.5,68.5C 61.8063,66.5624 59.8063,66.2291 57.5,67.5C 54.5069,75.0878 55.0069,82.4212 59,89.5C 60.4443,91.1554 62.2776,91.822 64.5,91.5C 64.5,88.5 64.5,85.5 64.5,82.5C 67.3606,86.2486 67.0273,89.7486 63.5,93C 65.727,93.704 66.0603,94.8706 64.5,96.5C 59.4666,93.7981 55.8,89.7981 53.5,84.5C 53.5,79.8333 53.5,75.1667 53.5,70.5C 54.6417,66.8832 56.3084,63.5498 58.5,60.5C 59.9387,58.6397 61.6053,56.973 63.5,55.5 Z"/></g>
<g><path style="opacity:1" fill="#882920" d="M 109.5,74.5 C 109.5,77.5 109.5,80.5 109.5,83.5C 108.412,90.0115 105.079,95.0115 99.5,98.5C 97.9991,99.7515 96.3325,100.752 94.5,101.5C 93.8423,100.602 93.1757,99.6016 92.5,98.5C 90.5202,99.3833 88.5202,99.2166 86.5,98C 87.056,97.6174 87.3893,97.1174 87.5,96.5C 87.8333,95.5 88.5,94.8333 89.5,94.5C 89.5858,95.4959 89.2524,96.3292 88.5,97C 91.5292,97.5014 94.1959,96.668 96.5,94.5C 98.0071,90.6452 98.6738,90.9786 98.5,95.5C 100.942,95.6463 101.609,94.813 100.5,93C 101.253,91.513 102.086,91.3463 103,92.5C 103.608,90.9336 104.442,89.6002 105.5,88.5C 106.558,87.3998 107.392,86.0664 108,84.5C 108.179,80.9748 108.679,77.6414 109.5,74.5 Z"/></g>
<g><path style="opacity:1" fill="#48231e" d="M 40.5,92.5 C 43.6227,94.3819 46.2894,96.7152 48.5,99.5C 47.8333,99.5 47.1667,99.5 46.5,99.5C 44.5,97.8333 42.5,96.1667 40.5,94.5C 40.5,93.8333 40.5,93.1667 40.5,92.5 Z"/></g>
<g><path style="opacity: .7;" fill="#8d8a89" d="M 13.5,75.5 C 13.5,75.8333 13.5,76.1667 13.5,76.5C 15.0941,79.7642 17.4275,82.4309 20.5,84.5C 22.8623,87.192 25.1956,89.8587 27.5,92.5C 28.4602,94.4607 29.7935,96.1274 31.5,97.5C 33.5,101.5 36.5,104.5 40.5,106.5C 44.6243,110.281 49.2909,113.281 54.5,115.5C 56.5351,117.195 58.8684,118.528 61.5,119.5C 61.6107,120.117 61.944,120.617 62.5,121C 60.7525,121.352 59.0858,121.852 57.5,122.5C 51.7203,118.254 45.7203,114.088 39.5,110C 33.8652,105.371 29.3652,99.8713 26,93.5C 21.3663,89.8679 17.033,85.8679 13,81.5C 12.2109,79.2884 12.3775,77.2884 13.5,75.5 Z"/></g>
<g><path style="opacity:1" fill="#533a34" d="M 31.5,97.5 C 34.1667,99.8333 36.8333,102.167 39.5,104.5C 39.8333,105.167 40.1667,105.833 40.5,106.5C 36.5,104.5 33.5,101.5 31.5,97.5 Z"/></g>
<g><path style="opacity:1" fill="#66251c" d="M 87.5,96.5 C 87.3893,97.1174 87.056,97.6174 86.5,98C 88.5202,99.2166 90.5202,99.3833 92.5,98.5C 93.1757,99.6016 93.8423,100.602 94.5,101.5C 93.7387,102.391 92.7387,103.058 91.5,103.5C 91.3309,102.603 90.9976,101.603 90.5,100.5C 87.536,101.808 85.2026,103.808 83.5,106.5C 82.6236,106.631 81.9569,106.298 81.5,105.5C 82.7919,103.333 83.6253,101 84,98.5C 84.8159,97.1772 85.9826,96.5106 87.5,96.5 Z"/></g>
<g><path style="opacity:1" fill="#6a302b" d="M 122.5,89.5 C 117.529,96.8008 111.196,102.801 103.5,107.5C 103.189,106.522 102.522,105.855 101.5,105.5C 100.549,106.326 99.549,106.492 98.5,106C 99.6526,104.117 101.319,103.284 103.5,103.5C 103.162,99.8493 104.828,98.1826 108.5,98.5C 108.33,97.1779 108.663,96.0113 109.5,95C 108.906,94.5357 108.239,94.369 107.5,94.5C 109.076,93.8571 110.41,92.8571 111.5,91.5C 111.833,91.5 112.167,91.5 112.5,91.5C 113.151,92.0906 113.818,92.7573 114.5,93.5C 116.205,89.7154 118.872,88.3821 122.5,89.5 Z"/></g>
<g><path style="opacity:1" fill="#772f29" d="M 46.5,99.5 C 47.1667,99.5 47.8333,99.5 48.5,99.5C 50.7726,100.767 52.7726,102.433 54.5,104.5C 51.2957,103.617 48.6291,101.95 46.5,99.5 Z"/></g>
<g><path style="opacity:1" fill="#872d26" d="M 107.5,94.5 C 108.239,94.369 108.906,94.5357 109.5,95C 108.663,96.0113 108.33,97.1779 108.5,98.5C 104.828,98.1826 103.162,99.8493 103.5,103.5C 101.319,103.284 99.6526,104.117 98.5,106C 99.549,106.492 100.549,106.326 101.5,105.5C 102.522,105.855 103.189,106.522 103.5,107.5C 102.71,108.401 101.71,109.068 100.5,109.5C 100.631,108.624 100.298,107.957 99.5,107.5C 98.2322,108.428 96.8989,108.595 95.5,108C 97.036,104.964 99.3693,102.797 102.5,101.5C 102.043,100.702 101.376,100.369 100.5,100.5C 100.5,100.167 100.5,99.8333 100.5,99.5C 102.657,97.5879 104.991,95.9213 107.5,94.5 Z"/></g>
<g><path style="opacity:1" fill="#ab342d" d="M 25.5,86.5 C 27.2648,87.7937 29.0982,88.7937 31,89.5C 32.045,88.6266 32.8783,87.6266 33.5,86.5C 35.3619,89.5411 37.6952,92.2078 40.5,94.5C 42.5,96.1667 44.5,97.8333 46.5,99.5C 48.6291,101.95 51.2957,103.617 54.5,104.5C 56.8333,106.5 59.1667,108.5 61.5,110.5C 58.2819,110.651 57.9485,111.484 60.5,113C 58.1874,114.518 55.854,114.684 53.5,113.5C 51.9062,112.017 50.2395,110.517 48.5,109C 50.4054,108.174 50.7388,107.007 49.5,105.5C 48.0325,104.305 46.5325,104.305 45,105.5C 43.779,104.728 42.779,103.728 42,102.5C 41.5831,103.756 40.7498,104.423 39.5,104.5C 36.8333,102.167 34.1667,99.8333 31.5,97.5C 29.7935,96.1274 28.4602,94.4607 27.5,92.5C 27.3964,90.2972 26.7298,88.2972 25.5,86.5 Z"/></g>
<g><path style="opacity:1" fill="#4a1e17" d="M 99.5,98.5 C 99.5,99.1667 99.8333,99.5 100.5,99.5C 100.5,99.8333 100.5,100.167 100.5,100.5C 97.6612,102.42 94.6612,104.087 91.5,105.5C 91.0831,104.876 90.4164,104.543 89.5,104.5C 87.484,105.178 85.484,105.844 83.5,106.5C 85.2026,103.808 87.536,101.808 90.5,100.5C 90.9976,101.603 91.3309,102.603 91.5,103.5C 92.7387,103.058 93.7387,102.391 94.5,101.5C 96.3325,100.752 97.9991,99.7515 99.5,98.5 Z"/></g>
<g><path style="opacity:1" fill="#9f3930" d="M 53.5,113.5 C 53.8333,114.167 54.1667,114.833 54.5,115.5C 49.2909,113.281 44.6243,110.281 40.5,106.5C 40.1667,105.833 39.8333,105.167 39.5,104.5C 40.7498,104.423 41.5831,103.756 42,102.5C 42.779,103.728 43.779,104.728 45,105.5C 46.5325,104.305 48.0325,104.305 49.5,105.5C 50.7388,107.007 50.4054,108.174 48.5,109C 50.2395,110.517 51.9062,112.017 53.5,113.5 Z"/></g>
<g><path style="opacity: .7;" fill="#8c8784" d="M 138.5,79.5 C 138.833,79.5 139.167,79.5 139.5,79.5C 139.762,80.9778 139.429,82.3112 138.5,83.5C 135.01,86.4113 131.344,89.078 127.5,91.5C 126.742,90.1886 125.742,89.6886 124.5,90C 117.464,100.772 108.464,109.439 97.5,116C 98.056,116.383 98.3893,116.883 98.5,117.5C 97.391,117.443 96.391,117.11 95.5,116.5C 94.3915,115.71 93.0581,115.21 91.5,115C 94.0254,114.576 96.0254,113.41 97.5,111.5C 98.2905,110.599 99.2905,109.932 100.5,109.5C 101.71,109.068 102.71,108.401 103.5,107.5C 111.196,102.801 117.529,96.8008 122.5,89.5C 123.307,85.6034 124.974,84.9368 127.5,87.5C 131.698,85.5673 135.365,82.9006 138.5,79.5 Z"/></g>
<g><path style="opacity:1" fill="#893029" d="M 54.5,104.5 C 55.8734,104.343 57.2068,104.51 58.5,105C 61.7667,107.13 65.1,108.963 68.5,110.5C 66.1667,111.833 63.8333,111.833 61.5,110.5C 59.1667,108.5 56.8333,106.5 54.5,104.5 Z"/></g>
<g><path style="opacity:1" fill="#2b1a14" d="M 53.5,99.5 C 59.2031,104.269 65.7031,107.602 73,109.5C 74.0698,109.472 74.9032,109.139 75.5,108.5C 76.1667,108.5 76.5,108.167 76.5,107.5C 77.4959,107.586 78.3292,107.252 79,106.5C 81.0017,102.658 82.5017,98.6582 83.5,94.5C 84.7942,93.7101 85.9609,92.7101 87,91.5C 88.417,92.0779 89.2504,93.0779 89.5,94.5C 88.5,94.8333 87.8333,95.5 87.5,96.5C 85.9826,96.5106 84.8159,97.1772 84,98.5C 83.6253,101 82.7919,103.333 81.5,105.5C 81.9569,106.298 82.6236,106.631 83.5,106.5C 85.484,105.844 87.484,105.178 89.5,104.5C 90.4164,104.543 91.0831,104.876 91.5,105.5C 87.1373,108.07 82.4707,110.07 77.5,111.5C 81.7303,112.974 86.0637,113.974 90.5,114.5C 90.5,115.167 90.5,115.833 90.5,116.5C 82.9203,115.349 75.587,113.349 68.5,110.5C 65.1,108.963 61.7667,107.13 58.5,105C 57.2068,104.51 55.8734,104.343 54.5,104.5C 52.7726,102.433 50.7726,100.767 48.5,99.5C 46.2894,96.7152 43.6227,94.3819 40.5,92.5C 39.7515,90.6675 38.7515,89.0009 37.5,87.5C 37.6854,85.8042 38.5187,84.4709 40,83.5C 41.5053,85.2983 41.6719,87.1316 40.5,89C 41.2529,90.487 42.0862,90.6537 43,89.5C 45.0746,94.4098 48.5746,97.7431 53.5,99.5 Z"/></g>
<g><path style="opacity:1" fill="#972f27" d="M 66.5,98.5 C 67.4916,98.3284 68.1583,98.6618 68.5,99.5C 68.0618,99.4346 67.7284,99.6012 67.5,100C 69.6766,101.186 70.6766,103.019 70.5,105.5C 71.5,105.5 72.5,105.5 73.5,105.5C 73.2852,107.179 73.9519,108.179 75.5,108.5C 74.9032,109.139 74.0698,109.472 73,109.5C 65.7031,107.602 59.2031,104.269 53.5,99.5C 51.4453,97.4451 49.7787,95.1117 48.5,92.5C 50.2624,92.6427 51.9291,92.3094 53.5,91.5C 56.9748,93.8076 60.3081,96.3076 63.5,99C 64.7494,99.7401 65.7494,99.5735 66.5,98.5 Z"/></g>
<g><path style="opacity:1" fill="#a22f26" d="M 100.5,100.5 C 101.376,100.369 102.043,100.702 102.5,101.5C 99.3693,102.797 97.036,104.964 95.5,108C 96.8989,108.595 98.2322,108.428 99.5,107.5C 100.298,107.957 100.631,108.624 100.5,109.5C 99.2905,109.932 98.2905,110.599 97.5,111.5C 94.8427,111.935 92.5093,112.935 90.5,114.5C 86.0637,113.974 81.7303,112.974 77.5,111.5C 82.4707,110.07 87.1373,108.07 91.5,105.5C 94.6612,104.087 97.6612,102.42 100.5,100.5 Z"/></g>
<g><path style="opacity:1" fill="#91312b" d="M 68.5,110.5 C 75.587,113.349 82.9203,115.349 90.5,116.5C 92.1667,116.5 93.8333,116.5 95.5,116.5C 96.391,117.11 97.391,117.443 98.5,117.5C 99.1667,117.5 99.5,117.833 99.5,118.5C 88.8631,119.86 78.8631,118.026 69.5,113C 68.7476,112.329 68.4142,111.496 68.5,110.5 Z"/></g>
<g><path style="opacity:1" fill="#b6362f" d="M 61.5,110.5 C 63.8333,111.833 66.1667,111.833 68.5,110.5C 68.4142,111.496 68.7476,112.329 69.5,113C 78.8631,118.026 88.8631,119.86 99.5,118.5C 99.5,119.167 99.8333,119.5 100.5,119.5C 98.2034,122.378 96.8701,125.711 96.5,129.5C 96.5,129.833 96.5,130.167 96.5,130.5C 91.0616,130.012 85.7282,129.012 80.5,127.5C 77.6202,127.06 74.9535,126.06 72.5,124.5C 69.0211,122.597 65.3544,120.93 61.5,119.5C 58.8684,118.528 56.5351,117.195 54.5,115.5C 54.1667,114.833 53.8333,114.167 53.5,113.5C 55.854,114.684 58.1874,114.518 60.5,113C 57.9485,111.484 58.2819,110.651 61.5,110.5 Z"/></g>
<g><path style="opacity:1" fill="#57423c" d="M 97.5,111.5 C 96.0254,113.41 94.0254,114.576 91.5,115C 93.0581,115.21 94.3915,115.71 95.5,116.5C 93.8333,116.5 92.1667,116.5 90.5,116.5C 90.5,115.833 90.5,115.167 90.5,114.5C 92.5093,112.935 94.8427,111.935 97.5,111.5 Z"/></g>
<g><path style="opacity:1" fill="#42221c" d="M 61.5,119.5 C 65.3544,120.93 69.0211,122.597 72.5,124.5C 69.6606,126.671 66.3272,128.004 62.5,128.5C 65.0756,129.883 64.7423,130.717 61.5,131C 61.8333,131.333 62.1667,131.667 62.5,132C 61.244,132.417 60.5774,133.25 60.5,134.5C 58.552,132.211 56.552,129.878 54.5,127.5C 57.5449,125.402 60.8782,123.902 64.5,123C 61.4929,122.699 58.4929,122.865 55.5,123.5C 55.8417,122.662 56.5084,122.328 57.5,122.5C 59.0858,121.852 60.7525,121.352 62.5,121C 61.944,120.617 61.6107,120.117 61.5,119.5 Z"/></g>
<g><path style="opacity:1" fill="#86342d" d="M 100.5,119.5 C 101.573,120.251 101.74,121.251 101,122.5C 99.4758,124.898 97.9758,127.231 96.5,129.5C 96.8701,125.711 98.2034,122.378 100.5,119.5 Z"/></g>
<g><path style="opacity:1" fill="#a3332b" d="M 60.5,134.5 C 62.648,137.37 65.3147,138.037 68.5,136.5C 68.5858,137.496 68.2524,138.329 67.5,139C 69.7135,139.626 71.8801,139.459 74,138.5C 76.0911,140.437 77.9244,142.437 79.5,144.5C 78.2233,145.898 76.5566,146.564 74.5,146.5C 63.0168,143.019 55.0168,135.685 50.5,124.5C 51.791,124.737 52.791,124.404 53.5,123.5C 54.1667,123.5 54.8333,123.5 55.5,123.5C 58.4929,122.865 61.4929,122.699 64.5,123C 60.8782,123.902 57.5449,125.402 54.5,127.5C 56.552,129.878 58.552,132.211 60.5,134.5 Z"/></g>
<g><path style="opacity: .7;" fill="#8f8784" d="M 99.5,118.5 C 100.5,118.5 101.5,118.5 102.5,118.5C 102.703,123.725 101.203,128.392 98,132.5C 92.0963,139.074 85.5963,144.908 78.5,150C 69.8867,149.778 62.72,146.278 57,139.5C 54.6667,136.5 52.3333,133.5 50,130.5C 49.5034,128.19 49.3367,125.857 49.5,123.5C 50.8333,123.5 52.1667,123.5 53.5,123.5C 52.791,124.404 51.791,124.737 50.5,124.5C 55.0168,135.685 63.0168,143.019 74.5,146.5C 76.5566,146.564 78.2233,145.898 79.5,144.5C 82.1117,143.221 84.4451,141.555 86.5,139.5C 89.2427,137.761 91.2427,135.427 92.5,132.5C 93.9952,132.011 95.3285,131.345 96.5,130.5C 96.5,130.167 96.5,129.833 96.5,129.5C 97.9758,127.231 99.4758,124.898 101,122.5C 101.74,121.251 101.573,120.251 100.5,119.5C 99.8333,119.5 99.5,119.167 99.5,118.5 Z"/></g>
<g><path style="opacity:1" fill="#c13c31" d="M 86.5,139.5 C 84.4451,141.555 82.1117,143.221 79.5,144.5C 77.9244,142.437 76.0911,140.437 74,138.5C 71.8801,139.459 69.7135,139.626 67.5,139C 68.2524,138.329 68.5858,137.496 68.5,136.5C 73.1825,136.493 77.1825,134.826 80.5,131.5C 81.5896,132.391 81.5896,133.391 80.5,134.5C 81.9122,135.806 83.5789,136.64 85.5,137C 86.2524,137.671 86.5858,138.504 86.5,139.5 Z"/></g>
<g><path style="opacity:1" fill="#9f3129" d="M 79.5,129.5 C 84.0028,129.867 88.3361,130.867 92.5,132.5C 91.2427,135.427 89.2427,137.761 86.5,139.5C 86.5858,138.504 86.2524,137.671 85.5,137C 83.5789,136.64 81.9122,135.806 80.5,134.5C 81.5896,133.391 81.5896,132.391 80.5,131.5C 77.1825,134.826 73.1825,136.493 68.5,136.5C 72.2996,134.43 75.9662,132.097 79.5,129.5 Z"/></g>
<g><path style="opacity:1" fill="#2a1a16" d="M 72.5,124.5 C 74.9535,126.06 77.6202,127.06 80.5,127.5C 80.1667,128.167 79.8333,128.833 79.5,129.5C 75.9662,132.097 72.2996,134.43 68.5,136.5C 65.3147,138.037 62.648,137.37 60.5,134.5C 60.5774,133.25 61.244,132.417 62.5,132C 62.1667,131.667 61.8333,131.333 61.5,131C 64.7423,130.717 65.0756,129.883 62.5,128.5C 66.3272,128.004 69.6606,126.671 72.5,124.5 Z"/></g>
<g><path style="opacity:1" fill="#712a21" d="M 80.5,127.5 C 85.7282,129.012 91.0616,130.012 96.5,130.5C 95.3285,131.345 93.9952,132.011 92.5,132.5C 88.3361,130.867 84.0028,129.867 79.5,129.5C 79.8333,128.833 80.1667,128.167 80.5,127.5 Z"/></g>
</svg>