<svg xmlns="http://www.w3.org/2000/svg" xmlns:xlink="http://www.w3.org/1999/xlink" version="1.1" width="154px" height="154px" style="shape-rendering:geometricPrecision;text-rendering:geometricPrecision;image-rendering:optimizeQuality;fill-rule:evenodd;clip-rule:evenodd;background: gree;">
<g/>
<g/>
<g><path style="opacity: .7;" fill="#9d7572" d="M 90.5,16.5 C 90.1667,16.5 89.8333,16.5 89.5,16.5C 78.3252,15.3596 66.9919,15.3596 55.5,16.5C 62.0969,14.9699 68.9303,14.3032 76,14.5C 81.2157,14.5063 86.049,15.1729 90.5,16.5 Z"/></g>
<g><path style="opacity:1" fill="#965045" d="M 89.5,16.5 C 81.3159,16.1743 73.3159,16.5076 65.5,17.5C 62.9407,17.1984 60.6074,17.5318 58.5,18.5C 57.391,18.5569 56.391,18.8902 55.5,19.5C 53.326,19.9202 51.326,19.9202 49.5,19.5C 51.8839,18.9892 53.8839,17.9892 55.5,16.5C 66.9919,15.3596 78.3252,15.3596 89.5,16.5 Z"/></g>
<g><path style="opacity:1" fill="#d17460" d="M 65.5,17.5 C 73.3159,16.5076 81.3159,16.1743 89.5,16.5C 89.5,17.1667 89.5,17.8333 89.5,18.5C 81.5417,17.5973 73.5417,17.264 65.5,17.5 Z"/></g>
<g><path style="opacity:1" fill="#7b4a42" d="M 89.5,16.5 C 89.8333,16.5 90.1667,16.5 90.5,16.5C 95.1667,17.1667 99.8333,17.8333 104.5,18.5C 104.5,18.8333 104.5,19.1667 104.5,19.5C 99.9937,18.6888 95.6604,18.6888 91.5,19.5C 90.8333,19.1667 90.1667,18.8333 89.5,18.5C 89.5,17.8333 89.5,17.1667 89.5,16.5 Z"/></g>
<g><path style="opacity:1" fill="#bfb4b2" d="M 104.5,19.5 C 104.5,19.1667 104.5,18.8333 104.5,18.5C 108.162,18.7234 111.495,19.7234 114.5,21.5C 111.123,21.0405 107.789,20.3739 104.5,19.5 Z"/></g>
<g><path style="opacity: .7;" fill="#804542" d="M 39.5,19.5 C 37.4855,20.9238 35.1522,21.5905 32.5,21.5C 34.5145,20.0762 36.8478,19.4095 39.5,19.5 Z"/></g>
<g><path style="opacity:1" fill="#b8a7a5" d="M 114.5,21.5 C 117.716,21.3455 120.383,22.3455 122.5,24.5C 122.167,24.5 121.833,24.5 121.5,24.5C 121.167,24.5 120.833,24.5 120.5,24.5C 118.5,23.5 116.5,22.5 114.5,21.5 Z"/></g>
<g><path style="opacity:1" fill="#c24a46" d="M 120.5,24.5 C 120.833,24.5 121.167,24.5 121.5,24.5C 122.091,25.1515 122.757,25.8182 123.5,26.5C 120.886,26.9889 118.22,26.6555 115.5,25.5C 112.702,24.1309 109.702,23.1309 106.5,22.5C 104.436,22.313 102.436,21.813 100.5,21C 101.5,20.8333 102.5,20.6667 103.5,20.5C 109.145,21.9947 114.811,23.3281 120.5,24.5 Z"/></g>
<g><path style="opacity:1" fill="#62332e" d="M 55.5,16.5 C 53.8839,17.9892 51.8839,18.9892 49.5,19.5C 51.326,19.9202 53.326,19.9202 55.5,19.5C 55.6309,20.3764 55.2975,21.0431 54.5,21.5C 52.6984,22.9856 50.6984,23.9856 48.5,24.5C 47.7929,27.7861 47.4595,31.1194 47.5,34.5C 50.3338,33.4966 53.1671,32.4966 56,31.5C 57.1667,31.6667 58.3333,31.8333 59.5,32C 57.3474,32.0995 55.6808,32.9328 54.5,34.5C 47.0331,37.5776 44.1998,35.2442 46,27.5C 48.147,24.9556 48.647,22.289 47.5,19.5C 45.0483,19.0139 42.3817,19.0139 39.5,19.5C 39.9175,18.7784 40.5842,18.2784 41.5,18C 46.184,17.565 50.8507,17.065 55.5,16.5 Z"/></g>
<g><path style="opacity:1" fill="#ab332e" d="M 42.5,24.5 C 42.5,24.8333 42.5,25.1667 42.5,25.5C 38.1625,24.7963 34.6625,26.1297 32,29.5C 30.5603,30.1476 29.0603,30.4809 27.5,30.5C 27.6602,32.1992 27.4935,33.8659 27,35.5C 25.872,33.6547 25.372,31.6547 25.5,29.5C 30.2743,26.5103 35.4409,24.177 41,22.5C 42.0299,22.8361 42.5299,23.5028 42.5,24.5 Z"/></g>
<g><path style="opacity:1" fill="#c74940" d="M 47.5,19.5 C 47.1667,20.5 46.5,21.1667 45.5,21.5C 44.7281,22.6935 43.7281,23.6935 42.5,24.5C 42.5299,23.5028 42.0299,22.8361 41,22.5C 35.4409,24.177 30.2743,26.5103 25.5,29.5C 25.6716,28.5084 25.3382,27.8417 24.5,27.5C 26.4173,24.5372 29.084,22.5372 32.5,21.5C 35.1522,21.5905 37.4855,20.9238 39.5,19.5C 42.3817,19.0139 45.0483,19.0139 47.5,19.5 Z"/></g>
<g><path style="opacity:1" fill="#823530" d="M 93.5,19.5 C 97.3366,20.8396 98.8366,23.5063 98,27.5C 93.8781,28.1361 90.7114,30.1361 88.5,33.5C 87.9569,33.44 87.6236,33.1067 87.5,32.5C 89.1022,29.7631 89.9355,26.7631 90,23.5C 92.0714,22.8971 93.2381,21.5638 93.5,19.5 Z"/></g>
<g><path style="opacity:1" fill="#9f312c" d="M 106.5,22.5 C 109.702,23.1309 112.702,24.1309 115.5,25.5C 113.712,25.2148 112.045,25.5481 110.5,26.5C 113.515,30.4273 115.181,34.7606 115.5,39.5C 114.368,40.3543 113.035,40.3543 111.5,39.5C 108.063,35.2256 103.73,34.2256 98.5,36.5C 97.1667,36.1667 95.8333,35.8333 94.5,35.5C 96.9686,34.6829 99.6353,34.1829 102.5,34C 100.059,33.964 98.0588,33.1307 96.5,31.5C 97.3914,30.4104 98.3914,30.4104 99.5,31.5C 100.902,31.1345 101.902,30.3012 102.5,29C 101.767,27.2341 101.433,25.4008 101.5,23.5C 102.93,23.4208 104.264,23.7542 105.5,24.5C 106.298,24.0431 106.631,23.3764 106.5,22.5 Z"/></g>
<g><path style="opacity:1" fill="#74322c" d="M 45.5,21.5 C 44.4172,25.0845 43.7506,28.7512 43.5,32.5C 42.8333,35.5 42.1667,38.5 41.5,41.5C 41.3921,36.1301 41.7255,30.7968 42.5,25.5C 42.5,25.1667 42.5,24.8333 42.5,24.5C 43.7281,23.6935 44.7281,22.6935 45.5,21.5 Z"/></g>
<g><path style="opacity:1" fill="#893430" d="M 58.5,18.5 C 66.0652,17.6505 73.0652,19.1505 79.5,23C 78.6667,23.1667 77.8333,23.3333 77,23.5C 74.1729,23.3271 71.3395,23.3271 68.5,23.5C 69.6405,24.4255 69.6405,25.2588 68.5,26C 69.6667,26.5 70.5,27.3333 71,28.5C 72.0113,27.6634 73.1779,27.33 74.5,27.5C 74.5,28.5 74.5,29.5 74.5,30.5C 71.2123,30.927 68.2123,30.2603 65.5,28.5C 64.4937,28.9377 64.4937,29.6043 65.5,30.5C 67.7427,31.4742 70.076,31.8076 72.5,31.5C 66.5895,32.259 60.5895,33.259 54.5,34.5C 55.6808,32.9328 57.3474,32.0995 59.5,32C 58.3333,31.8333 57.1667,31.6667 56,31.5C 53.1671,32.4966 50.3338,33.4966 47.5,34.5C 47.4595,31.1194 47.7929,27.7861 48.5,24.5C 50.6984,23.9856 52.6984,22.9856 54.5,21.5C 55.2975,21.0431 55.6309,20.3764 55.5,19.5C 56.391,18.8902 57.391,18.5569 58.5,18.5 Z"/></g>
<g><path style="opacity:1" fill="#993430" d="M 58.5,18.5 C 60.6074,17.5318 62.9407,17.1984 65.5,17.5C 73.5417,17.264 81.5417,17.5973 89.5,18.5C 87.9528,24.4485 86.6195,30.4485 85.5,36.5C 84.71,37.6085 84.21,38.9419 84,40.5C 82.4157,39.1387 80.5824,38.472 78.5,38.5C 78.8016,35.9407 78.4682,33.6074 77.5,31.5C 75.8333,31.5 74.1667,31.5 72.5,31.5C 70.076,31.8076 67.7427,31.4742 65.5,30.5C 64.4937,29.6043 64.4937,28.9377 65.5,28.5C 68.2123,30.2603 71.2123,30.927 74.5,30.5C 74.5,29.5 74.5,28.5 74.5,27.5C 73.1779,27.33 72.0113,27.6634 71,28.5C 70.5,27.3333 69.6667,26.5 68.5,26C 69.6405,25.2588 69.6405,24.4255 68.5,23.5C 71.3395,23.3271 74.1729,23.3271 77,23.5C 77.8333,23.3333 78.6667,23.1667 79.5,23C 73.0652,19.1505 66.0652,17.6505 58.5,18.5 Z"/></g>
<g><path style="opacity:1" fill="#933530" d="M 91.5,19.5 C 95.6604,18.6888 99.9937,18.6888 104.5,19.5C 107.789,20.3739 111.123,21.0405 114.5,21.5C 116.5,22.5 118.5,23.5 120.5,24.5C 114.811,23.3281 109.145,21.9947 103.5,20.5C 102.5,20.6667 101.5,20.8333 100.5,21C 102.436,21.813 104.436,22.313 106.5,22.5C 106.631,23.3764 106.298,24.0431 105.5,24.5C 104.264,23.7542 102.93,23.4208 101.5,23.5C 101.433,25.4008 101.767,27.2341 102.5,29C 101.902,30.3012 100.902,31.1345 99.5,31.5C 98.3914,30.4104 97.3914,30.4104 96.5,31.5C 98.0588,33.1307 100.059,33.964 102.5,34C 99.6353,34.1829 96.9686,34.6829 94.5,35.5C 92.1016,35.7406 90.1016,35.0739 88.5,33.5C 90.7114,30.1361 93.8781,28.1361 98,27.5C 98.8366,23.5063 97.3366,20.8396 93.5,19.5C 92.8333,19.5 92.1667,19.5 91.5,19.5 Z"/></g>
<g><path style="opacity:1" fill="#2b1a15" d="M 47.5,19.5 C 48.647,22.289 48.147,24.9556 46,27.5C 44.1998,35.2442 47.0331,37.5776 54.5,34.5C 60.5895,33.259 66.5895,32.259 72.5,31.5C 74.1667,31.5 75.8333,31.5 77.5,31.5C 77.8064,34.3854 77.4731,37.0521 76.5,39.5C 74.5168,38.5294 72.5168,37.5294 70.5,36.5C 68.7857,35.2616 66.7857,34.595 64.5,34.5C 64.7264,38.2924 65.5597,41.9591 67,45.5C 67.3826,46.056 67.8826,46.3893 68.5,46.5C 69.391,47.1098 70.391,47.4431 71.5,47.5C 73.5086,49.5428 75.5086,51.5428 77.5,53.5C 78.1667,54.5 78.8333,55.5 79.5,56.5C 79.8417,57.3382 80.5084,57.6716 81.5,57.5C 81.5,58.1667 81.5,58.8333 81.5,59.5C 80.8333,59.5 80.1667,59.5 79.5,59.5C 78.4884,58.1283 77.4884,56.795 76.5,55.5C 75.8333,54.1667 74.8333,53.1667 73.5,52.5C 69.8574,47.8641 68.1908,48.5308 68.5,54.5C 69.1667,56.5 69.8333,58.5 70.5,60.5C 69.5,60.5 68.5,60.5 67.5,60.5C 67.7373,59.209 67.404,58.209 66.5,57.5C 65.8083,50.0422 64.475,42.7088 62.5,35.5C 56.2949,35.2925 50.4615,36.6258 45,39.5C 44.5004,46.1583 44.3337,52.825 44.5,59.5C 43.5067,50.6822 43.1734,41.6822 43.5,32.5C 43.7506,28.7512 44.4172,25.0845 45.5,21.5C 46.5,21.1667 47.1667,20.5 47.5,19.5 Z"/></g>
<g><path style="opacity:1" fill="#88342e" d="M 121.5,24.5 C 121.833,24.5 122.167,24.5 122.5,24.5C 124.17,24.7512 125.67,25.4178 127,26.5C 126.799,29.7772 126.632,33.1105 126.5,36.5C 125.732,37.2625 125.232,38.2625 125,39.5C 124.808,37.4233 124.308,35.4233 123.5,33.5C 122.201,32.91 121.368,31.91 121,30.5C 120.505,32.4727 120.338,34.4727 120.5,36.5C 118.336,36.7215 116.67,37.7215 115.5,39.5C 115.181,34.7606 113.515,30.4273 110.5,26.5C 112.045,25.5481 113.712,25.2148 115.5,25.5C 118.22,26.6555 120.886,26.9889 123.5,26.5C 122.757,25.8182 122.091,25.1515 121.5,24.5 Z"/></g>
<g><path style="opacity:1" fill="#80342f" d="M 111.5,39.5 C 106.923,39.0749 102.59,38.0749 98.5,36.5C 103.73,34.2256 108.063,35.2256 111.5,39.5 Z"/></g>
<g><path style="opacity:1" fill="#bd3d33" d="M 86.5,37.5 C 93.0059,37.5289 99.3392,38.5289 105.5,40.5C 105.662,42.5273 105.495,44.5273 105,46.5C 104.517,45.552 104.351,44.552 104.5,43.5C 100.767,43.87 97.1007,44.5367 93.5,45.5C 92.8333,45.5 92.1667,45.5 91.5,45.5C 90.71,46.6085 90.21,47.9419 90,49.5C 88.8345,45.3164 90.3345,42.4831 94.5,41C 92.567,40.7489 90.7337,40.2489 89,39.5C 87.5391,40.8825 86.7058,40.5492 86.5,38.5C 86.5,38.1667 86.5,37.8333 86.5,37.5 Z"/></g>
<g><path style="opacity:1" fill="#793530" d="M 126.5,36.5 C 126.5,37.8333 126.5,39.1667 126.5,40.5C 125.662,40.8417 125.328,41.5084 125.5,42.5C 124.651,44.8876 123.651,47.2209 122.5,49.5C 120.024,44.6833 116.358,41.35 111.5,39.5C 113.035,40.3543 114.368,40.3543 115.5,39.5C 116.67,37.7215 118.336,36.7215 120.5,36.5C 120.338,34.4727 120.505,32.4727 121,30.5C 121.368,31.91 122.201,32.91 123.5,33.5C 124.308,35.4233 124.808,37.4233 125,39.5C 125.232,38.2625 125.732,37.2625 126.5,36.5 Z"/></g>
<g><path style="opacity:1" fill="#973733" d="M 42.5,25.5 C 41.7255,30.7968 41.3921,36.1301 41.5,41.5C 40.6862,43.631 40.1862,45.9644 40,48.5C 39.7815,41.406 39.6149,34.406 39.5,27.5C 38.0222,27.238 36.6888,27.5713 35.5,28.5C 33.2392,31.6633 31.5726,35.1633 30.5,39C 30.8333,39.3333 31.1667,39.6667 31.5,40C 30.94,43.1234 29.94,46.1234 28.5,49C 28.7591,50.2613 29.4258,51.2613 30.5,52C 29.2881,53.1068 29.6214,53.6068 31.5,53.5C 31.2648,54.0967 30.7648,54.4301 30,54.5C 28.6974,54.0217 27.5307,53.355 26.5,52.5C 25.8333,44.1667 25.1667,35.8333 24.5,27.5C 25.3382,27.8417 25.6716,28.5084 25.5,29.5C 25.372,31.6547 25.872,33.6547 27,35.5C 27.4935,33.8659 27.6602,32.1992 27.5,30.5C 29.0603,30.4809 30.5603,30.1476 32,29.5C 34.6625,26.1297 38.1625,24.7963 42.5,25.5 Z"/></g>
<g><path style="opacity:1" fill="#782e29" d="M 70.5,36.5 C 68.6995,37.7188 67.6995,39.5521 67.5,42C 68.1476,43.4397 68.4809,44.9397 68.5,46.5C 67.8826,46.3893 67.3826,46.056 67,45.5C 65.5597,41.9591 64.7264,38.2924 64.5,34.5C 66.7857,34.595 68.7857,35.2616 70.5,36.5 Z"/></g>
<g><path style="opacity:1" fill="#bc312c" d="M 70.5,36.5 C 72.5168,37.5294 74.5168,38.5294 76.5,39.5C 76.8333,40.1667 77.1667,40.8333 77.5,41.5C 76.1221,43.663 74.9554,45.9964 74,48.5C 73.3292,47.7476 72.4959,47.4142 71.5,47.5C 70.391,47.4431 69.391,47.1098 68.5,46.5C 68.4809,44.9397 68.1476,43.4397 67.5,42C 67.6995,39.5521 68.6995,37.7188 70.5,36.5 Z"/></g>
<g><path style="opacity:1" fill="#a8342d" d="M 86.5,38.5 C 86.7058,40.5492 87.5391,40.8825 89,39.5C 90.7337,40.2489 92.567,40.7489 94.5,41C 90.3345,42.4831 88.8345,45.3164 90,49.5C 90.21,47.9419 90.71,46.6085 91.5,45.5C 90.1739,51.4739 88.8406,57.4739 87.5,63.5C 86.8386,62.2825 86.1719,60.9492 85.5,59.5C 84.5745,58.3595 83.7412,58.3595 83,59.5C 82.5357,58.9056 82.369,58.2389 82.5,57.5C 82.8815,50.8478 84.2148,44.5145 86.5,38.5 Z"/></g>
<g><path style="opacity:1" fill="#a7332e" d="M 77.5,41.5 C 79.8218,42.8021 81.1551,44.8021 81.5,47.5C 80.1667,49.5 78.8333,51.5 77.5,53.5C 75.5086,51.5428 73.5086,49.5428 71.5,47.5C 72.4959,47.4142 73.3292,47.7476 74,48.5C 74.9554,45.9964 76.1221,43.663 77.5,41.5 Z"/></g>
<g><path style="opacity:1" fill="#9e312a" d="M 105.5,40.5 C 106.217,44.9889 106.217,49.6556 105.5,54.5C 105.167,54.5 104.833,54.5 104.5,54.5C 104.663,52.1432 104.497,49.8098 104,47.5C 103.094,54.7173 101.594,61.7173 99.5,68.5C 96.1401,68.3841 92.8067,68.0508 89.5,67.5C 89.5,64.8333 89.5,62.1667 89.5,59.5C 91.5,59.5 93.5,59.5 95.5,59.5C 96.3382,59.1583 96.6716,58.4916 96.5,57.5C 97.4025,54.0032 98.0691,50.3366 98.5,46.5C 97.1667,46.5 95.8333,46.5 94.5,46.5C 94.1667,46.5 93.8333,46.5 93.5,46.5C 93.5,46.1667 93.5,45.8333 93.5,45.5C 97.1007,44.5367 100.767,43.87 104.5,43.5C 104.351,44.552 104.517,45.552 105,46.5C 105.495,44.5273 105.662,42.5273 105.5,40.5 Z"/></g>
<g><path style="opacity:1" fill="#562e29" d="M 116.5,47.5 C 114.584,45.8843 113.084,46.2177 112,48.5C 111.085,47.6721 110.419,46.6721 110,45.5C 109.501,49.1516 109.335,52.8183 109.5,56.5C 109.167,58.5 108.833,60.5 108.5,62.5C 107.833,64.8333 107.167,67.1667 106.5,69.5C 107.076,60.815 107.909,52.1483 109,43.5C 110.77,42.7236 112.603,42.8903 114.5,44C 115.823,44.8159 116.489,45.9826 116.5,47.5 Z"/></g>
<g><path style="opacity:1" fill="#8d3935" d="M 41.5,41.5 C 41.5,45.8333 41.5,50.1667 41.5,54.5C 41.3243,59.8797 41.6576,65.213 42.5,70.5C 41.8333,69.8333 41.1667,69.1667 40.5,68.5C 39.4479,66.744 37.7812,66.0773 35.5,66.5C 35.6658,61.8215 35.4992,57.1548 35,52.5C 34.6924,51.6919 34.1924,51.0253 33.5,50.5C 32.2888,51.2739 32.2888,52.1072 33.5,53C 32.9056,53.4643 32.2389,53.631 31.5,53.5C 29.6214,53.6068 29.2881,53.1068 30.5,52C 29.4258,51.2613 28.7591,50.2613 28.5,49C 29.94,46.1234 30.94,43.1234 31.5,40C 31.1667,39.6667 30.8333,39.3333 30.5,39C 31.5726,35.1633 33.2392,31.6633 35.5,28.5C 36.6888,27.5713 38.0222,27.238 39.5,27.5C 39.6149,34.406 39.7815,41.406 40,48.5C 40.1862,45.9644 40.6862,43.631 41.5,41.5 Z"/></g>
<g><path style="opacity:1" fill="#ab322b" d="M 66.5,57.5 C 66.5,58.1667 66.5,58.8333 66.5,59.5C 64.538,54.4582 63.2047,49.1249 62.5,43.5C 61.325,43.281 60.325,43.6143 59.5,44.5C 60.7243,47.1313 61.391,49.9646 61.5,53C 61.3333,55.5 61.1667,58 61,60.5C 57.017,62.1032 52.8504,62.7698 48.5,62.5C 48.3601,64.1238 49.0267,65.2904 50.5,66C 54.0252,66.1787 57.3586,66.6787 60.5,67.5C 56.03,68.4861 51.3633,68.8195 46.5,68.5C 45.8333,68.5 45.5,68.1667 45.5,67.5C 45.8064,64.6146 45.4731,61.9479 44.5,59.5C 44.3337,52.825 44.5004,46.1583 45,39.5C 50.4615,36.6258 56.2949,35.2925 62.5,35.5C 64.475,42.7088 65.8083,50.0422 66.5,57.5 Z"/></g>
<g><path style="opacity:1" fill="#52221d" d="M 54.5,43.5 C 55.5,43.5 56.5,43.5 57.5,43.5C 57.5,45.1667 57.5,46.8333 57.5,48.5C 57.5,51.8333 57.5,55.1667 57.5,58.5C 55.8333,58.5 54.1667,58.5 52.5,58.5C 51.9735,53.193 52.6402,48.193 54.5,43.5 Z"/></g>
<g><path style="opacity:1" fill="#4d2723" d="M 77.5,31.5 C 78.4682,33.6074 78.8016,35.9407 78.5,38.5C 80.5824,38.472 82.4157,39.1387 84,40.5C 84.21,38.9419 84.71,37.6085 85.5,36.5C 85.5,37.1667 85.8333,37.5 86.5,37.5C 86.5,37.8333 86.5,38.1667 86.5,38.5C 84.2148,44.5145 82.8815,50.8478 82.5,57.5C 82.1667,57.5 81.8333,57.5 81.5,57.5C 80.5084,57.6716 79.8417,57.3382 79.5,56.5C 81.1181,53.8291 81.7847,50.8291 81.5,47.5C 81.1551,44.8021 79.8218,42.8021 77.5,41.5C 77.1667,40.8333 76.8333,40.1667 76.5,39.5C 77.4731,37.0521 77.8064,34.3854 77.5,31.5 Z"/></g>
<g><path style="opacity:1" fill="#2a1a15" d="M 53.5,45.5 C 54.1174,45.6107 54.6174,45.944 55,46.5C 55.2695,49.2241 55.7695,51.8908 56.5,54.5C 56.0814,55.6721 55.4147,56.6721 54.5,57.5C 53.5091,53.5546 53.1758,49.5546 53.5,45.5 Z"/></g>
<g><path style="opacity:1" fill="#76302c" d="M 116.5,47.5 C 118.063,48.9448 119.396,50.6115 120.5,52.5C 120.5,55.5 120.5,58.5 120.5,61.5C 118.771,60.8825 117.271,59.8825 116,58.5C 115.39,55.9784 114.057,53.9784 112,52.5C 111.392,54.0664 110.558,55.3998 109.5,56.5C 109.335,52.8183 109.501,49.1516 110,45.5C 110.419,46.6721 111.085,47.6721 112,48.5C 113.084,46.2177 114.584,45.8843 116.5,47.5 Z"/></g>
<g><path style="opacity: .7;" fill="#63443f" d="M 32.5,21.5 C 29.084,22.5372 26.4173,24.5372 24.5,27.5C 25.1667,35.8333 25.8333,44.1667 26.5,52.5C 27.2653,55.0961 27.5987,57.7628 27.5,60.5C 27.5,62.5 27.5,64.5 27.5,66.5C 26.8333,66.5 26.5,66.1667 26.5,65.5C 26.6382,60.5859 25.9715,55.9192 24.5,51.5C 23.5359,42.156 23.5359,32.8227 24.5,23.5C 27.0205,22.2147 29.6872,21.5481 32.5,21.5 Z"/></g>
<g><path style="opacity:1" fill="#2c1b16" d="M 93.5,46.5 C 93.8333,46.5 94.1667,46.5 94.5,46.5C 95.2625,47.2679 96.2625,47.7679 97.5,48C 96.2118,51.1858 95.8784,54.3525 96.5,57.5C 96.6716,58.4916 96.3382,59.1583 95.5,59.5C 94.4324,58.5655 93.099,58.2322 91.5,58.5C 91.7167,54.2949 92.3833,50.2949 93.5,46.5 Z"/></g>
<g><path style="opacity:1" fill="#5a251d" d="M 94.5,46.5 C 95.8333,46.5 97.1667,46.5 98.5,46.5C 98.0691,50.3366 97.4025,54.0032 96.5,57.5C 95.8784,54.3525 96.2118,51.1858 97.5,48C 96.2625,47.7679 95.2625,47.2679 94.5,46.5 Z"/></g>
<g><path style="opacity:1" fill="#78342f" d="M 81.5,47.5 C 81.7847,50.8291 81.1181,53.8291 79.5,56.5C 78.8333,55.5 78.1667,54.5 77.5,53.5C 78.8333,51.5 80.1667,49.5 81.5,47.5 Z"/></g>
<g><path style="opacity:1" fill="#b02e27" d="M 104.5,54.5 C 103.833,59.5 103.167,64.5 102.5,69.5C 102.167,69.5 101.833,69.5 101.5,69.5C 97.0293,70.0894 93.0293,69.4228 89.5,67.5C 92.8067,68.0508 96.1401,68.3841 99.5,68.5C 101.594,61.7173 103.094,54.7173 104,47.5C 104.497,49.8098 104.663,52.1432 104.5,54.5 Z"/></g>
<g><path style="opacity:1" fill="#5b3b36" d="M 125.5,42.5 C 124.979,48.1898 124.312,53.8565 123.5,59.5C 122.251,62.0873 121.251,64.754 120.5,67.5C 120.5,65.5 120.5,63.5 120.5,61.5C 120.5,58.5 120.5,55.5 120.5,52.5C 121.268,53.2625 121.768,54.2625 122,55.5C 122.495,53.5273 122.662,51.5273 122.5,49.5C 123.651,47.2209 124.651,44.8876 125.5,42.5 Z"/></g>
<g><path style="opacity:1" fill="#4d2722" d="M 43.5,32.5 C 43.1734,41.6822 43.5067,50.6822 44.5,59.5C 45.4731,61.9479 45.8064,64.6146 45.5,67.5C 44.8333,67.5 44.5,67.8333 44.5,68.5C 43.3375,63.8626 42.3375,59.1959 41.5,54.5C 41.5,50.1667 41.5,45.8333 41.5,41.5C 42.1667,38.5 42.8333,35.5 43.5,32.5 Z"/></g>
<g><path style="opacity:1" fill="#922e28" d="M 73.5,52.5 C 72.6236,52.3691 71.9569,52.7025 71.5,53.5C 72.3928,56.0841 72.7261,58.7508 72.5,61.5C 71.6981,60.0484 71.1981,58.3817 71,56.5C 70.2917,55.6195 69.4584,54.9528 68.5,54.5C 68.1908,48.5308 69.8574,47.8641 73.5,52.5 Z"/></g>
<g><path style="opacity:1" fill="#be3531" d="M 73.5,52.5 C 74.8333,53.1667 75.8333,54.1667 76.5,55.5C 75.8951,58.1267 75.3951,60.7934 75,63.5C 74.2917,62.6195 73.4584,61.9528 72.5,61.5C 72.7261,58.7508 72.3928,56.0841 71.5,53.5C 71.9569,52.7025 72.6236,52.3691 73.5,52.5 Z"/></g>
<g><path style="opacity:1" fill="#5f241d" d="M 91.5,45.5 C 92.1667,45.5 92.8333,45.5 93.5,45.5C 93.5,45.8333 93.5,46.1667 93.5,46.5C 92.3833,50.2949 91.7167,54.2949 91.5,58.5C 93.099,58.2322 94.4324,58.5655 95.5,59.5C 93.5,59.5 91.5,59.5 89.5,59.5C 89.5,62.1667 89.5,64.8333 89.5,67.5C 93.0293,69.4228 97.0293,70.0894 101.5,69.5C 101.666,73.8461 101.499,78.1794 101,82.5C 99.4286,87.3033 97.5952,91.97 95.5,96.5C 94.5,97.1667 93.5,97.8333 92.5,98.5C 95.0943,92.5533 97.5943,86.5533 100,80.5C 100.167,79.1667 100.333,77.8333 100.5,76.5C 100.415,74.6672 99.7479,73.3339 98.5,72.5C 93.5,71.8333 88.5,71.1667 83.5,70.5C 85.1667,70.5 86.8333,70.5 88.5,70.5C 88.7947,68.2646 88.4614,66.2646 87.5,64.5C 87.5,64.1667 87.5,63.8333 87.5,63.5C 88.8406,57.4739 90.1739,51.4739 91.5,45.5 Z"/></g>
<g><path style="opacity: .7;" fill="#cbc9c8" d="M 126.5,40.5 C 126.199,46.5112 125.699,52.5112 125,58.5C 124.617,59.056 124.117,59.3893 123.5,59.5C 124.312,53.8565 124.979,48.1898 125.5,42.5C 125.328,41.5084 125.662,40.8417 126.5,40.5 Z"/></g>
<g><path style="opacity:1" fill="#aeacab" d="M 24.5,51.5 C 25.9715,55.9192 26.6382,60.5859 26.5,65.5C 25.0285,61.0808 24.3618,56.4141 24.5,51.5 Z"/></g>
<g><path style="opacity:1" fill="#852a21" d="M 54.5,43.5 C 52.6402,48.193 51.9735,53.193 52.5,58.5C 54.1667,58.5 55.8333,58.5 57.5,58.5C 57.5,55.1667 57.5,51.8333 57.5,48.5C 58.4816,51.9619 58.815,55.6286 58.5,59.5C 56.4086,59.3184 54.4086,59.6518 52.5,60.5C 51.5046,54.8722 51.1712,49.2055 51.5,43.5C 52.5,43.5 53.5,43.5 54.5,43.5 Z"/></g>
<g><path style="opacity:1" fill="#612c26" d="M 68.5,54.5 C 69.4584,54.9528 70.2917,55.6195 71,56.5C 71.1981,58.3817 71.6981,60.0484 72.5,61.5C 73.4584,61.9528 74.2917,62.6195 75,63.5C 75.3951,60.7934 75.8951,58.1267 76.5,55.5C 77.4884,56.795 78.4884,58.1283 79.5,59.5C 78.6715,60.3324 77.8382,59.999 77,58.5C 76.1048,61.4663 76.6048,64.1329 78.5,66.5C 78.0302,67.463 77.3635,67.463 76.5,66.5C 72.6002,67.4299 68.6002,67.7633 64.5,67.5C 67.3583,66.834 70.3583,66.1674 73.5,65.5C 72.675,64.6143 71.675,64.281 70.5,64.5C 69.5,63.1667 68.5,61.8333 67.5,60.5C 68.5,60.5 69.5,60.5 70.5,60.5C 69.8333,58.5 69.1667,56.5 68.5,54.5 Z"/></g>
<g><path style="opacity:1" fill="#9e322d" d="M 66.5,59.5 C 63.4571,62.2447 59.7904,63.9113 55.5,64.5C 60.5511,65.7786 65.5511,65.7786 70.5,64.5C 71.675,64.281 72.675,64.6143 73.5,65.5C 70.3583,66.1674 67.3583,66.834 64.5,67.5C 63.1667,67.5 61.8333,67.5 60.5,67.5C 57.3586,66.6787 54.0252,66.1787 50.5,66C 49.0267,65.2904 48.3601,64.1238 48.5,62.5C 52.8504,62.7698 57.017,62.1032 61,60.5C 61.1667,58 61.3333,55.5 61.5,53C 61.391,49.9646 60.7243,47.1313 59.5,44.5C 60.325,43.6143 61.325,43.281 62.5,43.5C 63.2047,49.1249 64.538,54.4582 66.5,59.5 Z"/></g>
<g><path style="opacity:1" fill="#803431" d="M 66.5,57.5 C 67.404,58.209 67.7373,59.209 67.5,60.5C 68.5,61.8333 69.5,63.1667 70.5,64.5C 65.5511,65.7786 60.5511,65.7786 55.5,64.5C 59.7904,63.9113 63.4571,62.2447 66.5,59.5C 66.5,58.8333 66.5,58.1667 66.5,57.5 Z"/></g>
<g><path style="opacity:1" fill="#87332e" d="M 81.5,57.5 C 81.8333,57.5 82.1667,57.5 82.5,57.5C 82.369,58.2389 82.5357,58.9056 83,59.5C 83.7412,58.3595 84.5745,58.3595 85.5,59.5C 86.1719,60.9492 86.8386,62.2825 87.5,63.5C 87.5,63.8333 87.5,64.1667 87.5,64.5C 87.1847,68.8004 84.8514,70.467 80.5,69.5C 80.2529,66.0613 80.5863,62.728 81.5,59.5C 81.5,58.8333 81.5,58.1667 81.5,57.5 Z"/></g>
<g><path style="opacity:1" fill="#2d1e1a" d="M 89.5,18.5 C 90.1667,18.8333 90.8333,19.1667 91.5,19.5C 92.1667,19.5 92.8333,19.5 93.5,19.5C 93.2381,21.5638 92.0714,22.8971 90,23.5C 89.9355,26.7631 89.1022,29.7631 87.5,32.5C 87.6236,33.1067 87.9569,33.44 88.5,33.5C 90.1016,35.0739 92.1016,35.7406 94.5,35.5C 95.8333,35.8333 97.1667,36.1667 98.5,36.5C 102.59,38.0749 106.923,39.0749 111.5,39.5C 116.358,41.35 120.024,44.6833 122.5,49.5C 122.662,51.5273 122.495,53.5273 122,55.5C 121.768,54.2625 121.268,53.2625 120.5,52.5C 119.396,50.6115 118.063,48.9448 116.5,47.5C 116.489,45.9826 115.823,44.8159 114.5,44C 112.603,42.8903 110.77,42.7236 109,43.5C 107.909,52.1483 107.076,60.815 106.5,69.5C 104.705,74.2185 103.538,79.2185 103,84.5C 100.859,89.2542 98.5252,93.9209 96,98.5C 95.5357,97.9056 95.369,97.2389 95.5,96.5C 97.5952,91.97 99.4286,87.3033 101,82.5C 101.499,78.1794 101.666,73.8461 101.5,69.5C 101.833,69.5 102.167,69.5 102.5,69.5C 103.117,69.3893 103.617,69.056 104,68.5C 105.122,63.8984 105.622,59.2318 105.5,54.5C 106.217,49.6556 106.217,44.9889 105.5,40.5C 99.3392,38.5289 93.0059,37.5289 86.5,37.5C 85.8333,37.5 85.5,37.1667 85.5,36.5C 86.6195,30.4485 87.9528,24.4485 89.5,18.5 Z"/></g>
<g><path style="opacity:1" fill="#2d1b18" d="M 76.5,66.5 C 76.5774,67.7498 77.244,68.5831 78.5,69C 76.8659,69.4935 75.1992,69.6602 73.5,69.5C 71.1667,69.5 68.8333,69.5 66.5,69.5C 65.8333,69.8333 65.1667,70.1667 64.5,70.5C 64.1667,70.5 63.8333,70.5 63.5,70.5C 63.0825,69.7784 62.4158,69.2784 61.5,69C 62.7375,68.7679 63.7375,68.2679 64.5,67.5C 68.6002,67.7633 72.6002,67.4299 76.5,66.5 Z"/></g>
<g><path style="opacity:1" fill="#4f2924" d="M 79.5,59.5 C 80.1667,59.5 80.8333,59.5 81.5,59.5C 80.5863,62.728 80.2529,66.0613 80.5,69.5C 84.8514,70.467 87.1847,68.8004 87.5,64.5C 88.4614,66.2646 88.7947,68.2646 88.5,70.5C 86.8333,70.5 85.1667,70.5 83.5,70.5C 80.8333,70.5 78.1667,70.5 75.5,70.5C 74.8333,70.5 74.1667,70.5 73.5,70.5C 73.5,70.1667 73.5,69.8333 73.5,69.5C 75.1992,69.6602 76.8659,69.4935 78.5,69C 77.244,68.5831 76.5774,67.7498 76.5,66.5C 77.3635,67.463 78.0302,67.463 78.5,66.5C 76.6048,64.1329 76.1048,61.4663 77,58.5C 77.8382,59.999 78.6715,60.3324 79.5,59.5 Z"/></g>
<g><path style="opacity:1" fill="#532e28" d="M 104.5,54.5 C 104.833,54.5 105.167,54.5 105.5,54.5C 105.622,59.2318 105.122,63.8984 104,68.5C 103.617,69.056 103.117,69.3893 102.5,69.5C 103.167,64.5 103.833,59.5 104.5,54.5 Z"/></g>
<g><path style="opacity:1" fill="#552520" d="M 60.5,67.5 C 61.8333,67.5 63.1667,67.5 64.5,67.5C 63.7375,68.2679 62.7375,68.7679 61.5,69C 62.4158,69.2784 63.0825,69.7784 63.5,70.5C 62.1667,70.5 60.8333,70.5 59.5,70.5C 55.1667,69.8333 50.8333,69.1667 46.5,68.5C 51.3633,68.8195 56.03,68.4861 60.5,67.5 Z"/></g>
<g><path style="opacity:1" fill="#863430" d="M 120.5,61.5 C 120.5,63.5 120.5,65.5 120.5,67.5C 120.167,70.8333 119.833,74.1667 119.5,77.5C 119.167,77.5 118.833,77.5 118.5,77.5C 117.069,78.7804 116.402,80.4471 116.5,82.5C 112.297,83.2979 109.63,81.6312 108.5,77.5C 108.957,72.5582 108.957,67.5582 108.5,62.5C 108.833,60.5 109.167,58.5 109.5,56.5C 110.558,55.3998 111.392,54.0664 112,52.5C 114.057,53.9784 115.39,55.9784 116,58.5C 117.271,59.8825 118.771,60.8825 120.5,61.5 Z"/></g>
<g><path style="opacity:1" fill="#2a1b16" d="M 45.5,67.5 C 45.5,68.1667 45.8333,68.5 46.5,68.5C 50.8333,69.1667 55.1667,69.8333 59.5,70.5C 55.5752,70.4299 51.9085,71.0966 48.5,72.5C 47.5565,75.6678 47.5565,79.0012 48.5,82.5C 48.6567,83.8734 48.49,85.2068 48,86.5C 46.6476,82.0809 45.481,77.7476 44.5,73.5C 44.5,71.8333 44.5,70.1667 44.5,68.5C 44.5,67.8333 44.8333,67.5 45.5,67.5 Z"/></g>
<g><path style="opacity:1" fill="#802a24" d="M 75.5,72.5 C 79.8333,72.5 84.1667,72.5 88.5,72.5C 88.8333,74.5 89.1667,76.5 89.5,78.5C 86.822,77.3816 84.1553,77.3816 81.5,78.5C 79.3344,78.5704 79.0011,77.9038 80.5,76.5C 79.3112,75.5713 77.9778,75.238 76.5,75.5C 76.5,76.8333 76.5,78.1667 76.5,79.5C 76.1667,79.5 75.8333,79.5 75.5,79.5C 75.5,77.1667 75.5,74.8333 75.5,72.5 Z"/></g>
<g><path style="opacity:1" fill="#8d2922" d="M 59.5,70.5 C 60.8333,70.5 62.1667,70.5 63.5,70.5C 63.8333,70.5 64.1667,70.5 64.5,70.5C 64.5,74.1667 64.5,77.8333 64.5,81.5C 64.1667,81.5 63.8333,81.5 63.5,81.5C 62.2825,80.8386 60.9492,80.1719 59.5,79.5C 60.7602,76.9449 62.0936,74.4449 63.5,72C 58.5444,72.2512 53.5444,72.4178 48.5,72.5C 51.9085,71.0966 55.5752,70.4299 59.5,70.5 Z"/></g>
<g><path style="opacity:1" fill="#8a3d39" d="M 40.5,68.5 C 40.693,72.5662 40.3597,76.5662 39.5,80.5C 38.4929,80.5476 38.1596,79.5476 38.5,77.5C 36.1229,77.2155 33.9562,77.2155 32,77.5C 29.5902,74.0831 30.0902,71.2498 33.5,69C 31.0481,66.3376 29.0481,63.5042 27.5,60.5C 27.5987,57.7628 27.2653,55.0961 26.5,52.5C 27.5307,53.355 28.6974,54.0217 30,54.5C 30.7648,54.4301 31.2648,54.0967 31.5,53.5C 32.2389,53.631 32.9056,53.4643 33.5,53C 32.2888,52.1072 32.2888,51.2739 33.5,50.5C 34.1924,51.0253 34.6924,51.6919 35,52.5C 35.4992,57.1548 35.6658,61.8215 35.5,66.5C 37.7812,66.0773 39.4479,66.744 40.5,68.5 Z"/></g>
<g><path style="opacity:1" fill="#9c3831" d="M 40.5,68.5 C 41.1667,69.1667 41.8333,69.8333 42.5,70.5C 42.8556,75.4313 43.8556,80.098 45.5,84.5C 47.3605,90.554 50.0272,96.2207 53.5,101.5C 53.5912,103.698 52.9245,104.031 51.5,102.5C 49.7505,98.6654 47.7505,94.9988 45.5,91.5C 44.7601,87.0106 42.7601,83.3439 39.5,80.5C 40.3597,76.5662 40.693,72.5662 40.5,68.5 Z"/></g>
<g><path style="opacity:1" fill="#a52f27" d="M 63.5,81.5 C 60.1065,81.4638 58.7732,82.7972 59.5,85.5C 59.5,87.1667 59.5,88.8333 59.5,90.5C 57.9886,87.4557 57.322,84.1224 57.5,80.5C 55.5,79.8333 53.5,79.1667 51.5,78.5C 51.3259,80.861 50.9926,83.1944 50.5,85.5C 49.8333,84.5 49.1667,83.5 48.5,82.5C 47.5565,79.0012 47.5565,75.6678 48.5,72.5C 53.5444,72.4178 58.5444,72.2512 63.5,72C 62.0936,74.4449 60.7602,76.9449 59.5,79.5C 60.9492,80.1719 62.2825,80.8386 63.5,81.5 Z"/></g>
<g><path style="opacity:1" fill="#803f3c" d="M 27.5,60.5 C 29.0481,63.5042 31.0481,66.3376 33.5,69C 30.0902,71.2498 29.5902,74.0831 32,77.5C 33.9562,77.2155 36.1229,77.2155 38.5,77.5C 38.1596,79.5476 38.4929,80.5476 39.5,80.5C 42.7601,83.3439 44.7601,87.0106 45.5,91.5C 44.2921,90.7659 42.9587,90.4326 41.5,90.5C 41.5,89.5 41.5,88.5 41.5,87.5C 40.5,87.5 39.5,87.5 38.5,87.5C 38.1972,93.3472 37.0305,93.6806 35,88.5C 34.6667,88.8333 34.3333,89.1667 34,89.5C 32.5237,85.2751 31.1904,80.9418 30,76.5C 29.6174,75.944 29.1174,75.6107 28.5,75.5C 27.8413,72.5448 27.5079,69.5448 27.5,66.5C 27.5,64.5 27.5,62.5 27.5,60.5 Z"/></g>
<g><path style="opacity:1" fill="#972d24" d="M 75.5,70.5 C 78.1667,70.5 80.8333,70.5 83.5,70.5C 88.5,71.1667 93.5,71.8333 98.5,72.5C 92.7924,72.4924 92.4591,72.9924 97.5,74C 98.1563,79.8876 96.823,85.3876 93.5,90.5C 92.5832,89.8728 91.5832,89.5394 90.5,89.5C 91.1495,87.5648 91.4828,85.5648 91.5,83.5C 91.5,82.5 91.5,81.5 91.5,80.5C 89.8333,80.5 88.1667,80.5 86.5,80.5C 83.3752,79.5206 80.0419,79.1872 76.5,79.5C 76.5,78.1667 76.5,76.8333 76.5,75.5C 77.9778,75.238 79.3112,75.5713 80.5,76.5C 79.0011,77.9038 79.3344,78.5704 81.5,78.5C 84.1553,77.3816 86.822,77.3816 89.5,78.5C 89.1667,76.5 88.8333,74.5 88.5,72.5C 84.1667,72.5 79.8333,72.5 75.5,72.5C 75.5,71.8333 75.5,71.1667 75.5,70.5 Z"/></g>
<g><path style="opacity:1" fill="#6b312b" d="M 41.5,54.5 C 42.3375,59.1959 43.3375,63.8626 44.5,68.5C 44.5,70.1667 44.5,71.8333 44.5,73.5C 44.5524,77.1981 44.8857,80.8648 45.5,84.5C 43.8556,80.098 42.8556,75.4313 42.5,70.5C 41.6576,65.213 41.3243,59.8797 41.5,54.5 Z"/></g>
<g><path style="opacity: .7;" fill="#8b7f7c" d="M 118.5,77.5 C 118.833,77.5 119.167,77.5 119.5,77.5C 119.59,80.1522 118.924,82.4855 117.5,84.5C 117.674,82.139 118.007,79.8056 118.5,77.5 Z"/></g>
<g><path style="opacity:1" fill="#55241d" d="M 66.5,69.5 C 66.6664,78.1731 66.4998,86.8397 66,95.5C 65.2747,97.158 64.108,97.658 62.5,97C 61.2071,94.9481 60.2071,92.7814 59.5,90.5C 59.5,88.8333 59.5,87.1667 59.5,85.5C 60.4926,88.9276 62.3259,91.9276 65,94.5C 65.8136,89.9796 65.647,85.6463 64.5,81.5C 64.5,77.8333 64.5,74.1667 64.5,70.5C 65.1667,70.1667 65.8333,69.8333 66.5,69.5 Z"/></g>
<g><path style="opacity:1" fill="#2d1b17" d="M 86.5,80.5 C 88.1667,80.5 89.8333,80.5 91.5,80.5C 91.5,81.5 91.5,82.5 91.5,83.5C 90.0422,86.4868 87.8755,89.1535 85,91.5C 84.5065,93.1341 84.3398,94.8008 84.5,96.5C 83.5128,91.6946 83.1795,86.6946 83.5,81.5C 81.1667,81.5 78.8333,81.5 76.5,81.5C 79.0452,80.4964 82.3786,80.163 86.5,80.5 Z"/></g>
<g><path style="opacity:1" fill="#562722" d="M 75.5,79.5 C 75.8333,79.5 76.1667,79.5 76.5,79.5C 80.0419,79.1872 83.3752,79.5206 86.5,80.5C 82.3786,80.163 79.0452,80.4964 76.5,81.5C 76.5,81.8333 76.5,82.1667 76.5,82.5C 76.5,92.1667 76.5,101.833 76.5,111.5C 75.609,112.11 74.609,112.443 73.5,112.5C 72.209,112.737 71.209,112.404 70.5,111.5C 71.1667,111.5 71.8333,111.5 72.5,111.5C 73.2679,110.737 73.7679,109.737 74,108.5C 74.7123,102.972 74.5456,97.4723 73.5,92C 74.0084,87.6653 74.6751,83.4986 75.5,79.5 Z"/></g>
<g><path style="opacity:1" fill="#802d24" d="M 76.5,82.5 C 76.5,82.1667 76.5,81.8333 76.5,81.5C 78.8333,81.5 81.1667,81.5 83.5,81.5C 83.1795,86.6946 83.5128,91.6946 84.5,96.5C 84.44,97.0431 84.1067,97.3764 83.5,97.5C 82.8302,95.7086 82.1635,94.0419 81.5,92.5C 78.618,91.0585 78.2847,89.3918 80.5,87.5C 79.3554,86.109 79.3554,84.7757 80.5,83.5C 81.3142,85.7662 81.8142,88.0995 82,90.5C 82.4974,87.854 82.6641,85.1873 82.5,82.5C 81.1667,82.5 79.8333,82.5 78.5,82.5C 77.8333,82.5 77.1667,82.5 76.5,82.5 Z"/></g>
<g><path style="opacity:1" fill="#663e3b" d="M 28.5,75.5 C 29.1174,75.6107 29.6174,75.944 30,76.5C 31.1904,80.9418 32.5237,85.2751 34,89.5C 34.3333,89.1667 34.6667,88.8333 35,88.5C 37.0305,93.6806 38.1972,93.3472 38.5,87.5C 39.5,87.5 40.5,87.5 41.5,87.5C 41.5,88.5 41.5,89.5 41.5,90.5C 42.9587,90.4326 44.2921,90.7659 45.5,91.5C 47.7505,94.9988 49.7505,98.6654 51.5,102.5C 54.1367,105.152 56.47,108.152 58.5,111.5C 61.5091,114.659 64.8424,117.325 68.5,119.5C 69.7489,121.829 69.0823,123.662 66.5,125C 66.7284,125.399 67.0618,125.565 67.5,125.5C 65.7706,126.236 64.7706,127.57 64.5,129.5C 52.569,122.901 42.9023,113.901 35.5,102.5C 35.2041,100.597 34.5375,98.9303 33.5,97.5C 31.5984,90.3409 29.9317,83.0076 28.5,75.5 Z"/></g>
<g><path style="opacity:1" fill="#773733" d="M 108.5,62.5 C 108.957,67.5582 108.957,72.5582 108.5,77.5C 109.63,81.6312 112.297,83.2979 116.5,82.5C 116.402,80.4471 117.069,78.7804 118.5,77.5C 118.007,79.8056 117.674,82.139 117.5,84.5C 117.076,88.0118 116.076,91.3452 114.5,94.5C 113.662,94.8417 113.328,95.5084 113.5,96.5C 112.849,95.9094 112.182,95.2427 111.5,94.5C 107.846,98.1493 103.846,100.316 99.5,101C 96.7443,105.083 94.0776,109.25 91.5,113.5C 90.8165,113.137 90.1499,112.804 89.5,112.5C 91.0331,110.645 92.6997,108.812 94.5,107C 92.9343,106.7 91.601,107.2 90.5,108.5C 94.3384,105.225 97.5051,101.225 100,96.5C 102.017,91.4292 104.183,86.4292 106.5,81.5C 106.002,77.5748 106.002,73.5748 106.5,69.5C 107.167,67.1667 107.833,64.8333 108.5,62.5 Z"/></g>
<g><path style="opacity:1" fill="#a92e25" d="M 98.5,72.5 C 99.7479,73.3339 100.415,74.6672 100.5,76.5C 100.333,77.8333 100.167,79.1667 100,80.5C 97.5943,86.5533 95.0943,92.5533 92.5,98.5C 90.1223,100.878 88.1223,103.545 86.5,106.5C 83.1667,108.167 79.8333,109.833 76.5,111.5C 76.5,101.833 76.5,92.1667 76.5,82.5C 77.1667,82.5 77.8333,82.5 78.5,82.5C 77.3631,91.4221 77.1965,100.422 78,109.5C 78.0929,106.993 78.9262,104.826 80.5,103C 80.0426,102.586 79.7093,102.086 79.5,101.5C 81.2603,98.7877 81.927,95.7877 81.5,92.5C 82.1635,94.0419 82.8302,95.7086 83.5,97.5C 84.1067,97.3764 84.44,97.0431 84.5,96.5C 87.2085,94.7339 89.2085,92.4006 90.5,89.5C 91.5832,89.5394 92.5832,89.8728 93.5,90.5C 96.823,85.3876 98.1563,79.8876 97.5,74C 92.4591,72.9924 92.7924,72.4924 98.5,72.5 Z"/></g>
<g><path style="opacity:1" fill="#68261f" d="M 91.5,83.5 C 91.4828,85.5648 91.1495,87.5648 90.5,89.5C 89.2085,92.4006 87.2085,94.7339 84.5,96.5C 84.3398,94.8008 84.5065,93.1341 85,91.5C 87.8755,89.1535 90.0422,86.4868 91.5,83.5 Z"/></g>
<g><path style="opacity: .7;" fill="#8d8480" d="M 114.5,94.5 C 114.59,97.1522 113.924,99.4855 112.5,101.5C 112.366,99.7085 112.699,98.0418 113.5,96.5C 113.328,95.5084 113.662,94.8417 114.5,94.5 Z"/></g>
<g><path style="opacity: .7;" fill="#9e9c9b" d="M 33.5,97.5 C 34.5375,98.9303 35.2041,100.597 35.5,102.5C 33.7868,101.365 33.1201,99.698 33.5,97.5 Z"/></g>
<g><path style="opacity:1" fill="#37201b" d="M 44.5,73.5 C 45.481,77.7476 46.6476,82.0809 48,86.5C 48.49,85.2068 48.6567,83.8734 48.5,82.5C 49.1667,83.5 49.8333,84.5 50.5,85.5C 53.3531,95.221 58.6864,103.221 66.5,109.5C 65.3052,109.322 64.1385,108.989 63,108.5C 61.9701,108.836 61.4701,109.503 61.5,110.5C 58.1285,108.064 55.4619,105.064 53.5,101.5C 50.0272,96.2207 47.3605,90.554 45.5,84.5C 44.8857,80.8648 44.5524,77.1981 44.5,73.5 Z"/></g>
<g><path style="opacity:1" fill="#a72d25" d="M 66.5,69.5 C 68.8333,69.5 71.1667,69.5 73.5,69.5C 73.5,69.8333 73.5,70.1667 73.5,70.5C 72.8099,84.1557 72.4766,97.8224 72.5,111.5C 71.8333,111.5 71.1667,111.5 70.5,111.5C 68.847,111.34 67.5137,110.674 66.5,109.5C 58.6864,103.221 53.3531,95.221 50.5,85.5C 50.9926,83.1944 51.3259,80.861 51.5,78.5C 53.5,79.1667 55.5,79.8333 57.5,80.5C 57.322,84.1224 57.9886,87.4557 59.5,90.5C 60.2071,92.7814 61.2071,94.9481 62.5,97C 64.108,97.658 65.2747,97.158 66,95.5C 66.4998,86.8397 66.6664,78.1731 66.5,69.5 Z"/></g>
<g><path style="opacity:1" fill="#1f1713" d="M 63.5,81.5 C 63.8333,81.5 64.1667,81.5 64.5,81.5C 65.647,85.6463 65.8136,89.9796 65,94.5C 62.3259,91.9276 60.4926,88.9276 59.5,85.5C 58.7732,82.7972 60.1065,81.4638 63.5,81.5 Z"/></g>
<g><path style="opacity:1" fill="#6d2b26" d="M 73.5,70.5 C 74.1667,70.5 74.8333,70.5 75.5,70.5C 75.5,71.1667 75.5,71.8333 75.5,72.5C 75.5,74.8333 75.5,77.1667 75.5,79.5C 74.6751,83.4986 74.0084,87.6653 73.5,92C 74.5456,97.4723 74.7123,102.972 74,108.5C 73.7679,109.737 73.2679,110.737 72.5,111.5C 72.4766,97.8224 72.8099,84.1557 73.5,70.5 Z"/></g>
<g><path style="opacity: .7;" fill="#7c6e6a" d="M 112.5,101.5 C 111.459,104.391 110.126,107.058 108.5,109.5C 108.292,105.915 109.625,103.249 112.5,101.5 Z"/></g>
<g><path style="opacity:1" fill="#9a2d27" d="M 78.5,82.5 C 79.8333,82.5 81.1667,82.5 82.5,82.5C 82.6641,85.1873 82.4974,87.854 82,90.5C 81.8142,88.0995 81.3142,85.7662 80.5,83.5C 79.3554,84.7757 79.3554,86.109 80.5,87.5C 78.2847,89.3918 78.618,91.0585 81.5,92.5C 81.927,95.7877 81.2603,98.7877 79.5,101.5C 79.7093,102.086 80.0426,102.586 80.5,103C 78.9262,104.826 78.0929,106.993 78,109.5C 77.1965,100.422 77.3631,91.4221 78.5,82.5 Z"/></g>
<g><path style="opacity:1" fill="#5e2a23" d="M 86.5,106.5 C 84.4793,109.639 81.646,111.972 78,113.5C 76.9701,113.164 76.4701,112.497 76.5,111.5C 79.8333,109.833 83.1667,108.167 86.5,106.5 Z"/></g>
<g><path style="opacity:1" fill="#3c241f" d="M 106.5,69.5 C 106.002,73.5748 106.002,77.5748 106.5,81.5C 104.183,86.4292 102.017,91.4292 100,96.5C 97.5051,101.225 94.3384,105.225 90.5,108.5C 83.6594,115.349 75.9927,121.015 67.5,125.5C 67.0618,125.565 66.7284,125.399 66.5,125C 69.0823,123.662 69.7489,121.829 68.5,119.5C 69.552,119.649 70.552,119.483 71.5,119C 67.7252,117.389 64.7252,114.889 62.5,111.5C 67.3472,113.178 71.1805,116.178 74,120.5C 74.3333,119.167 74.6667,117.833 75,116.5C 76.6134,117.622 77.7801,117.122 78.5,115C 76.5087,114.626 74.842,113.793 73.5,112.5C 74.609,112.443 75.609,112.11 76.5,111.5C 76.4701,112.497 76.9701,113.164 78,113.5C 81.646,111.972 84.4793,109.639 86.5,106.5C 88.1223,103.545 90.1223,100.878 92.5,98.5C 93.5,97.8333 94.5,97.1667 95.5,96.5C 95.369,97.2389 95.5357,97.9056 96,98.5C 98.5252,93.9209 100.859,89.2542 103,84.5C 103.538,79.2185 104.705,74.2185 106.5,69.5 Z"/></g>
<g><path style="opacity:1" fill="#753b38" d="M 113.5,96.5 C 112.699,98.0418 112.366,99.7085 112.5,101.5C 109.625,103.249 108.292,105.915 108.5,109.5C 106.167,112.167 103.833,114.833 101.5,117.5C 101.313,115.436 100.813,113.436 100,111.5C 98.8118,112.563 98.3118,113.897 98.5,115.5C 95.2819,115.651 94.9485,116.484 97.5,118C 96.8921,118.87 96.0588,119.37 95,119.5C 92.6945,117.565 90.8611,115.232 89.5,112.5C 90.1499,112.804 90.8165,113.137 91.5,113.5C 94.0776,109.25 96.7443,105.083 99.5,101C 103.846,100.316 107.846,98.1493 111.5,94.5C 112.182,95.2427 112.849,95.9094 113.5,96.5 Z"/></g>
<g><path style="opacity:1" fill="#74332c" d="M 53.5,101.5 C 55.4619,105.064 58.1285,108.064 61.5,110.5C 61.5,111.167 61.8333,111.5 62.5,111.5C 64.7252,114.889 67.7252,117.389 71.5,119C 70.552,119.483 69.552,119.649 68.5,119.5C 64.8424,117.325 61.5091,114.659 58.5,111.5C 56.47,108.152 54.1367,105.152 51.5,102.5C 52.9245,104.031 53.5912,103.698 53.5,101.5 Z"/></g>
<g><path style="opacity:1" fill="#241b17" d="M 66.5,109.5 C 67.5137,110.674 68.847,111.34 70.5,111.5C 71.209,112.404 72.209,112.737 73.5,112.5C 74.842,113.793 76.5087,114.626 78.5,115C 77.7801,117.122 76.6134,117.622 75,116.5C 74.6667,117.833 74.3333,119.167 74,120.5C 71.1805,116.178 67.3472,113.178 62.5,111.5C 61.8333,111.5 61.5,111.167 61.5,110.5C 61.4701,109.503 61.9701,108.836 63,108.5C 64.1385,108.989 65.3052,109.322 66.5,109.5 Z"/></g>
<g><path style="opacity:1" fill="#9d3f38" d="M 89.5,112.5 C 87.8712,113.625 86.3712,114.959 85,116.5C 84.0227,119.788 82.5227,122.788 80.5,125.5C 76.3195,122.918 73.6529,124.252 72.5,129.5C 70.5914,130.348 68.5914,130.682 66.5,130.5C 65.8333,130.167 65.1667,129.833 64.5,129.5C 64.7706,127.57 65.7706,126.236 67.5,125.5C 75.9927,121.015 83.6594,115.349 90.5,108.5C 91.601,107.2 92.9343,106.7 94.5,107C 92.6997,108.812 91.0331,110.645 89.5,112.5 Z"/></g>
<g><path style="opacity: .7;" fill="#8d8987" d="M 35.5,102.5 C 42.9023,113.901 52.569,122.901 64.5,129.5C 65.1667,129.833 65.8333,130.167 66.5,130.5C 67.1667,131.167 67.8333,131.833 68.5,132.5C 71.2577,135.901 74.591,136.901 78.5,135.5C 86.7106,130.224 94.3772,124.224 101.5,117.5C 103.833,114.833 106.167,112.167 108.5,109.5C 105.179,116.001 100.846,121.834 95.5,127C 89.0702,131.629 82.5702,136.129 76,140.5C 67.0138,135.338 58.5138,129.505 50.5,123C 44.0978,117.112 39.0978,110.278 35.5,102.5 Z"/></g>
<g><path style="opacity:1" fill="#674c48" d="M 68.5,132.5 C 71.6591,133.885 74.9925,134.885 78.5,135.5C 74.591,136.901 71.2577,135.901 68.5,132.5 Z"/></g>
<g><path style="opacity:1" fill="#8a413d" d="M 101.5,117.5 C 94.3772,124.224 86.7106,130.224 78.5,135.5C 74.9925,134.885 71.6591,133.885 68.5,132.5C 67.8333,131.833 67.1667,131.167 66.5,130.5C 68.5914,130.682 70.5914,130.348 72.5,129.5C 73.6529,124.252 76.3195,122.918 80.5,125.5C 82.5227,122.788 84.0227,119.788 85,116.5C 86.3712,114.959 87.8712,113.625 89.5,112.5C 90.8611,115.232 92.6945,117.565 95,119.5C 96.0588,119.37 96.8921,118.87 97.5,118C 94.9485,116.484 95.2819,115.651 98.5,115.5C 98.3118,113.897 98.8118,112.563 100,111.5C 100.813,113.436 101.313,115.436 101.5,117.5 Z"/></g>
</svg>