<svg xmlns="http://www.w3.org/2000/svg" xmlns:xlink="http://www.w3.org/1999/xlink" version="1.1" width="154px" height="154px" style="shape-rendering:geometricPrecision;text-rendering:geometricPrecision;image-rendering:optimizeQuality;fill-rule:evenodd;clip-rule:evenodd;">
<g/>
<g/>
<g><path style="opacity: .7;" fill="#8e8c89" d="M 121.5,83.5 C 121.833,83.5 122.167,83.5 122.5,83.5C 120.471,89.2234 117.637,94.5567 114,99.5C 110.58,102.749 107.413,106.083 104.5,109.5C 104.167,109.5 103.833,109.5 103.5,109.5C 103.5,108.833 103.167,108.5 102.5,108.5C 102.5,107.5 102.5,106.5 102.5,105.5C 103.609,105.443 104.609,105.11 105.5,104.5C 109.234,101.769 112.234,98.4356 114.5,94.5C 116.326,92.8525 117.66,90.8525 118.5,88.5C 119.737,87.0351 120.737,85.3684 121.5,83.5 Z"/></g>
<g><path style="opacity: .7;" fill="#908e8c" d="M 27.5,86.5 C 28.5,87.1667 29.5,87.8333 30.5,88.5C 31.4333,91.3702 33.1,93.7036 35.5,95.5C 37.1667,99.1667 39.8333,101.833 43.5,103.5C 43.9731,104.906 44.9731,105.573 46.5,105.5C 46.3713,107.216 46.038,108.883 45.5,110.5C 45.1667,110.5 44.8333,110.5 44.5,110.5C 41.986,106.47 38.8193,102.804 35,99.5C 31.9711,95.4385 29.4711,91.1051 27.5,86.5 Z"/></g>
<g><path style="opacity:1" fill="#563934" d="M 114.5,94.5 C 112.234,98.4356 109.234,101.769 105.5,104.5C 105.5,104.167 105.5,103.833 105.5,103.5C 108.167,100.167 111.167,97.1667 114.5,94.5 Z"/></g>
<g><path style="opacity:1" fill="#543b35" d="M 35.5,95.5 C 38.5,97.8333 41.1667,100.5 43.5,103.5C 39.8333,101.833 37.1667,99.1667 35.5,95.5 Z"/></g>
<g><path style="opacity:1" fill="#962c23" d="M 117.5,71.5 C 120.957,71.9601 122.623,73.9601 122.5,77.5C 122.167,78.8333 121.833,80.1667 121.5,81.5C 119.707,83.4261 118.707,85.7594 118.5,88.5C 117.66,90.8525 116.326,92.8525 114.5,94.5C 111.167,97.1667 108.167,100.167 105.5,103.5C 104.761,103.631 104.094,103.464 103.5,103C 104.5,102 105.5,101 106.5,100C 105.55,97.5679 105.55,95.0679 106.5,92.5C 109.025,88.7835 111.025,84.7835 112.5,80.5C 113.478,78.5439 114.478,76.5439 115.5,74.5C 116.167,73.5 116.833,72.5 117.5,71.5 Z"/></g>
<g><path style="opacity:1" fill="#5d231c" d="M 52.5,70.5 C 52.8333,70.5 53.1667,70.5 53.5,70.5C 55.8696,76.912 58.5362,83.2453 61.5,89.5C 60.325,89.281 59.325,89.6143 58.5,90.5C 59.3256,91.451 59.4922,92.451 59,93.5C 53.6309,91.4113 53.4642,89.4113 58.5,87.5C 57.675,86.6143 56.675,86.281 55.5,86.5C 57.914,85.2233 58.0807,83.5566 56,81.5C 55.3292,80.7476 54.4959,80.4142 53.5,80.5C 53.6107,79.8826 53.944,79.3826 54.5,79C 53.0085,76.3788 52.3418,73.5455 52.5,70.5 Z"/></g>
<g><path style="opacity:1" fill="#622e25" d="M 121.5,81.5 C 121.5,82.1667 121.5,82.8333 121.5,83.5C 120.737,85.3684 119.737,87.0351 118.5,88.5C 118.707,85.7594 119.707,83.4261 121.5,81.5 Z"/></g>
<g><path style="opacity:1" fill="#8f2820" d="M 30.5,86.5 C 29.2638,84.351 28.2638,82.0177 27.5,79.5C 27.3505,78.448 27.5172,77.448 28,76.5C 31.3112,79.3915 32.6445,83.0582 32,87.5C 31.6667,86.8333 31.3333,86.1667 31,85.5C 30.6012,85.7284 30.4346,86.0618 30.5,86.5 Z"/></g>
<g><path style="opacity: .7;" fill="#6a4943" d="M 26.5,79.5 C 26.8333,79.5 27.1667,79.5 27.5,79.5C 28.2638,82.0177 29.2638,84.351 30.5,86.5C 30.5,87.1667 30.5,87.8333 30.5,88.5C 29.5,87.8333 28.5,87.1667 27.5,86.5C 26.7814,84.2362 26.448,81.9029 26.5,79.5 Z"/></g>
<g><path style="opacity: .7;" fill="#6c5751" d="M 122.5,77.5 C 122.833,77.5 123.167,77.5 123.5,77.5C 123.483,79.5648 123.15,81.5648 122.5,83.5C 122.167,83.5 121.833,83.5 121.5,83.5C 121.5,82.8333 121.5,82.1667 121.5,81.5C 121.833,80.1667 122.167,78.8333 122.5,77.5 Z"/></g>
<g><path style="opacity:1" fill="#401e17" d="M 97.5,65.5 C 98.1667,65.5 98.5,65.8333 98.5,66.5C 98.2627,67.791 98.596,68.791 99.5,69.5C 98.7659,70.7079 98.4326,72.0413 98.5,73.5C 96.6369,77.0412 97.6369,79.3745 101.5,80.5C 101.376,81.1067 101.043,81.44 100.5,81.5C 98.7839,81.3713 97.1172,81.038 95.5,80.5C 94.8333,79.8333 94.1667,79.1667 93.5,78.5C 94.8693,74.0666 96.2026,69.7333 97.5,65.5 Z"/></g>
<g><path style="opacity:1" fill="#6d2922" d="M 47.5,79.5 C 44.5,79.5 41.5,79.5 38.5,79.5C 38.6309,78.6236 38.2975,77.9569 37.5,77.5C 36.3691,79.0745 36.2025,80.7412 37,82.5C 40.2176,89.2077 44.3843,95.2077 49.5,100.5C 48.3052,100.322 47.1385,99.9891 46,99.5C 44.9701,99.8361 44.4701,100.503 44.5,101.5C 38.8326,97.8514 35.1659,92.8514 33.5,86.5C 33.7868,84.5136 34.4535,82.6803 35.5,81C 34.7259,78.8458 34.0592,76.6792 33.5,74.5C 35.7863,73.6837 37.7863,72.3504 39.5,70.5C 41.1064,72.5119 42.273,74.8453 43,77.5C 43.4986,74.9783 43.3319,72.4783 42.5,70C 42.7094,68.1285 43.7094,66.9619 45.5,66.5C 50.2819,69.4876 51.9485,73.6543 50.5,79C 49.552,79.4828 48.552,79.6495 47.5,79.5 Z"/></g>
<g><path style="opacity:1" fill="#79271f" d="M 115.5,74.5 C 114.478,76.5439 113.478,78.5439 112.5,80.5C 112.444,77.483 112.11,77.1497 111.5,79.5C 108.5,79.5 105.5,79.5 102.5,79.5C 102.233,81.9653 101.566,84.2986 100.5,86.5C 99.8333,87.1667 99.1667,87.8333 98.5,88.5C 98.5,88.1667 98.5,87.8333 98.5,87.5C 99.1667,85.5 99.8333,83.5 100.5,81.5C 101.043,81.44 101.376,81.1067 101.5,80.5C 97.6369,79.3745 96.6369,77.0412 98.5,73.5C 100.044,73.7031 101.378,74.3698 102.5,75.5C 104.005,72.8694 104.671,73.2027 104.5,76.5C 104.369,77.3764 104.702,78.0431 105.5,78.5C 106.688,76.0115 108.021,73.6782 109.5,71.5C 111.534,72.5588 113.534,73.5588 115.5,74.5 Z"/></g>
<g><path style="opacity:1" fill="#7f3027" d="M 31.5,37.5 C 31.5,38.8333 32.1667,39.5 33.5,39.5C 33.7822,40.7777 34.4489,41.7777 35.5,42.5C 33.87,44.0261 33.0367,46.0261 33,48.5C 31.883,47.0506 31.2163,45.3839 31,43.5C 29.7328,45.9069 29.2328,48.2402 29.5,50.5C 29.8457,51.6956 30.3457,51.6956 31,50.5C 32.1244,53.4424 32.4577,56.4424 32,59.5C 27.1007,61.2255 26.6007,63.5588 30.5,66.5C 31.1687,68.6309 31.8354,70.6309 32.5,72.5C 33.3382,72.8417 33.6716,73.5084 33.5,74.5C 34.0592,76.6792 34.7259,78.8458 35.5,81C 34.4535,82.6803 33.7868,84.5136 33.5,86.5C 35.1659,92.8514 38.8326,97.8514 44.5,101.5C 47.2393,104.023 46.906,104.69 43.5,103.5C 41.1667,100.5 38.5,97.8333 35.5,95.5C 33.1,93.7036 31.4333,91.3702 30.5,88.5C 30.5,87.8333 30.5,87.1667 30.5,86.5C 30.4346,86.0618 30.6012,85.7284 31,85.5C 31.3333,86.1667 31.6667,86.8333 32,87.5C 32.6445,83.0582 31.3112,79.3915 28,76.5C 27.5172,77.448 27.3505,78.448 27.5,79.5C 27.1667,79.5 26.8333,79.5 26.5,79.5C 22.6869,68.7067 22.5203,57.7067 26,46.5C 27.3571,43.1019 29.1904,40.1019 31.5,37.5 Z"/></g>
<g><path style="opacity:1" fill="#6f2925" d="M 104.5,76.5 C 104.671,73.2027 104.005,72.8694 102.5,75.5C 101.378,74.3698 100.044,73.7031 98.5,73.5C 98.4326,72.0413 98.7659,70.7079 99.5,69.5C 101.114,68.7286 102.614,67.7286 104,66.5C 104.772,66.6448 105.439,66.9781 106,67.5C 106.781,70.8166 106.281,73.8166 104.5,76.5 Z"/></g>
<g><path style="opacity:1" fill="#3a1e19" d="M 50.5,50.5 C 50.8333,50.5 51.1667,50.5 51.5,50.5C 50.8153,52.4144 50.3153,54.4144 50,56.5C 47.3064,52.4583 44.8064,52.6249 42.5,57C 43.716,60.2212 45.716,62.8878 48.5,65C 49.7441,65.4561 50.5774,64.9561 51,63.5C 52.2692,64.9047 52.7692,66.5714 52.5,68.5C 52.5,69.1667 52.5,69.8333 52.5,70.5C 52.3418,73.5455 53.0085,76.3788 54.5,79C 53.944,79.3826 53.6107,79.8826 53.5,80.5C 52.8333,80.5 52.1667,80.5 51.5,80.5C 50.1667,80.5 48.8333,80.5 47.5,80.5C 47.5,80.1667 47.5,79.8333 47.5,79.5C 48.552,79.6495 49.552,79.4828 50.5,79C 51.9485,73.6543 50.2819,69.4876 45.5,66.5C 43.7094,66.9619 42.7094,68.1285 42.5,70C 43.3319,72.4783 43.4986,74.9783 43,77.5C 42.273,74.8453 41.1064,72.5119 39.5,70.5C 37.7863,72.3504 35.7863,73.6837 33.5,74.5C 33.6716,73.5084 33.3382,72.8417 32.5,72.5C 32.2322,70.901 32.5655,69.5676 33.5,68.5C 33.281,69.675 33.6143,70.675 34.5,71.5C 36.8543,68.312 39.6876,65.6453 43,63.5C 43.4317,62.3999 42.9317,61.7332 41.5,61.5C 40.4461,61.6799 39.4461,62.0133 38.5,62.5C 38.6299,55.0344 42.6299,51.0344 50.5,50.5 Z"/></g>
<g><path style="opacity:1" fill="#301c17" d="M 109.5,66.5 C 111.167,67.5 112.5,68.8333 113.5,70.5C 114.167,71.8333 114.833,73.1667 115.5,74.5C 113.534,73.5588 111.534,72.5588 109.5,71.5C 108.021,73.6782 106.688,76.0115 105.5,78.5C 104.702,78.0431 104.369,77.3764 104.5,76.5C 106.281,73.8166 106.781,70.8166 106,67.5C 105.439,66.9781 104.772,66.6448 104,66.5C 102.614,67.7286 101.114,68.7286 99.5,69.5C 98.596,68.791 98.2627,67.791 98.5,66.5C 99.4916,66.6716 100.158,66.3382 100.5,65.5C 101.167,65.5 101.5,65.1667 101.5,64.5C 102.496,64.5858 103.329,64.2524 104,63.5C 105.264,65.607 107.097,66.607 109.5,66.5 Z"/></g>
<g><path style="opacity:1" fill="#932f2a" d="M 55.5,47.5 C 54.9033,47.7352 54.5699,48.2352 54.5,49C 55.2961,50.0921 55.9628,51.2588 56.5,52.5C 55.5041,55.7975 55.3374,59.1308 56,62.5C 57.3605,68.2108 59.1938,73.7108 61.5,79C 60.9896,80.8261 60.1562,80.9928 59,79.5C 56.9414,75.934 55.1081,72.934 53.5,70.5C 53.1667,70.5 52.8333,70.5 52.5,70.5C 52.5,69.8333 52.5,69.1667 52.5,68.5C 53.1666,60.9896 53.8333,53.3229 54.5,45.5C 55.2975,45.9569 55.6309,46.6236 55.5,47.5 Z"/></g>
<g><path style="opacity:1" fill="#7c2f25" d="M 123.5,50.5 C 126.133,59.3997 126.133,68.3997 123.5,77.5C 123.167,77.5 122.833,77.5 122.5,77.5C 122.623,73.9601 120.957,71.9601 117.5,71.5C 117.5,68.8333 117.5,66.1667 117.5,63.5C 118.496,63.5858 119.329,63.2524 120,62.5C 120.851,58.9583 120.351,55.6249 118.5,52.5C 118.833,51.5 119.5,50.8333 120.5,50.5C 121.994,57.4081 122.827,64.4081 123,71.5C 123.5,64.5079 123.666,57.5079 123.5,50.5 Z"/></g>
<g><path style="opacity:1" fill="#9c3029" d="M 97.5,62.5 C 97.5,63.5 97.5,64.5 97.5,65.5C 96.2026,69.7333 94.8693,74.0666 93.5,78.5C 92.8333,79.1667 92.1667,79.8333 91.5,80.5C 90.4168,80.5394 89.4168,80.8728 88.5,81.5C 88.1667,80.8333 87.8333,80.1667 87.5,79.5C 91.7438,71.2825 93.4105,62.6159 92.5,53.5C 92.7896,51.9559 93.4563,50.6226 94.5,49.5C 93.814,47.9361 93.9806,46.2694 95,44.5C 95.9118,50.6341 96.7451,56.6341 97.5,62.5 Z"/></g>
<g><path style="opacity:1" fill="#66261f" d="M 110.5,45.5 C 113.338,49.1718 115.671,53.1718 117.5,57.5C 117.5,59.5 117.5,61.5 117.5,63.5C 117.5,66.1667 117.5,68.8333 117.5,71.5C 116.833,72.5 116.167,73.5 115.5,74.5C 114.833,73.1667 114.167,71.8333 113.5,70.5C 114.805,68.6028 115.471,66.2695 115.5,63.5C 115.333,61.1667 115.167,58.8333 115,56.5C 113.548,53.4177 112.048,50.4177 110.5,47.5C 110.5,46.8333 110.5,46.1667 110.5,45.5 Z"/></g>
<g><path style="opacity:1" fill="#aa2a20" d="M 101.5,64.5 C 101.5,65.1667 101.167,65.5 100.5,65.5C 99.3,62.3023 99.3,58.969 100.5,55.5C 102.951,52.7749 104.951,53.2749 106.5,57C 105.411,59.9156 103.744,62.4156 101.5,64.5 Z"/></g>
<g><path style="opacity:1" fill="#8f2a22" d="M 123.5,50.5 C 123.666,57.5079 123.5,64.5079 123,71.5C 122.827,64.4081 121.994,57.4081 120.5,50.5C 119.5,50.8333 118.833,51.5 118.5,52.5C 120.351,55.6249 120.851,58.9583 120,62.5C 119.329,63.2524 118.496,63.5858 117.5,63.5C 117.5,61.5 117.5,59.5 117.5,57.5C 117.938,55.3618 118.105,53.0285 118,50.5C 119,49.1667 120,47.8333 121,46.5C 121.934,47.8584 122.768,49.1917 123.5,50.5 Z"/></g>
<g><path style="opacity:1" fill="#44211a" d="M 99.5,50.5 C 105.624,51.2906 109.624,54.6239 111.5,60.5C 111.167,61.1667 110.833,61.8333 110.5,62.5C 108.668,60.0428 107.001,60.0428 105.5,62.5C 106.549,64.2156 107.882,65.5489 109.5,66.5C 107.097,66.607 105.264,65.607 104,63.5C 103.329,64.2524 102.496,64.5858 101.5,64.5C 103.744,62.4156 105.411,59.9156 106.5,57C 104.951,53.2749 102.951,52.7749 100.5,55.5C 99.8826,55.6107 99.3826,55.944 99,56.5C 98.2109,54.2884 98.3775,52.2884 99.5,50.5 Z"/></g>
<g><path style="opacity:1" fill="#9c2921" d="M 103.5,35.5 C 103.833,35.5 104.167,35.5 104.5,35.5C 106.337,39.7414 108.337,43.7414 110.5,47.5C 112.048,50.4177 113.548,53.4177 115,56.5C 115.167,58.8333 115.333,61.1667 115.5,63.5C 115.471,66.2695 114.805,68.6028 113.5,70.5C 112.5,68.8333 111.167,67.5 109.5,66.5C 107.882,65.5489 106.549,64.2156 105.5,62.5C 107.001,60.0428 108.668,60.0428 110.5,62.5C 110.833,61.8333 111.167,61.1667 111.5,60.5C 109.624,54.6239 105.624,51.2906 99.5,50.5C 97.8249,48.544 98.1582,47.2107 100.5,46.5C 101.497,46.5299 102.164,46.0299 102.5,45C 101.623,42.7473 100.623,40.5806 99.5,38.5C 101.455,38.2014 102.789,37.2014 103.5,35.5 Z"/></g>
<g><path style="opacity:1" fill="#692821" d="M 35.5,42.5 C 36.6935,42.9704 37.3601,43.9704 37.5,45.5C 37.2716,47.2073 36.9383,48.874 36.5,50.5C 33.9485,56.2001 32.9485,62.2001 33.5,68.5C 32.5655,69.5676 32.2322,70.901 32.5,72.5C 31.8354,70.6309 31.1687,68.6309 30.5,66.5C 26.6007,63.5588 27.1007,61.2255 32,59.5C 32.4577,56.4424 32.1244,53.4424 31,50.5C 30.3457,51.6956 29.8457,51.6956 29.5,50.5C 29.2328,48.2402 29.7328,45.9069 31,43.5C 31.2163,45.3839 31.883,47.0506 33,48.5C 33.0367,46.0261 33.87,44.0261 35.5,42.5 Z"/></g>
<g><path style="opacity:1" fill="#83271e" d="M 96.5,42.5 C 97.404,43.209 97.7373,44.209 97.5,45.5C 98.791,45.2627 99.791,45.596 100.5,46.5C 98.1582,47.2107 97.8249,48.544 99.5,50.5C 98.3775,52.2884 98.2109,54.2884 99,56.5C 99.3826,55.944 99.8826,55.6107 100.5,55.5C 99.3,58.969 99.3,62.3023 100.5,65.5C 100.158,66.3382 99.4916,66.6716 98.5,66.5C 98.5,65.8333 98.1667,65.5 97.5,65.5C 97.5,64.5 97.5,63.5 97.5,62.5C 97.6643,55.7978 97.331,49.1311 96.5,42.5 Z"/></g>
<g><path style="opacity:1" fill="#7f2e27" d="M 103.5,26.5 C 107.097,28.4263 110.097,31.093 112.5,34.5C 110.801,34.3398 109.134,34.5065 107.5,35C 110.069,37.1877 111.403,40.021 111.5,43.5C 113.262,43.3573 114.929,43.6906 116.5,44.5C 119.535,41.6831 119.035,39.6831 115,38.5C 114.209,37.255 113.709,35.9217 113.5,34.5C 113.938,34.5654 114.272,34.3988 114.5,34C 113.177,33.1841 112.511,32.0174 112.5,30.5C 118.249,35.9971 121.916,42.6638 123.5,50.5C 122.768,49.1917 121.934,47.8584 121,46.5C 120,47.8333 119,49.1667 118,50.5C 118.105,53.0285 117.938,55.3618 117.5,57.5C 115.671,53.1718 113.338,49.1718 110.5,45.5C 110.018,41.1946 108.018,37.8612 104.5,35.5C 104.167,35.5 103.833,35.5 103.5,35.5C 102.728,34.3065 101.728,33.3065 100.5,32.5C 98.9962,30.1644 96.9962,28.331 94.5,27C 95.1258,26.2496 95.6258,25.4162 96,24.5C 98.4356,25.3547 100.936,26.0213 103.5,26.5 Z"/></g>
<g><path style="opacity:1" fill="#56251e" d="M 44.5,36.5 C 42.8157,40.5093 41.1491,44.5093 39.5,48.5C 38.6431,49.4252 37.6431,50.0919 36.5,50.5C 36.9383,48.874 37.2716,47.2073 37.5,45.5C 37.3601,43.9704 36.6935,42.9704 35.5,42.5C 34.4489,41.7777 33.7822,40.7777 33.5,39.5C 34.2646,39.0766 35.0979,38.7432 36,38.5C 38.6977,42.8195 40.6977,42.4862 42,37.5C 42.8382,36.001 43.6715,35.6676 44.5,36.5 Z"/></g>
<g><path style="opacity:1" fill="#a82e26" d="M 84.5,31.5 C 86.6205,34.3558 88.7872,37.3558 91,40.5C 91.056,37.2198 91.8893,34.2198 93.5,31.5C 95.3904,33.5776 97.7238,34.9109 100.5,35.5C 100.458,34.479 100.458,33.479 100.5,32.5C 101.728,33.3065 102.728,34.3065 103.5,35.5C 102.789,37.2014 101.455,38.2014 99.5,38.5C 97.5372,37.0401 95.7038,35.3734 94,33.5C 94.6962,36.4377 95.5296,39.4377 96.5,42.5C 97.331,49.1311 97.6643,55.7978 97.5,62.5C 96.7451,56.6341 95.9118,50.6341 95,44.5C 93.9806,46.2694 93.814,47.9361 94.5,49.5C 93.4563,50.6226 92.7896,51.9559 92.5,53.5C 93.4105,62.6159 91.7438,71.2825 87.5,79.5C 87.8333,80.1667 88.1667,80.8333 88.5,81.5C 89.4168,80.8728 90.4168,80.5394 91.5,80.5C 90.4388,83.6223 89.1054,86.6223 87.5,89.5C 83.6616,96.5159 79.3283,103.183 74.5,109.5C 72.5414,108.252 71.0414,106.585 70,104.5C 67.251,99.383 64.4177,94.383 61.5,89.5C 58.5362,83.2453 55.8696,76.912 53.5,70.5C 55.1081,72.934 56.9414,75.934 59,79.5C 60.1562,80.9928 60.9896,80.8261 61.5,79C 59.1938,73.7108 57.3605,68.2108 56,62.5C 55.3374,59.1308 55.5041,55.7975 56.5,52.5C 55.9628,51.2588 55.2961,50.0921 54.5,49C 54.5699,48.2352 54.9033,47.7352 55.5,47.5C 56.3063,46.1325 57.3063,44.7992 58.5,43.5C 57.7261,42.2888 56.8928,42.2888 56,43.5C 55.5078,42.451 55.6744,41.451 56.5,40.5C 58.6121,37.9398 60.9454,35.6064 63.5,33.5C 61.4261,38.2443 60.0928,43.2443 59.5,48.5C 58.1667,54.5 58.1667,60.5 59.5,66.5C 59.8372,70.8451 61.1706,74.8451 63.5,78.5C 64.0951,81.3171 65.4284,83.6505 67.5,85.5C 69.0235,90.2102 71.3568,94.5435 74.5,98.5C 78.1518,94.8622 80.4852,90.5289 81.5,85.5C 82.9744,84.5637 83.9744,83.2303 84.5,81.5C 85.1667,79.8333 85.8333,78.1667 86.5,76.5C 89.697,71.034 91.0303,65.034 90.5,58.5C 90.5,58.1667 90.5,57.8333 90.5,57.5C 90.7471,54.0613 90.4137,50.728 89.5,47.5C 89.2916,43.8793 88.2916,40.5459 86.5,37.5C 85.8333,35.5 85.1667,33.5 84.5,31.5 Z"/></g>
<g><path style="opacity:1" fill="#4a221b" d="M 62.5,57.5 C 61.3642,59.0461 60.6975,60.8794 60.5,63C 60.5687,64.9855 61.2353,66.4855 62.5,67.5C 66.4832,69.4916 70.4832,71.4916 74.5,73.5C 78.739,71.9153 82.739,69.9153 86.5,67.5C 86.8333,67.5 87.1667,67.5 87.5,67.5C 87.1667,68.1667 86.8333,68.8333 86.5,69.5C 82.5531,71.4734 78.5531,73.4734 74.5,75.5C 70.1228,73.561 65.9562,71.2276 62,68.5C 61.4401,74.6174 64.2734,78.1174 70.5,79C 75.926,79.3516 80.926,78.1849 85.5,75.5C 86.1667,75.5 86.5,75.8333 86.5,76.5C 85.8333,78.1667 85.1667,79.8333 84.5,81.5C 83.8444,80.7222 83.0111,80.0556 82,79.5C 79.4333,80.578 76.7666,81.2447 74,81.5C 70.4486,80.6386 66.9486,79.6386 63.5,78.5C 61.1706,74.8451 59.8372,70.8451 59.5,66.5C 59.5,63.5 59.5,60.5 59.5,57.5C 60.5,57.5 61.5,57.5 62.5,57.5 Z"/></g>
<g><path style="opacity:1" fill="#c0322d" d="M 86.5,69.5 C 87.5214,71.5233 87.1881,73.5233 85.5,75.5C 80.926,78.1849 75.926,79.3516 70.5,79C 64.2734,78.1174 61.4401,74.6174 62,68.5C 65.9562,71.2276 70.1228,73.561 74.5,75.5C 78.5531,73.4734 82.5531,71.4734 86.5,69.5 Z"/></g>
<g><path style="opacity:1" fill="#6f2721" d="M 90.5,58.5 C 91.0303,65.034 89.697,71.034 86.5,76.5C 86.5,75.8333 86.1667,75.5 85.5,75.5C 87.1881,73.5233 87.5214,71.5233 86.5,69.5C 86.8333,68.8333 87.1667,68.1667 87.5,67.5C 88.816,64.5917 89.816,61.5917 90.5,58.5 Z"/></g>
<g><path style="opacity:1" fill="#732620" d="M 86.5,67.5 C 82.739,69.9153 78.739,71.9153 74.5,73.5C 70.4832,71.4916 66.4832,69.4916 62.5,67.5C 61.7347,64.9039 61.4013,62.2372 61.5,59.5C 69.84,59.3336 78.1733,59.5003 86.5,60C 87.7785,62.4976 87.7785,64.9976 86.5,67.5 Z"/></g>
<g><path style="opacity:1" fill="#42221d" d="M 83.5,41.5 C 84.4663,44.1019 84.4663,46.4352 83.5,48.5C 83.5,48.8333 83.5,49.1667 83.5,49.5C 80.3832,50.782 78.0499,52.9487 76.5,56C 80.8629,56.3694 85.1962,56.8694 89.5,57.5C 89.8333,57.5 90.1667,57.5 90.5,57.5C 90.5,57.8333 90.5,58.1667 90.5,58.5C 89.816,61.5917 88.816,64.5917 87.5,67.5C 87.1667,67.5 86.8333,67.5 86.5,67.5C 87.7785,64.9976 87.7785,62.4976 86.5,60C 78.1733,59.5003 69.84,59.3336 61.5,59.5C 61.4013,62.2372 61.7347,64.9039 62.5,67.5C 61.2353,66.4855 60.5687,64.9855 60.5,63C 60.6975,60.8794 61.3642,59.0461 62.5,57.5C 62.5,57.1667 62.5,56.8333 62.5,56.5C 65.8499,56.665 69.1832,56.4983 72.5,56C 70.2603,52.2574 67.2603,49.424 63.5,47.5C 64.2389,47.631 64.9056,47.4643 65.5,47C 64.2089,45.7083 64.2089,44.5417 65.5,43.5C 67.5566,47.067 70.2232,50.2337 73.5,53C 75.4354,52.9421 77.1021,52.1088 78.5,50.5C 81.4563,48.2118 83.123,45.2118 83.5,41.5 Z"/></g>
<g><path style="opacity:1" fill="#77251c" d="M 86.5,47.5 C 87.5,47.5 88.5,47.5 89.5,47.5C 90.4137,50.728 90.7471,54.0613 90.5,57.5C 90.1667,57.5 89.8333,57.5 89.5,57.5C 89.0371,54.5176 88.7038,51.5176 88.5,48.5C 86.7839,48.6287 85.1172,48.962 83.5,49.5C 83.5,49.1667 83.5,48.8333 83.5,48.5C 84.391,47.8902 85.391,47.5569 86.5,47.5 Z"/></g>
<g><path style="opacity:1" fill="#ae2922" d="M 62.5,47.5 C 62.8333,47.5 63.1667,47.5 63.5,47.5C 67.2603,49.424 70.2603,52.2574 72.5,56C 69.1832,56.4983 65.8499,56.665 62.5,56.5C 61.5,56.5 60.5,56.5 59.5,56.5C 59.4802,54.857 60.1468,53.5237 61.5,52.5C 61.1373,51.8165 60.8039,51.1499 60.5,50.5C 60.2852,48.8212 60.9519,47.8212 62.5,47.5 Z"/></g>
<g><path style="opacity:1" fill="#b42c24" d="M 89.5,57.5 C 85.1962,56.8694 80.8629,56.3694 76.5,56C 78.0499,52.9487 80.3832,50.782 83.5,49.5C 85.1172,48.962 86.7839,48.6287 88.5,48.5C 88.7038,51.5176 89.0371,54.5176 89.5,57.5 Z"/></g>
<g><path style="opacity:1" fill="#77251d" d="M 59.5,48.5 C 59.3284,49.4916 59.6618,50.1583 60.5,50.5C 60.8039,51.1499 61.1373,51.8165 61.5,52.5C 60.1468,53.5237 59.4802,54.857 59.5,56.5C 60.5,56.5 61.5,56.5 62.5,56.5C 62.5,56.8333 62.5,57.1667 62.5,57.5C 61.5,57.5 60.5,57.5 59.5,57.5C 59.5,60.5 59.5,63.5 59.5,66.5C 58.1667,60.5 58.1667,54.5 59.5,48.5 Z"/></g>
<g><path style="opacity:1" fill="#572925" d="M 69.5,39.5 C 72.7615,42.3357 76.4282,43.0024 80.5,41.5C 81.5827,42.365 81.7494,43.365 81,44.5C 80.0027,46.3231 78.8361,47.9897 77.5,49.5C 73.8365,51.2018 71.0031,50.2018 69,46.5C 68.6664,44.1527 68.833,41.8194 69.5,39.5 Z"/></g>
<g><path style="opacity:1" fill="#4d211b" d="M 104.5,35.5 C 108.018,37.8612 110.018,41.1946 110.5,45.5C 110.5,46.1667 110.5,46.8333 110.5,47.5C 108.337,43.7414 106.337,39.7414 104.5,35.5 Z"/></g>
<g><path style="opacity:1" fill="#5d2822" d="M 65.5,31.5 C 66.3764,31.3691 67.0431,31.7025 67.5,32.5C 65.223,37.3309 63.5564,42.3309 62.5,47.5C 60.9519,47.8212 60.2852,48.8212 60.5,50.5C 59.6618,50.1583 59.3284,49.4916 59.5,48.5C 60.0928,43.2443 61.4261,38.2443 63.5,33.5C 64.1667,32.8333 64.8333,32.1667 65.5,31.5 Z"/></g>
<g><path style="opacity:1" fill="#4e231b" d="M 99.5,38.5 C 100.623,40.5806 101.623,42.7473 102.5,45C 102.164,46.0299 101.497,46.5299 100.5,46.5C 99.791,45.596 98.791,45.2627 97.5,45.5C 97.7373,44.209 97.404,43.209 96.5,42.5C 95.5296,39.4377 94.6962,36.4377 94,33.5C 95.7038,35.3734 97.5372,37.0401 99.5,38.5 Z"/></g>
<g><path style="opacity:1" fill="#582821" d="M 86.5,37.5 C 88.2916,40.5459 89.2916,43.8793 89.5,47.5C 88.5,47.5 87.5,47.5 86.5,47.5C 86.2444,44.4021 85.5778,41.4021 84.5,38.5C 85.1667,38.1667 85.8333,37.8333 86.5,37.5 Z"/></g>
<g><path style="opacity:1" fill="#692a24" d="M 112.5,34.5 C 112.833,34.5 113.167,34.5 113.5,34.5C 113.709,35.9217 114.209,37.255 115,38.5C 119.035,39.6831 119.535,41.6831 116.5,44.5C 114.929,43.6906 113.262,43.3573 111.5,43.5C 111.403,40.021 110.069,37.1877 107.5,35C 109.134,34.5065 110.801,34.3398 112.5,34.5 Z"/></g>
<g><path style="opacity:1" fill="#632621" d="M 78.5,30.5 C 79.9644,34.2128 81.6311,37.8795 83.5,41.5C 83.123,45.2118 81.4563,48.2118 78.5,50.5C 78.5,49.8333 78.1667,49.5 77.5,49.5C 78.8361,47.9897 80.0027,46.3231 81,44.5C 81.7494,43.365 81.5827,42.365 80.5,41.5C 76.4282,43.0024 72.7615,42.3357 69.5,39.5C 69.8424,36.7209 71.0091,34.3875 73,32.5C 73.49,33.7932 73.6567,35.1266 73.5,36.5C 77.0091,36.1921 78.6757,34.1921 78.5,30.5 Z"/></g>
<g><path style="opacity:1" fill="#7c4740" d="M 33.5,34.5 C 33.573,36.0269 32.9063,37.0269 31.5,37.5C 31.427,35.9731 32.0937,34.9731 33.5,34.5 Z"/></g>
<g><path style="opacity:1" fill="#962921" d="M 69.5,21.5 C 69.0598,24.3798 68.0598,27.0465 66.5,29.5C 66.1667,30.1667 65.8333,30.8333 65.5,31.5C 64.8333,32.1667 64.1667,32.8333 63.5,33.5C 60.9454,35.6064 58.6121,37.9398 56.5,40.5C 55.6744,41.451 55.5078,42.451 56,43.5C 56.8928,42.2888 57.7261,42.2888 58.5,43.5C 57.3063,44.7992 56.3063,46.1325 55.5,47.5C 55.6309,46.6236 55.2975,45.9569 54.5,45.5C 53.8333,53.3229 53.1666,60.9896 52.5,68.5C 52.7692,66.5714 52.2692,64.9047 51,63.5C 50.5774,64.9561 49.7441,65.4561 48.5,65C 45.716,62.8878 43.716,60.2212 42.5,57C 44.8064,52.6249 47.3064,52.4583 50,56.5C 50.3153,54.4144 50.8153,52.4144 51.5,50.5C 52.4222,46.8881 53.0889,43.2215 53.5,39.5C 56.374,32.0228 55.2074,31.6894 50,38.5C 48.4445,40.4434 47.2779,42.6101 46.5,45C 46.5699,45.7648 46.9033,46.2648 47.5,46.5C 48.5,46.5 49.5,46.5 50.5,46.5C 50.5,47.8333 50.5,49.1667 50.5,50.5C 42.6299,51.0344 38.6299,55.0344 38.5,62.5C 39.4461,62.0133 40.4461,61.6799 41.5,61.5C 42.9317,61.7332 43.4317,62.3999 43,63.5C 39.6876,65.6453 36.8543,68.312 34.5,71.5C 33.6143,70.675 33.281,69.675 33.5,68.5C 32.9485,62.2001 33.9485,56.2001 36.5,50.5C 37.6431,50.0919 38.6431,49.4252 39.5,48.5C 41.1491,44.5093 42.8157,40.5093 44.5,36.5C 47.306,32.8627 50.6393,29.6961 54.5,27C 53.5868,25.5861 53.5868,24.0861 54.5,22.5C 59.4932,22.0843 64.4932,21.7509 69.5,21.5 Z"/></g>
<g><path style="opacity:1" fill="#72261d" d="M 53.5,39.5 C 53.0889,43.2215 52.4222,46.8881 51.5,50.5C 51.1667,50.5 50.8333,50.5 50.5,50.5C 50.5,49.1667 50.5,47.8333 50.5,46.5C 49.5,46.5 48.5,46.5 47.5,46.5C 50.209,44.7898 52.209,42.4564 53.5,39.5 Z"/></g>
<g><path style="opacity:1" fill="#42211a" d="M 53.5,39.5 C 52.209,42.4564 50.209,44.7898 47.5,46.5C 46.9033,46.2648 46.5699,45.7648 46.5,45C 47.2779,42.6101 48.4445,40.4434 50,38.5C 55.2074,31.6894 56.374,32.0228 53.5,39.5 Z"/></g>
<g><path style="opacity:1" fill="#6e2823" d="M 77.5,22.5 C 77.5,22.1667 77.5,21.8333 77.5,21.5C 79.5273,21.3379 81.5273,21.5045 83.5,22C 82.062,22.2189 80.7287,22.7189 79.5,23.5C 81.1787,26.2769 82.8454,28.9436 84.5,31.5C 85.1667,33.5 85.8333,35.5 86.5,37.5C 85.8333,37.8333 85.1667,38.1667 84.5,38.5C 82.1395,33.1187 79.8062,27.7854 77.5,22.5 Z"/></g>
<g><path style="opacity:1" fill="#6d2821" d="M 52.5,21.5 C 53.4916,21.3284 54.1583,21.6618 54.5,22.5C 53.5868,24.0861 53.5868,25.5861 54.5,27C 50.6393,29.6961 47.306,32.8627 44.5,36.5C 43.6715,35.6676 42.8382,36.001 42,37.5C 40.6977,42.4862 38.6977,42.8195 36,38.5C 35.0979,38.7432 34.2646,39.0766 33.5,39.5C 35.7502,35.2469 38.7502,31.5802 42.5,28.5C 44.1703,28.2488 45.6703,27.5822 47,26.5C 47.1667,26.8333 47.3333,27.1667 47.5,27.5C 45.732,29.7015 44.5654,32.0348 44,34.5C 46.3333,32.1667 48.6667,29.8333 51,27.5C 52.128,25.6547 52.628,23.6547 52.5,21.5 Z"/></g>
<g><path style="opacity:1" fill="#762621" d="M 78.5,30.5 C 78.6757,34.1921 77.0091,36.1921 73.5,36.5C 73.6567,35.1266 73.49,33.7932 73,32.5C 71.0091,34.3875 69.8424,36.7209 69.5,39.5C 68.833,41.8194 68.6664,44.1527 69,46.5C 71.0031,50.2018 73.8365,51.2018 77.5,49.5C 78.1667,49.5 78.5,49.8333 78.5,50.5C 77.1021,52.1088 75.4354,52.9421 73.5,53C 70.2232,50.2337 67.5566,47.067 65.5,43.5C 67.7768,38.6127 69.7768,33.6127 71.5,28.5C 74.3878,27.9898 76.7211,28.6565 78.5,30.5 Z"/></g>
<g><path style="opacity:1" fill="#8b4b42" d="M 37.5,29.5 C 36.9202,31.7488 35.5869,33.4154 33.5,34.5C 34.0798,32.2512 35.4131,30.5846 37.5,29.5 Z"/></g>
<g><path style="opacity:1" fill="#9a281f" d="M 77.5,21.5 C 83.4567,20.1931 88.9567,21.5264 94,25.5C 94.1216,23.563 94.955,22.2297 96.5,21.5C 99.4001,22.4432 101.733,24.1099 103.5,26.5C 100.936,26.0213 98.4356,25.3547 96,24.5C 95.6258,25.4162 95.1258,26.2496 94.5,27C 96.9962,28.331 98.9962,30.1644 100.5,32.5C 100.458,33.479 100.458,34.479 100.5,35.5C 97.7238,34.9109 95.3904,33.5776 93.5,31.5C 91.8893,34.2198 91.056,37.2198 91,40.5C 88.7872,37.3558 86.6205,34.3558 84.5,31.5C 82.8454,28.9436 81.1787,26.2769 79.5,23.5C 80.7287,22.7189 82.062,22.2189 83.5,22C 81.5273,21.5045 79.5273,21.3379 77.5,21.5 Z"/></g>
<g><path style="opacity:1" fill="#331c17" d="M 77.5,22.5 C 79.8062,27.7854 82.1395,33.1187 84.5,38.5C 85.5778,41.4021 86.2444,44.4021 86.5,47.5C 85.391,47.5569 84.391,47.8902 83.5,48.5C 84.4663,46.4352 84.4663,44.1019 83.5,41.5C 81.6311,37.8795 79.9644,34.2128 78.5,30.5C 76.7211,28.6565 74.3878,27.9898 71.5,28.5C 69.7768,33.6127 67.7768,38.6127 65.5,43.5C 64.2089,44.5417 64.2089,45.7083 65.5,47C 64.9056,47.4643 64.2389,47.631 63.5,47.5C 63.1667,47.5 62.8333,47.5 62.5,47.5C 63.5564,42.3309 65.223,37.3309 67.5,32.5C 67.0431,31.7025 66.3764,31.3691 65.5,31.5C 65.8333,30.8333 66.1667,30.1667 66.5,29.5C 67.5,29.5 68.5,29.5 69.5,29.5C 69.0882,27.0274 70.0882,25.6941 72.5,25.5C 73.8333,25.5 75.1667,25.5 76.5,25.5C 76.2627,24.209 76.596,23.209 77.5,22.5 Z"/></g>
<g><path style="opacity:1" fill="#863d34" d="M 45.5,22.5 C 44.0892,24.914 42.0892,26.5806 39.5,27.5C 40.9108,25.086 42.9108,23.4194 45.5,22.5 Z"/></g>
<g><path style="opacity:1" fill="#b33c30" d="M 83.5,14.5 C 85.9052,15.7682 88.5718,16.4349 91.5,16.5C 99.837,19.1719 106.837,23.8386 112.5,30.5C 112.511,32.0174 113.177,33.1841 114.5,34C 114.272,34.3988 113.938,34.5654 113.5,34.5C 113.167,34.5 112.833,34.5 112.5,34.5C 110.097,31.093 107.097,28.4263 103.5,26.5C 101.733,24.1099 99.4001,22.4432 96.5,21.5C 89.6557,17.4949 82.1557,15.8282 74,16.5C 66.1488,15.7562 58.9821,17.4229 52.5,21.5C 49.1727,23.8249 45.8394,26.1582 42.5,28.5C 38.7502,31.5802 35.7502,35.2469 33.5,39.5C 32.1667,39.5 31.5,38.8333 31.5,37.5C 32.9063,37.0269 33.573,36.0269 33.5,34.5C 35.5869,33.4154 36.9202,31.7488 37.5,29.5C 37.8333,28.5 38.5,27.8333 39.5,27.5C 42.0892,26.5806 44.0892,24.914 45.5,22.5C 48.0078,20.0764 51.0078,18.4097 54.5,17.5C 57.1123,16.6295 59.779,15.9628 62.5,15.5C 69.4707,14.7103 76.4707,14.3769 83.5,14.5 Z"/></g>
<g><path style="opacity:1" fill="#62241d" d="M 69.5,21.5 C 71.9118,21.6941 72.9118,23.0274 72.5,25.5C 70.0882,25.6941 69.0882,27.0274 69.5,29.5C 68.5,29.5 67.5,29.5 66.5,29.5C 68.0598,27.0465 69.0598,24.3798 69.5,21.5 Z"/></g>
<g><path style="opacity:1" fill="#882922" d="M 52.5,21.5 C 52.628,23.6547 52.128,25.6547 51,27.5C 48.6667,29.8333 46.3333,32.1667 44,34.5C 44.5654,32.0348 45.732,29.7015 47.5,27.5C 47.3333,27.1667 47.1667,26.8333 47,26.5C 45.6703,27.5822 44.1703,28.2488 42.5,28.5C 45.8394,26.1582 49.1727,23.8249 52.5,21.5 Z"/></g>
<g><path style="opacity:1" fill="#a3241c" d="M 96.5,21.5 C 94.955,22.2297 94.1216,23.563 94,25.5C 88.9567,21.5264 83.4567,20.1931 77.5,21.5C 77.5,21.8333 77.5,22.1667 77.5,22.5C 76.596,23.209 76.2627,24.209 76.5,25.5C 75.1667,25.5 73.8333,25.5 72.5,25.5C 72.9118,23.0274 71.9118,21.6941 69.5,21.5C 64.4932,21.7509 59.4932,22.0843 54.5,22.5C 54.1583,21.6618 53.4916,21.3284 52.5,21.5C 58.9821,17.4229 66.1488,15.7562 74,16.5C 82.1557,15.8282 89.6557,17.4949 96.5,21.5 Z"/></g>
<g><path style="opacity:1" fill="#81352a" d="M 83.5,14.5 C 84.8333,14.5 86.1667,14.5 87.5,14.5C 89.153,14.6596 90.4863,15.3263 91.5,16.5C 88.5718,16.4349 85.9052,15.7682 83.5,14.5 Z"/></g>
<g><path style="opacity: .7;" fill="#83524d" d="M 62.5,14.5 C 62.5,14.8333 62.5,15.1667 62.5,15.5C 59.779,15.9628 57.1123,16.6295 54.5,17.5C 56.6174,15.3455 59.284,14.3455 62.5,14.5 Z"/></g>
<g><path style="opacity:1" fill="#893026" d="M 83.5,14.5 C 76.4707,14.3769 69.4707,14.7103 62.5,15.5C 62.5,15.1667 62.5,14.8333 62.5,14.5C 69.6493,13.306 76.6493,13.306 83.5,14.5 Z"/></g>
<g><path style="opacity: .7;" fill="#a6817e" d="M 87.5,14.5 C 86.1667,14.5 84.8333,14.5 83.5,14.5C 76.6493,13.306 69.6493,13.306 62.5,14.5C 62.9175,13.7784 63.5842,13.2784 64.5,13C 71.1667,12.3333 77.8333,12.3333 84.5,13C 85.7375,13.2321 86.7375,13.7321 87.5,14.5 Z"/></g>
<g><path style="opacity:1" fill="#3e1f18" d="M 38.5,79.5 C 37.9569,79.56 37.6236,79.8933 37.5,80.5C 38.1799,81.8599 38.8466,83.1932 39.5,84.5C 44.4713,94.1415 52.1379,100.475 62.5,103.5C 64.0348,104.788 65.7015,104.788 67.5,103.5C 66.291,101.059 64.6243,99.0592 62.5,97.5C 57.9343,95.2695 53.9343,92.2695 50.5,88.5C 51.5,87.8333 52.5,87.1667 53.5,86.5C 54.1667,86.5 54.8333,86.5 55.5,86.5C 56.675,86.281 57.675,86.6143 58.5,87.5C 53.4642,89.4113 53.6309,91.4113 59,93.5C 59.4922,92.451 59.3256,91.451 58.5,90.5C 59.325,89.6143 60.325,89.281 61.5,89.5C 64.4177,94.383 67.251,99.383 70,104.5C 71.0414,106.585 72.5414,108.252 74.5,109.5C 79.3283,103.183 83.6616,96.5159 87.5,89.5C 88.9432,90.3351 89.9432,91.6684 90.5,93.5C 95.3881,90.9158 95.3881,89.2491 90.5,88.5C 90.2627,87.209 90.596,86.209 91.5,85.5C 93.921,85.8782 96.2543,86.5448 98.5,87.5C 98.5,87.8333 98.5,88.1667 98.5,88.5C 97.3747,90.1288 96.0414,91.6288 94.5,93C 91.1019,94.3571 88.1019,96.1904 85.5,98.5C 84.0256,99.4363 83.0256,100.77 82.5,102.5C 81.9569,102.56 81.6236,102.893 81.5,103.5C 86.4073,103.932 91.074,102.765 95.5,100C 101.427,95.9099 106.093,90.7432 109.5,84.5C 110.441,82.9505 111.107,81.2838 111.5,79.5C 112.11,77.1497 112.444,77.483 112.5,80.5C 111.025,84.7835 109.025,88.7835 106.5,92.5C 102.98,97.1823 98.6471,101.016 93.5,104C 86.9536,105.772 80.7869,108.272 75,111.5C 70.1977,108.926 65.031,107.092 59.5,106C 56.0596,104.252 52.7263,102.419 49.5,100.5C 44.3843,95.2077 40.2176,89.2077 37,82.5C 36.2025,80.7412 36.3691,79.0745 37.5,77.5C 38.2975,77.9569 38.6309,78.6236 38.5,79.5 Z"/></g>
<g><path style="opacity:1" fill="#77352e" d="M 82.5,102.5 C 83.0256,100.77 84.0256,99.4363 85.5,98.5C 85.4346,98.9382 85.6012,99.2716 86,99.5C 89.3721,98.2305 92.5388,96.5639 95.5,94.5C 96.521,95.0016 96.6877,95.6683 96,96.5C 92.2757,100.279 87.7757,102.279 82.5,102.5 Z"/></g>
<g><path style="opacity:1" fill="#73332e" d="M 62.5,97.5 C 64.6243,99.0592 66.291,101.059 67.5,103.5C 65.7015,104.788 64.0348,104.788 62.5,103.5C 61.2665,101.931 59.2665,100.431 56.5,99C 58.7078,98.8091 60.7078,98.3091 62.5,97.5 Z"/></g>
<g><path style="opacity:1" fill="#8d3029" d="M 48.5,86.5 C 49.1667,87.1667 49.8333,87.8333 50.5,88.5C 53.9343,92.2695 57.9343,95.2695 62.5,97.5C 60.7078,98.3091 58.7078,98.8091 56.5,99C 59.2665,100.431 61.2665,101.931 62.5,103.5C 52.1379,100.475 44.4713,94.1415 39.5,84.5C 40.1499,84.1961 40.8165,83.8627 41.5,83.5C 43.795,83.6894 45.795,85.0228 47.5,87.5C 48.1067,87.3764 48.44,87.0431 48.5,86.5 Z"/></g>
<g><path style="opacity:1" fill="#9a3129" d="M 109.5,84.5 C 106.093,90.7432 101.427,95.9099 95.5,100C 91.074,102.765 86.4073,103.932 81.5,103.5C 81.6236,102.893 81.9569,102.56 82.5,102.5C 87.7757,102.279 92.2757,100.279 96,96.5C 96.6877,95.6683 96.521,95.0016 95.5,94.5C 92.5388,96.5639 89.3721,98.2305 86,99.5C 85.6012,99.2716 85.4346,98.9382 85.5,98.5C 88.1019,96.1904 91.1019,94.3571 94.5,93C 96.0414,91.6288 97.3747,90.1288 98.5,88.5C 99.1667,87.8333 99.8333,87.1667 100.5,86.5C 100.435,86.9382 100.601,87.2716 101,87.5C 101.923,86.2412 102.757,84.9079 103.5,83.5C 104.801,84.4779 105.968,84.1445 107,82.5C 108.011,83.0556 108.844,83.7222 109.5,84.5 Z"/></g>
<g><path style="opacity:1" fill="#49211b" d="M 81.5,85.5 C 80.4852,90.5289 78.1518,94.8622 74.5,98.5C 71.3568,94.5435 69.0235,90.2102 67.5,85.5C 67.4142,84.5041 67.7476,83.6708 68.5,83C 72.1667,82.3333 75.8333,82.3333 79.5,83C 80.756,83.4169 81.4226,84.2502 81.5,85.5 Z"/></g>
<g><path style="opacity:1" fill="#6d2621" d="M 93.5,78.5 C 94.1667,79.1667 94.8333,79.8333 95.5,80.5C 93.0029,81.1293 91.6696,82.796 91.5,85.5C 90.596,86.209 90.2627,87.209 90.5,88.5C 95.3881,89.2491 95.3881,90.9158 90.5,93.5C 89.9432,91.6684 88.9432,90.3351 87.5,89.5C 89.1054,86.6223 90.4388,83.6223 91.5,80.5C 92.1667,79.8333 92.8333,79.1667 93.5,78.5 Z"/></g>
<g><path style="opacity:1" fill="#742621" d="M 69.5,84.5 C 72.8333,84.5 76.1667,84.5 79.5,84.5C 76.239,95.1246 72.9057,95.1246 69.5,84.5 Z"/></g>
<g><path style="opacity:1" fill="#ac2d26" d="M 51.5,80.5 C 52.1667,80.5 52.8333,80.5 53.5,80.5C 54.4959,80.4142 55.3292,80.7476 56,81.5C 58.0807,83.5566 57.914,85.2233 55.5,86.5C 54.8333,86.5 54.1667,86.5 53.5,86.5C 50.6787,86.6841 49.0121,85.3507 48.5,82.5C 49.6016,81.8243 50.6016,81.1577 51.5,80.5 Z"/></g>
<g><path style="opacity:1" fill="#5f261f" d="M 47.5,80.5 C 48.8333,80.5 50.1667,80.5 51.5,80.5C 50.6016,81.1577 49.6016,81.8243 48.5,82.5C 49.0121,85.3507 50.6787,86.6841 53.5,86.5C 52.5,87.1667 51.5,87.8333 50.5,88.5C 49.8333,87.8333 49.1667,87.1667 48.5,86.5C 47.8505,84.5648 47.5172,82.5648 47.5,80.5 Z"/></g>
<g><path style="opacity:1" fill="#b5352c" d="M 111.5,79.5 C 111.107,81.2838 110.441,82.9505 109.5,84.5C 108.844,83.7222 108.011,83.0556 107,82.5C 105.968,84.1445 104.801,84.4779 103.5,83.5C 102.757,84.9079 101.923,86.2412 101,87.5C 100.601,87.2716 100.435,86.9382 100.5,86.5C 101.566,84.2986 102.233,81.9653 102.5,79.5C 105.5,79.5 108.5,79.5 111.5,79.5 Z"/></g>
<g><path style="opacity:1" fill="#ac302a" d="M 95.5,80.5 C 97.1172,81.038 98.7839,81.3713 100.5,81.5C 99.8333,83.5 99.1667,85.5 98.5,87.5C 96.2543,86.5448 93.921,85.8782 91.5,85.5C 91.6696,82.796 93.0029,81.1293 95.5,80.5 Z"/></g>
<g><path style="opacity:1" fill="#76271f" d="M 63.5,78.5 C 66.9486,79.6386 70.4486,80.6386 74,81.5C 76.7666,81.2447 79.4333,80.578 82,79.5C 83.0111,80.0556 83.8444,80.7222 84.5,81.5C 83.9744,83.2303 82.9744,84.5637 81.5,85.5C 81.4226,84.2502 80.756,83.4169 79.5,83C 75.8333,82.3333 72.1667,82.3333 68.5,83C 67.7476,83.6708 67.4142,84.5041 67.5,85.5C 65.4284,83.6505 64.0951,81.3171 63.5,78.5 Z"/></g>
<g><path style="opacity:1" fill="#ae3127" d="M 38.5,79.5 C 41.5,79.5 44.5,79.5 47.5,79.5C 47.5,79.8333 47.5,80.1667 47.5,80.5C 47.5172,82.5648 47.8505,84.5648 48.5,86.5C 48.44,87.0431 48.1067,87.3764 47.5,87.5C 45.795,85.0228 43.795,83.6894 41.5,83.5C 40.8165,83.8627 40.1499,84.1961 39.5,84.5C 38.8466,83.1932 38.1799,81.8599 37.5,80.5C 37.6236,79.8933 37.9569,79.56 38.5,79.5 Z"/></g>
<g><path style="opacity:1" fill="#612e28" d="M 106.5,92.5 C 105.55,95.0679 105.55,97.5679 106.5,100C 105.5,101 104.5,102 103.5,103C 104.094,103.464 104.761,103.631 105.5,103.5C 105.5,103.833 105.5,104.167 105.5,104.5C 104.609,105.11 103.609,105.443 102.5,105.5C 100.486,105.392 98.8195,106.058 97.5,107.5C 97.44,106.957 97.1067,106.624 96.5,106.5C 90.993,108.794 85.3264,110.627 79.5,112C 80.0944,112.464 80.7611,112.631 81.5,112.5C 77.1667,113.833 72.8333,113.833 68.5,112.5C 69.2389,112.631 69.9056,112.464 70.5,112C 64.9765,111.12 59.6432,109.62 54.5,107.5C 53.8933,107.624 53.56,107.957 53.5,108.5C 51.0202,107.758 48.6869,106.758 46.5,105.5C 44.9731,105.573 43.9731,104.906 43.5,103.5C 46.906,104.69 47.2393,104.023 44.5,101.5C 44.4701,100.503 44.9701,99.8361 46,99.5C 47.1385,99.9891 48.3052,100.322 49.5,100.5C 52.7263,102.419 56.0596,104.252 59.5,106C 65.031,107.092 70.1977,108.926 75,111.5C 80.7869,108.272 86.9536,105.772 93.5,104C 98.6471,101.016 102.98,97.1823 106.5,92.5 Z"/></g>
<g><path style="opacity:1" fill="#381d18" d="M 46.5,105.5 C 48.6869,106.758 51.0202,107.758 53.5,108.5C 58.184,110.921 63.184,112.255 68.5,112.5C 72.8333,113.833 77.1667,113.833 81.5,112.5C 87.3357,112.376 92.669,110.709 97.5,107.5C 98.8195,106.058 100.486,105.392 102.5,105.5C 102.5,106.5 102.5,107.5 102.5,108.5C 99.2084,108.647 96.2084,109.647 93.5,111.5C 92.8333,111.5 92.5,111.833 92.5,112.5C 83.8236,116.042 74.8236,117.042 65.5,115.5C 62.8872,114.565 60.2205,114.398 57.5,115C 55.1368,117.084 55.1368,118.917 57.5,120.5C 53.8141,120.87 52.8141,119.537 54.5,116.5C 55.9681,114.389 55.6348,112.556 53.5,111C 50.7616,108.393 48.0949,108.226 45.5,110.5C 46.038,108.883 46.3713,107.216 46.5,105.5 Z"/></g>
<g><path style="opacity:1" fill="#863328" d="M 97.5,107.5 C 92.669,110.709 87.3357,112.376 81.5,112.5C 80.7611,112.631 80.0944,112.464 79.5,112C 85.3264,110.627 90.993,108.794 96.5,106.5C 97.1067,106.624 97.44,106.957 97.5,107.5 Z"/></g>
<g><path style="opacity:1" fill="#8c342a" d="M 53.5,108.5 C 53.56,107.957 53.8933,107.624 54.5,107.5C 59.6432,109.62 64.9765,111.12 70.5,112C 69.9056,112.464 69.2389,112.631 68.5,112.5C 63.184,112.255 58.184,110.921 53.5,108.5 Z"/></g>
<g><path style="opacity:1" fill="#972d26" d="M 102.5,108.5 C 103.167,108.5 103.5,108.833 103.5,109.5C 105.167,113.5 106.833,117.5 108.5,121.5C 106.496,120.327 104.996,118.66 104,116.5C 103.244,118.809 103.744,120.809 105.5,122.5C 105,122.833 104.5,123.167 104,123.5C 102.146,121.977 100.646,120.144 99.5,118C 98.2068,117.51 96.8734,117.343 95.5,117.5C 95.2964,115.315 94.6298,113.315 93.5,111.5C 96.2084,109.647 99.2084,108.647 102.5,108.5 Z"/></g>
<g><path style="opacity:1" fill="#922b25" d="M 54.5,116.5 C 52.7868,117.635 52.1201,119.302 52.5,121.5C 54.5273,121.338 56.5273,121.505 58.5,122C 55.6484,122.269 52.9818,123.103 50.5,124.5C 49.6143,123.675 49.281,122.675 49.5,121.5C 45.4348,120.478 44.6014,118.145 47,114.5C 48.8402,115.833 49.3402,115.666 48.5,114C 53.3787,113.889 53.712,112.722 49.5,110.5C 47.0436,112.058 45.0436,114.058 43.5,116.5C 42.6143,115.675 42.281,114.675 42.5,113.5C 43.1667,112.5 43.8333,111.5 44.5,110.5C 44.8333,110.5 45.1667,110.5 45.5,110.5C 48.0949,108.226 50.7616,108.393 53.5,111C 55.6348,112.556 55.9681,114.389 54.5,116.5 Z"/></g>
<g><path style="opacity: .7;" fill="#471e17" d="M 92.5,112.5 C 93.7231,114.872 94.7231,117.372 95.5,120C 91.5138,120.499 87.5138,120.666 83.5,120.5C 86.6414,119.679 89.9748,119.179 93.5,119C 92.9505,117.155 91.9505,115.655 90.5,114.5C 90.1667,114.667 89.8333,114.833 89.5,115C 90.3567,115.689 91.0233,116.522 91.5,117.5C 80.3478,120.161 69.3478,119.994 58.5,117C 61.0356,116.814 63.369,116.314 65.5,115.5C 74.8236,117.042 83.8236,116.042 92.5,112.5 Z"/></g>
<g><path style="opacity:1" fill="#65221c" d="M 65.5,115.5 C 63.369,116.314 61.0356,116.814 58.5,117C 69.3478,119.994 80.3478,120.161 91.5,117.5C 91.0233,116.522 90.3567,115.689 89.5,115C 89.8333,114.833 90.1667,114.667 90.5,114.5C 91.9505,115.655 92.9505,117.155 93.5,119C 89.9748,119.179 86.6414,119.679 83.5,120.5C 76.8333,120.5 70.1667,120.5 63.5,120.5C 61.5,120.5 59.5,120.5 57.5,120.5C 55.1368,118.917 55.1368,117.084 57.5,115C 60.2205,114.398 62.8872,114.565 65.5,115.5 Z"/></g>
<g><path style="opacity:1" fill="#78332d" d="M 103.5,109.5 C 103.833,109.5 104.167,109.5 104.5,109.5C 107.925,114.255 110.925,119.255 113.5,124.5C 113.672,125.492 113.338,126.158 112.5,126.5C 110.926,125.016 109.593,123.349 108.5,121.5C 106.833,117.5 105.167,113.5 103.5,109.5 Z"/></g>
<g><path style="opacity:1" fill="#822f29" d="M 54.5,116.5 C 52.8141,119.537 53.8141,120.87 57.5,120.5C 59.5,120.5 61.5,120.5 63.5,120.5C 64.9187,121.451 66.5853,121.784 68.5,121.5C 66.6309,122.165 64.6309,122.831 62.5,123.5C 64.7368,124.132 66.4035,125.465 67.5,127.5C 74.8407,128.622 81.8407,128.622 88.5,127.5C 88.5,128.167 88.5,128.833 88.5,129.5C 79.8333,129.5 71.1667,129.5 62.5,129.5C 53.8974,129.537 45.5641,130.871 37.5,133.5C 36.4138,133.38 35.7472,132.713 35.5,131.5C 36.3022,128.551 36.6355,125.551 36.5,122.5C 38.2651,119.291 40.2651,116.291 42.5,113.5C 42.281,114.675 42.6143,115.675 43.5,116.5C 45.0436,114.058 47.0436,112.058 49.5,110.5C 53.712,112.722 53.3787,113.889 48.5,114C 49.3402,115.666 48.8402,115.833 47,114.5C 44.6014,118.145 45.4348,120.478 49.5,121.5C 49.281,122.675 49.6143,123.675 50.5,124.5C 52.9818,123.103 55.6484,122.269 58.5,122C 56.5273,121.505 54.5273,121.338 52.5,121.5C 52.1201,119.302 52.7868,117.635 54.5,116.5 Z"/></g>
<g><path style="opacity:1" fill="#8a2d27" d="M 93.5,111.5 C 94.6298,113.315 95.2964,115.315 95.5,117.5C 96.8734,117.343 98.2068,117.51 99.5,118C 100.646,120.144 102.146,121.977 104,123.5C 104.5,123.167 105,122.833 105.5,122.5C 103.744,120.809 103.244,118.809 104,116.5C 104.996,118.66 106.496,120.327 108.5,121.5C 109.593,123.349 110.926,125.016 112.5,126.5C 112.586,128.677 113.253,130.677 114.5,132.5C 112.604,133.466 110.604,133.799 108.5,133.5C 106.852,132.073 104.852,131.24 102.5,131C 97.8627,130.171 93.196,129.671 88.5,129.5C 88.5,128.833 88.5,128.167 88.5,127.5C 93.8333,126.833 93.8333,126.167 88.5,125.5C 88.67,124.178 88.3366,123.011 87.5,122C 81.1754,121.5 74.8421,121.334 68.5,121.5C 66.5853,121.784 64.9187,121.451 63.5,120.5C 70.1667,120.5 76.8333,120.5 83.5,120.5C 87.5138,120.666 91.5138,120.499 95.5,120C 94.7231,117.372 93.7231,114.872 92.5,112.5C 92.5,111.833 92.8333,111.5 93.5,111.5 Z"/></g>
<g><path style="opacity:1" fill="#7c342f" d="M 68.5,121.5 C 74.8421,121.334 81.1754,121.5 87.5,122C 88.3366,123.011 88.67,124.178 88.5,125.5C 93.8333,126.167 93.8333,126.833 88.5,127.5C 81.8407,128.622 74.8407,128.622 67.5,127.5C 66.4035,125.465 64.7368,124.132 62.5,123.5C 64.6309,122.831 66.6309,122.165 68.5,121.5 Z"/></g>
<g><path style="opacity:1" fill="#59332e" d="M 113.5,124.5 C 115.806,128.085 117.139,132.085 117.5,136.5C 114.254,135.946 111.254,134.946 108.5,133.5C 110.604,133.799 112.604,133.466 114.5,132.5C 113.253,130.677 112.586,128.677 112.5,126.5C 113.338,126.158 113.672,125.492 113.5,124.5 Z"/></g>
<g><path style="opacity:1" fill="#4c302b" d="M 36.5,122.5 C 36.6355,125.551 36.3022,128.551 35.5,131.5C 35.7472,132.713 36.4138,133.38 37.5,133.5C 37.5,133.833 37.5,134.167 37.5,134.5C 35.8828,135.038 34.2161,135.371 32.5,135.5C 32.5,134.5 32.5,133.5 32.5,132.5C 33.2623,128.867 34.5957,125.534 36.5,122.5 Z"/></g>
<g><path style="opacity:1" fill="#49251f" d="M 62.5,130.5 C 62.5,130.167 62.5,129.833 62.5,129.5C 71.1667,129.5 79.8333,129.5 88.5,129.5C 93.196,129.671 97.8627,130.171 102.5,131C 104.852,131.24 106.852,132.073 108.5,133.5C 102.526,132.615 96.5258,131.949 90.5,131.5C 81.3483,130.506 72.015,130.173 62.5,130.5 Z"/></g>
<g><path style="opacity: .7;" fill="#6c6866" d="M 62.5,130.5 C 72.015,130.173 81.3483,130.506 90.5,131.5C 76.8155,131.329 63.1488,131.662 49.5,132.5C 53.6181,131.291 57.9515,130.624 62.5,130.5 Z"/></g>
<g><path style="opacity:1" fill="#30231c" d="M 62.5,129.5 C 62.5,129.833 62.5,130.167 62.5,130.5C 57.9515,130.624 53.6181,131.291 49.5,132.5C 45.426,132.782 41.426,133.448 37.5,134.5C 37.5,134.167 37.5,133.833 37.5,133.5C 45.5641,130.871 53.8974,129.537 62.5,129.5 Z"/></g>
<g><path style="opacity: .7;" fill="#8d8b89" d="M 90.5,131.5 C 96.5258,131.949 102.526,132.615 108.5,133.5C 111.254,134.946 114.254,135.946 117.5,136.5C 117.5,137.5 117.5,138.5 117.5,139.5C 95.1361,133.579 72.4694,132.079 49.5,135C 43.6865,136.036 38.0198,137.536 32.5,139.5C 31.2031,137.027 31.2031,134.693 32.5,132.5C 32.5,133.5 32.5,134.5 32.5,135.5C 34.2161,135.371 35.8828,135.038 37.5,134.5C 41.426,133.448 45.426,132.782 49.5,132.5C 63.1488,131.662 76.8155,131.329 90.5,131.5 Z"/></g>
</svg>