<svg xmlns="http://www.w3.org/2000/svg" xmlns:xlink="http://www.w3.org/1999/xlink" version="1.1" width="154px" height="154px" style="shape-rendering:geometricPrecision;text-rendering:geometricPrecision;image-rendering:optimizeQuality;fill-rule:evenodd;clip-rule:evenodd;">
<g/>
<g/>
<g><path style="opacity: .7;" fill="#7e564e" d="M 79.5,9.5 C 78.1851,8.52435 76.8518,7.52435 75.5,6.5C 74.1482,7.52435 72.8149,8.52435 71.5,9.5C 74.1667,2.83333 76.8333,2.83333 79.5,9.5 Z"/></g>
<g><path style="opacity:1" fill="#a74941" d="M 79.5,9.5 C 81.9501,11.6291 83.6167,14.2957 84.5,17.5C 83.8333,17.5 83.1667,17.5 82.5,17.5C 80.8004,15.7901 79.4671,13.7901 78.5,11.5C 76.9245,10.554 75.2578,10.554 73.5,11.5C 72.2867,11.2528 71.62,10.5862 71.5,9.5C 72.8149,8.52435 74.1482,7.52435 75.5,6.5C 76.8518,7.52435 78.1851,8.52435 79.5,9.5 Z"/></g>
<g><path style="opacity: .7;" fill="#7f5250" d="M 69.5,12.5 C 69.573,14.0269 68.9063,15.0269 67.5,15.5C 67.427,13.9731 68.0937,12.9731 69.5,12.5 Z"/></g>
<g><path style="opacity: .7;" fill="#75413a" d="M 66.5,17.5 C 65.4878,20.2572 64.4878,22.9239 63.5,25.5C 63.6716,24.5084 63.3382,23.8417 62.5,23.5C 63.463,22.6365 63.463,21.9698 62.5,21.5C 59.3576,22.7201 56.691,24.3867 54.5,26.5C 52.139,26.3259 49.8056,25.9926 47.5,25.5C 45.6505,23.4284 43.3171,22.0951 40.5,21.5C 40.7352,20.9033 41.2352,20.5699 42,20.5C 45.1141,21.9742 48.2808,23.3075 51.5,24.5C 56.6722,22.4123 61.6722,20.079 66.5,17.5 Z"/></g>
<g><path style="opacity:1" fill="#762a25" d="M 71.5,9.5 C 71.62,10.5862 72.2867,11.2528 73.5,11.5C 75.2578,10.554 76.9245,10.554 78.5,11.5C 79.4671,13.7901 80.8004,15.7901 82.5,17.5C 83.7634,19.6964 84.7634,22.0297 85.5,24.5C 84.6401,26.2716 83.3068,27.6049 81.5,28.5C 79.5005,24.5106 77.5005,20.5106 75.5,16.5C 74.4164,17.6651 73.5831,18.9984 73,20.5C 71.4905,19.9103 69.9905,19.2436 68.5,18.5C 69.373,16.5866 70.373,14.7533 71.5,13C 70.9056,12.5357 70.2389,12.369 69.5,12.5C 69.427,10.9731 70.0937,9.97306 71.5,9.5 Z"/></g>
<g><path style="opacity: .7;" fill="#82483f" d="M 85.5,19.5 C 90.0717,20.7756 94.5717,22.4423 99,24.5C 102.339,22.747 105.839,21.4137 109.5,20.5C 110.713,20.7472 111.38,21.4138 111.5,22.5C 111.167,22.5 110.833,22.5 110.5,22.5C 110.44,21.9569 110.107,21.6236 109.5,21.5C 105.687,24.0063 101.687,26.0063 97.5,27.5C 97.1667,27.5 96.8333,27.5 96.5,27.5C 95.3285,26.6554 93.9952,25.9887 92.5,25.5C 91.3588,24.661 90.0255,23.9943 88.5,23.5C 87.8933,23.6236 87.56,23.9569 87.5,24.5C 86.6908,22.9724 86.0241,21.3057 85.5,19.5 Z"/></g>
<g><path style="opacity:1" fill="#af4034" d="M 62.5,23.5 C 60.0722,25.0435 57.4056,26.0435 54.5,26.5C 56.691,24.3867 59.3576,22.7201 62.5,21.5C 63.463,21.9698 63.463,22.6365 62.5,23.5 Z"/></g>
<g><path style="opacity:1" fill="#4c231e" d="M 62.5,23.5 C 63.3382,23.8417 63.6716,24.5084 63.5,25.5C 62.0582,26.8195 61.3915,28.4862 61.5,30.5C 60.8333,30.8333 60.1667,31.1667 59.5,31.5C 57.5,30.1667 55.8333,28.5 54.5,26.5C 57.4056,26.0435 60.0722,25.0435 62.5,23.5 Z"/></g>
<g><path style="opacity: .7;" fill="#6d302a" d="M 40.5,21.5 C 40.9801,26.8221 41.3135,32.1554 41.5,37.5C 37.773,37.5047 34.773,36.1714 32.5,33.5C 34.258,33.8769 35.9246,34.5435 37.5,35.5C 38.7911,30.7659 39.7911,26.0993 40.5,21.5 Z"/></g>
<g><path style="opacity:1" fill="#41211b" d="M 92.5,25.5 C 93.9952,25.9887 95.3285,26.6554 96.5,27.5C 95.5,28.5 94.5,29.5 93.5,30.5C 92.8333,30.8333 92.1667,31.1667 91.5,31.5C 90.9569,31.44 90.6236,31.1067 90.5,30.5C 92.2018,28.8421 92.8684,27.1754 92.5,25.5 Z"/></g>
<g><path style="opacity:1" fill="#832e28" d="M 110.5,22.5 C 110.833,22.5 111.167,22.5 111.5,22.5C 111.5,23.5 111.5,24.5 111.5,25.5C 111.371,29.4766 111.371,33.1433 111.5,36.5C 109.465,38.1947 107.132,39.528 104.5,40.5C 104.167,39.8333 103.833,39.1667 103.5,38.5C 105.435,37.8505 107.435,37.5172 109.5,37.5C 109.221,32.4053 109.555,27.4053 110.5,22.5 Z"/></g>
<g><path style="opacity:1" fill="#9d342d" d="M 69.5,12.5 C 70.2389,12.369 70.9056,12.5357 71.5,13C 70.373,14.7533 69.373,16.5866 68.5,18.5C 69.9905,19.2436 71.4905,19.9103 73,20.5C 73.5831,18.9984 74.4164,17.6651 75.5,16.5C 77.5005,20.5106 79.5005,24.5106 81.5,28.5C 83.3068,27.6049 84.6401,26.2716 85.5,24.5C 84.7634,22.0297 83.7634,19.6964 82.5,17.5C 83.1667,17.5 83.8333,17.5 84.5,17.5C 85.3382,17.8417 85.6716,18.5084 85.5,19.5C 86.0241,21.3057 86.6908,22.9724 87.5,24.5C 88.6238,26.731 89.1238,29.0643 89,31.5C 86.6667,33.1667 84.6667,35.1667 83,37.5C 82.7216,36.5842 82.2216,35.9175 81.5,35.5C 80.5236,31.0735 78.8569,26.9068 76.5,23C 75.5509,22.3828 74.7175,22.5494 74,23.5C 73.3923,25.1545 72.8923,26.8211 72.5,28.5C 70.7757,31.3448 69.4423,34.3448 68.5,37.5C 66.0158,35.4032 63.6824,33.0699 61.5,30.5C 61.3915,28.4862 62.0582,26.8195 63.5,25.5C 64.4878,22.9239 65.4878,20.2572 66.5,17.5C 66.3284,16.5084 66.6618,15.8417 67.5,15.5C 68.9063,15.0269 69.573,14.0269 69.5,12.5 Z"/></g>
<g><path style="opacity:1" fill="#652822" d="M 67.5,20.5 C 68.4778,20.811 69.1445,21.4777 69.5,22.5C 68.6906,24.0709 68.3573,25.7376 68.5,27.5C 67.325,27.719 66.325,27.3857 65.5,26.5C 66.3721,24.5504 67.0388,22.5504 67.5,20.5 Z"/></g>
<g><path style="opacity:1" fill="#882f2a" d="M 103.5,32.5 C 101.184,33.8056 98.8505,35.1389 96.5,36.5C 95.325,36.719 94.325,36.3857 93.5,35.5C 94.3829,34.452 95.0496,33.2853 95.5,32C 95.1639,30.9701 94.4972,30.4701 93.5,30.5C 94.5,29.5 95.5,28.5 96.5,27.5C 96.8333,27.5 97.1667,27.5 97.5,27.5C 97.9169,28.1239 98.5836,28.4573 99.5,28.5C 101.944,26.9462 104.611,25.9462 107.5,25.5C 107.5,27.8333 107.5,30.1667 107.5,32.5C 106.167,32.5 104.833,32.5 103.5,32.5 Z"/></g>
<g><path style="opacity:1" fill="#792d28" d="M 47.5,25.5 C 51.3543,28.021 55.1876,30.6877 59,33.5C 59.3329,35.9342 58.1662,36.9342 55.5,36.5C 54.8333,36.1667 54.1667,35.8333 53.5,35.5C 53.3921,33.2166 52.5588,31.2166 51,29.5C 48.7713,30.5696 46.6047,31.4029 44.5,32C 45.6682,30.5944 45.3348,29.4277 43.5,28.5C 44.0766,26.4501 45.4099,25.4501 47.5,25.5 Z"/></g>
<g><path style="opacity:1" fill="#ab3a30" d="M 110.5,22.5 C 109.555,27.4053 109.221,32.4053 109.5,37.5C 107.435,37.5172 105.435,37.8505 103.5,38.5C 103.5,37.1667 103.5,35.8333 103.5,34.5C 103.5,33.8333 103.5,33.1667 103.5,32.5C 104.833,32.5 106.167,32.5 107.5,32.5C 107.5,30.1667 107.5,27.8333 107.5,25.5C 104.611,25.9462 101.944,26.9462 99.5,28.5C 98.5836,28.4573 97.9169,28.1239 97.5,27.5C 101.687,26.0063 105.687,24.0063 109.5,21.5C 110.107,21.6236 110.44,21.9569 110.5,22.5 Z"/></g>
<g><path style="opacity:1" fill="#732b23" d="M 61.5,30.5 C 63.6824,33.0699 66.0158,35.4032 68.5,37.5C 68.5,38.1667 68.5,38.8333 68.5,39.5C 67.1667,38.5 65.8333,37.5 64.5,36.5C 63.1394,34.4727 61.4727,32.806 59.5,31.5C 60.1667,31.1667 60.8333,30.8333 61.5,30.5 Z"/></g>
<g><path style="opacity:1" fill="#41231e" d="M 81.5,35.5 C 81.5,36.1667 81.5,36.8333 81.5,37.5C 80.0335,34.7417 79.3668,35.075 79.5,38.5C 77.1667,38.5 74.8333,38.5 72.5,38.5C 72.2053,36.2646 72.5386,34.2646 73.5,32.5C 73.5,33.8333 73.5,35.1667 73.5,36.5C 75.1667,36.5 76.8333,36.5 78.5,36.5C 78.7841,33.1427 77.4507,30.8094 74.5,29.5C 76.7739,26.1257 76.1073,25.7923 72.5,28.5C 72.8923,26.8211 73.3923,25.1545 74,23.5C 74.7175,22.5494 75.5509,22.3828 76.5,23C 78.8569,26.9068 80.5236,31.0735 81.5,35.5 Z"/></g>
<g><path style="opacity:1" fill="#692a24" d="M 92.5,25.5 C 92.8684,27.1754 92.2018,28.8421 90.5,30.5C 90.6236,31.1067 90.9569,31.44 91.5,31.5C 91.1667,32.1667 90.8333,32.8333 90.5,33.5C 87.8159,35.1933 85.1492,36.86 82.5,38.5C 81.8333,38.5 81.5,38.1667 81.5,37.5C 81.5,36.8333 81.5,36.1667 81.5,35.5C 82.2216,35.9175 82.7216,36.5842 83,37.5C 84.6667,35.1667 86.6667,33.1667 89,31.5C 89.1238,29.0643 88.6238,26.731 87.5,24.5C 87.56,23.9569 87.8933,23.6236 88.5,23.5C 90.0255,23.9943 91.3588,24.661 92.5,25.5 Z"/></g>
<g><path style="opacity:1" fill="#c3c2c2" d="M 20.5,31.5 C 20.3253,33.6208 20.6586,35.6208 21.5,37.5C 22.5778,40.4021 23.2444,43.4021 23.5,46.5C 20.5727,41.7629 19.5727,36.7629 20.5,31.5 Z"/></g>
<g><path style="opacity:1" fill="#753d35" d="M 111.5,25.5 C 112.166,28.6893 112.833,32.0227 113.5,35.5C 117.6,33.3553 121.933,32.0219 126.5,31.5C 128.099,31.2322 129.432,31.5655 130.5,32.5C 123.96,33.0172 117.627,34.3506 111.5,36.5C 111.371,33.1433 111.371,29.4766 111.5,25.5 Z"/></g>
<g><path style="opacity: .7;" fill="#bab1af" d="M 126.5,31.5 C 127.919,30.5489 129.585,30.2155 131.5,30.5C 131.841,34.1595 131.175,37.4928 129.5,40.5C 129.517,38.4352 129.85,36.4352 130.5,34.5C 130.5,33.8333 130.5,33.1667 130.5,32.5C 129.432,31.5655 128.099,31.2322 126.5,31.5 Z"/></g>
<g><path style="opacity:1" fill="#8e302b" d="M 74.5,29.5 C 77.4507,30.8094 78.7841,33.1427 78.5,36.5C 76.8333,36.5 75.1667,36.5 73.5,36.5C 73.5,35.1667 73.5,33.8333 73.5,32.5C 73.5569,31.391 73.8902,30.391 74.5,29.5 Z"/></g>
<g><path style="opacity:1" fill="#913026" d="M 40.5,21.5 C 43.3171,22.0951 45.6505,23.4284 47.5,25.5C 45.4099,25.4501 44.0766,26.4501 43.5,28.5C 45.3348,29.4277 45.6682,30.5944 44.5,32C 46.6047,31.4029 48.7713,30.5696 51,29.5C 52.5588,31.2166 53.3921,33.2166 53.5,35.5C 51.6064,34.9524 49.9397,33.9524 48.5,32.5C 48.1667,32.8333 47.8333,33.1667 47.5,33.5C 48.2427,34.1818 48.9094,34.8485 49.5,35.5C 47.953,36.7682 46.953,38.4348 46.5,40.5C 44.6316,39.7368 42.9649,38.7368 41.5,37.5C 41.3135,32.1554 40.9801,26.8221 40.5,21.5 Z"/></g>
<g><path style="opacity:1" fill="#a1312c" d="M 93.5,30.5 C 94.4972,30.4701 95.1639,30.9701 95.5,32C 95.0496,33.2853 94.3829,34.452 93.5,35.5C 94.325,36.3857 95.325,36.719 96.5,36.5C 95.3915,37.29 94.0581,37.79 92.5,38C 91.6476,40.3617 90.1476,42.1951 88,43.5C 87.2446,46.4973 88.0779,48.9973 90.5,51C 88.2487,50.7932 85.9154,50.6265 83.5,50.5C 83.3354,47.4816 83.502,44.4816 84,41.5C 85.7635,40.0563 87.7635,39.0563 90,38.5C 90.2734,36.8988 90.7734,35.3988 91.5,34C 91.2716,33.6012 90.9382,33.4346 90.5,33.5C 90.8333,32.8333 91.1667,32.1667 91.5,31.5C 92.1667,31.1667 92.8333,30.8333 93.5,30.5 Z"/></g>
<g><path style="opacity:1" fill="#a33029" d="M 47.5,25.5 C 49.8056,25.9926 52.139,26.3259 54.5,26.5C 55.8333,28.5 57.5,30.1667 59.5,31.5C 61.4727,32.806 63.1394,34.4727 64.5,36.5C 63.9569,36.56 63.6236,36.8933 63.5,37.5C 64.3128,38.8139 65.3128,39.9805 66.5,41C 65.2164,42.2975 65.3831,43.4642 67,44.5C 67.6667,46.1667 67.6667,47.8333 67,49.5C 64.9124,50.3081 62.9124,51.3081 61,52.5C 61.3381,49.3748 62.0048,46.3748 63,43.5C 60.8693,40.5619 58.3693,38.2286 55.5,36.5C 58.1662,36.9342 59.3329,35.9342 59,33.5C 55.1876,30.6877 51.3543,28.021 47.5,25.5 Z"/></g>
<g><path style="opacity:1" fill="#251914" d="M 74.5,29.5 C 73.8902,30.391 73.5569,31.391 73.5,32.5C 72.5386,34.2646 72.2053,36.2646 72.5,38.5C 74.8333,38.5 77.1667,38.5 79.5,38.5C 79.3668,35.075 80.0335,34.7417 81.5,37.5C 81.5,38.1667 81.8333,38.5 82.5,38.5C 81.8333,39.5 81.1667,40.5 80.5,41.5C 77.1445,41.0914 74.1445,41.7581 71.5,43.5C 70.853,41.8595 69.853,40.5261 68.5,39.5C 68.5,38.8333 68.5,38.1667 68.5,37.5C 69.4423,34.3448 70.7757,31.3448 72.5,28.5C 76.1073,25.7923 76.7739,26.1257 74.5,29.5 Z"/></g>
<g><path style="opacity: .7;" fill="#61514e" d="M 21.5,37.5 C 23.5755,40.0746 24.9088,43.0746 25.5,46.5C 25.7845,48.4147 25.4511,50.0813 24.5,51.5C 24.7845,49.5853 24.4511,47.9187 23.5,46.5C 23.2444,43.4021 22.5778,40.4021 21.5,37.5 Z"/></g>
<g><path style="opacity: .7;" fill="#753830" d="M 29.5,33.5 C 27.1432,33.3367 24.8098,33.5034 22.5,34C 24.858,37.911 26.5247,42.0777 27.5,46.5C 26.8333,46.5 26.1667,46.5 25.5,46.5C 24.9088,43.0746 23.5755,40.0746 21.5,37.5C 20.6586,35.6208 20.3253,33.6208 20.5,31.5C 20.7352,30.9033 21.2352,30.5699 22,30.5C 24.8193,30.9821 27.3193,31.9821 29.5,33.5 Z"/></g>
<g><path style="opacity:1" fill="#341d19" d="M 103.5,34.5 C 103.5,35.8333 103.5,37.1667 103.5,38.5C 103.833,39.1667 104.167,39.8333 104.5,40.5C 104.167,40.5 103.833,40.5 103.5,40.5C 100.967,39.4387 98.967,40.2721 97.5,43C 98.056,43.3826 98.3893,43.8826 98.5,44.5C 97.8333,46.5 96.5,47.8333 94.5,48.5C 92.0425,48.0739 90.8758,46.7406 91,44.5C 95.0603,40.9296 99.2269,37.5962 103.5,34.5 Z"/></g>
<g><path style="opacity:1" fill="#ad3127" d="M 29.5,33.5 C 30.5,33.5 31.5,33.5 32.5,33.5C 34.773,36.1714 37.773,37.5047 41.5,37.5C 42.9649,38.7368 44.6316,39.7368 46.5,40.5C 48.9113,41.517 50.578,43.1837 51.5,45.5C 51.631,46.2389 51.4643,46.9056 51,47.5C 48.7487,45.6227 46.2487,44.1227 43.5,43C 41.1913,42.2438 39.1913,42.7438 37.5,44.5C 35.3019,43.061 34.6352,43.3944 35.5,45.5C 39.6395,46.7411 43.6395,48.2411 47.5,50C 46.552,50.4828 45.552,50.6495 44.5,50.5C 42.2779,49.3124 39.9446,48.3124 37.5,47.5C 36.7084,48.6998 36.7084,50.0331 37.5,51.5C 36.4905,54.9236 35.4905,58.2569 34.5,61.5C 31.9138,56.6586 29.5804,51.6586 27.5,46.5C 26.5247,42.0777 24.858,37.911 22.5,34C 24.8098,33.5034 27.1432,33.3367 29.5,33.5 Z"/></g>
<g><path style="opacity:1" fill="#54211a" d="M 103.5,40.5 C 103.771,42.3797 103.104,43.713 101.5,44.5C 100.5,44.5 99.5,44.5 98.5,44.5C 98.3893,43.8826 98.056,43.3826 97.5,43C 98.967,40.2721 100.967,39.4387 103.5,40.5 Z"/></g>
<g><path style="opacity:1" fill="#b23229" d="M 130.5,32.5 C 130.5,33.1667 130.5,33.8333 130.5,34.5C 129.5,34.5 128.5,34.5 127.5,34.5C 125.833,39.8333 124.167,45.1667 122.5,50.5C 120.269,53.8363 118.603,57.503 117.5,61.5C 116.213,62.7683 115.213,62.435 114.5,60.5C 113.391,61.5896 112.391,61.5896 111.5,60.5C 112.809,56.8929 113.809,53.2262 114.5,49.5C 114.631,48.6236 114.298,47.9569 113.5,47.5C 110.222,49.0355 106.889,50.3689 103.5,51.5C 100.533,48.8915 100.867,48.2248 104.5,49.5C 107.469,48.4621 110.136,46.9621 112.5,45C 111.663,43.9887 111.33,42.8221 111.5,41.5C 108.54,42.7591 105.54,44.0925 102.5,45.5C 101.893,45.3764 101.56,45.0431 101.5,44.5C 103.104,43.713 103.771,42.3797 103.5,40.5C 103.833,40.5 104.167,40.5 104.5,40.5C 107.132,39.528 109.465,38.1947 111.5,36.5C 117.627,34.3506 123.96,33.0172 130.5,32.5 Z"/></g>
<g><path style="opacity: .7;" fill="#b3b1af" d="M 129.5,40.5 C 129.843,42.4832 129.176,43.8166 127.5,44.5C 127.157,42.5168 127.824,41.1834 129.5,40.5 Z"/></g>
<g><path style="opacity:1" fill="#8c2d28" d="M 103.5,51.5 C 101.802,54.1239 99.9688,54.1239 98,51.5C 97.6012,51.7284 97.4346,52.0618 97.5,52.5C 96.5116,51.205 95.5116,49.8717 94.5,48.5C 96.5,47.8333 97.8333,46.5 98.5,44.5C 99.5,44.5 100.5,44.5 101.5,44.5C 101.56,45.0431 101.893,45.3764 102.5,45.5C 105.54,44.0925 108.54,42.7591 111.5,41.5C 111.33,42.8221 111.663,43.9887 112.5,45C 110.136,46.9621 107.469,48.4621 104.5,49.5C 100.867,48.2248 100.533,48.8915 103.5,51.5 Z"/></g>
<g><path style="opacity:1" fill="#98342f" d="M 51.5,45.5 C 53.2517,45.4176 54.2517,46.2509 54.5,48C 52.3355,54.1955 49.0022,55.0288 44.5,50.5C 45.552,50.6495 46.552,50.4828 47.5,50C 43.6395,48.2411 39.6395,46.7411 35.5,45.5C 34.6352,43.3944 35.3019,43.061 37.5,44.5C 39.1913,42.7438 41.1913,42.2438 43.5,43C 46.2487,44.1227 48.7487,45.6227 51,47.5C 51.4643,46.9056 51.631,46.2389 51.5,45.5 Z"/></g>
<g><path style="opacity:1" fill="#6f2f29" d="M 130.5,34.5 C 129.85,36.4352 129.517,38.4352 129.5,40.5C 127.824,41.1834 127.157,42.5168 127.5,44.5C 126.18,46.8317 124.513,48.8317 122.5,50.5C 124.167,45.1667 125.833,39.8333 127.5,34.5C 128.5,34.5 129.5,34.5 130.5,34.5 Z"/></g>
<g><path style="opacity:1" fill="#c3382e" d="M 103.5,32.5 C 103.5,33.1667 103.5,33.8333 103.5,34.5C 99.2269,37.5962 95.0603,40.9296 91,44.5C 90.8758,46.7406 92.0425,48.0739 94.5,48.5C 95.5116,49.8717 96.5116,51.205 97.5,52.5C 97.9321,53.7095 98.5987,54.7095 99.5,55.5C 99.5,55.8333 99.5,56.1667 99.5,56.5C 99.8034,59.5876 98.4701,61.2542 95.5,61.5C 95.8743,65.6474 94.8743,69.3141 92.5,72.5C 92.5,71.5 92.5,70.5 92.5,69.5C 92.8064,66.6146 92.4731,63.9479 91.5,61.5C 89.76,56.5907 86.4266,53.0907 81.5,51C 80.2068,50.51 78.8734,50.3433 77.5,50.5C 77.1289,46.9966 78.1289,43.9966 80.5,41.5C 81.1667,40.5 81.8333,39.5 82.5,38.5C 85.1492,36.86 87.8159,35.1933 90.5,33.5C 90.9382,33.4346 91.2716,33.6012 91.5,34C 90.7734,35.3988 90.2734,36.8988 90,38.5C 87.7635,39.0563 85.7635,40.0563 84,41.5C 83.502,44.4816 83.3354,47.4816 83.5,50.5C 85.9154,50.6265 88.2487,50.7932 90.5,51C 88.0779,48.9973 87.2446,46.4973 88,43.5C 90.1476,42.1951 91.6476,40.3617 92.5,38C 94.0581,37.79 95.3915,37.29 96.5,36.5C 98.8505,35.1389 101.184,33.8056 103.5,32.5 Z"/></g>
<g><path style="opacity:1" fill="#492723" d="M 114.5,49.5 C 113.833,50.1667 113.167,50.8333 112.5,51.5C 112.631,50.7611 112.464,50.0944 112,49.5C 109.621,51.5125 107.121,53.3459 104.5,55C 102.546,55.1618 100.879,55.3285 99.5,55.5C 98.5987,54.7095 97.9321,53.7095 97.5,52.5C 97.4346,52.0618 97.6012,51.7284 98,51.5C 99.9688,54.1239 101.802,54.1239 103.5,51.5C 106.889,50.3689 110.222,49.0355 113.5,47.5C 114.298,47.9569 114.631,48.6236 114.5,49.5 Z"/></g>
<g><path style="opacity:1" fill="#3e221d" d="M 49.5,35.5 C 53.7433,38.1346 57.41,41.4679 60.5,45.5C 56.682,49.1615 53.3487,53.1615 50.5,57.5C 48.8113,56.6963 47.1446,55.6963 45.5,54.5C 44.0476,55.9397 43.0476,57.6064 42.5,59.5C 40.8293,56.796 39.1626,54.1293 37.5,51.5C 36.7084,50.0331 36.7084,48.6998 37.5,47.5C 39.9446,48.3124 42.2779,49.3124 44.5,50.5C 49.0022,55.0288 52.3355,54.1955 54.5,48C 54.2517,46.2509 53.2517,45.4176 51.5,45.5C 50.578,43.1837 48.9113,41.517 46.5,40.5C 46.953,38.4348 47.953,36.7682 49.5,35.5 Z"/></g>
<g><path style="opacity:1" fill="#c1362c" d="M 53.5,35.5 C 54.1667,35.8333 54.8333,36.1667 55.5,36.5C 58.3693,38.2286 60.8693,40.5619 63,43.5C 62.0048,46.3748 61.3381,49.3748 61,52.5C 62.9124,51.3081 64.9124,50.3081 67,49.5C 67.6667,47.8333 67.6667,46.1667 67,44.5C 65.3831,43.4642 65.2164,42.2975 66.5,41C 65.3128,39.9805 64.3128,38.8139 63.5,37.5C 63.6236,36.8933 63.9569,36.56 64.5,36.5C 65.8333,37.5 67.1667,38.5 68.5,39.5C 69.853,40.5261 70.853,41.8595 71.5,43.5C 72.8714,45.2592 73.8714,47.2592 74.5,49.5C 69.8532,50.82 65.8532,53.1534 62.5,56.5C 59.242,59.3695 57.9086,63.0361 58.5,67.5C 57.596,68.209 57.2627,69.209 57.5,70.5C 55.8031,68.6948 54.9698,66.3615 55,63.5C 54.6667,63.1667 54.3333,62.8333 54,62.5C 52.54,66.4937 51.3733,66.4937 50.5,62.5C 50.5,60.8333 50.5,59.1667 50.5,57.5C 53.3487,53.1615 56.682,49.1615 60.5,45.5C 57.41,41.4679 53.7433,38.1346 49.5,35.5C 48.9094,34.8485 48.2427,34.1818 47.5,33.5C 47.8333,33.1667 48.1667,32.8333 48.5,32.5C 49.9397,33.9524 51.6064,34.9524 53.5,35.5 Z"/></g>
<g><path style="opacity:1" fill="#211714" d="M 112.5,51.5 C 111.406,55.4588 109.739,59.1255 107.5,62.5C 105.952,62.1788 105.285,61.1788 105.5,59.5C 104.178,59.33 103.011,59.6634 102,60.5C 101.722,59.5842 101.222,58.9175 100.5,58.5C 100.672,57.5084 100.338,56.8417 99.5,56.5C 99.5,56.1667 99.5,55.8333 99.5,55.5C 100.879,55.3285 102.546,55.1618 104.5,55C 107.121,53.3459 109.621,51.5125 112,49.5C 112.464,50.0944 112.631,50.7611 112.5,51.5 Z"/></g>
<g><path style="opacity: .7;" fill="#2d1915" d="M 86.5,74.5 C 85.8122,77.0573 84.6455,79.3907 83,81.5C 82.4436,83.8848 82.6103,86.2181 83.5,88.5C 82.8826,88.3893 82.3826,88.056 82,87.5C 81.6667,89.5 81.3333,91.5 81,93.5C 80.5034,91.1902 80.3367,88.8568 80.5,86.5C 78.5,86.5 76.5,86.5 74.5,86.5C 74.5,85.1667 74.5,83.8333 74.5,82.5C 76.5,82.5 78.5,82.5 80.5,82.5C 80.3505,83.552 80.5172,84.552 81,85.5C 81.6667,84.1667 81.6667,82.8333 81,81.5C 78.9124,80.6919 76.9124,79.6919 75,78.5C 73.6703,79.5822 72.1703,80.2488 70.5,80.5C 70.8422,77.6448 72.5088,76.1448 75.5,76C 73.3772,75.1853 71.3772,74.1853 69.5,73C 69.8333,72.6667 70.1667,72.3333 70.5,72C 68.1367,71.4115 67.1367,69.9115 67.5,67.5C 66.5,67.5 65.5,67.5 64.5,67.5C 65.398,64.5338 66.7313,61.7005 68.5,59C 73.2408,55.9661 77.9074,55.9661 82.5,59C 83.8333,60 83.8333,61 82.5,62C 83.7932,62.49 85.1266,62.6567 86.5,62.5C 86.1149,66.7066 86.1149,70.7066 86.5,74.5 Z"/></g>
<g><path style="opacity:1" fill="#8d3c35" d="M 27.5,54.5 C 25.055,57.0191 22.3883,59.3525 19.5,61.5C 20.2427,62.1818 20.9094,62.8485 21.5,63.5C 20.5,63.5 19.5,63.5 18.5,63.5C 18.5,62.5 18.5,61.5 18.5,60.5C 19.8109,57.8646 21.4776,55.5313 23.5,53.5C 25.3747,51.9219 26.7081,52.2552 27.5,54.5 Z"/></g>
<g><path style="opacity:1" fill="#a63028" d="M 27.5,54.5 C 29.7161,58.2662 31.3828,62.2662 32.5,66.5C 32.5654,66.9382 32.3988,67.2716 32,67.5C 30.1295,65.7811 27.9628,64.7811 25.5,64.5C 25.719,63.325 25.3857,62.325 24.5,61.5C 24.1667,61.8333 23.8333,62.1667 23.5,62.5C 25.9356,66.9237 27.4356,71.5904 28,76.5C 27.6174,75.944 27.1174,75.6107 26.5,75.5C 25.2224,71.3328 23.5557,67.3328 21.5,63.5C 20.9094,62.8485 20.2427,62.1818 19.5,61.5C 22.3883,59.3525 25.055,57.0191 27.5,54.5 Z"/></g>
<g><path style="opacity:1" fill="#572a24" d="M 80.5,41.5 C 78.1289,43.9966 77.1289,46.9966 77.5,50.5C 78.8734,50.3433 80.2068,50.51 81.5,51C 86.4266,53.0907 89.76,56.5907 91.5,61.5C 91.1667,62.1667 90.8333,62.8333 90.5,63.5C 88.9096,59.2425 85.9096,56.2425 81.5,54.5C 80.6143,53.675 80.281,52.675 80.5,51.5C 78.549,51.7733 77.049,51.1066 76,49.5C 75.7508,50.624 75.2508,51.624 74.5,52.5C 69.9613,54.0664 65.9613,56.3997 62.5,59.5C 62.5,58.5 62.5,57.5 62.5,56.5C 65.8532,53.1534 69.8532,50.82 74.5,49.5C 73.8714,47.2592 72.8714,45.2592 71.5,43.5C 74.1445,41.7581 77.1445,41.0914 80.5,41.5 Z"/></g>
<g><path style="opacity:1" fill="#ad3229" d="M 123.5,54.5 C 126.712,56.5624 128.712,59.5624 129.5,63.5C 129.167,64.1667 128.833,64.8333 128.5,65.5C 126.235,65.5594 125.902,64.7261 127.5,63C 126.368,58.483 125.368,58.6496 124.5,63.5C 122.527,64.6399 120.693,65.9733 119,67.5C 118.601,67.2716 118.435,66.9382 118.5,66.5C 120.168,62.495 121.835,58.495 123.5,54.5 Z"/></g>
<g><path style="opacity:1" fill="#9a423a" d="M 126.5,51.5 C 128.664,53.822 130.331,56.4887 131.5,59.5C 133.097,61.7564 132.431,63.0897 129.5,63.5C 128.712,59.5624 126.712,56.5624 123.5,54.5C 124.306,53.2719 125.306,52.2719 126.5,51.5 Z"/></g>
<g><path style="opacity:1" fill="#2d1a16" d="M 50.5,57.5 C 50.5,59.1667 50.5,60.8333 50.5,62.5C 50.3354,65.5184 50.502,68.5184 51,71.5C 51.3768,72.9423 52.2101,73.9423 53.5,74.5C 55.2859,76.4142 56.2859,78.7475 56.5,81.5C 55.6253,86.5402 54.6253,91.5402 53.5,96.5C 52.5489,97.9187 52.2155,99.5853 52.5,101.5C 50.844,109.102 49.5107,116.769 48.5,124.5C 47.4246,125.562 46.4246,125.562 45.5,124.5C 46.3249,122.199 46.9916,119.865 47.5,117.5C 47.423,113.785 47.7564,110.119 48.5,106.5C 49.9009,100.534 51.5676,94.5341 53.5,88.5C 52.9185,84.9289 51.9185,81.5956 50.5,78.5C 48.1066,72.0471 45.4399,65.7137 42.5,59.5C 43.0476,57.6064 44.0476,55.9397 45.5,54.5C 47.1446,55.6963 48.8113,56.6963 50.5,57.5 Z"/></g>
<g><path style="opacity:1" fill="#522a25" d="M 127.5,44.5 C 126.781,46.7638 126.448,49.0971 126.5,51.5C 125.306,52.2719 124.306,53.2719 123.5,54.5C 121.835,58.495 120.168,62.495 118.5,66.5C 117.326,67.5137 116.66,68.847 116.5,70.5C 113.51,75.7196 111.51,81.3862 110.5,87.5C 110.167,87.5 109.833,87.5 109.5,87.5C 107.752,93.5737 107.085,99.907 107.5,106.5C 107.884,113.589 107.384,120.589 106,127.5C 105.433,124.832 104.933,122.166 104.5,119.5C 105.493,111.35 105.826,103.017 105.5,94.5C 107.94,82.8388 111.94,71.8388 117.5,61.5C 118.603,57.503 120.269,53.8363 122.5,50.5C 124.513,48.8317 126.18,46.8317 127.5,44.5 Z"/></g>
<g><path style="opacity:1" fill="#9b342e" d="M 128.5,65.5 C 123.737,75.984 121.403,86.984 121.5,98.5C 120.532,96.3926 120.198,94.0593 120.5,91.5C 120.55,85.5126 121.55,79.6793 123.5,74C 122.66,72.8288 121.827,71.6621 121,70.5C 119.196,72.9815 117.696,72.9815 116.5,70.5C 116.66,68.847 117.326,67.5137 118.5,66.5C 118.435,66.9382 118.601,67.2716 119,67.5C 120.693,65.9733 122.527,64.6399 124.5,63.5C 125.368,58.6496 126.368,58.483 127.5,63C 125.902,64.7261 126.235,65.5594 128.5,65.5 Z"/></g>
<g><path style="opacity:1" fill="#512721" d="M 25.5,46.5 C 26.1667,46.5 26.8333,46.5 27.5,46.5C 29.5804,51.6586 31.9138,56.6586 34.5,61.5C 37.0368,66.5841 39.0368,71.9174 40.5,77.5C 40.4045,80.6916 41.0712,83.6916 42.5,86.5C 41.8333,86.5 41.5,86.8333 41.5,87.5C 40.7972,85.3713 39.7972,83.3713 38.5,81.5C 37.3053,76.1203 35.3053,71.1203 32.5,66.5C 31.3828,62.2662 29.7161,58.2662 27.5,54.5C 26.7081,52.2552 25.3747,51.9219 23.5,53.5C 23.8333,52.8333 24.1667,52.1667 24.5,51.5C 25.4511,50.0813 25.7845,48.4147 25.5,46.5 Z"/></g>
<g><path style="opacity:1" fill="#9a5251" d="M 91.5,61.5 C 92.4731,63.9479 92.8064,66.6146 92.5,69.5C 91.8651,72.7616 90.1984,75.4282 87.5,77.5C 89.7469,73.1701 90.7469,68.5034 90.5,63.5C 90.8333,62.8333 91.1667,62.1667 91.5,61.5 Z"/></g>
<g><path style="opacity: .7;" fill="#908a88" d="M 18.5,60.5 C 18.5,61.5 18.5,62.5 18.5,63.5C 21.0967,68.6251 23.0967,73.9584 24.5,79.5C 22.4395,75.5248 20.2728,71.5248 18,67.5C 17.2042,64.9615 17.3709,62.6282 18.5,60.5 Z"/></g>
<g><path style="opacity:1" fill="#95302a" d="M 50.5,62.5 C 51.3733,66.4937 52.54,66.4937 54,62.5C 54.3333,62.8333 54.6667,63.1667 55,63.5C 54.9698,66.3615 55.8031,68.6948 57.5,70.5C 58.9461,74.7255 60.9461,78.7255 63.5,82.5C 64.3857,81.675 64.719,80.675 64.5,79.5C 65.1667,79.5 65.5,79.8333 65.5,80.5C 65.5,81.5 65.5,82.5 65.5,83.5C 63.9724,84.8021 62.9724,86.4687 62.5,88.5C 62.7251,84.9438 61.8918,84.6105 60,87.5C 58.9701,87.1639 58.4701,86.4972 58.5,85.5C 58.3573,83.7376 58.6906,82.0709 59.5,80.5C 56.3849,76.604 54.0515,72.2707 52.5,67.5C 52.1667,67.8333 51.8333,68.1667 51.5,68.5C 52.3721,70.4496 53.0388,72.4496 53.5,74.5C 52.2101,73.9423 51.3768,72.9423 51,71.5C 50.502,68.5184 50.3354,65.5184 50.5,62.5 Z"/></g>
<g><path style="opacity:1" fill="#934a48" d="M 62.5,56.5 C 62.5,57.5 62.5,58.5 62.5,59.5C 60.8169,63.6306 60.1502,67.9639 60.5,72.5C 59.4625,71.0697 58.7959,69.403 58.5,67.5C 57.9086,63.0361 59.242,59.3695 62.5,56.5 Z"/></g>
<g><path style="opacity: .9;" fill="#201813" d="M 90.5,63.5 C 90.7469,68.5034 89.7469,73.1701 87.5,77.5C 86.3479,78.8336 85.3479,80.3336 84.5,82C 86.5677,88.4386 88.2344,94.9386 89.5,101.5C 89.5,102.833 88.8333,103.5 87.5,103.5C 86.3696,98.7756 85.0363,94.1089 83.5,89.5C 83.5,89.1667 83.5,88.8333 83.5,88.5C 82.6103,86.2181 82.4436,83.8848 83,81.5C 84.6455,79.3907 85.8122,77.0573 86.5,74.5C 90.7278,63.959 87.2278,57.2924 76,54.5C 64.8106,56.212 60.6439,62.5453 63.5,73.5C 64.552,73.3505 65.552,73.5172 66.5,74C 65.2089,75.2917 65.2089,76.4583 66.5,77.5C 68.7104,81.3164 69.0438,85.3164 67.5,89.5C 66.4138,89.38 65.7472,88.7133 65.5,87.5C 66.6303,85.0017 66.6303,82.6684 65.5,80.5C 65.5,79.8333 65.1667,79.5 64.5,79.5C 64.6716,78.5084 64.3382,77.8417 63.5,77.5C 63.4077,75.1523 62.4077,73.4856 60.5,72.5C 60.1502,67.9639 60.8169,63.6306 62.5,59.5C 65.9613,56.3997 69.9613,54.0664 74.5,52.5C 75.2508,51.624 75.7508,50.624 76,49.5C 77.049,51.1066 78.549,51.7733 80.5,51.5C 80.281,52.675 80.6143,53.675 81.5,54.5C 85.9096,56.2425 88.9096,59.2425 90.5,63.5 Z"/></g>
<g><path style="opacity: .8;" fill="#391c17" d="M 86.5,74.5 C 86.1149,70.7066 86.1149,66.7066 86.5,62.5C 85.1266,62.6567 83.7932,62.49 82.5,62C 83.8333,61 83.8333,60 82.5,59C 77.9074,55.9661 73.2408,55.9661 68.5,59C 66.7313,61.7005 65.398,64.5338 64.5,67.5C 65.5,67.5 66.5,67.5 67.5,67.5C 67.1367,69.9115 68.1367,71.4115 70.5,72C 70.1667,72.3333 69.8333,72.6667 69.5,73C 71.3772,74.1853 73.3772,75.1853 75.5,76C 72.5088,76.1448 70.8422,77.6448 70.5,80.5C 69.0688,79.0975 67.9022,77.4308 67,75.5C 66.5357,76.0944 66.369,76.7611 66.5,77.5C 65.2089,76.4583 65.2089,75.2917 66.5,74C 65.552,73.5172 64.552,73.3505 63.5,73.5C 60.6439,62.5453 64.8106,56.212 76,54.5C 87.2278,57.2924 90.7278,63.959 86.5,74.5 Z"/></g>
<g><path style="opacity:1" fill="#a2372e" d="M 99.5,56.5 C 100.338,56.8417 100.672,57.5084 100.5,58.5C 100.666,62.8461 100.499,67.1794 100,71.5C 99.0467,73.4552 97.7134,75.1218 96,76.5C 94.872,78.3453 94.372,80.3453 94.5,82.5C 92.744,83.5521 92.0773,85.2188 92.5,87.5C 91.5,87.5 90.5,87.5 89.5,87.5C 89.4437,84.483 89.1103,84.1497 88.5,86.5C 87.6554,85.3285 86.9887,83.9952 86.5,82.5C 87.4959,82.5858 88.3292,82.2524 89,81.5C 90.7224,78.7209 91.8891,75.7209 92.5,72.5C 94.8743,69.3141 95.8743,65.6474 95.5,61.5C 98.4701,61.2542 99.8034,59.5876 99.5,56.5 Z"/></g>
<g><path style="opacity: .7;" fill="#928e8c" d="M 133.5,63.5 C 132.667,69.5148 130.333,74.8481 126.5,79.5C 127.784,73.6096 130.117,68.2762 133.5,63.5 Z"/></g>
<g><path style="opacity:1" fill="#883430" d="M 32.5,66.5 C 35.3053,71.1203 37.3053,76.1203 38.5,81.5C 37.2529,83.178 35.5862,84.5113 33.5,85.5C 33.1667,85.1667 32.8333,84.8333 32.5,84.5C 34.289,83.377 34.6224,82.0436 33.5,80.5C 32.8333,80.8333 32.1667,81.1667 31.5,81.5C 30.8331,85.9822 30.1664,90.3155 29.5,94.5C 29.993,87.9046 28.993,81.5713 26.5,75.5C 27.1174,75.6107 27.6174,75.944 28,76.5C 27.4356,71.5904 25.9356,66.9237 23.5,62.5C 23.8333,62.1667 24.1667,61.8333 24.5,61.5C 25.3857,62.325 25.719,63.325 25.5,64.5C 27.9628,64.7811 30.1295,65.7811 32,67.5C 32.3988,67.2716 32.5654,66.9382 32.5,66.5 Z"/></g>
<g><path style="opacity:1" fill="#a93931" d="M 37.5,51.5 C 39.1626,54.1293 40.8293,56.796 42.5,59.5C 45.4399,65.7137 48.1066,72.0471 50.5,78.5C 50.5751,81.2062 50.9084,83.8728 51.5,86.5C 49.8762,86.6399 48.7096,85.9733 48,84.5C 48.3006,91.7968 48.4672,99.1302 48.5,106.5C 47.7564,110.119 47.423,113.785 47.5,117.5C 46.671,110.011 46.171,102.344 46,94.5C 44.9172,88.4698 43.0838,82.8031 40.5,77.5C 39.0368,71.9174 37.0368,66.5841 34.5,61.5C 35.4905,58.2569 36.4905,54.9236 37.5,51.5 Z"/></g>
<g><path style="opacity:1" fill="#b03d35" d="M 114.5,49.5 C 113.809,53.2262 112.809,56.8929 111.5,60.5C 112.391,61.5896 113.391,61.5896 114.5,60.5C 115.213,62.435 116.213,62.7683 117.5,61.5C 111.94,71.8388 107.94,82.8388 105.5,94.5C 104.833,101.833 104.167,109.167 103.5,116.5C 103.5,116.167 103.5,115.833 103.5,115.5C 103.5,113.167 103.5,110.833 103.5,108.5C 102.864,99.6176 103.864,90.951 106.5,82.5C 106,82.1667 105.5,81.8333 105,81.5C 103.75,83.7058 101.916,85.0391 99.5,85.5C 99.5,84.1667 99.5,82.8333 99.5,81.5C 101.396,74.8017 104.063,68.4684 107.5,62.5C 109.739,59.1255 111.406,55.4588 112.5,51.5C 113.167,50.8333 113.833,50.1667 114.5,49.5 Z"/></g>
<g><path style="opacity:1" fill="#472d28" d="M 131.5,59.5 C 133.104,60.287 133.771,61.6203 133.5,63.5C 130.117,68.2762 127.784,73.6096 126.5,79.5C 125.006,87.0861 124.006,94.7528 123.5,102.5C 122.505,113.988 122.172,125.655 122.5,137.5C 104.322,141.002 85.9885,143.335 67.5,144.5C 54.9209,143.626 42.5876,141.459 30.5,138C 28.8584,127.243 27.8584,116.41 27.5,105.5C 28.0715,96.6033 27.0715,87.9366 24.5,79.5C 23.0967,73.9584 21.0967,68.6251 18.5,63.5C 19.5,63.5 20.5,63.5 21.5,63.5C 23.5557,67.3328 25.2224,71.3328 26.5,75.5C 28.993,81.5713 29.993,87.9046 29.5,94.5C 29.1984,97.0593 29.5318,99.3926 30.5,101.5C 30.5,106.167 30.5,110.833 30.5,115.5C 29.3061,122.384 29.3061,129.218 30.5,136C 39.1867,138.221 47.8534,140.221 56.5,142C 63.0137,142.82 69.3471,142.653 75.5,141.5C 75.8333,141.5 76.1667,141.5 76.5,141.5C 77.5,141.5 78.5,141.5 79.5,141.5C 92.9643,140.699 106.298,139.033 119.5,136.5C 120.434,124.002 121.101,111.335 121.5,98.5C 121.403,86.984 123.737,75.984 128.5,65.5C 128.833,64.8333 129.167,64.1667 129.5,63.5C 132.431,63.0897 133.097,61.7564 131.5,59.5 Z"/></g>
<g><path style="opacity:1" fill="#93332f" d="M 99.5,81.5 C 99.5,82.8333 99.5,84.1667 99.5,85.5C 101.916,85.0391 103.75,83.7058 105,81.5C 105.5,81.8333 106,82.1667 106.5,82.5C 103.864,90.951 102.864,99.6176 103.5,108.5C 99.5581,99.8096 98.2248,90.8096 99.5,81.5 Z"/></g>
<g><path style="opacity:1" fill="#6d2c26" d="M 65.5,83.5 C 64.3744,89.7219 62.7077,95.7219 60.5,101.5C 60.5,100.167 60.5,98.8333 60.5,97.5C 61.01,94.4606 61.6766,91.4606 62.5,88.5C 62.9724,86.4687 63.9724,84.8021 65.5,83.5 Z"/></g>
<g><path style="opacity:1" fill="#30201c" d="M 42.5,86.5 C 43.2331,100.156 43.8998,113.822 44.5,127.5C 48.1441,128.315 51.8107,129.148 55.5,130C 54.552,130.483 53.552,130.649 52.5,130.5C 51.1667,130.5 49.8333,130.5 48.5,130.5C 46.4437,129.784 44.277,129.117 42,128.5C 41.5002,119.84 41.3336,111.173 41.5,102.5C 41.5,97.5 41.5,92.5 41.5,87.5C 41.5,86.8333 41.8333,86.5 42.5,86.5 Z"/></g>
<g><path style="opacity:1" fill="#bf3f34" d="M 94.5,82.5 C 94.8333,84.5 95.1667,86.5 95.5,88.5C 93.9896,90.3715 93.3229,93.2048 93.5,97C 93.6492,100.94 94.3158,104.773 95.5,108.5C 94.3127,106.928 93.3127,105.261 92.5,103.5C 90.6962,97.9511 89.3629,92.2845 88.5,86.5C 89.1103,84.1497 89.4437,84.483 89.5,87.5C 90.5,87.5 91.5,87.5 92.5,87.5C 92.0773,85.2188 92.744,83.5521 94.5,82.5 Z"/></g>
<g><path style="opacity:1" fill="#88322e" d="M 50.5,78.5 C 51.9185,81.5956 52.9185,84.9289 53.5,88.5C 51.5676,94.5341 49.9009,100.534 48.5,106.5C 48.4672,99.1302 48.3006,91.7968 48,84.5C 48.7096,85.9733 49.8762,86.6399 51.5,86.5C 50.9084,83.8728 50.5751,81.2062 50.5,78.5 Z"/></g>
<g><path style="opacity:1" fill="#833936" d="M 116.5,70.5 C 117.696,72.9815 119.196,72.9815 121,70.5C 121.827,71.6621 122.66,72.8288 123.5,74C 121.55,79.6793 120.55,85.5126 120.5,91.5C 118.983,91.5106 117.816,92.1772 117,93.5C 116.085,92.6721 115.419,91.6721 115,90.5C 110.894,95.8453 109.394,94.8453 110.5,87.5C 111.51,81.3862 113.51,75.7196 116.5,70.5 Z"/></g>
<g><path style="opacity:1" fill="#7b3c38" d="M 38.5,81.5 C 39.7972,83.3713 40.7972,85.3713 41.5,87.5C 41.5,92.5 41.5,97.5 41.5,102.5C 38.6943,100.585 37.6943,98.0853 38.5,95C 37.9828,92.923 37.3161,90.923 36.5,89C 38.7843,87.6371 38.951,86.1371 37,84.5C 36.6667,85.5 36.3333,86.5 36,87.5C 34.9887,86.6634 33.8221,86.33 32.5,86.5C 31.9937,91.6545 31.327,96.6545 30.5,101.5C 29.5318,99.3926 29.1984,97.0593 29.5,94.5C 30.1664,90.3155 30.8331,85.9822 31.5,81.5C 32.1667,81.1667 32.8333,80.8333 33.5,80.5C 34.6224,82.0436 34.289,83.377 32.5,84.5C 32.8333,84.8333 33.1667,85.1667 33.5,85.5C 35.5862,84.5113 37.2529,83.178 38.5,81.5 Z"/></g>
<g><path style="opacity:1" fill="#b94d40" d="M 58.5,85.5 C 56.7945,90.2922 55.2945,95.2922 54,100.5C 53.51,99.2068 53.3433,97.8734 53.5,96.5C 54.6253,91.5402 55.6253,86.5402 56.5,81.5C 56.2859,78.7475 55.2859,76.4142 53.5,74.5C 53.0388,72.4496 52.3721,70.4496 51.5,68.5C 51.8333,68.1667 52.1667,67.8333 52.5,67.5C 54.0515,72.2707 56.3849,76.604 59.5,80.5C 58.6906,82.0709 58.3573,83.7376 58.5,85.5 Z"/></g>
<g><path style="opacity:1" fill="#87494a" d="M 60.5,72.5 C 62.4077,73.4856 63.4077,75.1523 63.5,77.5C 61.2729,76.5994 60.2729,74.9328 60.5,72.5 Z"/></g>
<g><path style="opacity:1" fill="#cd6153" d="M 92.5,69.5 C 92.5,70.5 92.5,71.5 92.5,72.5C 91.8891,75.7209 90.7224,78.7209 89,81.5C 88.3292,82.2524 87.4959,82.5858 86.5,82.5C 87.038,80.8828 87.3713,79.2161 87.5,77.5C 90.1984,75.4282 91.8651,72.7616 92.5,69.5 Z"/></g>
<g><path style="opacity:1" fill="#ce5d50" d="M 58.5,67.5 C 58.7959,69.403 59.4625,71.0697 60.5,72.5C 60.2729,74.9328 61.2729,76.5994 63.5,77.5C 64.3382,77.8417 64.6716,78.5084 64.5,79.5C 64.719,80.675 64.3857,81.675 63.5,82.5C 60.9461,78.7255 58.9461,74.7255 57.5,70.5C 57.2627,69.209 57.596,68.209 58.5,67.5 Z"/></g>
<g><path style="opacity: .9;" fill="#341c17" d="M 65.5,80.5 C 66.6303,82.6684 66.6303,85.0017 65.5,87.5C 65.7472,88.7133 66.4138,89.38 67.5,89.5C 65.3774,98.2516 63.0441,106.918 60.5,115.5C 60.3601,117.03 59.6935,118.03 58.5,118.5C 57.5084,118.672 56.8417,118.338 56.5,117.5C 58.7059,112.497 60.0392,107.164 60.5,101.5C 62.7077,95.7219 64.3744,89.7219 65.5,83.5C 65.5,82.5 65.5,81.5 65.5,80.5 Z"/></g>
<g><path style="opacity: .7;" fill="#391c18" d="M 83.5,88.5 C 83.5,88.8333 83.5,89.1667 83.5,89.5C 82.7241,97.3155 84.0574,104.982 87.5,112.5C 81.5695,117.551 74.9028,118.718 67.5,116C 66.944,115.617 66.6107,115.117 66.5,114.5C 65.3398,113.735 64.3398,112.735 63.5,111.5C 66.3117,101.237 69.6451,91.2367 73.5,81.5C 72.209,81.7373 71.209,81.404 70.5,80.5C 72.1703,80.2488 73.6703,79.5822 75,78.5C 76.9124,79.6919 78.9124,80.6919 81,81.5C 81.6667,82.8333 81.6667,84.1667 81,85.5C 80.5172,84.552 80.3505,83.552 80.5,82.5C 78.5,82.5 76.5,82.5 74.5,82.5C 74.5,83.8333 74.5,85.1667 74.5,86.5C 76.5,86.5 78.5,86.5 80.5,86.5C 80.3367,88.8568 80.5034,91.1902 81,93.5C 81.3333,91.5 81.6667,89.5 82,87.5C 82.3826,88.056 82.8826,88.3893 83.5,88.5 Z"/></g>
<g><path style="opacity:1" fill="#341c18" d="M 100.5,58.5 C 101.222,58.9175 101.722,59.5842 102,60.5C 103.011,59.6634 104.178,59.33 105.5,59.5C 105.285,61.1788 105.952,62.1788 107.5,62.5C 104.063,68.4684 101.396,74.8017 99.5,81.5C 98.2248,90.8096 99.5581,99.8096 103.5,108.5C 103.5,110.833 103.5,113.167 103.5,115.5C 102.596,116.209 102.263,117.209 102.5,118.5C 101.833,116.5 101.167,114.5 100.5,112.5C 99.7522,104.193 98.0855,96.1935 95.5,88.5C 95.1667,86.5 94.8333,84.5 94.5,82.5C 94.372,80.3453 94.872,78.3453 96,76.5C 97.7134,75.1218 99.0467,73.4552 100,71.5C 100.499,67.1794 100.666,62.8461 100.5,58.5 Z"/></g>
<g><path style="opacity:1" fill="#ae3830" d="M 58.5,85.5 C 58.4701,86.4972 58.9701,87.1639 60,87.5C 61.8918,84.6105 62.7251,84.9438 62.5,88.5C 61.6766,91.4606 61.01,94.4606 60.5,97.5C 59.5,100.167 58.5,102.833 57.5,105.5C 56.17,108.094 54.8366,110.761 53.5,113.5C 53.5245,109.408 53.1912,105.408 52.5,101.5C 52.2155,99.5853 52.5489,97.9187 53.5,96.5C 53.3433,97.8734 53.51,99.2068 54,100.5C 55.2945,95.2922 56.7945,90.2922 58.5,85.5 Z"/></g>
<g><path style="opacity:1" fill="#aa3a32" d="M 95.5,88.5 C 98.0855,96.1935 99.7522,104.193 100.5,112.5C 99.7777,113.551 98.7777,114.218 97.5,114.5C 96.7148,112.626 96.0482,110.626 95.5,108.5C 94.3158,104.773 93.6492,100.94 93.5,97C 93.3229,93.2048 93.9896,90.3715 95.5,88.5 Z"/></g>
<g><path style="opacity:1" fill="#7c3c38" d="M 87.5,77.5 C 87.3713,79.2161 87.038,80.8828 86.5,82.5C 86.9887,83.9952 87.6554,85.3285 88.5,86.5C 89.3629,92.2845 90.6962,97.9511 92.5,103.5C 93.093,108.604 94.093,113.604 95.5,118.5C 94.5,118.5 93.5,118.5 92.5,118.5C 92.9234,117.735 93.2568,116.902 93.5,116C 92.4241,110.964 91.0907,106.131 89.5,101.5C 88.2344,94.9386 86.5677,88.4386 84.5,82C 85.3479,80.3336 86.3479,78.8336 87.5,77.5 Z"/></g>
<g><path style="opacity:1" fill="#33221d" d="M 109.5,87.5 C 109.829,101.677 109.496,115.677 108.5,129.5C 108.825,121.648 108.492,113.982 107.5,106.5C 107.085,99.907 107.752,93.5737 109.5,87.5 Z"/></g>
<g><path style="opacity:1" fill="#8e4843" d="M 60.5,97.5 C 60.5,98.8333 60.5,100.167 60.5,101.5C 60.0392,107.164 58.7059,112.497 56.5,117.5C 56.5045,113.466 56.8379,109.466 57.5,105.5C 58.5,102.833 59.5,100.167 60.5,97.5 Z"/></g>
<g><path style="opacity:1" fill="#7c3830" d="M 105.5,94.5 C 105.826,103.017 105.493,111.35 104.5,119.5C 103.89,118.609 103.557,117.609 103.5,116.5C 104.167,109.167 104.833,101.833 105.5,94.5 Z"/></g>
<g><path style="opacity: .8;" fill="#52201b" d="M 83.5,89.5 C 85.0363,94.1089 86.3696,98.7756 87.5,103.5C 88.4646,107.773 89.1313,112.106 89.5,116.5C 85.5,117.167 81.5,117.833 77.5,118.5C 72.0767,118.476 66.7434,117.81 61.5,116.5C 61.281,115.325 61.6143,114.325 62.5,113.5C 63.7362,114.246 65.0695,114.579 66.5,114.5C 66.6107,115.117 66.944,115.617 67.5,116C 74.9028,118.718 81.5695,117.551 87.5,112.5C 84.0574,104.982 82.7241,97.3155 83.5,89.5 Z"/></g>
<g><path style="opacity: .8;" fill="#451e19" d="M 70.5,80.5 C 71.209,81.404 72.209,81.7373 73.5,81.5C 69.6451,91.2367 66.3117,101.237 63.5,111.5C 64.3398,112.735 65.3398,113.735 66.5,114.5C 65.0695,114.579 63.7362,114.246 62.5,113.5C 61.6143,114.325 61.281,115.325 61.5,116.5C 66.7434,117.81 72.0767,118.476 77.5,118.5C 74.3586,119.321 71.0252,119.821 67.5,120C 68.7375,120.232 69.7375,120.732 70.5,121.5C 66.1586,121.342 62.1586,120.342 58.5,118.5C 59.6935,118.03 60.3601,117.03 60.5,115.5C 63.0441,106.918 65.3774,98.2516 67.5,89.5C 69.0438,85.3164 68.7104,81.3164 66.5,77.5C 66.369,76.7611 66.5357,76.0944 67,75.5C 67.9022,77.4308 69.0688,79.0975 70.5,80.5 Z"/></g>
<g><path style="opacity: .9;" fill="#311b16" d="M 89.5,101.5 C 91.0907,106.131 92.4241,110.964 93.5,116C 93.2568,116.902 92.9234,117.735 92.5,118.5C 88.2038,119.43 83.8704,120.263 79.5,121C 78.944,121.383 78.6107,121.883 78.5,122.5C 75.6146,122.806 72.9479,122.473 70.5,121.5C 69.7375,120.732 68.7375,120.232 67.5,120C 71.0252,119.821 74.3586,119.321 77.5,118.5C 81.5,117.833 85.5,117.167 89.5,116.5C 89.1313,112.106 88.4646,107.773 87.5,103.5C 88.8333,103.5 89.5,102.833 89.5,101.5 Z"/></g>
<g><path style="opacity:1" fill="#c44c3f" d="M 52.5,101.5 C 53.1912,105.408 53.5245,109.408 53.5,113.5C 54.8366,110.761 56.17,108.094 57.5,105.5C 56.8379,109.466 56.5045,113.466 56.5,117.5C 56.8417,118.338 57.5084,118.672 58.5,118.5C 62.1586,120.342 66.1586,121.342 70.5,121.5C 72.9479,122.473 75.6146,122.806 78.5,122.5C 83.5631,122.172 88.2297,120.839 92.5,118.5C 93.5,118.5 94.5,118.5 95.5,118.5C 94.093,113.604 93.093,108.604 92.5,103.5C 93.3127,105.261 94.3127,106.928 95.5,108.5C 96.0482,110.626 96.7148,112.626 97.5,114.5C 97.8957,117.044 97.229,119.211 95.5,121C 89.8745,122.49 84.2078,123.823 78.5,125C 77.2899,126.039 76.2899,127.206 75.5,128.5C 74.6365,129.463 73.9698,129.463 73.5,128.5C 74.1925,127.482 74.8592,126.482 75.5,125.5C 69.0492,124.09 62.3826,122.59 55.5,121C 53.9007,119.214 53.0674,117.047 53,114.5C 51.5845,117.958 51.0845,121.625 51.5,125.5C 54.6702,126.265 57.6702,127.265 60.5,128.5C 55.9555,128.541 51.9555,127.208 48.5,124.5C 49.5107,116.769 50.844,109.102 52.5,101.5 Z"/></g>
<g><path style="opacity:1" fill="#74423f" d="M 109.5,87.5 C 109.833,87.5 110.167,87.5 110.5,87.5C 109.394,94.8453 110.894,95.8453 115,90.5C 115.419,91.6721 116.085,92.6721 117,93.5C 117.816,92.1772 118.983,91.5106 120.5,91.5C 120.198,94.0593 120.532,96.3926 121.5,98.5C 121.101,111.335 120.434,124.002 119.5,136.5C 119.586,135.504 119.252,134.671 118.5,134C 114.634,133.287 110.967,132.12 107.5,130.5C 107.5,129.833 107.833,129.5 108.5,129.5C 109.496,115.677 109.829,101.677 109.5,87.5 Z"/></g>
<g><path style="opacity:1" fill="#5d3430" d="M 40.5,77.5 C 43.0838,82.8031 44.9172,88.4698 46,94.5C 46.171,102.344 46.671,110.011 47.5,117.5C 46.9916,119.865 46.3249,122.199 45.5,124.5C 46.4246,125.562 47.4246,125.562 48.5,124.5C 51.9555,127.208 55.9555,128.541 60.5,128.5C 61.7079,129.234 63.0413,129.567 64.5,129.5C 66.0419,130.163 67.7086,130.83 69.5,131.5C 69.0431,132.298 68.3764,132.631 67.5,132.5C 62.2895,132.392 57.2895,131.725 52.5,130.5C 53.552,130.649 54.552,130.483 55.5,130C 51.8107,129.148 48.1441,128.315 44.5,127.5C 43.8998,113.822 43.2331,100.156 42.5,86.5C 41.0712,83.6916 40.4045,80.6916 40.5,77.5 Z"/></g>
<g><path style="opacity:1" fill="#6e413d" d="M 41.5,102.5 C 41.3336,111.173 41.5002,119.84 42,128.5C 44.277,129.117 46.4437,129.784 48.5,130.5C 47.7611,130.369 47.0944,130.536 46.5,131C 51.6522,132.859 56.9856,133.859 62.5,134C 61.062,134.219 59.7287,134.719 58.5,135.5C 58.7093,136.086 59.0426,136.586 59.5,137C 56.3054,137.181 53.3054,137.681 50.5,138.5C 44.2939,138.022 38.2939,136.689 32.5,134.5C 31.8332,128.012 31.1666,121.679 30.5,115.5C 30.5,110.833 30.5,106.167 30.5,101.5C 31.327,96.6545 31.9937,91.6545 32.5,86.5C 33.8221,86.33 34.9887,86.6634 36,87.5C 36.3333,86.5 36.6667,85.5 37,84.5C 38.951,86.1371 38.7843,87.6371 36.5,89C 37.3161,90.923 37.9828,92.923 38.5,95C 37.6943,98.0853 38.6943,100.585 41.5,102.5 Z"/></g>
<g><path style="opacity: .7;" fill="#8c8987" d="M 123.5,102.5 C 123.822,115.413 123.489,128.246 122.5,141C 99.2444,145.864 75.911,147.864 52.5,147C 44.1099,145.554 35.9433,143.387 28,140.5C 27.5001,128.838 27.3335,117.171 27.5,105.5C 27.8584,116.41 28.8584,127.243 30.5,138C 42.5876,141.459 54.9209,143.626 67.5,144.5C 85.9885,143.335 104.322,141.002 122.5,137.5C 122.172,125.655 122.505,113.988 123.5,102.5 Z"/></g>
<g><path style="opacity:1" fill="#733732" d="M 30.5,115.5 C 31.1666,121.679 31.8332,128.012 32.5,134.5C 38.2939,136.689 44.2939,138.022 50.5,138.5C 51.3339,139.748 52.6672,140.415 54.5,140.5C 57.8167,141.053 61.15,141.386 64.5,141.5C 68.1667,141.5 71.8333,141.5 75.5,141.5C 69.3471,142.653 63.0137,142.82 56.5,142C 47.8534,140.221 39.1867,138.221 30.5,136C 29.3061,129.218 29.3061,122.384 30.5,115.5 Z"/></g>
<g><path style="opacity:1" fill="#8b413c" d="M 48.5,130.5 C 49.8333,130.5 51.1667,130.5 52.5,130.5C 57.2895,131.725 62.2895,132.392 67.5,132.5C 66.7375,133.268 65.7375,133.768 64.5,134C 64.8333,134.333 65.1667,134.667 65.5,135C 63.153,136.086 63.153,137.419 65.5,139C 65.2568,139.902 64.9234,140.735 64.5,141.5C 61.15,141.386 57.8167,141.053 54.5,140.5C 52.6672,140.415 51.3339,139.748 50.5,138.5C 53.3054,137.681 56.3054,137.181 59.5,137C 59.0426,136.586 58.7093,136.086 58.5,135.5C 59.7287,134.719 61.062,134.219 62.5,134C 56.9856,133.859 51.6522,132.859 46.5,131C 47.0944,130.536 47.7611,130.369 48.5,130.5 Z"/></g>
<g><path style="opacity:1" fill="#58322e" d="M 87.5,130.5 C 86.8843,131.798 86.8843,132.798 87.5,133.5C 84.5271,135.806 81.8605,138.473 79.5,141.5C 78.5,141.5 77.5,141.5 76.5,141.5C 78.5,139.167 80.5,136.833 82.5,134.5C 84.1667,133.167 85.8333,131.833 87.5,130.5 Z"/></g>
<g><path style="opacity:1" fill="#a73d37" d="M 75.5,125.5 C 74.8592,126.482 74.1925,127.482 73.5,128.5C 73.9698,129.463 74.6365,129.463 75.5,128.5C 75.9046,129.55 76.5712,129.55 77.5,128.5C 79.5967,130.252 81.2634,132.252 82.5,134.5C 80.5,136.833 78.5,139.167 76.5,141.5C 76.1667,141.5 75.8333,141.5 75.5,141.5C 71.8333,141.5 68.1667,141.5 64.5,141.5C 64.9234,140.735 65.2568,139.902 65.5,139C 63.153,137.419 63.153,136.086 65.5,135C 65.1667,134.667 64.8333,134.333 64.5,134C 65.7375,133.768 66.7375,133.268 67.5,132.5C 68.3764,132.631 69.0431,132.298 69.5,131.5C 67.7086,130.83 66.0419,130.163 64.5,129.5C 66.5273,129.662 68.5273,129.495 70.5,129C 71.7893,127.198 73.4559,126.031 75.5,125.5 Z"/></g>
<g><path style="opacity:1" fill="#8c3e39" d="M 107.5,130.5 C 110.967,132.12 114.634,133.287 118.5,134C 119.252,134.671 119.586,135.504 119.5,136.5C 106.298,139.033 92.9643,140.699 79.5,141.5C 81.8605,138.473 84.5271,135.806 87.5,133.5C 94.0207,131.759 100.687,130.759 107.5,130.5 Z"/></g>
<g><path style="opacity:1" fill="#4f231d" d="M 102.5,120.5 C 103.979,123.143 103.646,125.643 101.5,128C 96.9967,129.78 92.33,130.613 87.5,130.5C 87.6107,129.883 87.944,129.383 88.5,129C 90.8659,128.56 93.1992,128.06 95.5,127.5C 100.811,128.028 103.145,125.694 102.5,120.5 Z"/></g>
<g><path style="opacity:1" fill="#c6372e" d="M 75.5,125.5 C 73.4559,126.031 71.7893,127.198 70.5,129C 68.5273,129.495 66.5273,129.662 64.5,129.5C 63.0413,129.567 61.7079,129.234 60.5,128.5C 57.6702,127.265 54.6702,126.265 51.5,125.5C 51.0845,121.625 51.5845,117.958 53,114.5C 53.0674,117.047 53.9007,119.214 55.5,121C 62.3826,122.59 69.0492,124.09 75.5,125.5 Z"/></g>
<g><path style="opacity:1" fill="#201713" d="M 107.5,106.5 C 108.492,113.982 108.825,121.648 108.5,129.5C 107.833,129.5 107.5,129.833 107.5,130.5C 100.687,130.759 94.0207,131.759 87.5,133.5C 86.8843,132.798 86.8843,131.798 87.5,130.5C 92.33,130.613 96.9967,129.78 101.5,128C 103.646,125.643 103.979,123.143 102.5,120.5C 102.5,119.833 102.5,119.167 102.5,118.5C 102.263,117.209 102.596,116.209 103.5,115.5C 103.5,115.833 103.5,116.167 103.5,116.5C 103.557,117.609 103.89,118.609 104.5,119.5C 104.933,122.166 105.433,124.832 106,127.5C 107.384,120.589 107.884,113.589 107.5,106.5 Z"/></g>
<g><path style="opacity:1" fill="#c3372e" d="M 100.5,112.5 C 100.666,116.514 100.499,120.514 100,124.5C 98.3484,125.399 96.8484,126.399 95.5,127.5C 93.1992,128.06 90.8659,128.56 88.5,129C 87.944,129.383 87.6107,129.883 87.5,130.5C 85.8333,131.833 84.1667,133.167 82.5,134.5C 81.2634,132.252 79.5967,130.252 77.5,128.5C 76.5712,129.55 75.9046,129.55 75.5,128.5C 76.2899,127.206 77.2899,126.039 78.5,125C 84.2078,123.823 89.8745,122.49 95.5,121C 97.229,119.211 97.8957,117.044 97.5,114.5C 98.7777,114.218 99.7777,113.551 100.5,112.5 Z"/></g>
<g><path style="opacity:1" fill="#99322e" d="M 92.5,118.5 C 88.2297,120.839 83.5631,122.172 78.5,122.5C 78.6107,121.883 78.944,121.383 79.5,121C 83.8704,120.263 88.2038,119.43 92.5,118.5 Z"/></g>
<g><path style="opacity:1" fill="#ba4e3f" d="M 100.5,112.5 C 101.167,114.5 101.833,116.5 102.5,118.5C 102.5,119.167 102.5,119.833 102.5,120.5C 103.145,125.694 100.811,128.028 95.5,127.5C 96.8484,126.399 98.3484,125.399 100,124.5C 100.499,120.514 100.666,116.514 100.5,112.5 Z"/></g>
</svg>