<svg xmlns="http://www.w3.org/2000/svg" xmlns:xlink="http://www.w3.org/1999/xlink" version="1.1" width="154px" height="154px" style="shape-rendering:geometricPrecision;text-rendering:geometricPrecision;image-rendering:optimizeQuality;fill-rule:evenodd;clip-rule:evenodd;">
<g/>
<g/>
<g><path style="opacity: .7;" fill="#968c8a" d="M 59.5,10.5 C 55.3435,11.4489 51.0102,12.1156 46.5,12.5C 47.2625,11.7321 48.2625,11.2321 49.5,11C 52.8168,10.5017 56.1501,10.335 59.5,10.5 Z"/></g>
<g><path style="opacity:1" fill="#863229" d="M 78.5,11.5 C 92.6569,10.5041 106.99,10.1707 121.5,10.5C 120.5,11.1667 119.5,11.8333 118.5,12.5C 114.833,12.5 111.167,12.5 107.5,12.5C 104.167,12.5 100.833,12.5 97.5,12.5C 91.3554,11.5098 85.0221,11.1765 78.5,11.5 Z"/></g>
<g><path style="opacity:1" fill="#7b4a44" d="M 137.5,10.5 C 132.167,10.5 126.833,10.5 121.5,10.5C 106.99,10.1707 92.6569,10.5041 78.5,11.5C 71.7756,11.2441 65.109,11.5774 58.5,12.5C 49.3836,13.1052 40.3836,14.4386 31.5,16.5C 30.8333,16.5 30.1667,16.5 29.5,16.5C 34.8058,14.0916 40.4724,12.7583 46.5,12.5C 51.0102,12.1156 55.3435,11.4489 59.5,10.5C 85.5,9.16667 111.5,9.16667 137.5,10.5 Z"/></g>
<g><path style="opacity:1" fill="#b9493f" d="M 78.5,11.5 C 85.0221,11.1765 91.3554,11.5098 97.5,12.5C 89.4827,12.5012 81.4827,12.8345 73.5,13.5C 69.7307,13.244 66.0641,13.5773 62.5,14.5C 61.1667,14.5 59.8333,14.5 58.5,14.5C 58.5,13.8333 58.5,13.1667 58.5,12.5C 65.109,11.5774 71.7756,11.2441 78.5,11.5 Z"/></g>
<g><path style="opacity:1" fill="#78322d" d="M 97.5,12.5 C 93.3528,13.3247 89.0195,13.8247 84.5,14C 85.6621,14.8271 86.8288,15.6604 88,16.5C 91.0524,14.9505 94.219,14.6172 97.5,15.5C 95.6684,16.0568 94.3351,17.0568 93.5,18.5C 92.1667,18.8333 90.8333,19.1667 89.5,19.5C 88.1667,19.5 86.8333,19.5 85.5,19.5C 85.719,18.325 85.3857,17.325 84.5,16.5C 83.5318,17.4891 82.3651,18.1557 81,18.5C 78.7827,17.9529 76.7827,16.9529 75,15.5C 71.3632,16.7062 70.8632,16.0395 73.5,13.5C 81.4827,12.8345 89.4827,12.5012 97.5,12.5 Z"/></g>
<g><path style="opacity:1" fill="#2e1e19" d="M 107.5,12.5 C 111.167,12.5 114.833,12.5 118.5,12.5C 120.415,12.2155 122.081,12.5489 123.5,13.5C 122.167,13.8333 120.833,14.1667 119.5,14.5C 113.814,14.9214 108.481,16.2547 103.5,18.5C 100.027,18.5758 96.6939,19.2424 93.5,20.5C 91.901,20.7678 90.5676,20.4345 89.5,19.5C 90.8333,19.1667 92.1667,18.8333 93.5,18.5C 97.664,17.2791 101.831,15.9458 106,14.5C 107.03,14.1639 107.53,13.4972 107.5,12.5 Z"/></g>
<g><path style="opacity:1" fill="#c35d4b" d="M 58.5,12.5 C 58.5,13.1667 58.5,13.8333 58.5,14.5C 55.2869,14.19 52.2869,14.5233 49.5,15.5C 41.421,17.0248 33.421,18.5248 25.5,20C 27.4319,18.5415 29.4319,17.3748 31.5,16.5C 40.3836,14.4386 49.3836,13.1052 58.5,12.5 Z"/></g>
<g><path style="opacity:1" fill="#5b2f2b" d="M 97.5,12.5 C 100.833,12.5 104.167,12.5 107.5,12.5C 107.53,13.4972 107.03,14.1639 106,14.5C 101.831,15.9458 97.664,17.2791 93.5,18.5C 94.3351,17.0568 95.6684,16.0568 97.5,15.5C 94.219,14.6172 91.0524,14.9505 88,16.5C 86.8288,15.6604 85.6621,14.8271 84.5,14C 89.0195,13.8247 93.3528,13.3247 97.5,12.5 Z"/></g>
<g><path style="opacity:1" fill="#632923" d="M 119.5,14.5 C 117.112,15.3485 114.779,16.3485 112.5,17.5C 109.482,17.7038 106.482,18.0371 103.5,18.5C 108.481,16.2547 113.814,14.9214 119.5,14.5 Z"/></g>
<g><path style="opacity: .7;" fill="#896a63" d="M 25.5,17.5 C 23.5,18.5 21.5,19.5 19.5,20.5C 18.1667,20.5 16.8333,20.5 15.5,20.5C 18.5046,18.7234 21.8379,17.7234 25.5,17.5 Z"/></g>
<g><path style="opacity:1" fill="#823330" d="M 58.5,14.5 C 59.8333,14.5 61.1667,14.5 62.5,14.5C 62.7845,16.8771 62.7845,19.0438 62.5,21C 57.1771,21.4994 51.8437,21.666 46.5,21.5C 46.5,20.1667 46.5,18.8333 46.5,17.5C 48.1788,17.7148 49.1788,17.0481 49.5,15.5C 52.2869,14.5233 55.2869,14.19 58.5,14.5 Z"/></g>
<g><path style="opacity: .7;" fill="#c7c2c2" d="M 137.5,10.5 C 138.638,13.3035 138.805,16.3035 138,19.5C 137.206,22.4715 136.539,25.4715 136,28.5C 135.617,29.056 135.117,29.3893 134.5,29.5C 134.833,28.1667 135.167,26.8333 135.5,25.5C 136.167,20.5 136.833,15.5 137.5,10.5 Z"/></g>
<g><path style="opacity:1" fill="#95312c" d="M 73.5,13.5 C 70.8632,16.0395 71.3632,16.7062 75,15.5C 76.7827,16.9529 78.7827,17.9529 81,18.5C 82.3651,18.1557 83.5318,17.4891 84.5,16.5C 85.3857,17.325 85.719,18.325 85.5,19.5C 63.5173,23.5532 41.5173,23.8865 19.5,20.5C 21.5,19.5 23.5,18.5 25.5,17.5C 26.7079,16.7659 28.0413,16.4326 29.5,16.5C 30.1667,16.5 30.8333,16.5 31.5,16.5C 29.4319,17.3748 27.4319,18.5415 25.5,20C 33.421,18.5248 41.421,17.0248 49.5,15.5C 49.1788,17.0481 48.1788,17.7148 46.5,17.5C 46.5,18.8333 46.5,20.1667 46.5,21.5C 51.8437,21.666 57.1771,21.4994 62.5,21C 62.7845,19.0438 62.7845,16.8771 62.5,14.5C 66.0641,13.5773 69.7307,13.244 73.5,13.5 Z"/></g>
<g><path style="opacity:1" fill="#522e29" d="M 85.5,19.5 C 86.8333,19.5 88.1667,19.5 89.5,19.5C 90.5676,20.4345 91.901,20.7678 93.5,20.5C 91.0314,21.3171 88.3647,21.8171 85.5,22C 84.944,22.3826 84.6107,22.8826 84.5,23.5C 81.3033,23.4054 78.3033,24.0721 75.5,25.5C 72.7425,24.1818 69.5758,23.5152 66,23.5C 62.6482,23.5018 59.4815,23.8351 56.5,24.5C 49.8333,24.5 43.1667,24.5 36.5,24.5C 29.269,23.711 22.269,22.3776 15.5,20.5C 16.8333,20.5 18.1667,20.5 19.5,20.5C 41.5173,23.8865 63.5173,23.5532 85.5,19.5 Z"/></g>
<g><path style="opacity: .9;" fill="#4d3c38" d="M 56.5,24.5 C 59.4815,23.8351 62.6482,23.5018 66,23.5C 69.5758,23.5152 72.7425,24.1818 75.5,25.5C 72.997,26.3705 70.3303,27.0372 67.5,27.5C 65.283,26.6314 62.9496,26.298 60.5,26.5C 60.9175,25.7784 61.5842,25.2784 62.5,25C 60.5273,24.5045 58.5273,24.3379 56.5,24.5 Z"/></g>
<g><path style="opacity:1" fill="#a52b25" d="M 112.5,17.5 C 111.235,18.4793 109.901,19.4793 108.5,20.5C 111.606,22.4593 111.94,24.626 109.5,27C 104.219,29.2704 98.886,30.2704 93.5,30C 92.354,30.6449 91.354,31.4783 90.5,32.5C 89.269,31.3493 89.269,30.1827 90.5,29C 89.1667,28.3333 87.8333,27.6667 86.5,27C 83.3331,26.7482 80.3331,26.5815 77.5,26.5C 80.1024,25.8676 82.4357,24.8676 84.5,23.5C 84.6107,22.8826 84.944,22.3826 85.5,22C 88.3647,21.8171 91.0314,21.3171 93.5,20.5C 96.6939,19.2424 100.027,18.5758 103.5,18.5C 106.482,18.0371 109.482,17.7038 112.5,17.5 Z"/></g>
<g><path style="opacity: .8;" fill="#645754" d="M 36.5,24.5 C 43.1667,24.5 49.8333,24.5 56.5,24.5C 58.5273,24.3379 60.5273,24.5045 62.5,25C 61.5842,25.2784 60.9175,25.7784 60.5,26.5C 56.8333,26.5 53.1667,26.5 49.5,26.5C 45.1667,25.8333 40.8333,25.1667 36.5,24.5 Z"/></g>
<g><path style="opacity: .7;" fill="#92908e" d="M 15.5,20.5 C 22.269,22.3776 29.269,23.711 36.5,24.5C 40.8333,25.1667 45.1667,25.8333 49.5,26.5C 49.5,27.1667 49.5,27.8333 49.5,28.5C 37.963,28.8589 26.6296,27.5256 15.5,24.5C 16.376,23.7492 17.376,23.2492 18.5,23C 17.062,22.7811 15.7287,22.2811 14.5,21.5C 14.6236,20.8933 14.9569,20.56 15.5,20.5 Z"/></g>
<g><path style="opacity:1" fill="#582a24" d="M 49.5,26.5 C 53.1667,26.5 56.8333,26.5 60.5,26.5C 62.9496,26.298 65.283,26.6314 67.5,27.5C 63.8583,29.2245 60.1916,31.0578 56.5,33C 55.2068,33.49 53.8734,33.6567 52.5,33.5C 53.6002,32.4415 54.9336,31.6082 56.5,31C 54.5932,29.878 52.5932,29.0447 50.5,28.5C 50.1667,28.5 49.8333,28.5 49.5,28.5C 49.5,27.8333 49.5,27.1667 49.5,26.5 Z"/></g>
<g><path style="opacity:1" fill="#8f2c25" d="M 55.5,27.5 C 58.1873,27.3359 60.854,27.5026 63.5,28C 61.1093,28.2868 58.7759,28.7868 56.5,29.5C 55.7025,29.0431 55.3691,28.3764 55.5,27.5 Z"/></g>
<g><path style="opacity:1" fill="#602f27" d="M 121.5,10.5 C 126.833,10.5 132.167,10.5 137.5,10.5C 136.833,15.5 136.167,20.5 135.5,25.5C 130.264,27.4756 124.931,29.1423 119.5,30.5C 110.876,33.9737 101.876,35.9737 92.5,36.5C 105.919,32.0613 119.585,28.3946 133.5,25.5C 133.12,20.7968 134.12,16.4634 136.5,12.5C 134.833,12.1667 133.167,11.8333 131.5,11.5C 128.721,11.92 126.055,12.5867 123.5,13.5C 122.081,12.5489 120.415,12.2155 118.5,12.5C 119.5,11.8333 120.5,11.1667 121.5,10.5 Z"/></g>
<g><path style="opacity: .7;" fill="#898785" d="M 135.5,25.5 C 135.167,26.8333 134.833,28.1667 134.5,29.5C 130.979,30.0991 127.979,31.4325 125.5,33.5C 123.254,32.7904 120.92,32.2904 118.5,32C 119.056,31.6174 119.389,31.1174 119.5,30.5C 124.931,29.1423 130.264,27.4756 135.5,25.5 Z"/></g>
<g><path style="opacity: .7;" fill="#9b9695" d="M 50.5,28.5 C 52.5932,29.0447 54.5932,29.878 56.5,31C 54.9336,31.6082 53.6002,32.4415 52.5,33.5C 51.8333,33.5 51.1667,33.5 50.5,33.5C 49.438,31.7659 49.438,30.0992 50.5,28.5 Z"/></g>
<g><path style="opacity:1" fill="#972f28" d="M 92.5,36.5 C 85.9047,38.6981 79.238,40.6981 72.5,42.5C 71.7611,42.631 71.0944,42.4643 70.5,42C 77.6519,40.6908 77.9853,39.0241 71.5,37C 73.3839,36.7837 75.0506,36.117 76.5,35C 77.4154,33.0892 77.4154,31.4225 76.5,30C 73.8333,29.3333 71.1667,29.3333 68.5,30C 61.5541,33.1443 54.5541,35.9776 47.5,38.5C 41.4089,40.8446 35.4089,43.1779 29.5,45.5C 28.2617,45.81 28.2617,46.31 29.5,47C 44.1238,52.3711 59.1238,56.8711 74.5,60.5C 74.8417,61.3382 75.5084,61.6716 76.5,61.5C 78.2915,61.366 79.9582,61.6993 81.5,62.5C 83.5529,62.4021 85.2196,63.0687 86.5,64.5C 82.8455,64.0578 79.1788,63.7244 75.5,63.5C 74.5,63.5 73.5,63.5 72.5,63.5C 58.6242,59.6454 44.7909,55.6454 31,51.5C 29.3167,52.1765 29.1501,53.1765 30.5,54.5C 31.494,56.3344 31.494,58.0011 30.5,59.5C 29.6152,54.7847 27.6152,50.618 24.5,47C 25.6045,45.2847 26.9378,43.7847 28.5,42.5C 30.8984,42.7406 32.8984,42.0739 34.5,40.5C 40.954,39.0657 46.954,36.7323 52.5,33.5C 53.8734,33.6567 55.2068,33.49 56.5,33C 60.1916,31.0578 63.8583,29.2245 67.5,27.5C 70.3303,27.0372 72.997,26.3705 75.5,25.5C 78.3033,24.0721 81.3033,23.4054 84.5,23.5C 82.4357,24.8676 80.1024,25.8676 77.5,26.5C 80.3331,26.5815 83.3331,26.7482 86.5,27C 87.8333,27.6667 89.1667,28.3333 90.5,29C 89.269,30.1827 89.269,31.3493 90.5,32.5C 91.354,31.4783 92.354,30.6449 93.5,30C 98.886,30.2704 104.219,29.2704 109.5,27C 111.94,24.626 111.606,22.4593 108.5,20.5C 109.901,19.4793 111.235,18.4793 112.5,17.5C 114.779,16.3485 117.112,15.3485 119.5,14.5C 120.833,14.1667 122.167,13.8333 123.5,13.5C 126.055,12.5867 128.721,11.92 131.5,11.5C 133.167,11.8333 134.833,12.1667 136.5,12.5C 134.12,16.4634 133.12,20.7968 133.5,25.5C 119.585,28.3946 105.919,32.0613 92.5,36.5 Z"/></g>
<g><path style="opacity:1" fill="#d18368" d="M 123.5,35.5 C 126.698,34.9644 129.365,35.631 131.5,37.5C 128.572,37.4349 125.905,36.7682 123.5,35.5 Z"/></g>
<g><path style="opacity:1" fill="#79443d" d="M 50.5,33.5 C 51.1667,33.5 51.8333,33.5 52.5,33.5C 46.954,36.7323 40.954,39.0657 34.5,40.5C 39.5307,37.6554 44.8641,35.3221 50.5,33.5 Z"/></g>
<g><path style="opacity: .7;" fill="#78524a" d="M 123.5,35.5 C 124.209,34.596 125.209,34.2627 126.5,34.5C 128.5,34.5 130.5,34.5 132.5,34.5C 132.167,37.8333 131.833,41.1667 131.5,44.5C 131.167,44.5 130.833,44.5 130.5,44.5C 130.298,42.0504 130.631,39.717 131.5,37.5C 129.365,35.631 126.698,34.9644 123.5,35.5 Z"/></g>
<g><path style="opacity:1" fill="#6b2721" d="M 72.5,42.5 C 69.659,43.6693 66.659,44.6693 63.5,45.5C 62.9569,45.44 62.6236,45.1067 62.5,44.5C 63.7287,43.7189 65.062,43.2189 66.5,43C 64.7237,41.3292 64.3904,39.4959 65.5,37.5C 64.675,36.6143 63.675,36.281 62.5,36.5C 61.9556,38.5795 61.1223,40.5795 60,42.5C 59.6121,41.572 58.9454,40.9054 58,40.5C 56.3463,41.6533 54.8463,42.9866 53.5,44.5C 52.7701,41.103 50.7701,39.103 47.5,38.5C 54.5541,35.9776 61.5541,33.1443 68.5,30C 71.1667,29.3333 73.8333,29.3333 76.5,30C 77.4154,31.4225 77.4154,33.0892 76.5,35C 75.0506,36.117 73.3839,36.7837 71.5,37C 77.9853,39.0241 77.6519,40.6908 70.5,42C 71.0944,42.4643 71.7611,42.631 72.5,42.5 Z"/></g>
<g><path style="opacity:1" fill="#a12f28" d="M 123.5,35.5 C 125.905,36.7682 128.572,37.4349 131.5,37.5C 130.631,39.717 130.298,42.0504 130.5,44.5C 128.194,44.9926 125.861,45.3259 123.5,45.5C 120.171,45.2153 117.171,45.8819 114.5,47.5C 111.402,47.7556 108.402,48.4222 105.5,49.5C 104.167,49.5 102.833,49.5 101.5,49.5C 98.1615,48.8899 97.8282,47.7232 100.5,46C 97.7774,43.674 98.2774,42.174 102,41.5C 104.403,41.8249 106.236,42.9916 107.5,45C 109.81,45.4966 112.143,45.6633 114.5,45.5C 114.785,43.712 114.452,42.0453 113.5,40.5C 111.544,41.5481 109.544,42.0481 107.5,42C 108.167,41.3333 108.833,40.6667 109.5,40C 106.964,39.8138 104.631,39.3138 102.5,38.5C 109.384,36.7417 116.384,35.7417 123.5,35.5 Z"/></g>
<g><path style="opacity:1" fill="#6e4c46" d="M 34.5,40.5 C 32.8984,42.0739 30.8984,42.7406 28.5,42.5C 30.1016,40.9261 32.1016,40.2594 34.5,40.5 Z"/></g>
<g><path style="opacity:1" fill="#a22f26" d="M 100.5,39.5 C 98.6744,40.972 96.0077,41.972 92.5,42.5C 86.7404,43.3563 81.0738,44.6896 75.5,46.5C 74.5836,46.4573 73.9169,46.1239 73.5,45.5C 82.198,42.0751 91.198,40.0751 100.5,39.5 Z"/></g>
<g><path style="opacity:1" fill="#8d2d28" d="M 100.5,39.5 C 100.842,38.6618 101.508,38.3284 102.5,38.5C 104.631,39.3138 106.964,39.8138 109.5,40C 108.833,40.6667 108.167,41.3333 107.5,42C 109.544,42.0481 111.544,41.5481 113.5,40.5C 114.452,42.0453 114.785,43.712 114.5,45.5C 112.143,45.6633 109.81,45.4966 107.5,45C 106.236,42.9916 104.403,41.8249 102,41.5C 98.2774,42.174 97.7774,43.674 100.5,46C 97.8282,47.7232 98.1615,48.8899 101.5,49.5C 99.4855,50.9238 97.1522,51.5905 94.5,51.5C 93.5942,48.5641 92.9275,45.5641 92.5,42.5C 96.0077,41.972 98.6744,40.972 100.5,39.5 Z"/></g>
<g><path style="opacity:1" fill="#752620" d="M 92.5,42.5 C 92.9275,45.5641 93.5942,48.5641 94.5,51.5C 94.1583,52.3382 93.4916,52.6716 92.5,52.5C 84.9964,52.0605 85.3297,50.8938 93.5,49C 91.2686,48.378 89.4352,47.2113 88,45.5C 84.4862,45.2957 80.9862,45.9624 77.5,47.5C 72.5642,47.9418 67.7308,48.9418 63,50.5C 62.2352,50.4301 61.7352,50.0967 61.5,49.5C 65.4372,47.9654 69.4372,46.6321 73.5,45.5C 73.9169,46.1239 74.5836,46.4573 75.5,46.5C 81.0738,44.6896 86.7404,43.3563 92.5,42.5 Z"/></g>
<g><path style="opacity:1" fill="#53231d" d="M 63.5,45.5 C 60.8801,47.8946 57.7134,48.8946 54,48.5C 46.01,46.8162 37.8433,45.8162 29.5,45.5C 35.4089,43.1779 41.4089,40.8446 47.5,38.5C 50.7701,39.103 52.7701,41.103 53.5,44.5C 54.8463,42.9866 56.3463,41.6533 58,40.5C 58.9454,40.9054 59.6121,41.572 60,42.5C 61.1223,40.5795 61.9556,38.5795 62.5,36.5C 63.675,36.281 64.675,36.6143 65.5,37.5C 64.3904,39.4959 64.7237,41.3292 66.5,43C 65.062,43.2189 63.7287,43.7189 62.5,44.5C 62.6236,45.1067 62.9569,45.44 63.5,45.5 Z"/></g>
<g><path style="opacity:1" fill="#683731" d="M 123.5,45.5 C 121.972,46.3092 120.306,46.9759 118.5,47.5C 117.167,47.5 115.833,47.5 114.5,47.5C 117.171,45.8819 120.171,45.2153 123.5,45.5 Z"/></g>
<g><path style="opacity:1" fill="#2c1a16" d="M 119.5,30.5 C 119.389,31.1174 119.056,31.6174 118.5,32C 120.92,32.2904 123.254,32.7904 125.5,33.5C 126.167,33.5 126.5,33.8333 126.5,34.5C 125.209,34.2627 124.209,34.596 123.5,35.5C 116.384,35.7417 109.384,36.7417 102.5,38.5C 101.508,38.3284 100.842,38.6618 100.5,39.5C 91.198,40.0751 82.198,42.0751 73.5,45.5C 69.4372,46.6321 65.4372,47.9654 61.5,49.5C 60.9569,49.56 60.6236,49.8933 60.5,50.5C 61.6888,51.4287 63.0222,51.762 64.5,51.5C 64.5,52.5 64.5,53.5 64.5,54.5C 66.2624,54.6427 67.9291,54.3094 69.5,53.5C 70.6956,53.8457 70.6956,54.3457 69.5,55C 71.6526,55.0995 73.3192,55.9328 74.5,57.5C 73.6236,57.3691 72.9569,57.7025 72.5,58.5C 73.2427,59.1818 73.9094,59.8485 74.5,60.5C 59.1238,56.8711 44.1238,52.3711 29.5,47C 28.2617,46.31 28.2617,45.81 29.5,45.5C 37.8433,45.8162 46.01,46.8162 54,48.5C 57.7134,48.8946 60.8801,47.8946 63.5,45.5C 66.659,44.6693 69.659,43.6693 72.5,42.5C 79.238,40.6981 85.9047,38.6981 92.5,36.5C 101.876,35.9737 110.876,33.9737 119.5,30.5 Z"/></g>
<g><path style="opacity:1" fill="#60241e" d="M 92.5,52.5 C 89.0032,53.4025 85.3366,54.0691 81.5,54.5C 81.4142,53.5041 81.7476,52.6708 82.5,52C 80.8659,51.5065 79.1992,51.3398 77.5,51.5C 77.5,50.1667 77.5,48.8333 77.5,47.5C 80.9862,45.9624 84.4862,45.2957 88,45.5C 89.4352,47.2113 91.2686,48.378 93.5,49C 85.3297,50.8938 84.9964,52.0605 92.5,52.5 Z"/></g>
<g><path style="opacity:1" fill="#461f19" d="M 77.5,47.5 C 77.5,48.8333 77.5,50.1667 77.5,51.5C 79.1992,51.3398 80.8659,51.5065 82.5,52C 81.7476,52.6708 81.4142,53.5041 81.5,54.5C 79.0554,55.3124 76.7221,56.3124 74.5,57.5C 73.3192,55.9328 71.6526,55.0995 69.5,55C 70.6956,54.3457 70.6956,53.8457 69.5,53.5C 67.9291,54.3094 66.2624,54.6427 64.5,54.5C 64.5,53.5 64.5,52.5 64.5,51.5C 63.0222,51.762 61.6888,51.4287 60.5,50.5C 60.6236,49.8933 60.9569,49.56 61.5,49.5C 61.7352,50.0967 62.2352,50.4301 63,50.5C 67.7308,48.9418 72.5642,47.9418 77.5,47.5 Z"/></g>
<g><path style="opacity:1" fill="#695a57" d="M 114.5,47.5 C 115.833,47.5 117.167,47.5 118.5,47.5C 113.385,49.2504 108.051,50.5837 102.5,51.5C 103.5,50.8333 104.5,50.1667 105.5,49.5C 108.402,48.4222 111.402,47.7556 114.5,47.5 Z"/></g>
<g><path style="opacity:1" fill="#59312a" d="M 28.5,42.5 C 26.9378,43.7847 25.6045,45.2847 24.5,47C 27.6152,50.618 29.6152,54.7847 30.5,59.5C 31.2653,62.0961 31.5987,64.7628 31.5,67.5C 32.791,67.2627 33.791,67.596 34.5,68.5C 33.1667,68.5 31.8333,68.5 30.5,68.5C 29.871,65.6027 28.871,62.936 27.5,60.5C 26.6792,56.8733 25.3459,53.54 23.5,50.5C 23.5,48.1667 23.5,45.8333 23.5,43.5C 25.2161,43.3713 26.8828,43.038 28.5,42.5 Z"/></g>
<g><path style="opacity:1" fill="#503531" d="M 101.5,49.5 C 102.833,49.5 104.167,49.5 105.5,49.5C 104.5,50.1667 103.5,50.8333 102.5,51.5C 93.4717,54.175 84.4717,57.0083 75.5,60C 76.056,60.3826 76.3893,60.8826 76.5,61.5C 75.5084,61.6716 74.8417,61.3382 74.5,60.5C 73.9094,59.8485 73.2427,59.1818 72.5,58.5C 72.9569,57.7025 73.6236,57.3691 74.5,57.5C 76.7221,56.3124 79.0554,55.3124 81.5,54.5C 85.3366,54.0691 89.0032,53.4025 92.5,52.5C 93.4916,52.6716 94.1583,52.3382 94.5,51.5C 97.1522,51.5905 99.4855,50.9238 101.5,49.5 Z"/></g>
<g><path style="opacity: .7;" fill="#8c8a88" d="M 130.5,44.5 C 130.833,44.5 131.167,44.5 131.5,44.5C 131.67,45.8221 131.337,46.9887 130.5,48C 114.736,51.6915 99.0689,55.8582 83.5,60.5C 82.2867,60.7472 81.62,61.4138 81.5,62.5C 79.9582,61.6993 78.2915,61.366 76.5,61.5C 76.3893,60.8826 76.056,60.3826 75.5,60C 84.4717,57.0083 93.4717,54.175 102.5,51.5C 108.051,50.5837 113.385,49.2504 118.5,47.5C 120.306,46.9759 121.972,46.3092 123.5,45.5C 125.861,45.3259 128.194,44.9926 130.5,44.5 Z"/></g>
<g><path style="opacity:1" fill="#b7b4b3" d="M 23.5,50.5 C 25.3459,53.54 26.6792,56.8733 27.5,60.5C 27.5,61.1667 27.5,61.8333 27.5,62.5C 25.1939,58.9155 23.8606,54.9155 23.5,50.5 Z"/></g>
<g><path style="opacity:1" fill="#802f29" d="M 30.5,54.5 C 34.8313,55.1508 39.1646,55.9842 43.5,57C 44.2738,59.4397 45.9405,60.773 48.5,61C 55.3571,62.0445 62.1904,63.2112 69,64.5C 70.3847,64.4857 71.5514,64.1524 72.5,63.5C 73.5,63.5 74.5,63.5 75.5,63.5C 80.0891,65.4162 84.7558,67.0829 89.5,68.5C 88.9569,68.56 88.6236,68.8933 88.5,69.5C 90.1083,70.3184 91.7749,70.9851 93.5,71.5C 94.3857,72.325 94.719,73.325 94.5,74.5C 88.7864,74.0526 83.1197,73.5526 77.5,73C 82.0372,74.7571 86.7039,76.0905 91.5,77C 90.9056,77.4643 90.2389,77.631 89.5,77.5C 83.2516,76.0221 76.9182,75.0221 70.5,74.5C 66.8171,72.7501 62.8171,72.0834 58.5,72.5C 53.3581,71.141 48.0247,70.141 42.5,69.5C 49.4087,68.9544 56.4087,68.9544 63.5,69.5C 56.2276,68.2391 49.2276,66.2391 42.5,63.5C 39.4586,63.9821 36.4586,64.6487 33.5,65.5C 36.4839,66.6253 38.8172,67.6253 40.5,68.5C 38.5,68.5 36.5,68.5 34.5,68.5C 33.791,67.596 32.791,67.2627 31.5,67.5C 31.5987,64.7628 31.2653,62.0961 30.5,59.5C 31.494,58.0011 31.494,56.3344 30.5,54.5 Z"/></g>
<g><path style="opacity:1" fill="#6f3934" d="M 72.5,63.5 C 71.5514,64.1524 70.3847,64.4857 69,64.5C 62.1904,63.2112 55.3571,62.0445 48.5,61C 45.9405,60.773 44.2738,59.4397 43.5,57C 39.1646,55.9842 34.8313,55.1508 30.5,54.5C 29.1501,53.1765 29.3167,52.1765 31,51.5C 44.7909,55.6454 58.6242,59.6454 72.5,63.5 Z"/></g>
<g><path style="opacity:1" fill="#723732" d="M 42.5,69.5 C 41.5084,69.6716 40.8417,69.3382 40.5,68.5C 38.8172,67.6253 36.4839,66.6253 33.5,65.5C 36.4586,64.6487 39.4586,63.9821 42.5,63.5C 49.2276,66.2391 56.2276,68.2391 63.5,69.5C 56.4087,68.9544 49.4087,68.9544 42.5,69.5 Z"/></g>
<g><path style="opacity:1" fill="#bf4f43" d="M 75.5,63.5 C 79.1788,63.7244 82.8455,64.0578 86.5,64.5C 88.1667,64.5 89.8333,64.5 91.5,64.5C 94.3856,66.327 97.0523,68.327 99.5,70.5C 96.1226,70.0405 92.7893,69.3739 89.5,68.5C 84.7558,67.0829 80.0891,65.4162 75.5,63.5 Z"/></g>
<g><path style="opacity:1" fill="#41342f" d="M 30.5,68.5 C 31.8333,68.5 33.1667,68.5 34.5,68.5C 36.5,68.5 38.5,68.5 40.5,68.5C 40.8417,69.3382 41.5084,69.6716 42.5,69.5C 48.0247,70.141 53.3581,71.141 58.5,72.5C 48.8876,72.2284 39.5543,70.895 30.5,68.5 Z"/></g>
<g><path style="opacity:1" fill="#81423a" d="M 103.5,69.5 C 106.172,70.5014 108.838,71.5014 111.5,72.5C 111.5,73.5 111.5,74.5 111.5,75.5C 111.167,75.5 110.833,75.5 110.5,75.5C 108.342,73.2606 106.009,71.2606 103.5,69.5 Z"/></g>
<g><path style="opacity: .7;" fill="#8f8d8b" d="M 27.5,60.5 C 28.871,62.936 29.871,65.6027 30.5,68.5C 39.5543,70.895 48.8876,72.2284 58.5,72.5C 58.8417,73.3382 59.5084,73.6716 60.5,73.5C 56.8333,74.1667 53.1667,74.8333 49.5,75.5C 49.1667,75.5 48.8333,75.5 48.5,75.5C 47.8333,75.5 47.1667,75.5 46.5,75.5C 41.4317,73.8224 36.0984,73.1557 30.5,73.5C 29.7033,69.7768 28.7033,66.1101 27.5,62.5C 27.5,61.8333 27.5,61.1667 27.5,60.5 Z"/></g>
<g><path style="opacity:1" fill="#402520" d="M 58.5,72.5 C 62.8171,72.0834 66.8171,72.7501 70.5,74.5C 67.1667,74.1667 63.8333,73.8333 60.5,73.5C 59.5084,73.6716 58.8417,73.3382 58.5,72.5 Z"/></g>
<g><path style="opacity: .7;" fill="#555450" d="M 60.5,73.5 C 63.8333,73.8333 67.1667,74.1667 70.5,74.5C 63.6866,75.4912 56.6866,75.8245 49.5,75.5C 53.1667,74.8333 56.8333,74.1667 60.5,73.5 Z"/></g>
<g><path style="opacity:1" fill="#665551" d="M 46.5,75.5 C 47.1667,75.5 47.8333,75.5 48.5,75.5C 48.5,75.8333 48.5,76.1667 48.5,76.5C 43.7286,76.5376 39.062,77.2043 34.5,78.5C 34.5,79.5 34.5,80.5 34.5,81.5C 34.5,82.1667 34.5,82.8333 34.5,83.5C 33.5386,81.7354 33.2053,79.7354 33.5,77.5C 37.7604,76.4147 42.0938,75.748 46.5,75.5 Z"/></g>
<g><path style="opacity:1" fill="#b54f43" d="M 48.5,76.5 C 52.8333,76.5 57.1667,76.5 61.5,76.5C 66.1863,77.2405 71.0196,77.9072 76,78.5C 75.3649,79.5694 73.5315,79.9028 70.5,79.5C 60.1258,77.7276 49.9591,78.3942 40,81.5C 39.79,83.0581 39.29,84.3915 38.5,85.5C 37.7659,84.2921 37.4326,82.9587 37.5,81.5C 36.5,81.5 35.5,81.5 34.5,81.5C 34.5,80.5 34.5,79.5 34.5,78.5C 39.062,77.2043 43.7286,76.5376 48.5,76.5 Z"/></g>
<g><path style="opacity:1" fill="#61261f" d="M 89.5,68.5 C 92.7893,69.3739 96.1226,70.0405 99.5,70.5C 98.0541,72.5796 97.0541,74.9129 96.5,77.5C 94.0268,78.7969 91.6934,78.7969 89.5,77.5C 90.2389,77.631 90.9056,77.4643 91.5,77C 86.7039,76.0905 82.0372,74.7571 77.5,73C 83.1197,73.5526 88.7864,74.0526 94.5,74.5C 94.719,73.325 94.3857,72.325 93.5,71.5C 91.7749,70.9851 90.1083,70.3184 88.5,69.5C 88.6236,68.8933 88.9569,68.56 89.5,68.5 Z"/></g>
<g><path style="opacity:1" fill="#88443e" d="M 126.5,80.5 C 126.167,80.5 125.833,80.5 125.5,80.5C 122.322,78.9914 118.989,77.658 115.5,76.5C 115.5,76.1667 115.5,75.8333 115.5,75.5C 115.56,74.9569 115.893,74.6236 116.5,74.5C 119.05,75.9416 121.716,77.1083 124.5,78C 125.756,78.4169 126.423,79.2502 126.5,80.5 Z"/></g>
<g><path style="opacity:1" fill="#462620" d="M 91.5,64.5 C 95.9378,65.3103 99.9378,66.977 103.5,69.5C 102.5,69.5 101.5,69.5 100.5,69.5C 99.1667,74.8333 97.8333,80.1667 96.5,85.5C 95.3428,88.2727 94.6761,91.2727 94.5,94.5C 93.8333,95.5 93.1667,96.5 92.5,97.5C 92.5,96.1667 92.5,94.8333 92.5,93.5C 88.0725,93.2012 83.7391,92.5346 79.5,91.5C 79.5,91.1667 79.5,90.8333 79.5,90.5C 89.3564,93.0245 94.6897,89.3578 95.5,79.5C 92.8333,79.5 90.1667,79.5 87.5,79.5C 83.8691,79.8396 80.5358,79.0063 77.5,77C 72.1771,76.5006 66.8437,76.334 61.5,76.5C 57.1667,76.5 52.8333,76.5 48.5,76.5C 48.5,76.1667 48.5,75.8333 48.5,75.5C 48.8333,75.5 49.1667,75.5 49.5,75.5C 56.6866,75.8245 63.6866,75.4912 70.5,74.5C 76.9182,75.0221 83.2516,76.0221 89.5,77.5C 91.6934,78.7969 94.0268,78.7969 96.5,77.5C 97.0541,74.9129 98.0541,72.5796 99.5,70.5C 97.0523,68.327 94.3856,66.327 91.5,64.5 Z"/></g>
<g><path style="opacity: .7;" fill="#5e5854" d="M 111.5,72.5 C 112.167,73.8333 112.833,75.1667 113.5,76.5C 110.726,81.8914 110.06,81.5581 111.5,75.5C 111.5,74.5 111.5,73.5 111.5,72.5 Z"/></g>
<g><path style="opacity:1" fill="#8f3229" d="M 61.5,76.5 C 66.8437,76.334 72.1771,76.5006 77.5,77C 80.5358,79.0063 83.8691,79.8396 87.5,79.5C 88.9516,80.3019 90.6183,80.8019 92.5,81C 84.9967,81.1334 77.6634,80.6334 70.5,79.5C 73.5315,79.9028 75.3649,79.5694 76,78.5C 71.0196,77.9072 66.1863,77.2405 61.5,76.5 Z"/></g>
<g><path style="opacity:1" fill="#371f18" d="M 110.5,75.5 C 110.833,75.5 111.167,75.5 111.5,75.5C 110.06,81.5581 110.726,81.8914 113.5,76.5C 114.167,76.1667 114.833,75.8333 115.5,75.5C 115.5,75.8333 115.5,76.1667 115.5,76.5C 115.5,76.8333 115.5,77.1667 115.5,77.5C 114.512,78.795 113.512,80.1283 112.5,81.5C 110.552,84.6215 108.385,87.6215 106,90.5C 105.81,84.9154 107.31,79.9154 110.5,75.5 Z"/></g>
<g><path style="opacity:1" fill="#743a36" d="M 70.5,79.5 C 77.6634,80.6334 84.9967,81.1334 92.5,81C 90.6183,80.8019 88.9516,80.3019 87.5,79.5C 90.1667,79.5 92.8333,79.5 95.5,79.5C 94.6897,89.3578 89.3564,93.0245 79.5,90.5C 70.8333,90.5 62.1667,90.5 53.5,90.5C 61.9903,89.6704 70.657,89.1704 79.5,89C 68.5168,87.3051 57.5168,87.3051 46.5,89C 43.8475,89.353 41.8475,90.5197 40.5,92.5C 40.1667,92.5 39.8333,92.5 39.5,92.5C 39.3259,90.139 38.9926,87.8056 38.5,85.5C 39.29,84.3915 39.79,83.0581 40,81.5C 49.9591,78.3942 60.1258,77.7276 70.5,79.5 Z"/></g>
<g><path style="opacity:1" fill="#b8423a" d="M 103.5,69.5 C 106.009,71.2606 108.342,73.2606 110.5,75.5C 107.31,79.9154 105.81,84.9154 106,90.5C 108.385,87.6215 110.552,84.6215 112.5,81.5C 113.573,82.2506 113.74,83.2506 113,84.5C 110.59,87.3968 108.423,90.3968 106.5,93.5C 105.5,93.5 104.5,93.5 103.5,93.5C 103.66,91.8008 103.494,90.1341 103,88.5C 102.185,90.6228 101.185,92.6228 100,94.5C 98.6842,91.3117 98.1842,87.9783 98.5,84.5C 99.5,84.5 100.5,84.5 101.5,84.5C 101.477,82.0733 100.977,79.74 100,77.5C 99.0575,80.3738 97.8908,83.0404 96.5,85.5C 97.8333,80.1667 99.1667,74.8333 100.5,69.5C 101.5,69.5 102.5,69.5 103.5,69.5 Z"/></g>
<g><path style="opacity:1" fill="#b84b3f" d="M 115.5,76.5 C 118.989,77.658 122.322,78.9914 125.5,80.5C 119.463,86.5354 113.796,92.8687 108.5,99.5C 108.675,97.3792 108.341,95.3792 107.5,93.5C 109.697,92.1554 112.03,90.9888 114.5,90C 116.461,87.0372 118.794,84.3706 121.5,82C 118.504,81.6837 116.504,80.1837 115.5,77.5C 115.5,77.1667 115.5,76.8333 115.5,76.5 Z"/></g>
<g><path style="opacity: .7;" fill="#949291" d="M 34.5,84.5 C 36.0719,87.2154 37.0719,90.2154 37.5,93.5C 37.5,93.8333 37.5,94.1667 37.5,94.5C 35.7234,91.4954 34.7234,88.1621 34.5,84.5 Z"/></g>
<g><path style="opacity:1" fill="#3a201a" d="M 34.5,81.5 C 35.5,81.5 36.5,81.5 37.5,81.5C 37.4326,82.9587 37.7659,84.2921 38.5,85.5C 38.9926,87.8056 39.3259,90.139 39.5,92.5C 39.5912,94.6977 38.9245,95.0311 37.5,93.5C 37.0719,90.2154 36.0719,87.2154 34.5,84.5C 34.5,84.1667 34.5,83.8333 34.5,83.5C 34.5,82.8333 34.5,82.1667 34.5,81.5 Z"/></g>
<g><path style="opacity:1" fill="#9e403c" d="M 115.5,77.5 C 116.504,80.1837 118.504,81.6837 121.5,82C 118.794,84.3706 116.461,87.0372 114.5,90C 112.03,90.9888 109.697,92.1554 107.5,93.5C 107.167,93.5 106.833,93.5 106.5,93.5C 108.423,90.3968 110.59,87.3968 113,84.5C 113.74,83.2506 113.573,82.2506 112.5,81.5C 113.512,80.1283 114.512,78.795 115.5,77.5 Z"/></g>
<g><path style="opacity:1" fill="#a94035" d="M 53.5,90.5 C 49.038,90.423 44.7047,91.0897 40.5,92.5C 41.8475,90.5197 43.8475,89.353 46.5,89C 57.5168,87.3051 68.5168,87.3051 79.5,89C 70.657,89.1704 61.9903,89.6704 53.5,90.5 Z"/></g>
<g><path style="opacity:1" fill="#593c38" d="M 53.5,90.5 C 62.1667,90.5 70.8333,90.5 79.5,90.5C 79.5,90.8333 79.5,91.1667 79.5,91.5C 65.2593,90.628 51.2593,91.9613 37.5,95.5C 37.5,95.1667 37.5,94.8333 37.5,94.5C 37.5,94.1667 37.5,93.8333 37.5,93.5C 38.9245,95.0311 39.5912,94.6977 39.5,92.5C 39.8333,92.5 40.1667,92.5 40.5,92.5C 44.7047,91.0897 49.038,90.423 53.5,90.5 Z"/></g>
<g><path style="opacity: .7;" fill="#8c8a87" d="M 125.5,80.5 C 125.833,80.5 126.167,80.5 126.5,80.5C 126.414,81.4959 126.748,82.3292 127.5,83C 118.625,93.2781 110.625,104.111 103.5,115.5C 103.372,113.345 103.872,111.345 105,109.5C 111.999,99.9272 118.832,90.2605 125.5,80.5 Z"/></g>
<g><path style="opacity: .7;" fill="#8d8b89" d="M 79.5,91.5 C 83.7391,92.5346 88.0725,93.2012 92.5,93.5C 92.5,94.8333 92.5,96.1667 92.5,97.5C 92.7373,98.791 92.404,99.791 91.5,100.5C 91.5,99.1667 91.5,97.8333 91.5,96.5C 74.3282,93.2655 57.3282,93.9322 40.5,98.5C 38.8247,98.1316 37.8247,97.1316 37.5,95.5C 51.2593,91.9613 65.2593,90.628 79.5,91.5 Z"/></g>
<g><path style="opacity:1" fill="#b93630" d="M 106.5,93.5 C 106.833,93.5 107.167,93.5 107.5,93.5C 108.341,95.3792 108.675,97.3792 108.5,99.5C 105.179,105.473 101.845,111.473 98.5,117.5C 97.9569,117.44 97.6236,117.107 97.5,116.5C 98.6948,114.249 99.6948,111.915 100.5,109.5C 98.3817,106.455 96.8817,103.122 96,99.5C 95.5814,100.672 94.9147,101.672 94,102.5C 94.0833,99.8806 94.25,97.214 94.5,94.5C 94.6761,91.2727 95.3428,88.2727 96.5,85.5C 97.8908,83.0404 99.0575,80.3738 100,77.5C 100.977,79.74 101.477,82.0733 101.5,84.5C 100.5,84.5 99.5,84.5 98.5,84.5C 98.1842,87.9783 98.6842,91.3117 100,94.5C 101.185,92.6228 102.185,90.6228 103,88.5C 103.494,90.1341 103.66,91.8008 103.5,93.5C 104.5,93.5 105.5,93.5 106.5,93.5 Z"/></g>
<g><path style="opacity:1" fill="#a6342c" d="M 94.5,94.5 C 94.25,97.214 94.0833,99.8806 94,102.5C 94.9147,101.672 95.5814,100.672 96,99.5C 96.8817,103.122 98.3817,106.455 100.5,109.5C 99.6948,111.915 98.6948,114.249 97.5,116.5C 97.6236,117.107 97.9569,117.44 98.5,117.5C 96.7452,122.908 94.7452,127.575 92.5,131.5C 91.6228,122.867 91.2895,114.2 91.5,105.5C 91.5,103.833 91.5,102.167 91.5,100.5C 92.404,99.791 92.7373,98.791 92.5,97.5C 93.1667,96.5 93.8333,95.5 94.5,94.5 Z"/></g>
<g><path style="opacity:1" fill="#985348" d="M 124.5,119.5 C 123.5,120.167 122.5,120.833 121.5,121.5C 121.44,120.957 121.107,120.624 120.5,120.5C 119.06,121.952 117.394,122.952 115.5,123.5C 117.863,120.146 120.863,117.48 124.5,115.5C 125.292,116.7 125.292,118.033 124.5,119.5 Z"/></g>
<g><path style="opacity:1" fill="#5a3d39" d="M 125.5,80.5 C 118.832,90.2605 111.999,99.9272 105,109.5C 103.872,111.345 103.372,113.345 103.5,115.5C 102.662,115.842 102.328,116.508 102.5,117.5C 100.025,118.687 99.0246,120.687 99.5,123.5C 98.6792,127.127 97.3459,130.46 95.5,133.5C 94.6851,134.429 93.8518,135.429 93,136.5C 92.3918,134.934 91.5585,133.6 90.5,132.5C 90.5,131.5 90.5,130.5 90.5,129.5C 91.1667,130.167 91.8333,130.833 92.5,131.5C 94.7452,127.575 96.7452,122.908 98.5,117.5C 101.845,111.473 105.179,105.473 108.5,99.5C 113.796,92.8687 119.463,86.5354 125.5,80.5 Z"/></g>
<g><path style="opacity:1" fill="#5a3a35" d="M 124.5,119.5 C 123.781,121.764 123.448,124.097 123.5,126.5C 125.167,127.167 126.833,127.833 128.5,128.5C 127.833,128.833 127.167,129.167 126.5,129.5C 126.167,129.5 125.833,129.5 125.5,129.5C 123.983,128.265 122.316,128.265 120.5,129.5C 119.522,126.732 119.855,124.066 121.5,121.5C 122.5,120.833 123.5,120.167 124.5,119.5 Z"/></g>
<g><path style="opacity: .7;" fill="#b7b1b1" d="M 75.5,115.5 C 75.5,118.833 75.5,122.167 75.5,125.5C 74.209,125.737 73.209,125.404 72.5,124.5C 74.11,121.797 75.11,118.797 75.5,115.5 Z"/></g>
<g><path style="opacity: .7;" fill="#9a9795" d="M 102.5,117.5 C 102.245,119.967 101.245,121.967 99.5,123.5C 99.0246,120.687 100.025,118.687 102.5,117.5 Z"/></g>
<g><path style="opacity:1" fill="#6b3631" d="M 91.5,105.5 C 91.2895,114.2 91.6228,122.867 92.5,131.5C 91.8333,130.833 91.1667,130.167 90.5,129.5C 90.1743,121.316 90.5076,113.316 91.5,105.5 Z"/></g>
<g><path style="opacity:1" fill="#713f38" d="M 72.5,124.5 C 73.209,125.404 74.209,125.737 75.5,125.5C 75.3781,129.838 75.0447,130.172 74.5,126.5C 72.4176,126.528 70.5843,125.861 69,124.5C 68.6012,124.728 68.4346,125.062 68.5,125.5C 67.5,124.833 66.5,124.167 65.5,123.5C 65.3691,122.624 65.7025,121.957 66.5,121.5C 68.2433,123.038 70.2433,124.038 72.5,124.5 Z"/></g>
<g><path style="opacity: .7;" fill="#948986" d="M 123.5,126.5 C 125.604,126.201 127.604,126.534 129.5,127.5C 129.376,128.107 129.043,128.44 128.5,128.5C 126.833,127.833 125.167,127.167 123.5,126.5 Z"/></g>
<g><path style="opacity:1" fill="#4c3731" d="M 69.5,126.5 C 72.8333,129.167 75.8333,132.167 78.5,135.5C 74.5,133.5 71.5,130.5 69.5,126.5 Z"/></g>
<g><path style="opacity: .7;" fill="#918f8e" d="M 65.5,123.5 C 66.5,124.167 67.5,124.833 68.5,125.5C 68.5,126.167 68.8333,126.5 69.5,126.5C 71.5,130.5 74.5,133.5 78.5,135.5C 78.5,136.167 78.8333,136.5 79.5,136.5C 80.5137,137.674 81.847,138.34 83.5,138.5C 83.5,139.5 83.5,140.5 83.5,141.5C 81.6916,141.509 80.0249,141.009 78.5,140C 74.6667,136.167 70.8333,132.333 67,128.5C 65.9914,126.975 65.4914,125.308 65.5,123.5 Z"/></g>
<g><path style="opacity:1" fill="#81443c" d="M 115.5,123.5 C 111.336,128.497 106.669,132.997 101.5,137C 101.728,137.399 102.062,137.565 102.5,137.5C 102.158,138.338 101.492,138.672 100.5,138.5C 100.351,137.448 100.517,136.448 101,135.5C 105.726,131.265 110.559,127.265 115.5,123.5 Z"/></g>
<g><path style="opacity:1" fill="#99332b" d="M 79.5,136.5 C 78.8333,136.5 78.5,136.167 78.5,135.5C 75.8333,132.167 72.8333,129.167 69.5,126.5C 68.8333,126.5 68.5,126.167 68.5,125.5C 68.4346,125.062 68.6012,124.728 69,124.5C 70.5843,125.861 72.4176,126.528 74.5,126.5C 75.0447,130.172 75.3781,129.838 75.5,125.5C 76.1635,123.958 76.8302,122.291 77.5,120.5C 78.3223,125.468 79.6556,130.301 81.5,135C 81.1639,136.03 80.4972,136.53 79.5,136.5 Z"/></g>
<g><path style="opacity:1" fill="#764e4a" d="M 83.5,138.5 C 81.847,138.34 80.5137,137.674 79.5,136.5C 80.4972,136.53 81.1639,136.03 81.5,135C 79.6556,130.301 78.3223,125.468 77.5,120.5C 76.8302,122.291 76.1635,123.958 75.5,125.5C 75.5,122.167 75.5,118.833 75.5,115.5C 75.3398,113.801 75.5065,112.134 76,110.5C 80.3272,119.284 82.8272,128.617 83.5,138.5 Z"/></g>
<g><path style="opacity:1" fill="#b1392f" d="M 121.5,121.5 C 119.855,124.066 119.522,126.732 120.5,129.5C 122.316,128.265 123.983,128.265 125.5,129.5C 125.5,130.167 125.167,130.5 124.5,130.5C 118.037,130.579 112.37,132.579 107.5,136.5C 105.784,136.629 104.117,136.962 102.5,137.5C 102.062,137.565 101.728,137.399 101.5,137C 106.669,132.997 111.336,128.497 115.5,123.5C 117.394,122.952 119.06,121.952 120.5,120.5C 121.107,120.624 121.44,120.957 121.5,121.5 Z"/></g>
<g><path style="opacity:1" fill="#51302a" d="M 124.5,130.5 C 124.389,131.117 124.056,131.617 123.5,132C 117.947,132.797 112.613,134.297 107.5,136.5C 112.37,132.579 118.037,130.579 124.5,130.5 Z"/></g>
<g><path style="opacity: .7;" fill="#8e8b89" d="M 125.5,129.5 C 125.833,129.5 126.167,129.5 126.5,129.5C 127.091,130.151 127.757,130.818 128.5,131.5C 119.825,136.496 110.492,139.829 100.5,141.5C 100.5,140.5 100.5,139.5 100.5,138.5C 101.492,138.672 102.158,138.338 102.5,137.5C 104.117,136.962 105.784,136.629 107.5,136.5C 112.613,134.297 117.947,132.797 123.5,132C 124.056,131.617 124.389,131.117 124.5,130.5C 125.167,130.5 125.5,130.167 125.5,129.5 Z"/></g>
<g><path style="opacity: .7;" fill="#949190" d="M 90.5,132.5 C 91.5585,133.6 92.3918,134.934 93,136.5C 93.8518,135.429 94.6851,134.429 95.5,133.5C 95.8719,136.022 95.0386,138.022 93,139.5C 91.0972,137.559 90.2639,135.226 90.5,132.5 Z"/></g>
</svg>