<svg xmlns="http://www.w3.org/2000/svg" xmlns:xlink="http://www.w3.org/1999/xlink" version="1.1" width="154px" height="154px" style="shape-rendering:geometricPrecision;text-rendering:geometricPrecision;image-rendering:optimizeQuality;fill-rule:evenodd;clip-rule:evenodd;transform: translate(3px, 1.3px);">
<g/>

<g><path style="opacity:1" fill="#b24037" d="M 68.5,10.5 C 69.1667,10.5 69.8333,10.5 70.5,10.5C 75.3633,10.1805 80.03,10.5139 84.5,11.5C 77.4564,10.5334 70.9564,11.8668 65,15.5C 64.6174,14.944 64.1174,14.6107 63.5,14.5C 63.8333,13.8333 64.1667,13.1667 64.5,12.5C 65.9952,12.0113 67.3285,11.3446 68.5,10.5 Z"/></g>
<g><path style="opacity:1" fill="#8f4942" d="M 100.5,16.5 C 97.4824,16.2962 94.4824,15.9629 91.5,15.5C 90.713,13.8958 89.3797,13.2291 87.5,13.5C 87.1788,11.9519 86.1788,11.2852 84.5,11.5C 80.03,10.5139 75.3633,10.1805 70.5,10.5C 70.6107,9.88258 70.944,9.38258 71.5,9C 78.5911,8.52004 85.5911,9.18671 92.5,11C 94.4089,14.1078 97.0756,15.9411 100.5,16.5 Z"/></g>
<g><path style="opacity: .7;" fill="#846d69" d="M 68.5,10.5 C 67.3285,11.3446 65.9952,12.0113 64.5,12.5C 61.5,12.5 58.5,12.5 55.5,12.5C 59.6181,11.2911 63.9515,10.6245 68.5,10.5 Z"/></g>
<g><path style="opacity:1" fill="#c12d27" d="M 84.5,11.5 C 86.1788,11.2852 87.1788,11.9519 87.5,13.5C 80.2553,15.9946 73.2553,19.1613 66.5,23C 63,25.3342 60,28.1675 57.5,31.5C 55.8333,32.8333 54.1667,34.1667 52.5,35.5C 51.2557,32.7166 51.9224,30.2166 54.5,28C 53.9747,27.3076 53.3081,26.8076 52.5,26.5C 49.4944,28.0038 48.8277,27.3371 50.5,24.5C 54.2335,20.4389 58.5668,17.1056 63.5,14.5C 64.1174,14.6107 64.6174,14.944 65,15.5C 70.9564,11.8668 77.4564,10.5334 84.5,11.5 Z"/></g>
<g><path style="opacity: .7;" fill="#7c514a" d="M 100.5,16.5 C 108.366,16.9239 114.033,20.5906 117.5,27.5C 115.037,25.5389 112.703,23.3722 110.5,21C 106.683,20.2955 103.35,18.7955 100.5,16.5 Z"/></g>
<g><path style="opacity:1" fill="#ad382f" d="M 56.5,15.5 C 49.8695,20.4629 43.8695,26.1295 38.5,32.5C 39.2481,28.7653 41.4148,25.432 45,22.5C 45.4828,21.552 45.6495,20.552 45.5,19.5C 42.3093,20.0922 39.3093,21.2589 36.5,23C 33.2854,26.7088 30.2854,30.5421 27.5,34.5C 27.5047,36.9886 27.0047,39.6553 26,42.5C 25.3292,43.2524 24.4959,43.5858 23.5,43.5C 22.8333,44.5 22.1667,45.5 21.5,46.5C 21.4207,43.7294 21.9207,41.0627 23,38.5C 24.705,36.4234 25.8717,34.09 26.5,31.5C 30.3316,28.5011 33.6649,25.0011 36.5,21C 39.1915,19.3952 41.8582,17.8952 44.5,16.5C 46.5648,16.4828 48.5648,16.1495 50.5,15.5C 52.7411,15.0461 54.7411,15.0461 56.5,15.5 Z"/></g>
<g><path style="opacity:1" fill="#6b2d25" d="M 87.5,13.5 C 89.3797,13.2291 90.713,13.8958 91.5,15.5C 91.8333,16.1667 92.1667,16.8333 92.5,17.5C 88.5325,15.8815 84.8658,16.2148 81.5,18.5C 77.534,19.0439 73.8674,20.3772 70.5,22.5C 69.5,23.5 68.5,24.5 67.5,25.5C 64.8839,26.4798 62.5506,27.9798 60.5,30C 61.0944,30.4643 61.7611,30.631 62.5,30.5C 61.0813,31.4511 59.4147,31.7845 57.5,31.5C 60,28.1675 63,25.3342 66.5,23C 73.2553,19.1613 80.2553,15.9946 87.5,13.5 Z"/></g>
<g><path style="opacity:1" fill="#9d332f" d="M 81.5,18.5 C 82.7564,18.9038 83.9231,19.5705 85,20.5C 85.9503,19.9777 86.7836,19.311 87.5,18.5C 88.8815,21.3176 87.8815,22.8176 84.5,23C 86.8473,23.3336 89.1806,23.167 91.5,22.5C 91.762,23.9778 91.4287,25.3112 90.5,26.5C 83.8501,24.3946 77.1834,23.0613 70.5,22.5C 73.8674,20.3772 77.534,19.0439 81.5,18.5 Z"/></g>
<g><path style="opacity: .7;" fill="#6e4c47" d="M 44.5,16.5 C 41.8582,17.8952 39.1915,19.3952 36.5,21C 33.6649,25.0011 30.3316,28.5011 26.5,31.5C 29.2615,27.5609 32.2615,23.7276 35.5,20C 38.0722,17.7132 41.0722,16.5465 44.5,16.5 Z"/></g>
<g><path style="opacity:1" fill="#882c26" d="M 38.5,32.5 C 36.2622,35.2993 34.2622,38.2993 32.5,41.5C 33.365,42.5827 34.365,42.7494 35.5,42C 36.6364,40.8549 37.6364,39.6883 38.5,38.5C 38.369,39.2389 38.5357,39.9056 39,40.5C 41.4913,36.1646 44.9913,33.1646 49.5,31.5C 48.608,34.4824 47.2747,37.3157 45.5,40C 46.0944,40.4643 46.7611,40.631 47.5,40.5C 47.1667,41.1667 46.8333,41.8333 46.5,42.5C 43.4816,42.3354 40.4816,42.502 37.5,43C 41.0187,43.3773 44.5187,43.8773 48,44.5C 49.9416,44.9586 51.4416,45.9586 52.5,47.5C 48.774,47.1774 45.1073,47.5108 41.5,48.5C 42.1882,49.8549 43.1882,50.8549 44.5,51.5C 44.8333,52.1667 45.1667,52.8333 45.5,53.5C 44.5343,56.1247 43.5343,56.1247 42.5,53.5C 41.5713,54.6888 41.238,56.0222 41.5,57.5C 44.0821,57.0254 46.0821,57.6921 47.5,59.5C 45.283,58.6314 42.9496,58.298 40.5,58.5C 40.7989,56.396 40.4656,54.396 39.5,52.5C 35.8595,50.6929 33.0261,48.0262 31,44.5C 29.6515,48.2257 28.1515,51.8923 26.5,55.5C 24.0481,52.929 22.3814,49.929 21.5,46.5C 22.1667,45.5 22.8333,44.5 23.5,43.5C 23.5774,44.7498 24.244,45.5831 25.5,46C 23.842,46.7253 23.342,47.892 24,49.5C 24.7096,48.0267 25.8762,47.3601 27.5,47.5C 28.8152,44.2966 30.4818,41.1299 32.5,38C 32,36.5 31.5,35 31,33.5C 30.6667,34.5 30.3333,35.5 30,36.5C 29.5831,35.244 28.7498,34.5774 27.5,34.5C 30.2854,30.5421 33.2854,26.7088 36.5,23C 39.3093,21.2589 42.3093,20.0922 45.5,19.5C 45.6495,20.552 45.4828,21.552 45,22.5C 41.4148,25.432 39.2481,28.7653 38.5,32.5 Z"/></g>
<g><path style="opacity:1" fill="#862f2a" d="M 92.5,17.5 C 95.117,18.7859 97.4504,20.4525 99.5,22.5C 99.0603,24.8439 98.0603,26.8439 96.5,28.5C 94.965,27.6457 93.6316,27.6457 92.5,28.5C 84.3683,26.2627 76.035,25.2627 67.5,25.5C 68.5,24.5 69.5,23.5 70.5,22.5C 77.1834,23.0613 83.8501,24.3946 90.5,26.5C 91.4287,25.3112 91.762,23.9778 91.5,22.5C 89.1806,23.167 86.8473,23.3336 84.5,23C 87.8815,22.8176 88.8815,21.3176 87.5,18.5C 86.7836,19.311 85.9503,19.9777 85,20.5C 83.9231,19.5705 82.7564,18.9038 81.5,18.5C 84.8658,16.2148 88.5325,15.8815 92.5,17.5 Z"/></g>
<g><path style="opacity:1" fill="#4c2822" d="M 55.5,12.5 C 58.5,12.5 61.5,12.5 64.5,12.5C 64.1667,13.1667 63.8333,13.8333 63.5,14.5C 58.5668,17.1056 54.2335,20.4389 50.5,24.5C 45.5526,28.4221 41.5526,33.0887 38.5,38.5C 37.6364,39.6883 36.6364,40.8549 35.5,42C 34.365,42.7494 33.365,42.5827 32.5,41.5C 34.2622,38.2993 36.2622,35.2993 38.5,32.5C 43.8695,26.1295 49.8695,20.4629 56.5,15.5C 60.2698,14.4219 60.2698,13.7552 56.5,13.5C 54.2014,13.5992 52.2014,14.2658 50.5,15.5C 48.5648,16.1495 46.5648,16.4828 44.5,16.5C 47.8004,14.3582 51.467,13.0249 55.5,12.5 Z"/></g>
<g><path style="opacity:1" fill="#852e26" d="M 56.5,15.5 C 54.7411,15.0461 52.7411,15.0461 50.5,15.5C 52.2014,14.2658 54.2014,13.5992 56.5,13.5C 60.2698,13.7552 60.2698,14.4219 56.5,15.5 Z"/></g>
<g><path style="opacity:1" fill="#a52d26" d="M 50.5,24.5 C 48.8277,27.3371 49.4944,28.0038 52.5,26.5C 53.3081,26.8076 53.9747,27.3076 54.5,28C 51.9224,30.2166 51.2557,32.7166 52.5,35.5C 51.1667,37.5 49.5,39.1667 47.5,40.5C 46.7611,40.631 46.0944,40.4643 45.5,40C 47.2747,37.3157 48.608,34.4824 49.5,31.5C 44.9913,33.1646 41.4913,36.1646 39,40.5C 38.5357,39.9056 38.369,39.2389 38.5,38.5C 41.5526,33.0887 45.5526,28.4221 50.5,24.5 Z"/></g>
<g><path style="opacity:1" fill="#943025" d="M 71.5,29.5 C 71.5,29.8333 71.5,30.1667 71.5,30.5C 71.5,31.1667 71.5,31.8333 71.5,32.5C 71.5,33.5 71.5,34.5 71.5,35.5C 70.6909,33.7078 70.1909,31.7078 70,29.5C 69.2917,30.3805 68.4584,31.0472 67.5,31.5C 67.5,30.8333 67.1667,30.5 66.5,30.5C 67.7653,29.5207 69.0986,28.5207 70.5,27.5C 71.2975,27.9569 71.6309,28.6236 71.5,29.5 Z"/></g>
<g><path style="opacity:1" fill="#b0372f" d="M 91.5,15.5 C 94.4824,15.9629 97.4824,16.2962 100.5,16.5C 103.35,18.7955 106.683,20.2955 110.5,21C 112.703,23.3722 115.037,25.5389 117.5,27.5C 117.733,29.0618 118.4,30.3951 119.5,31.5C 119.631,32.2389 119.464,32.9056 119,33.5C 116.735,30.1022 113.902,29.6022 110.5,32C 111.774,32.9772 111.774,33.8106 110.5,34.5C 107.202,30.2002 103.535,26.2002 99.5,22.5C 97.4504,20.4525 95.117,18.7859 92.5,17.5C 92.1667,16.8333 91.8333,16.1667 91.5,15.5 Z"/></g>
<g><path style="opacity: .7;" fill="#6f4742" d="M 117.5,27.5 C 119.587,28.5846 120.92,30.2512 121.5,32.5C 120.833,32.1667 120.167,31.8333 119.5,31.5C 118.4,30.3951 117.733,29.0618 117.5,27.5 Z"/></g>
<g><path style="opacity:1" fill="#291814" d="M 71.5,30.5 C 72.8333,30.5 74.1667,30.5 75.5,30.5C 75.6495,31.552 75.4828,32.552 75,33.5C 73.9887,32.6634 72.8221,32.33 71.5,32.5C 71.5,31.8333 71.5,31.1667 71.5,30.5 Z"/></g>
<g><path style="opacity:1" fill="#47241e" d="M 92.5,28.5 C 93.6316,27.6457 94.965,27.6457 96.5,28.5C 98.8263,30.3299 101.493,31.6633 104.5,32.5C 107.022,35.1878 109.356,38.0211 111.5,41C 112.448,41.4828 113.448,41.6495 114.5,41.5C 110.788,42.9987 108.288,41.6654 107,37.5C 105.887,36.695 104.721,36.0283 103.5,35.5C 100.124,32.8059 96.457,30.4726 92.5,28.5 Z"/></g>
<g><path style="opacity:1" fill="#b22e27" d="M 67.5,25.5 C 76.035,25.2627 84.3683,26.2627 92.5,28.5C 96.457,30.4726 100.124,32.8059 103.5,35.5C 101.61,35.7035 100.11,35.0368 99,33.5C 97.1521,35.9529 94.6521,36.9529 91.5,36.5C 91.4747,32.7162 89.8081,31.7162 86.5,33.5C 83.1592,34.1571 81.1592,32.8237 80.5,29.5C 80.1667,30 79.8333,30.5 79.5,31C 80.4929,33.4528 80.6595,35.9528 80,38.5C 75.8489,43.7986 73.6822,49.7986 73.5,56.5C 72.5416,56.0472 71.7083,55.3805 71,54.5C 70.6271,52.3018 70.1271,50.1351 69.5,48C 75.0221,41.7044 77.3555,34.5377 76.5,26.5C 75.6143,27.325 75.281,28.325 75.5,29.5C 74.1667,29.5 72.8333,29.5 71.5,29.5C 71.6309,28.6236 71.2975,27.9569 70.5,27.5C 69.0986,28.5207 67.7653,29.5207 66.5,30.5C 65.1667,30.5 63.8333,30.5 62.5,30.5C 61.7611,30.631 61.0944,30.4643 60.5,30C 62.5506,27.9798 64.8839,26.4798 67.5,25.5 Z"/></g>
<g><path style="opacity:1" fill="#722f2a" d="M 99.5,22.5 C 103.535,26.2002 107.202,30.2002 110.5,34.5C 112.604,36.3718 113.937,38.7052 114.5,41.5C 113.448,41.6495 112.448,41.4828 111.5,41C 109.356,38.0211 107.022,35.1878 104.5,32.5C 101.493,31.6633 98.8263,30.3299 96.5,28.5C 98.0603,26.8439 99.0603,24.8439 99.5,22.5 Z"/></g>
<g><path style="opacity: .7;" fill="#573e39" d="M 122.5,34.5 C 123.906,34.9731 124.573,35.9731 124.5,37.5C 123.094,37.0269 122.427,36.0269 122.5,34.5 Z"/></g>
<g><path style="opacity:1" fill="#78271f" d="M 62.5,33.5 C 63.209,32.596 64.209,32.2627 65.5,32.5C 65.5,34.1667 65.5,35.8333 65.5,37.5C 62.9078,39.0361 61.9078,41.3695 62.5,44.5C 61.8333,43.1667 61.1667,41.8333 60.5,40.5C 61.2288,38.2647 62.5621,36.4314 64.5,35C 64.1639,33.9701 63.4972,33.4701 62.5,33.5 Z"/></g>
<g><path style="opacity:1" fill="#44231d" d="M 86.5,33.5 C 89.5292,35.9117 92.5292,38.4117 95.5,41C 97.1667,41.3333 98.8333,41.6667 100.5,42C 96.1794,42.499 91.8461,42.6657 87.5,42.5C 87.5,44.1667 87.5,45.8333 87.5,47.5C 93.5368,47.1707 99.5368,47.5041 105.5,48.5C 104.807,49.5178 104.141,50.5178 103.5,51.5C 100.617,53.2331 97.6173,54.5665 94.5,55.5C 91.1667,55.5 87.8333,55.5 84.5,55.5C 84.5,53.8333 84.5,52.1667 84.5,50.5C 106.89,50.4394 106.89,49.4394 84.5,47.5C 85.4171,44.9952 85.4171,42.6618 84.5,40.5C 83.9976,38.9153 82.9976,38.4153 81.5,39C 79.7011,40.6998 79.3677,42.5331 80.5,44.5C 79.8333,44.5 79.1667,44.5 78.5,44.5C 76.1538,47.3863 75.3204,50.7197 76,54.5C 77.117,53.0506 77.7837,51.3839 78,49.5C 78.4643,50.0944 78.631,50.7611 78.5,51.5C 78.6085,53.5138 77.9418,55.1805 76.5,56.5C 75.5178,57.1408 74.5178,57.8075 73.5,58.5C 72.537,58.0302 72.537,57.3635 73.5,56.5C 73.6822,49.7986 75.8489,43.7986 80,38.5C 80.6595,35.9528 80.4929,33.4528 79.5,31C 79.8333,30.5 80.1667,30 80.5,29.5C 81.1592,32.8237 83.1592,34.1571 86.5,33.5 Z"/></g>
<g><path style="opacity:1" fill="#962923" d="M 82.5,36.5 C 83.2506,35.4265 84.2506,35.2599 85.5,36C 87.6414,37.3076 89.6414,38.8076 91.5,40.5C 90.277,41.6139 88.9437,41.7805 87.5,41C 86.5887,38.5852 84.922,37.0852 82.5,36.5 Z"/></g>
<g><path style="opacity:1" fill="#b6302a" d="M 71.5,35.5 C 72.863,38.214 72.6963,40.8806 71,43.5C 70.7216,42.5842 70.2216,41.9175 69.5,41.5C 67.7006,38.4954 67.0339,35.162 67.5,31.5C 68.4584,31.0472 69.2917,30.3805 70,29.5C 70.1909,31.7078 70.6909,33.7078 71.5,35.5 Z"/></g>
<g><path style="opacity:1" fill="#c52e29" d="M 65.5,37.5 C 66.5375,38.9303 67.2041,40.597 67.5,42.5C 66.6618,42.8417 66.3284,43.5084 66.5,44.5C 65.5416,44.9528 64.7083,45.6195 64,46.5C 63.7216,45.5842 63.2216,44.9175 62.5,44.5C 61.9078,41.3695 62.9078,39.0361 65.5,37.5 Z"/></g>
<g><path style="opacity:1" fill="#682b25" d="M 23.5,43.5 C 24.4959,43.5858 25.3292,43.2524 26,42.5C 27.0047,39.6553 27.5047,36.9886 27.5,34.5C 28.7498,34.5774 29.5831,35.244 30,36.5C 30.3333,35.5 30.6667,34.5 31,33.5C 31.5,35 32,36.5 32.5,38C 30.4818,41.1299 28.8152,44.2966 27.5,47.5C 25.8762,47.3601 24.7096,48.0267 24,49.5C 23.342,47.892 23.842,46.7253 25.5,46C 24.244,45.5831 23.5774,44.7498 23.5,43.5 Z"/></g>
<g><path style="opacity:1" fill="#b32b24" d="M 84.5,40.5 C 84.7929,44.0823 83.4596,45.4157 80.5,44.5C 79.3677,42.5331 79.7011,40.6998 81.5,39C 82.9976,38.4153 83.9976,38.9153 84.5,40.5 Z"/></g>
<g><path style="opacity: .7;" fill="#8f8988" d="M 20.5,40.5 C 20.8294,43.2282 20.1628,45.5615 18.5,47.5C 18.7215,44.9327 19.3882,42.5994 20.5,40.5 Z"/></g>
<g><path style="opacity:1" fill="#a33129" d="M 46.5,42.5 C 51.1667,42.5 55.8333,42.5 60.5,42.5C 60.5,44.1667 60.5,45.8333 60.5,47.5C 57.8333,47.5 55.1667,47.5 52.5,47.5C 51.4416,45.9586 49.9416,44.9586 48,44.5C 44.5187,43.8773 41.0187,43.3773 37.5,43C 40.4816,42.502 43.4816,42.3354 46.5,42.5 Z"/></g>
<g><path style="opacity:1" fill="#8f2c24" d="M 84.5,40.5 C 85.4171,42.6618 85.4171,44.9952 84.5,47.5C 84.1583,48.3382 83.4916,48.6716 82.5,48.5C 81.3263,47.4863 80.6596,46.153 80.5,44.5C 83.4596,45.4157 84.7929,44.0823 84.5,40.5 Z"/></g>
<g><path style="opacity:1" fill="#8f2d27" d="M 119.5,31.5 C 120.167,31.8333 120.833,32.1667 121.5,32.5C 122.338,32.8417 122.672,33.5084 122.5,34.5C 122.427,36.0269 123.094,37.0269 124.5,37.5C 125.901,42.2047 125.734,46.8713 124,51.5C 121.1,57.1013 119.266,56.768 118.5,50.5C 118.351,49.448 118.517,48.448 119,47.5C 119.333,47.8333 119.667,48.1667 120,48.5C 123.391,46.016 124.057,43.016 122,39.5C 119.758,37.6729 117.425,36.0062 115,34.5C 114.333,35.8333 114.333,37.1667 115,38.5C 116.735,40.3541 117.902,42.5208 118.5,45C 118.43,45.7648 118.097,46.2648 117.5,46.5C 117.44,45.9569 117.107,45.6236 116.5,45.5C 114.814,46.8569 113.148,48.1902 111.5,49.5C 111.44,48.9569 111.107,48.6236 110.5,48.5C 108.833,49.8333 107.167,51.1667 105.5,52.5C 104.817,52.1373 104.15,51.8039 103.5,51.5C 104.141,50.5178 104.807,49.5178 105.5,48.5C 99.5368,47.5041 93.5368,47.1707 87.5,47.5C 87.5,45.8333 87.5,44.1667 87.5,42.5C 91.8461,42.6657 96.1794,42.499 100.5,42C 98.8333,41.6667 97.1667,41.3333 95.5,41C 92.5292,38.4117 89.5292,35.9117 86.5,33.5C 89.8081,31.7162 91.4747,32.7162 91.5,36.5C 94.6521,36.9529 97.1521,35.9529 99,33.5C 100.11,35.0368 101.61,35.7035 103.5,35.5C 104.721,36.0283 105.887,36.695 107,37.5C 108.288,41.6654 110.788,42.9987 114.5,41.5C 113.937,38.7052 112.604,36.3718 110.5,34.5C 111.774,33.8106 111.774,32.9772 110.5,32C 113.902,29.6022 116.735,30.1022 119,33.5C 119.464,32.9056 119.631,32.2389 119.5,31.5 Z"/></g>
<g><path style="opacity:1" fill="#7a2e2a" d="M 118.5,50.5 C 118.167,50.5 117.833,50.5 117.5,50.5C 117.5,49.1667 117.5,47.8333 117.5,46.5C 118.097,46.2648 118.43,45.7648 118.5,45C 117.902,42.5208 116.735,40.3541 115,38.5C 114.333,37.1667 114.333,35.8333 115,34.5C 117.425,36.0062 119.758,37.6729 122,39.5C 124.057,43.016 123.391,46.016 120,48.5C 119.667,48.1667 119.333,47.8333 119,47.5C 118.517,48.448 118.351,49.448 118.5,50.5 Z"/></g>
<g><path style="opacity:1" fill="#3f211b" d="M 62.5,30.5 C 63.8333,30.5 65.1667,30.5 66.5,30.5C 67.1667,30.5 67.5,30.8333 67.5,31.5C 67.0339,35.162 67.7006,38.4954 69.5,41.5C 69.2893,43.4241 68.6226,43.7574 67.5,42.5C 67.2041,40.597 66.5375,38.9303 65.5,37.5C 65.5,35.8333 65.5,34.1667 65.5,32.5C 64.209,32.2627 63.209,32.596 62.5,33.5C 57.0716,33.6791 54.0716,36.3457 53.5,41.5C 56.0593,41.8016 58.3926,41.4682 60.5,40.5C 61.1667,41.8333 61.8333,43.1667 62.5,44.5C 63.2216,44.9175 63.7216,45.5842 64,46.5C 64.7083,45.6195 65.5416,44.9528 66.5,44.5C 65.0795,47.2613 64.4129,50.2613 64.5,53.5C 64.5,54.1667 64.5,54.8333 64.5,55.5C 63.5,55.5 62.5,55.5 61.5,55.5C 62.3007,53.9582 62.634,52.2915 62.5,50.5C 56.31,50.1771 50.31,50.5104 44.5,51.5C 43.1882,50.8549 42.1882,49.8549 41.5,48.5C 45.1073,47.5108 48.774,47.1774 52.5,47.5C 55.1667,47.5 57.8333,47.5 60.5,47.5C 60.5,45.8333 60.5,44.1667 60.5,42.5C 55.8333,42.5 51.1667,42.5 46.5,42.5C 46.8333,41.8333 47.1667,41.1667 47.5,40.5C 49.5,39.1667 51.1667,37.5 52.5,35.5C 54.1667,34.1667 55.8333,32.8333 57.5,31.5C 59.4147,31.7845 61.0813,31.4511 62.5,30.5 Z"/></g>
<g><path style="opacity:1" fill="#ac2d28" d="M 62.5,33.5 C 63.4972,33.4701 64.1639,33.9701 64.5,35C 62.5621,36.4314 61.2288,38.2647 60.5,40.5C 58.3926,41.4682 56.0593,41.8016 53.5,41.5C 54.0716,36.3457 57.0716,33.6791 62.5,33.5 Z"/></g>
<g><path style="opacity:1" fill="#c1392d" d="M 78.5,44.5 C 79.1667,44.5 79.8333,44.5 80.5,44.5C 80.6596,46.153 81.3263,47.4863 82.5,48.5C 82.5,50.1667 82.5,51.8333 82.5,53.5C 81.7777,52.4489 80.7777,51.7822 79.5,51.5C 79.552,49.0971 79.2186,46.7638 78.5,44.5 Z"/></g>
<g><path style="opacity:1" fill="#732b23" d="M 78.5,44.5 C 79.2186,46.7638 79.552,49.0971 79.5,51.5C 79.1667,51.5 78.8333,51.5 78.5,51.5C 78.631,50.7611 78.4643,50.0944 78,49.5C 77.7837,51.3839 77.117,53.0506 76,54.5C 75.3204,50.7197 76.1538,47.3863 78.5,44.5 Z"/></g>
<g><path style="opacity:1" fill="#3a1e1a" d="M 117.5,46.5 C 117.5,47.8333 117.5,49.1667 117.5,50.5C 117.338,52.5273 117.505,54.5273 118,56.5C 120.972,57.9956 120.638,59.3289 117,60.5C 116.821,56.9748 116.321,53.6414 115.5,50.5C 110.114,51.8155 107.447,55.1488 107.5,60.5C 106.167,60.5 104.833,60.5 103.5,60.5C 103.5,61.5 103.5,62.5 103.5,63.5C 102.883,63.6107 102.383,63.944 102,64.5C 103.031,59.6224 102.031,59.2891 99,63.5C 98.6012,63.2716 98.4346,62.9382 98.5,62.5C 98.5394,61.4168 98.8728,60.4168 99.5,59.5C 101.743,58.5258 104.076,58.1924 106.5,58.5C 106.34,56.8008 106.506,55.1341 107,53.5C 108.667,52.2668 110.167,50.9335 111.5,49.5C 113.148,48.1902 114.814,46.8569 116.5,45.5C 117.107,45.6236 117.44,45.9569 117.5,46.5 Z"/></g>
<g><path style="opacity:1" fill="#572b26" d="M 61.5,55.5 C 56.0858,56.1566 50.7525,55.49 45.5,53.5C 45.1667,52.8333 44.8333,52.1667 44.5,51.5C 50.31,50.5104 56.31,50.1771 62.5,50.5C 62.634,52.2915 62.3007,53.9582 61.5,55.5 Z"/></g>
<g><path style="opacity:1" fill="#ba362d" d="M 66.5,44.5 C 67.3764,44.3691 68.0431,44.7025 68.5,45.5C 67.2974,48.1599 67.2974,50.8265 68.5,53.5C 67.336,53.8346 66.0026,53.8346 64.5,53.5C 64.4129,50.2613 65.0795,47.2613 66.5,44.5 Z"/></g>
<g><path style="opacity:1" fill="#972e26" d="M 78.5,51.5 C 78.8333,51.5 79.1667,51.5 79.5,51.5C 80.7777,51.7822 81.7777,52.4489 82.5,53.5C 81.9213,56.3311 80.588,58.6644 78.5,60.5C 78.4772,59.2529 77.8105,57.9196 76.5,56.5C 77.9418,55.1805 78.6085,53.5138 78.5,51.5 Z"/></g>
<g><path style="opacity:1" fill="#7f3d37" d="M 18.5,49.5 C 19.5,49.8333 20.1667,50.5 20.5,51.5C 19.5233,54.2869 19.19,57.2869 19.5,60.5C 19.1667,60.5 18.8333,60.5 18.5,60.5C 18.5,56.8333 18.5,53.1667 18.5,49.5 Z"/></g>
<g><path style="opacity:1" fill="#41221d" d="M 26.5,31.5 C 25.8717,34.09 24.705,36.4234 23,38.5C 21.9207,41.0627 21.4207,43.7294 21.5,46.5C 22.3814,49.929 24.0481,52.929 26.5,55.5C 28.1515,51.8923 29.6515,48.2257 31,44.5C 33.0261,48.0262 35.8595,50.6929 39.5,52.5C 40.4656,54.396 40.7989,56.396 40.5,58.5C 42.9496,58.298 45.283,58.6314 47.5,59.5C 47.8247,61.1316 48.8247,62.1316 50.5,62.5C 52.2578,61.554 53.9245,61.554 55.5,62.5C 53.3691,63.1687 51.3691,63.8354 49.5,64.5C 47.4352,64.5172 45.4352,64.8505 43.5,65.5C 43.5,64.5 43.5,63.5 43.5,62.5C 42.4479,60.744 40.7812,60.0773 38.5,60.5C 39.6502,55.3274 37.6502,52.3274 32.5,51.5C 31.3631,53.3749 31.1964,56.0415 32,59.5C 32.8471,61.8543 33.6805,64.1877 34.5,66.5C 34.631,67.2389 34.4643,67.9056 34,68.5C 33.3292,67.7476 32.4959,67.4142 31.5,67.5C 31.821,64.4231 30.821,62.0897 28.5,60.5C 24.4351,58.7671 21.7684,55.7671 20.5,51.5C 20.1667,50.5 19.5,49.8333 18.5,49.5C 18.5,48.8333 18.5,48.1667 18.5,47.5C 20.1628,45.5615 20.8294,43.2282 20.5,40.5C 22.2651,37.2911 24.2651,34.2911 26.5,31.5 Z"/></g>
<g><path style="opacity:1" fill="#9c2f27" d="M 45.5,53.5 C 50.7525,55.49 56.0858,56.1566 61.5,55.5C 62.5,55.5 63.5,55.5 64.5,55.5C 64.6726,58.1795 65.6726,60.5128 67.5,62.5C 66.3112,63.4287 64.9778,63.762 63.5,63.5C 61.1707,61.9976 59.8373,62.6643 59.5,65.5C 56.272,64.5863 52.9387,64.2529 49.5,64.5C 51.3691,63.8354 53.3691,63.1687 55.5,62.5C 53.9245,61.554 52.2578,61.554 50.5,62.5C 48.8247,62.1316 47.8247,61.1316 47.5,59.5C 46.0821,57.6921 44.0821,57.0254 41.5,57.5C 41.238,56.0222 41.5713,54.6888 42.5,53.5C 43.5343,56.1247 44.5343,56.1247 45.5,53.5 Z"/></g>
<g><path style="opacity:1" fill="#94312b" d="M 64.5,53.5 C 66.0026,53.8346 67.336,53.8346 68.5,53.5C 69.4793,54.7653 70.4793,56.0986 71.5,57.5C 70.9747,58.1924 70.3081,58.6924 69.5,59C 70.7112,59.8928 70.7112,60.7261 69.5,61.5C 67.8103,59.4807 66.1436,57.4807 64.5,55.5C 64.5,54.8333 64.5,54.1667 64.5,53.5 Z"/></g>
<g><path style="opacity:1" fill="#8b2d26" d="M 84.5,55.5 C 87.8333,55.5 91.1667,55.5 94.5,55.5C 94.5,56.8333 94.5,58.1667 94.5,59.5C 91.9664,59.2591 90.2998,60.2591 89.5,62.5C 88.5084,62.3284 87.8417,62.6618 87.5,63.5C 86.5416,63.0472 85.7083,62.3805 85,61.5C 83.5074,63.5598 81.6741,63.8932 79.5,62.5C 81.3534,60.1908 83.02,57.8575 84.5,55.5 Z"/></g>
<g><path style="opacity:1" fill="#5d2821" d="M 73.5,56.5 C 72.537,57.3635 72.537,58.0302 73.5,58.5C 74.5178,57.8075 75.5178,57.1408 76.5,56.5C 77.8105,57.9196 78.4772,59.2529 78.5,60.5C 77.3591,62.2427 75.6924,63.2427 73.5,63.5C 70.0749,63.5735 66.7415,63.5735 63.5,63.5C 64.9778,63.762 66.3112,63.4287 67.5,62.5C 65.6726,60.5128 64.6726,58.1795 64.5,55.5C 66.1436,57.4807 67.8103,59.4807 69.5,61.5C 70.7112,60.7261 70.7112,59.8928 69.5,59C 70.3081,58.6924 70.9747,58.1924 71.5,57.5C 70.4793,56.0986 69.4793,54.7653 68.5,53.5C 67.2974,50.8265 67.2974,48.1599 68.5,45.5C 68.0431,44.7025 67.3764,44.3691 66.5,44.5C 66.3284,43.5084 66.6618,42.8417 67.5,42.5C 68.6226,43.7574 69.2893,43.4241 69.5,41.5C 70.2216,41.9175 70.7216,42.5842 71,43.5C 72.6963,40.8806 72.863,38.214 71.5,35.5C 71.5,34.5 71.5,33.5 71.5,32.5C 72.8221,32.33 73.9887,32.6634 75,33.5C 75.4828,32.552 75.6495,31.552 75.5,30.5C 74.1667,30.5 72.8333,30.5 71.5,30.5C 71.5,30.1667 71.5,29.8333 71.5,29.5C 72.8333,29.5 74.1667,29.5 75.5,29.5C 75.281,28.325 75.6143,27.325 76.5,26.5C 77.3555,34.5377 75.0221,41.7044 69.5,48C 70.1271,50.1351 70.6271,52.3018 71,54.5C 71.7083,55.3805 72.5416,56.0472 73.5,56.5 Z"/></g>
<g><path style="opacity:1" fill="#9a2b25" d="M 115.5,50.5 C 115.5,51.5 115.5,52.5 115.5,53.5C 114.676,57.0062 113.343,60.3395 111.5,63.5C 108.833,63.5 106.167,63.5 103.5,63.5C 103.5,62.5 103.5,61.5 103.5,60.5C 104.833,60.5 106.167,60.5 107.5,60.5C 107.447,55.1488 110.114,51.8155 115.5,50.5 Z"/></g>
<g><path style="opacity:1" fill="#a43027" d="M 20.5,51.5 C 21.7684,55.7671 24.4351,58.7671 28.5,60.5C 29.7393,62.7072 30.2393,65.0405 30,67.5C 28.3819,62.1961 24.8819,59.8627 19.5,60.5C 19.19,57.2869 19.5233,54.2869 20.5,51.5 Z"/></g>
<g><path style="opacity:1" fill="#9d2f27" d="M 111.5,49.5 C 110.167,50.9335 108.667,52.2668 107,53.5C 106.506,55.1341 106.34,56.8008 106.5,58.5C 104.076,58.1924 101.743,58.5258 99.5,59.5C 98.8728,60.4168 98.5394,61.4168 98.5,62.5C 95.4773,61.3224 92.4773,61.3224 89.5,62.5C 90.2998,60.2591 91.9664,59.2591 94.5,59.5C 94.5,58.1667 94.5,56.8333 94.5,55.5C 97.6173,54.5665 100.617,53.2331 103.5,51.5C 104.15,51.8039 104.817,52.1373 105.5,52.5C 107.167,51.1667 108.833,49.8333 110.5,48.5C 111.107,48.6236 111.44,48.9569 111.5,49.5 Z"/></g>
<g><path style="opacity:1" fill="#7b2822" d="M 32.5,51.5 C 37.6502,52.3274 39.6502,55.3274 38.5,60.5C 40.7812,60.0773 42.4479,60.744 43.5,62.5C 39.6649,65.443 36.4982,64.7763 34,60.5C 33.3486,58.765 33.5153,57.0983 34.5,55.5C 33.3698,54.3777 32.7031,53.0443 32.5,51.5 Z"/></g>
<g><path style="opacity:1" fill="#972c22" d="M 32.5,51.5 C 32.7031,53.0443 33.3698,54.3777 34.5,55.5C 33.5153,57.0983 33.3486,58.765 34,60.5C 36.4982,64.7763 39.6649,65.443 43.5,62.5C 43.5,63.5 43.5,64.5 43.5,65.5C 40.5176,65.9629 37.5176,66.2962 34.5,66.5C 33.6805,64.1877 32.8471,61.8543 32,59.5C 31.1964,56.0415 31.3631,53.3749 32.5,51.5 Z"/></g>
<g><path style="opacity:1" fill="#5f2620" d="M 103.5,63.5 C 105.919,65.8624 108.919,66.8624 112.5,66.5C 111.833,67.1667 111.167,67.8333 110.5,68.5C 109.391,68.4431 108.391,68.1098 107.5,67.5C 102.044,64.8067 96.3772,63.8067 90.5,64.5C 89.6618,64.1583 89.3284,63.4916 89.5,62.5C 92.4773,61.3224 95.4773,61.3224 98.5,62.5C 98.4346,62.9382 98.6012,63.2716 99,63.5C 102.031,59.2891 103.031,59.6224 102,64.5C 102.383,63.944 102.883,63.6107 103.5,63.5 Z"/></g>
<g><path style="opacity:1" fill="#b4372e" d="M 128.5,50.5 C 128.5,53.8333 128.5,57.1667 128.5,60.5C 128.167,60.5 127.833,60.5 127.5,60.5C 124.03,59.8748 121.196,60.8748 119,63.5C 117.85,66.7679 117.016,70.1012 116.5,73.5C 116.167,73.5 115.833,73.5 115.5,73.5C 115.314,69.205 116.314,65.205 118.5,61.5C 122.074,57.9906 125.408,54.3239 128.5,50.5 Z"/></g>
<g><path style="opacity: .7;" fill="#938f8d" d="M 18.5,60.5 C 18.8333,60.5 19.1667,60.5 19.5,60.5C 19.5,60.8333 19.5,61.1667 19.5,61.5C 20.3007,63.0418 20.634,64.7085 20.5,66.5C 18.9261,64.8984 18.2594,62.8984 18.5,60.5 Z"/></g>
<g><path style="opacity:1" fill="#bb3128" d="M 115.5,53.5 C 115.881,58.1805 114.881,62.5138 112.5,66.5C 108.919,66.8624 105.919,65.8624 103.5,63.5C 106.167,63.5 108.833,63.5 111.5,63.5C 113.343,60.3395 114.676,57.0062 115.5,53.5 Z"/></g>
<g><path style="opacity:1" fill="#2c1a15" d="M 84.5,47.5 C 106.89,49.4394 106.89,50.4394 84.5,50.5C 84.5,52.1667 84.5,53.8333 84.5,55.5C 83.02,57.8575 81.3534,60.1908 79.5,62.5C 81.6741,63.8932 83.5074,63.5598 85,61.5C 85.7083,62.3805 86.5416,63.0472 87.5,63.5C 86.8707,65.9971 85.204,67.3304 82.5,67.5C 76.7136,66.3866 70.7136,66.3866 64.5,67.5C 62.7162,67.1075 61.0495,66.4408 59.5,65.5C 59.8373,62.6643 61.1707,61.9976 63.5,63.5C 66.7415,63.5735 70.0749,63.5735 73.5,63.5C 75.6924,63.2427 77.3591,62.2427 78.5,60.5C 80.588,58.6644 81.9213,56.3311 82.5,53.5C 82.5,51.8333 82.5,50.1667 82.5,48.5C 83.4916,48.6716 84.1583,48.3382 84.5,47.5 Z"/></g>
<g><path style="opacity: .7;" fill="#7d716e" d="M 127.5,60.5 C 127.833,60.5 128.167,60.5 128.5,60.5C 128.88,62.698 128.213,64.3646 126.5,65.5C 126.366,63.7085 126.699,62.0418 127.5,60.5 Z"/></g>
<g><path style="opacity:1" fill="#80302c" d="M 19.5,61.5 C 19.5,61.1667 19.5,60.8333 19.5,60.5C 24.8819,59.8627 28.3819,62.1961 30,67.5C 30.2393,65.0405 29.7393,62.7072 28.5,60.5C 30.821,62.0897 31.821,64.4231 31.5,67.5C 32.6186,72.6529 32.6186,77.6529 31.5,82.5C 31.6716,81.5084 31.3382,80.8417 30.5,80.5C 30.6107,79.8826 30.944,79.3826 31.5,79C 29.8739,79.1953 28.2072,79.1953 26.5,79C 25.6634,77.9887 25.33,76.8221 25.5,75.5C 27.143,75.4802 28.4763,76.1468 29.5,77.5C 30.5,77.1667 31.1667,76.5 31.5,75.5C 30.2081,73.3334 29.3747,71.0001 29,68.5C 26.4974,71.8208 24.664,71.8208 23.5,68.5C 22.6034,65.8357 21.27,63.5024 19.5,61.5 Z"/></g>
<g><path style="opacity:1" fill="#af2f27" d="M 89.5,62.5 C 89.3284,63.4916 89.6618,64.1583 90.5,64.5C 92.0234,66.5857 91.69,68.2524 89.5,69.5C 89.1575,67.7748 88.1575,67.2748 86.5,68C 82.4106,70.1267 78.5772,72.6267 75,75.5C 75.1548,78.8403 75.6548,82.1736 76.5,85.5C 75.8333,84.8333 75.1667,84.1667 74.5,83.5C 74.8965,78.0209 72.5631,74.3542 67.5,72.5C 64.524,70.0075 61.1907,68.0075 57.5,66.5C 56.8333,66.8333 56.1667,67.1667 55.5,67.5C 57.297,68.6951 58.297,70.3618 58.5,72.5C 61.5345,72.183 62.5345,73.183 61.5,75.5C 58.3844,74.0717 55.2177,72.7384 52,71.5C 49.1303,72.0927 46.297,72.7593 43.5,73.5C 42.7611,73.631 42.0944,73.4643 41.5,73C 44.2146,72.1253 45.5479,70.2919 45.5,67.5C 43.602,68.0965 41.9354,68.0965 40.5,67.5C 41.7095,67.0679 42.7095,66.4013 43.5,65.5C 45.4352,64.8505 47.4352,64.5172 49.5,64.5C 52.9387,64.2529 56.272,64.5863 59.5,65.5C 61.0495,66.4408 62.7162,67.1075 64.5,67.5C 67.25,70.0551 70.25,72.3884 73.5,74.5C 76.75,72.3884 79.75,70.0551 82.5,67.5C 85.204,67.3304 86.8707,65.9971 87.5,63.5C 87.8417,62.6618 88.5084,62.3284 89.5,62.5 Z"/></g>
<g><path style="opacity: .7;" fill="#6b5c59" d="M 126.5,65.5 C 125.871,68.3973 124.871,71.064 123.5,73.5C 123.345,70.284 124.345,67.6174 126.5,65.5 Z"/></g>
<g><path style="opacity:1" fill="#5e2722" d="M 82.5,67.5 C 79.75,70.0551 76.75,72.3884 73.5,74.5C 70.25,72.3884 67.25,70.0551 64.5,67.5C 70.7136,66.3866 76.7136,66.3866 82.5,67.5 Z"/></g>
<g><path style="opacity:1" fill="#bc2f26" d="M 107.5,67.5 C 106.328,68.7053 104.995,68.7053 103.5,67.5C 102.275,69.8433 102.941,71.6766 105.5,73C 105.272,73.3988 104.938,73.5654 104.5,73.5C 101.303,73.0272 98.1368,72.3606 95,71.5C 93.2725,71.899 91.7725,72.5657 90.5,73.5C 90.1667,73.5 89.8333,73.5 89.5,73.5C 88.3143,72.2946 88.3143,70.9613 89.5,69.5C 91.69,68.2524 92.0234,66.5857 90.5,64.5C 96.3772,63.8067 102.044,64.8067 107.5,67.5 Z"/></g>
<g><path style="opacity:1" fill="#9c2e29" d="M 107.5,67.5 C 108.391,68.1098 109.391,68.4431 110.5,68.5C 111.404,69.209 111.737,70.209 111.5,71.5C 108.827,71.6845 108.16,72.8511 109.5,75C 107.465,75.5986 105.799,75.0986 104.5,73.5C 104.938,73.5654 105.272,73.3988 105.5,73C 102.941,71.6766 102.275,69.8433 103.5,67.5C 104.995,68.7053 106.328,68.7053 107.5,67.5 Z"/></g>
<g><path style="opacity: .7;" fill="#6d5c58" d="M 19.5,61.5 C 21.27,63.5024 22.6034,65.8357 23.5,68.5C 23.5,69.8333 23.5,71.1667 23.5,72.5C 21.7549,70.9674 20.7549,68.9674 20.5,66.5C 20.634,64.7085 20.3007,63.0418 19.5,61.5 Z"/></g>
<g><path style="opacity:1" fill="#822a24" d="M 40.5,67.5 C 41.9354,68.0965 43.602,68.0965 45.5,67.5C 45.5479,70.2919 44.2146,72.1253 41.5,73C 42.0944,73.4643 42.7611,73.631 43.5,73.5C 42.791,74.404 41.791,74.7373 40.5,74.5C 39.5266,72.6998 38.5266,70.8665 37.5,69C 38.5266,68.4867 39.5266,67.9867 40.5,67.5 Z"/></g>
<g><path style="opacity:1" fill="#76312d" d="M 89.5,69.5 C 87.9519,69.8212 87.2852,70.8212 87.5,72.5C 85.3944,72.679 83.7277,73.679 82.5,75.5C 80.9645,78.7775 79.6311,82.1109 78.5,85.5C 77.8333,85.5 77.1667,85.5 76.5,85.5C 75.6548,82.1736 75.1548,78.8403 75,75.5C 78.5772,72.6267 82.4106,70.1267 86.5,68C 88.1575,67.2748 89.1575,67.7748 89.5,69.5 Z"/></g>
<g><path style="opacity:1" fill="#6e302a" d="M 23.5,68.5 C 24.664,71.8208 26.4974,71.8208 29,68.5C 29.3747,71.0001 30.2081,73.3334 31.5,75.5C 31.1667,76.5 30.5,77.1667 29.5,77.5C 28.4763,76.1468 27.143,75.4802 25.5,75.5C 25.33,76.8221 25.6634,77.9887 26.5,79C 28.2072,79.1953 29.8739,79.1953 31.5,79C 30.944,79.3826 30.6107,79.8826 30.5,80.5C 27.4452,81.5545 25.4452,83.5545 24.5,86.5C 24.5628,81.7971 24.2295,77.1304 23.5,72.5C 23.5,71.1667 23.5,69.8333 23.5,68.5 Z"/></g>
<g><path style="opacity:1" fill="#492721" d="M 124.5,37.5 C 125.79,38.0577 126.623,39.0577 127,40.5C 127.29,42.9204 127.79,45.2537 128.5,47.5C 128.5,48.5 128.5,49.5 128.5,50.5C 125.408,54.3239 122.074,57.9906 118.5,61.5C 116.314,65.205 115.314,69.205 115.5,73.5C 114.532,75.6074 114.198,77.9407 114.5,80.5C 114.786,83.8338 114.786,87.0005 114.5,90C 115.14,92.1204 116.14,93.9537 117.5,95.5C 117.67,96.8221 117.337,97.9887 116.5,99C 111.54,101.147 106.873,103.814 102.5,107C 103.094,107.464 103.761,107.631 104.5,107.5C 107.171,109.118 110.171,109.785 113.5,109.5C 113.672,110.492 113.338,111.158 112.5,111.5C 107.9,110.666 103.234,109.666 98.5,108.5C 97.0131,107.196 95.3464,106.03 93.5,105C 100.331,104.416 106.331,101.916 111.5,97.5C 113.985,96.2601 113.985,95.2601 111.5,94.5C 112.833,90.5 112.833,86.5 111.5,82.5C 111.719,81.325 111.386,80.325 110.5,79.5C 108.604,78.7255 106.937,77.7255 105.5,76.5C 107.5,76.5 109.5,76.5 111.5,76.5C 111.5,74.8333 111.5,73.1667 111.5,71.5C 111.737,70.209 111.404,69.209 110.5,68.5C 111.167,67.8333 111.833,67.1667 112.5,66.5C 114.881,62.5138 115.881,58.1805 115.5,53.5C 115.5,52.5 115.5,51.5 115.5,50.5C 116.321,53.6414 116.821,56.9748 117,60.5C 120.638,59.3289 120.972,57.9956 118,56.5C 117.505,54.5273 117.338,52.5273 117.5,50.5C 117.833,50.5 118.167,50.5 118.5,50.5C 119.266,56.768 121.1,57.1013 124,51.5C 125.734,46.8713 125.901,42.2047 124.5,37.5 Z"/></g>
<g><path style="opacity:1" fill="#592821" d="M 104.5,73.5 C 105.799,75.0986 107.465,75.5986 109.5,75C 108.16,72.8511 108.827,71.6845 111.5,71.5C 111.5,73.1667 111.5,74.8333 111.5,76.5C 109.5,76.5 107.5,76.5 105.5,76.5C 103.708,76.634 102.042,76.3007 100.5,75.5C 97.4115,74.2154 94.0781,73.5488 90.5,73.5C 91.7725,72.5657 93.2725,71.899 95,71.5C 98.1368,72.3606 101.303,73.0272 104.5,73.5 Z"/></g>
<g><path style="opacity:1" fill="#532722" d="M 43.5,65.5 C 42.7095,66.4013 41.7095,67.0679 40.5,67.5C 39.5266,67.9867 38.5266,68.4867 37.5,69C 38.5266,70.8665 39.5266,72.6998 40.5,74.5C 37.5838,77.4703 35.7505,76.8036 35,72.5C 34.6331,78.2036 33.9664,83.8702 33,89.5C 32.6397,91.4211 31.8064,93.0878 30.5,94.5C 31.4565,96.0754 32.1231,97.742 32.5,99.5C 31.5041,99.5858 30.6708,99.2524 30,98.5C 29.3988,96.8632 28.8988,95.1966 28.5,93.5C 29.7103,89.8723 30.7103,86.2056 31.5,82.5C 32.6186,77.6529 32.6186,72.6529 31.5,67.5C 32.4959,67.4142 33.3292,67.7476 34,68.5C 34.4643,67.9056 34.631,67.2389 34.5,66.5C 37.5176,66.2962 40.5176,65.9629 43.5,65.5 Z"/></g>
<g><path style="opacity:1" fill="#3c251f" d="M 61.5,75.5 C 61.8333,76.1667 62.1667,76.8333 62.5,77.5C 53.4663,74.2877 44.7996,74.9544 36.5,79.5C 35.5713,80.6888 35.238,82.0222 35.5,83.5C 34.6689,87.2451 34.6689,90.9117 35.5,94.5C 33.5759,94.7107 33.2426,95.3774 34.5,96.5C 34.7148,98.1788 34.0481,99.1788 32.5,99.5C 32.1231,97.742 31.4565,96.0754 30.5,94.5C 31.8064,93.0878 32.6397,91.4211 33,89.5C 33.9664,83.8702 34.6331,78.2036 35,72.5C 35.7505,76.8036 37.5838,77.4703 40.5,74.5C 41.791,74.7373 42.791,74.404 43.5,73.5C 46.297,72.7593 49.1303,72.0927 52,71.5C 55.2177,72.7384 58.3844,74.0717 61.5,75.5 Z"/></g>
<g><path style="opacity:1" fill="#4c332e" d="M 89.5,73.5 C 89.8333,73.5 90.1667,73.5 90.5,73.5C 94.0781,73.5488 97.4115,74.2154 100.5,75.5C 94.3842,74.7269 88.7176,75.7269 83.5,78.5C 84.8943,76.1057 86.8943,74.439 89.5,73.5 Z"/></g>
<g><path style="opacity:1" fill="#6a2d28" d="M 67.5,72.5 C 72.5631,74.3542 74.8965,78.0209 74.5,83.5C 73.8826,83.3893 73.3826,83.056 73,82.5C 72.5,83.6667 71.6667,84.5 70.5,85C 71.5171,86.0495 71.6838,87.2161 71,88.5C 68.7545,83.6743 66.2545,79.0077 63.5,74.5C 64.5769,73.2949 65.9102,72.6282 67.5,72.5 Z"/></g>
<g><path style="opacity: .7;" fill="#8c8a87" d="M 100.5,75.5 C 102.042,76.3007 103.708,76.634 105.5,76.5C 106.937,77.7255 108.604,78.7255 110.5,79.5C 111.386,80.325 111.719,81.325 111.5,82.5C 107.43,81.6441 103.43,80.4774 99.5,79C 93.361,77.5493 87.861,78.7159 83,82.5C 81.8555,85.0804 81.0222,87.7471 80.5,90.5C 80.1667,90.5 79.8333,90.5 79.5,90.5C 79.5172,88.4352 79.8505,86.4352 80.5,84.5C 80.9925,82.1815 81.9925,80.1815 83.5,78.5C 88.7176,75.7269 94.3842,74.7269 100.5,75.5 Z"/></g>
<g><path style="opacity:1" fill="#80302b" d="M 127.5,60.5 C 126.699,62.0418 126.366,63.7085 126.5,65.5C 124.345,67.6174 123.345,70.284 123.5,73.5C 122.213,78.8023 122.213,84.1356 123.5,89.5C 122.732,90.2625 122.232,91.2625 122,92.5C 120.702,88.3105 119.035,84.3105 117,80.5C 116.503,78.1902 116.337,75.8568 116.5,73.5C 117.016,70.1012 117.85,66.7679 119,63.5C 121.196,60.8748 124.03,59.8748 127.5,60.5 Z"/></g>
<g><path style="opacity: .7;" fill="#8c8784" d="M 62.5,77.5 C 63.7498,77.5774 64.5831,78.244 65,79.5C 66.4698,83.3776 67.3031,87.3776 67.5,91.5C 66.5,93.1667 65.1667,94.5 63.5,95.5C 67.7207,88.0569 65.7207,82.5569 57.5,79C 49.5052,77.4402 42.1719,78.9402 35.5,83.5C 35.238,82.0222 35.5713,80.6888 36.5,79.5C 44.7996,74.9544 53.4663,74.2877 62.5,77.5 Z"/></g>
<g/>
<g/>
<g><path style="opacity:1" fill="#a53d34" d="M 89.5,69.5 C 88.3143,70.9613 88.3143,72.2946 89.5,73.5C 86.8943,74.439 84.8943,76.1057 83.5,78.5C 81.9925,80.1815 80.9925,82.1815 80.5,84.5C 79.8333,84.8333 79.1667,85.1667 78.5,85.5C 79.6311,82.1109 80.9645,78.7775 82.5,75.5C 83.7277,73.679 85.3944,72.679 87.5,72.5C 87.2852,70.8212 87.9519,69.8212 89.5,69.5 Z"/></g>
<g><path style="opacity:1" fill="#86332b" d="M 67.5,72.5 C 65.9102,72.6282 64.5769,73.2949 63.5,74.5C 66.2545,79.0077 68.7545,83.6743 71,88.5C 71.6838,87.2161 71.5171,86.0495 70.5,85C 71.6667,84.5 72.5,83.6667 73,82.5C 73.3826,83.056 73.8826,83.3893 74.5,83.5C 75.1667,84.1667 75.8333,84.8333 76.5,85.5C 77.1667,85.5 77.8333,85.5 78.5,85.5C 79.1667,85.1667 79.8333,84.8333 80.5,84.5C 79.8505,86.4352 79.5172,88.4352 79.5,90.5C 78.8386,89.2825 78.1719,87.9492 77.5,86.5C 77.1589,88.4898 76.8256,90.4898 76.5,92.5C 75.7579,93.2868 74.9246,93.9535 74,94.5C 73.5814,93.3279 72.9147,92.3279 72,91.5C 71.6012,91.7284 71.4346,92.0618 71.5,92.5C 70.7784,92.0825 70.2784,91.4158 70,90.5C 69.6667,91.5 69.3333,92.5 69,93.5C 68.7216,92.5842 68.2216,91.9175 67.5,91.5C 67.3031,87.3776 66.4698,83.3776 65,79.5C 64.5831,78.244 63.7498,77.5774 62.5,77.5C 62.1667,76.8333 61.8333,76.1667 61.5,75.5C 62.5345,73.183 61.5345,72.183 58.5,72.5C 58.297,70.3618 57.297,68.6951 55.5,67.5C 56.1667,67.1667 56.8333,66.8333 57.5,66.5C 61.1907,68.0075 64.524,70.0075 67.5,72.5 Z"/></g>
<g><path style="opacity:1" fill="#622b26" d="M 114.5,80.5 C 115.731,83.6867 116.897,87.02 118,90.5C 118.78,92.3869 118.613,94.0536 117.5,95.5C 116.14,93.9537 115.14,92.1204 114.5,90C 114.786,87.0005 114.786,83.8338 114.5,80.5 Z"/></g>
<g><path style="opacity: .7;" fill="#a67c6a" d="M 79.5,90.5 C 79.8333,90.5 80.1667,90.5 80.5,90.5C 82.5798,92.5732 84.2464,94.9066 85.5,97.5C 82.0291,96.3668 80.0291,94.0334 79.5,90.5 Z"/></g>
<g><path style="opacity:1" fill="#8b332f" d="M 30.5,80.5 C 29.0986,84.0772 27.9319,87.7439 27,91.5C 25.669,93.9962 23.8356,95.9962 21.5,97.5C 21.5,96.8333 21.5,96.1667 21.5,95.5C 22.6827,92.6185 23.6827,89.6185 24.5,86.5C 25.4452,83.5545 27.4452,81.5545 30.5,80.5 Z"/></g>
<g><path style="opacity:1" fill="#aa332b" d="M 30.5,80.5 C 31.3382,80.8417 31.6716,81.5084 31.5,82.5C 30.7103,86.2056 29.7103,89.8723 28.5,93.5C 28.8988,95.1966 29.3988,96.8632 30,98.5C 30.6708,99.2524 31.5041,99.5858 32.5,99.5C 35.9389,101.394 39.2722,103.56 42.5,106C 41.5,106.667 40.5,106.667 39.5,106C 36.7737,103.97 33.7737,102.47 30.5,101.5C 28.0037,102.251 25.6704,103.251 23.5,104.5C 25.1436,102.519 26.8103,100.519 28.5,98.5C 28.1131,97.2801 27.2798,96.6135 26,96.5C 24.3566,97.3146 22.8566,98.3146 21.5,99.5C 21.5,98.8333 21.5,98.1667 21.5,97.5C 23.8356,95.9962 25.669,93.9962 27,91.5C 27.9319,87.7439 29.0986,84.0772 30.5,80.5 Z"/></g>
<g><path style="opacity:1" fill="#863f39" d="M 71.5,92.5 C 71.8333,93.1667 72.1667,93.8333 72.5,94.5C 71.8333,95.5 71.1667,96.5 70.5,97.5C 70.44,96.9569 70.1067,96.6236 69.5,96.5C 66.4377,100.881 63.1044,104.881 59.5,108.5C 58.8386,107.282 58.1719,105.949 57.5,104.5C 56.8933,104.624 56.56,104.957 56.5,105.5C 55.5,105.5 54.5,105.5 53.5,105.5C 53.5,105.167 53.5,104.833 53.5,104.5C 55.4144,103.815 57.4144,103.315 59.5,103C 60.7624,100.505 60.4291,100.172 58.5,102C 56.5,102.167 54.5,102.333 52.5,102.5C 49.4733,102.713 46.8066,102.047 44.5,100.5C 48.4761,101.331 52.4761,101.497 56.5,101C 58.9957,99.3335 61.329,97.5002 63.5,95.5C 65.1667,94.5 66.5,93.1667 67.5,91.5C 68.2216,91.9175 68.7216,92.5842 69,93.5C 69.3333,92.5 69.6667,91.5 70,90.5C 70.2784,91.4158 70.7784,92.0825 71.5,92.5 Z"/></g>
<g><path style="opacity:1" fill="#8a4239" d="M 111.5,94.5 C 113.985,95.2601 113.985,96.2601 111.5,97.5C 111.44,96.9569 111.107,96.6236 110.5,96.5C 108.102,99.1993 105.102,100.533 101.5,100.5C 104.798,98.5146 108.131,96.5146 111.5,94.5 Z"/></g>
<g><path style="opacity:1" fill="#712c27" d="M 23.5,104.5 C 22.0687,103.22 21.4021,101.553 21.5,99.5C 22.8566,98.3146 24.3566,97.3146 26,96.5C 27.2798,96.6135 28.1131,97.2801 28.5,98.5C 26.8103,100.519 25.1436,102.519 23.5,104.5 Z"/></g>
<g><path style="opacity:1" fill="#966b5d" d="M 85.5,97.5 C 86.6266,98.1217 87.6266,98.955 88.5,100C 92.8206,100.499 97.1539,100.666 101.5,100.5C 101.389,101.117 101.056,101.617 100.5,102C 96.8865,102.936 93.2198,103.436 89.5,103.5C 87.7484,101.754 86.4151,99.7541 85.5,97.5 Z"/></g>
<g><path style="opacity:1" fill="#a2312a" d="M 115.5,73.5 C 115.833,73.5 116.167,73.5 116.5,73.5C 116.337,75.8568 116.503,78.1902 117,80.5C 119.035,84.3105 120.702,88.3105 122,92.5C 122.232,91.2625 122.732,90.2625 123.5,89.5C 124.434,90.5676 124.768,91.901 124.5,93.5C 125.15,95.4352 125.483,97.4352 125.5,99.5C 123.672,98.2055 121.672,97.2055 119.5,96.5C 119.081,99.3245 120.081,101.491 122.5,103C 122.272,103.399 121.938,103.565 121.5,103.5C 120.185,102.524 118.852,101.524 117.5,100.5C 112.918,102.426 108.584,104.76 104.5,107.5C 103.761,107.631 103.094,107.464 102.5,107C 106.873,103.814 111.54,101.147 116.5,99C 117.337,97.9887 117.67,96.8221 117.5,95.5C 118.613,94.0536 118.78,92.3869 118,90.5C 116.897,87.02 115.731,83.6867 114.5,80.5C 114.198,77.9407 114.532,75.6074 115.5,73.5 Z"/></g>
<g><path style="opacity:1" fill="#ac5145" d="M 35.5,94.5 C 38.5437,96.5636 41.5437,98.5636 44.5,100.5C 46.8066,102.047 49.4733,102.713 52.5,102.5C 54.5,102.333 56.5,102.167 58.5,102C 60.4291,100.172 60.7624,100.505 59.5,103C 57.4144,103.315 55.4144,103.815 53.5,104.5C 45.9771,104.551 39.6437,101.884 34.5,96.5C 33.2426,95.3774 33.5759,94.7107 35.5,94.5 Z"/></g>
<g><path style="opacity: .7;" fill="#9c716d" d="M 124.5,93.5 C 125.117,93.6107 125.617,93.944 126,94.5C 126.808,98.0267 126.641,101.36 125.5,104.5C 125.5,103.833 125.5,103.167 125.5,102.5C 125.5,101.5 125.5,100.5 125.5,99.5C 125.483,97.4352 125.15,95.4352 124.5,93.5 Z"/></g>
<g><path style="opacity:1" fill="#b03d34" d="M 79.5,90.5 C 80.0291,94.0334 82.0291,96.3668 85.5,97.5C 86.4151,99.7541 87.7484,101.754 89.5,103.5C 87.8632,102.782 86.1966,102.616 84.5,103C 84.1072,105.042 84.1072,106.875 84.5,108.5C 79.5629,104.618 75.5629,99.9518 72.5,94.5C 72.1667,93.8333 71.8333,93.1667 71.5,92.5C 71.4346,92.0618 71.6012,91.7284 72,91.5C 72.9147,92.3279 73.5814,93.3279 74,94.5C 74.9246,93.9535 75.7579,93.2868 76.5,92.5C 76.8256,90.4898 77.1589,88.4898 77.5,86.5C 78.1719,87.9492 78.8386,89.2825 79.5,90.5 Z"/></g>
<g><path style="opacity:1" fill="#752c27" d="M 125.5,99.5 C 125.5,100.5 125.5,101.5 125.5,102.5C 124.518,103.141 123.518,103.807 122.5,104.5C 121.893,104.376 121.56,104.043 121.5,103.5C 121.938,103.565 122.272,103.399 122.5,103C 120.081,101.491 119.081,99.3245 119.5,96.5C 121.672,97.2055 123.672,98.2055 125.5,99.5 Z"/></g>
<g><path style="opacity:1" fill="#a03a2f" d="M 70.5,97.5 C 67.8547,102.145 64.1881,105.812 59.5,108.5C 63.1044,104.881 66.4377,100.881 69.5,96.5C 70.1067,96.6236 70.44,96.9569 70.5,97.5 Z"/></g>
<g><path style="opacity: .7;" fill="#8c8b88" d="M 79.5,112.5 C 79.1667,112.5 78.8333,112.5 78.5,112.5C 77.7124,109.03 75.7124,106.363 72.5,104.5C 68.0576,106.844 66.391,110.511 67.5,115.5C 66.6618,115.158 66.3284,114.492 66.5,113.5C 66.3359,110.813 66.5026,108.146 67,105.5C 71.7712,100.183 75.7712,100.85 79,107.5C 79.4935,109.134 79.6602,110.801 79.5,112.5 Z"/></g>
<g><path style="opacity:1" fill="#4c2621" d="M 72.5,94.5 C 75.5629,99.9518 79.5629,104.618 84.5,108.5C 84.8333,109.167 85.1667,109.833 85.5,110.5C 85.5,110.833 85.5,111.167 85.5,111.5C 84.2058,110.71 83.0391,109.71 82,108.5C 81.0656,109.858 80.2323,111.192 79.5,112.5C 79.6602,110.801 79.4935,109.134 79,107.5C 75.7712,100.85 71.7712,100.183 67,105.5C 66.5026,108.146 66.3359,110.813 66.5,113.5C 65.596,112.791 65.2627,111.791 65.5,110.5C 61.1996,110.815 59.533,113.149 60.5,117.5C 59.9705,120.716 59.3038,123.883 58.5,127C 62.1516,127.499 65.8183,127.665 69.5,127.5C 70.1667,127.5 70.8333,127.5 71.5,127.5C 77.4793,128.894 81.8126,126.894 84.5,121.5C 85.1667,120.167 85.8333,118.833 86.5,117.5C 86.6741,119.861 87.0074,122.194 87.5,124.5C 85.1892,123.849 83.1892,124.682 81.5,127C 83.7116,127.789 85.7116,127.622 87.5,126.5C 88.3382,126.158 88.6716,125.492 88.5,124.5C 89.4511,125.919 89.7845,127.585 89.5,129.5C 78.1667,129.5 66.8333,129.5 55.5,129.5C 55.5,128.5 55.5,127.5 55.5,126.5C 55.5,125.833 55.5,125.167 55.5,124.5C 57.0296,121.305 57.6963,117.805 57.5,114C 57.4525,111.081 57.1191,108.248 56.5,105.5C 56.56,104.957 56.8933,104.624 57.5,104.5C 58.1719,105.949 58.8386,107.282 59.5,108.5C 64.1881,105.812 67.8547,102.145 70.5,97.5C 71.1667,96.5 71.8333,95.5 72.5,94.5 Z"/></g>
<g><path style="opacity:1" fill="#57332f" d="M 34.5,96.5 C 39.6437,101.884 45.9771,104.551 53.5,104.5C 53.5,104.833 53.5,105.167 53.5,105.5C 52.8333,105.833 52.1667,106.167 51.5,106.5C 48.6991,107.377 46.0324,108.544 43.5,110C 40.4133,110.259 37.4133,110.759 34.5,111.5C 31.5842,109.247 28.2508,107.58 24.5,106.5C 23.7025,106.043 23.3691,105.376 23.5,104.5C 25.6704,103.251 28.0037,102.251 30.5,101.5C 33.7737,102.47 36.7737,103.97 39.5,106C 40.5,106.667 41.5,106.667 42.5,106C 39.2722,103.56 35.9389,101.394 32.5,99.5C 34.0481,99.1788 34.7148,98.1788 34.5,96.5 Z"/></g>
<g><path style="opacity:1" fill="#843933" d="M 89.5,103.5 C 89.9175,104.222 90.5842,104.722 91.5,105C 90.5286,110.072 90.1953,115.238 90.5,120.5C 89.6745,116.018 89.1745,111.351 89,106.5C 88.5899,107.901 88.0899,109.234 87.5,110.5C 86.8333,110.5 86.1667,110.5 85.5,110.5C 85.1667,109.833 84.8333,109.167 84.5,108.5C 84.1072,106.875 84.1072,105.042 84.5,103C 86.1966,102.616 87.8632,102.782 89.5,103.5 Z"/></g>
<g><path style="opacity:1" fill="#643c39" d="M 121.5,103.5 C 121.56,104.043 121.893,104.376 122.5,104.5C 123.518,103.807 124.518,103.141 125.5,102.5C 125.5,103.167 125.5,103.833 125.5,104.5C 121.517,106.165 117.517,107.832 113.5,109.5C 110.171,109.785 107.171,109.118 104.5,107.5C 108.584,104.76 112.918,102.426 117.5,100.5C 118.852,101.524 120.185,102.524 121.5,103.5 Z"/></g>
<g/>
<g><path style="opacity: .7;" fill="#8e8c88" d="M 21.5,95.5 C 21.5,96.1667 21.5,96.8333 21.5,97.5C 21.5,98.1667 21.5,98.8333 21.5,99.5C 21.4021,101.553 22.0687,103.22 23.5,104.5C 23.3691,105.376 23.7025,106.043 24.5,106.5C 28.2508,107.58 31.5842,109.247 34.5,111.5C 34.5,112.167 34.8333,112.5 35.5,112.5C 38.7474,115.216 42.4141,115.882 46.5,114.5C 47.4287,115.689 47.762,117.022 47.5,118.5C 45.9397,118.519 44.4397,118.852 43,119.5C 40.2237,118.195 37.3904,117.029 34.5,116C 33.6634,114.989 33.33,113.822 33.5,112.5C 22.7799,111.359 18.7799,105.692 21.5,95.5 Z"/></g>
<g><path style="opacity:1" fill="#ab3c34" d="M 111.5,97.5 C 106.331,101.916 100.331,104.416 93.5,105C 95.3464,106.03 97.0131,107.196 98.5,108.5C 96.7354,109.461 94.7354,109.795 92.5,109.5C 92.5,112.833 92.5,116.167 92.5,119.5C 94.3904,119.703 95.8904,119.037 97,117.5C 97.3826,118.056 97.8826,118.389 98.5,118.5C 98.1936,121.385 98.5269,124.052 99.5,126.5C 99.8333,126.5 100.167,126.5 100.5,126.5C 100.5,127.5 100.5,128.5 100.5,129.5C 97.8333,129.5 95.1667,129.5 92.5,129.5C 91.4222,126.598 90.7556,123.598 90.5,120.5C 90.1953,115.238 90.5286,110.072 91.5,105C 90.5842,104.722 89.9175,104.222 89.5,103.5C 93.2198,103.436 96.8865,102.936 100.5,102C 101.056,101.617 101.389,101.117 101.5,100.5C 105.102,100.533 108.102,99.1993 110.5,96.5C 111.107,96.6236 111.44,96.9569 111.5,97.5 Z"/></g>
<g><path style="opacity: .7;" fill="#8c8a86" d="M 125.5,104.5 C 125.249,106.17 124.582,107.67 123.5,109C 120.539,110.265 117.539,111.431 114.5,112.5C 112.234,115.638 109.234,117.804 105.5,119C 103.888,119.72 102.388,119.554 101,118.5C 100.503,121.146 100.336,123.813 100.5,126.5C 100.167,126.5 99.8333,126.5 99.5,126.5C 99.5,122.833 99.5,119.167 99.5,115.5C 103.896,116.314 107.896,115.314 111.5,112.5C 112.167,112.5 112.5,112.167 112.5,111.5C 113.338,111.158 113.672,110.492 113.5,109.5C 117.517,107.832 121.517,106.165 125.5,104.5 Z"/></g>
<g><path style="opacity:1" fill="#723d39" d="M 48.5,121.5 C 48.4249,124.206 48.0916,126.873 47.5,129.5C 46.6618,129.842 46.3284,130.508 46.5,131.5C 46.5,131.833 46.5,132.167 46.5,132.5C 46.1667,132.5 45.8333,132.5 45.5,132.5C 46.4873,127.883 47.154,123.216 47.5,118.5C 47.762,117.022 47.4287,115.689 46.5,114.5C 42.4141,115.882 38.7474,115.216 35.5,112.5C 41.1842,111.824 46.8509,111.324 52.5,111C 50.5809,112.804 50.2476,114.804 51.5,117C 49.9003,118.123 48.9003,119.623 48.5,121.5 Z"/></g>
<g><path style="opacity:1" fill="#84342e" d="M 66.5,113.5 C 66.3284,114.492 66.6618,115.158 67.5,115.5C 67.5,116.833 67.5,118.167 67.5,119.5C 66.7321,118.737 66.2321,117.737 66,116.5C 64.3005,117.406 62.4672,117.739 60.5,117.5C 59.533,113.149 61.1996,110.815 65.5,110.5C 65.2627,111.791 65.596,112.791 66.5,113.5 Z"/></g>
<g><path style="opacity:1" fill="#8e3935" d="M 98.5,108.5 C 103.234,109.666 107.9,110.666 112.5,111.5C 112.5,112.167 112.167,112.5 111.5,112.5C 106.488,112.08 101.488,111.913 96.5,112C 98.229,113.789 98.8957,115.956 98.5,118.5C 97.8826,118.389 97.3826,118.056 97,117.5C 95.8904,119.037 94.3904,119.703 92.5,119.5C 92.5,116.167 92.5,112.833 92.5,109.5C 94.7354,109.795 96.7354,109.461 98.5,108.5 Z"/></g>
<g><path style="opacity:1" fill="#b2443a" d="M 53.5,105.5 C 54.5,105.5 55.5,105.5 56.5,105.5C 57.1191,108.248 57.4525,111.081 57.5,114C 57.6963,117.805 57.0296,121.305 55.5,124.5C 55.7373,123.209 55.404,122.209 54.5,121.5C 55.4137,118.272 55.7471,114.939 55.5,111.5C 55.5852,110.005 54.9185,109.005 53.5,108.5C 49.4837,110.091 48.817,109.425 51.5,106.5C 52.1667,106.167 52.8333,105.833 53.5,105.5 Z"/></g>
<g><path style="opacity:1" fill="#73403b" d="M 111.5,112.5 C 107.896,115.314 103.896,116.314 99.5,115.5C 99.5,119.167 99.5,122.833 99.5,126.5C 98.5269,124.052 98.1936,121.385 98.5,118.5C 98.8957,115.956 98.229,113.789 96.5,112C 101.488,111.913 106.488,112.08 111.5,112.5 Z"/></g>
<g><path style="opacity:1" fill="#913431" d="M 85.5,111.5 C 86.4614,113.265 86.7947,115.265 86.5,117.5C 85.8333,118.833 85.1667,120.167 84.5,121.5C 84.6463,119.058 83.813,118.391 82,119.5C 81.3333,118.833 80.6667,118.167 80,117.5C 80.3308,115.981 80.1641,114.648 79.5,113.5C 79.5,113.167 79.5,112.833 79.5,112.5C 80.2323,111.192 81.0656,109.858 82,108.5C 83.0391,109.71 84.2058,110.71 85.5,111.5 Z"/></g>
<g><path style="opacity:1" fill="#673430" d="M 90.5,120.5 C 90.7556,123.598 91.4222,126.598 92.5,129.5C 91.5,129.5 90.5,129.5 89.5,129.5C 89.7845,127.585 89.4511,125.919 88.5,124.5C 88.8195,119.637 88.4861,114.97 87.5,110.5C 88.0899,109.234 88.5899,107.901 89,106.5C 89.1745,111.351 89.6745,116.018 90.5,120.5 Z"/></g>
<g><path style="opacity:1" fill="#251915" d="M 85.5,111.5 C 85.5,111.167 85.5,110.833 85.5,110.5C 86.1667,110.5 86.8333,110.5 87.5,110.5C 88.4861,114.97 88.8195,119.637 88.5,124.5C 88.6716,125.492 88.3382,126.158 87.5,126.5C 87.5,125.833 87.5,125.167 87.5,124.5C 87.0074,122.194 86.6741,119.861 86.5,117.5C 86.7947,115.265 86.4614,113.265 85.5,111.5 Z"/></g>
<g><path style="opacity:1" fill="#8d3531" d="M 51.5,106.5 C 48.817,109.425 49.4837,110.091 53.5,108.5C 54.9185,109.005 55.5852,110.005 55.5,111.5C 54.2101,112.058 53.3768,113.058 53,114.5C 52.5034,116.81 52.3367,119.143 52.5,121.5C 51.1667,121.5 49.8333,121.5 48.5,121.5C 48.9003,119.623 49.9003,118.123 51.5,117C 50.2476,114.804 50.5809,112.804 52.5,111C 46.8509,111.324 41.1842,111.824 35.5,112.5C 34.8333,112.5 34.5,112.167 34.5,111.5C 37.4133,110.759 40.4133,110.259 43.5,110C 46.0324,108.544 48.6991,107.377 51.5,106.5 Z"/></g>
<g><path style="opacity:1" fill="#6f3d35" d="M 78.5,112.5 C 78.8333,112.5 79.1667,112.5 79.5,112.5C 79.5,112.833 79.5,113.167 79.5,113.5C 77.5475,117.287 74.7142,120.287 71,122.5C 70.3603,124.265 70.5269,125.932 71.5,127.5C 70.8333,127.5 70.1667,127.5 69.5,127.5C 69.0372,124.779 68.3705,122.112 67.5,119.5C 72.7076,120.043 76.3742,117.709 78.5,112.5 Z"/></g>
<g><path style="opacity:1" fill="#b7342d" d="M 67.5,119.5 C 68.3705,122.112 69.0372,124.779 69.5,127.5C 65.8183,127.665 62.1516,127.499 58.5,127C 59.3038,123.883 59.9705,120.716 60.5,117.5C 62.4672,117.739 64.3005,117.406 66,116.5C 66.2321,117.737 66.7321,118.737 67.5,119.5 Z"/></g>
<g><path style="opacity:1" fill="#b83832" d="M 79.5,113.5 C 80.1641,114.648 80.3308,115.981 80,117.5C 80.6667,118.167 81.3333,118.833 82,119.5C 83.813,118.391 84.6463,119.058 84.5,121.5C 81.8126,126.894 77.4793,128.894 71.5,127.5C 70.5269,125.932 70.3603,124.265 71,122.5C 74.7142,120.287 77.5475,117.287 79.5,113.5 Z"/></g>
<g><path style="opacity:1" fill="#9a302d" d="M 55.5,111.5 C 55.7471,114.939 55.4137,118.272 54.5,121.5C 53.6937,122.868 52.6937,124.201 51.5,125.5C 52.2458,126.736 52.5792,128.07 52.5,129.5C 50.8333,129.5 49.1667,129.5 47.5,129.5C 48.0916,126.873 48.4249,124.206 48.5,121.5C 49.8333,121.5 51.1667,121.5 52.5,121.5C 52.3367,119.143 52.5034,116.81 53,114.5C 53.3768,113.058 54.2101,112.058 55.5,111.5 Z"/></g>
<g><path style="opacity:1" fill="#742c29" d="M 87.5,124.5 C 87.5,125.167 87.5,125.833 87.5,126.5C 85.7116,127.622 83.7116,127.789 81.5,127C 83.1892,124.682 85.1892,123.849 87.5,124.5 Z"/></g>
<g><path style="opacity:1" fill="#983a2e" d="M 55.5,126.5 C 55.5,127.5 55.5,128.5 55.5,129.5C 66.8333,129.5 78.1667,129.5 89.5,129.5C 90.5,129.5 91.5,129.5 92.5,129.5C 80.011,130.495 67.3443,130.829 54.5,130.5C 54.2322,128.901 54.5655,127.568 55.5,126.5 Z"/></g>
<g><path style="opacity:1" fill="#c34033" d="M 54.5,121.5 C 55.404,122.209 55.7373,123.209 55.5,124.5C 55.5,125.167 55.5,125.833 55.5,126.5C 54.5655,127.568 54.2322,128.901 54.5,130.5C 67.3443,130.829 80.011,130.495 92.5,129.5C 95.1667,129.5 97.8333,129.5 100.5,129.5C 82.8644,131.487 64.8644,132.153 46.5,131.5C 46.3284,130.508 46.6618,129.842 47.5,129.5C 49.1667,129.5 50.8333,129.5 52.5,129.5C 52.5792,128.07 52.2458,126.736 51.5,125.5C 52.6937,124.201 53.6937,122.868 54.5,121.5 Z"/></g>
<g><path style="opacity:1" fill="#86342f" d="M 100.5,129.5 C 101.404,130.209 101.737,131.209 101.5,132.5C 101.167,132.5 100.833,132.5 100.5,132.5C 96.1667,132.5 91.8333,132.5 87.5,132.5C 74.8333,132.5 62.1667,132.5 49.5,132.5C 48.5,132.5 47.5,132.5 46.5,132.5C 46.5,132.167 46.5,131.833 46.5,131.5C 64.8644,132.153 82.8644,131.487 100.5,129.5 Z"/></g>
<g><path style="opacity: .7;" fill="#8a8986" d="M 45.5,132.5 C 45.8333,132.5 46.1667,132.5 46.5,132.5C 47.086,134.84 48.086,137.007 49.5,139C 65.5,139.667 81.5,139.667 97.5,139C 98.914,137.007 99.914,134.84 100.5,132.5C 100.833,132.5 101.167,132.5 101.5,132.5C 101.285,136.266 99.9513,139.6 97.5,142.5C 89.5277,143.498 81.5277,143.831 73.5,143.5C 65.4723,143.831 57.4723,143.498 49.5,142.5C 47.0487,139.6 45.7153,136.266 45.5,132.5 Z"/></g>
<g><path style="opacity:1" fill="#4c2e2b" d="M 46.5,132.5 C 47.5,132.5 48.5,132.5 49.5,132.5C 49.3573,134.262 49.6906,135.929 50.5,137.5C 63.1492,138.499 75.8158,138.832 88.5,138.5C 88.5,137.167 88.5,135.833 88.5,134.5C 89.552,134.649 90.552,134.483 91.5,134C 89.9419,133.79 88.6085,133.29 87.5,132.5C 91.8333,132.5 96.1667,132.5 100.5,132.5C 99.914,134.84 98.914,137.007 97.5,139C 81.5,139.667 65.5,139.667 49.5,139C 48.086,137.007 47.086,134.84 46.5,132.5 Z"/></g>
<g><path style="opacity:1" fill="#6a3e3b" d="M 49.5,132.5 C 62.1667,132.5 74.8333,132.5 87.5,132.5C 88.6085,133.29 89.9419,133.79 91.5,134C 90.552,134.483 89.552,134.649 88.5,134.5C 88.5,135.833 88.5,137.167 88.5,138.5C 75.8158,138.832 63.1492,138.499 50.5,137.5C 49.6906,135.929 49.3573,134.262 49.5,132.5 Z"/></g>
</svg>