<svg xmlns="http://www.w3.org/2000/svg" xmlns:xlink="http://www.w3.org/1999/xlink" version="1.1" width="154px" height="154px" style="shape-rendering:geometricPrecision;text-rendering:geometricPrecision;image-rendering:optimizeQuality;fill-rule:evenodd;clip-rule:evenodd;">
<g/>
<g/>
<g><path style="opacity:1" fill="#552f2b" d="M 121.5,53.5 C 121.5,56.5 121.5,59.5 121.5,62.5C 121.5,63.5 121.5,64.5 121.5,65.5C 119.304,70.6151 115.304,73.2818 109.5,73.5C 106.833,73.8333 104.167,74.1667 101.5,74.5C 102.167,73.1667 102.833,71.8333 103.5,70.5C 104.234,69.2921 104.567,67.9587 104.5,66.5C 103.209,66.7373 102.209,66.404 101.5,65.5C 102.833,65.1667 104.167,64.8333 105.5,64.5C 107.099,64.7678 108.432,64.4345 109.5,63.5C 114.429,61.2343 118.429,57.901 121.5,53.5 Z"/></g>
<g><path style="opacity:1" fill="#842c21" d="M 104.5,58.5 C 105.167,58.5 105.833,58.5 106.5,58.5C 106.598,59.882 106.598,61.382 106.5,63C 107.448,63.4828 108.448,63.6495 109.5,63.5C 108.432,64.4345 107.099,64.7678 105.5,64.5C 100.04,63.2627 94.3732,62.596 88.5,62.5C 89.209,61.596 90.209,61.2627 91.5,61.5C 96.0708,61.0231 100.404,60.0231 104.5,58.5 Z"/></g>
<g><path style="opacity:1" fill="#712c21" d="M 74.5,60.5 C 74.8333,60.5 75.1667,60.5 75.5,60.5C 81.0262,60.1786 86.3595,60.5119 91.5,61.5C 90.209,61.2627 89.209,61.596 88.5,62.5C 83.6093,62.4681 78.9426,61.8015 74.5,60.5 Z"/></g>
<g><path style="opacity:1" fill="#9a3429" d="M 114.5,47.5 C 116.216,47.6287 117.883,47.962 119.5,48.5C 119.833,48.5 120.167,48.5 120.5,48.5C 121.038,50.1172 121.371,51.7839 121.5,53.5C 118.429,57.901 114.429,61.2343 109.5,63.5C 108.448,63.6495 107.448,63.4828 106.5,63C 106.598,61.382 106.598,59.882 106.5,58.5C 108.565,58.047 110.232,57.047 111.5,55.5C 116.068,54.3496 117.068,52.0162 114.5,48.5C 114.5,48.1667 114.5,47.8333 114.5,47.5 Z"/></g>
<g><path style="opacity:1" fill="#605450" d="M 26.5,52.5 C 26.5,52.8333 26.5,53.1667 26.5,53.5C 26.6287,55.2161 26.962,56.8828 27.5,58.5C 28.2186,60.7638 28.552,63.0971 28.5,65.5C 26.0397,61.3559 25.373,57.0226 26.5,52.5 Z"/></g>
<g><path style="opacity:1" fill="#39201c" d="M 58.5,43.5 C 59.8333,43.5 61.1667,43.5 62.5,43.5C 60.6278,47.9197 61.6278,51.5863 65.5,54.5C 67.2985,55.7879 68.9652,55.7879 70.5,54.5C 72.1379,55.1589 73.8045,55.8256 75.5,56.5C 77.0046,53.8694 77.6713,54.2027 77.5,57.5C 75.3453,57.372 73.3453,57.872 71.5,59C 73.0581,59.21 74.3915,59.71 75.5,60.5C 75.1667,60.5 74.8333,60.5 74.5,60.5C 68.3456,60.8996 62.3456,60.2329 56.5,58.5C 52.2477,56.2083 48.5811,53.2083 45.5,49.5C 46.1667,48.1667 47.1667,47.1667 48.5,46.5C 51.6988,45.1009 55.0321,44.1009 58.5,43.5 Z"/></g>
<g><path style="opacity: .7;" fill="#aaa29f" d="M 120.5,48.5 C 121.117,48.6107 121.617,48.944 122,49.5C 122.814,54.0204 122.647,58.3537 121.5,62.5C 121.5,59.5 121.5,56.5 121.5,53.5C 121.371,51.7839 121.038,50.1172 120.5,48.5 Z"/></g>
<g><path style="opacity:1" fill="#99392c" d="M 38.5,45.5 C 42.0419,45.1872 45.3752,45.5206 48.5,46.5C 47.1667,47.1667 46.1667,48.1667 45.5,49.5C 44.1134,51.4888 44.4468,53.3221 46.5,55C 49.5612,57.0347 52.8945,58.2014 56.5,58.5C 62.3456,60.2329 68.3456,60.8996 74.5,60.5C 78.9426,61.8015 83.6093,62.4681 88.5,62.5C 85.3752,63.4794 82.0419,63.8128 78.5,63.5C 70.9945,62.5774 63.3279,61.744 55.5,61C 53.0859,59.1151 50.4192,58.4484 47.5,59C 49.2464,59.4709 50.913,60.1376 52.5,61C 49.1406,60.9636 45.8072,60.4636 42.5,59.5C 39.8635,55.7335 39.8635,51.9002 42.5,48C 38.3423,47.7038 35.009,49.2038 32.5,52.5C 32.7605,54.1871 33.4272,55.6871 34.5,57C 37.11,58.4814 39.7766,59.6481 42.5,60.5C 46.1909,61.3934 49.8576,62.3934 53.5,63.5C 47.3813,64.4373 41.3813,63.7706 35.5,61.5C 34.8933,61.6236 34.56,61.9569 34.5,62.5C 31.7052,61.937 29.3718,60.6037 27.5,58.5C 26.962,56.8828 26.6287,55.2161 26.5,53.5C 29.9383,49.9201 33.9383,47.2534 38.5,45.5 Z"/></g>
<g><path style="opacity:1" fill="#7a2f23" d="M 78.5,63.5 C 73.8333,63.5 69.1667,63.5 64.5,63.5C 60.8333,63.5 57.1667,63.5 53.5,63.5C 49.8576,62.3934 46.1909,61.3934 42.5,60.5C 42.5,60.1667 42.5,59.8333 42.5,59.5C 45.8072,60.4636 49.1406,60.9636 52.5,61C 50.913,60.1376 49.2464,59.4709 47.5,59C 50.4192,58.4484 53.0859,59.1151 55.5,61C 63.3279,61.744 70.9945,62.5774 78.5,63.5 Z"/></g>
<g><path style="opacity:1" fill="#2e1d18" d="M 70.5,45.5 C 71.391,46.1098 72.391,46.4431 73.5,46.5C 73.1231,48.258 72.4565,49.9246 71.5,51.5C 74.2479,52.6439 76.0813,51.6439 77,48.5C 77.49,49.7932 77.6567,51.1266 77.5,52.5C 85.8333,53.1667 94.1667,53.8333 102.5,54.5C 102.527,56.1993 103.194,57.5326 104.5,58.5C 100.404,60.0231 96.0708,61.0231 91.5,61.5C 86.3595,60.5119 81.0262,60.1786 75.5,60.5C 74.3915,59.71 73.0581,59.21 71.5,59C 73.3453,57.872 75.3453,57.372 77.5,57.5C 77.6713,54.2027 77.0046,53.8694 75.5,56.5C 73.8045,55.8256 72.1379,55.1589 70.5,54.5C 69.7659,53.2921 69.4326,51.9587 69.5,50.5C 69.366,48.7085 69.6993,47.0418 70.5,45.5 Z"/></g>
<g><path style="opacity:1" fill="#502620" d="M 42.5,59.5 C 42.5,59.8333 42.5,60.1667 42.5,60.5C 39.7766,59.6481 37.11,58.4814 34.5,57C 33.4272,55.6871 32.7605,54.1871 32.5,52.5C 35.009,49.2038 38.3423,47.7038 42.5,48C 39.8635,51.9002 39.8635,55.7335 42.5,59.5 Z"/></g>
<g><path style="opacity:1" fill="#8a3126" d="M 62.5,43.5 C 62.8333,43.5 63.1667,43.5 63.5,43.5C 62.9159,46.9828 63.7492,49.9828 66,52.5C 66.4643,51.9056 66.631,51.2389 66.5,50.5C 66.8333,50.5 67.1667,50.5 67.5,50.5C 68.1667,50.5 68.8333,50.5 69.5,50.5C 69.4326,51.9587 69.7659,53.2921 70.5,54.5C 68.9652,55.7879 67.2985,55.7879 65.5,54.5C 61.6278,51.5863 60.6278,47.9197 62.5,43.5 Z"/></g>
<g><path style="opacity:1" fill="#5e2d28" d="M 45.5,49.5 C 48.5811,53.2083 52.2477,56.2083 56.5,58.5C 52.8945,58.2014 49.5612,57.0347 46.5,55C 44.4468,53.3221 44.1134,51.4888 45.5,49.5 Z"/></g>
<g><path style="opacity:1" fill="#4f2724" d="M 104.5,46.5 C 107.983,46.6906 111.316,47.3573 114.5,48.5C 117.068,52.0162 116.068,54.3496 111.5,55.5C 111.5,54.5 111.5,53.5 111.5,52.5C 108.268,51.6055 105.935,49.6055 104.5,46.5 Z"/></g>
<g><path style="opacity:1" fill="#663326" d="M 70.5,40.5 C 70.9382,40.4346 71.2716,40.6012 71.5,41C 69.0979,43.7034 67.7646,46.8701 67.5,50.5C 67.1667,50.5 66.8333,50.5 66.5,50.5C 66.2063,46.433 67.5397,43.0997 70.5,40.5 Z"/></g>
<g><path style="opacity:1" fill="#7e3c33" d="M 89.5,43.5 C 98.5936,41.7356 107.594,42.5689 116.5,46C 117.942,46.3768 118.942,47.2101 119.5,48.5C 117.883,47.962 116.216,47.6287 114.5,47.5C 110.89,45.4259 106.89,44.2593 102.5,44C 99.633,43.1993 96.9664,43.3659 94.5,44.5C 92.7085,44.634 91.0418,44.3007 89.5,43.5 Z"/></g>
<g><path style="opacity:1" fill="#38201b" d="M 82.5,42.5 C 83.5676,43.4345 84.901,43.7678 86.5,43.5C 87.5,43.5 88.5,43.5 89.5,43.5C 91.0418,44.3007 92.7085,44.634 94.5,44.5C 97.9876,44.5399 101.321,45.2066 104.5,46.5C 105.935,49.6055 108.268,51.6055 111.5,52.5C 111.5,53.5 111.5,54.5 111.5,55.5C 110.232,57.047 108.565,58.047 106.5,58.5C 105.833,58.5 105.167,58.5 104.5,58.5C 103.194,57.5326 102.527,56.1993 102.5,54.5C 94.1667,53.8333 85.8333,53.1667 77.5,52.5C 77.6567,51.1266 77.49,49.7932 77,48.5C 76.0813,51.6439 74.2479,52.6439 71.5,51.5C 72.4565,49.9246 73.1231,48.258 73.5,46.5C 76.6484,45.4242 79.6484,44.0909 82.5,42.5 Z"/></g>
<g><path style="opacity:1" fill="#7c433a" d="M 38.5,45.5 C 33.9383,47.2534 29.9383,49.9201 26.5,53.5C 26.5,53.1667 26.5,52.8333 26.5,52.5C 29.271,48.1128 33.271,45.7795 38.5,45.5 Z"/></g>
<g><path style="opacity:1" fill="#b15b4c" d="M 94.5,44.5 C 96.9664,43.3659 99.633,43.1993 102.5,44C 106.89,44.2593 110.89,45.4259 114.5,47.5C 114.5,47.8333 114.5,48.1667 114.5,48.5C 111.316,47.3573 107.983,46.6906 104.5,46.5C 101.321,45.2066 97.9876,44.5399 94.5,44.5 Z"/></g>
<g><path style="opacity:1" fill="#57251e" d="M 74.5,40.5 C 74.9382,40.4346 75.2716,40.6012 75.5,41C 74.1387,42.5843 73.472,44.4176 73.5,46.5C 72.391,46.4431 71.391,46.1098 70.5,45.5C 71.1237,43.246 72.457,41.5794 74.5,40.5 Z"/></g>
<g><path style="opacity:1" fill="#892b23" d="M 85.5,37.5 C 86.1667,37.5 86.5,37.8333 86.5,38.5C 85.1667,39.8333 83.8333,41.1667 82.5,42.5C 79.6484,44.0909 76.6484,45.4242 73.5,46.5C 73.472,44.4176 74.1387,42.5843 75.5,41C 75.2716,40.6012 74.9382,40.4346 74.5,40.5C 78.1001,39.6126 81.7668,38.6126 85.5,37.5 Z"/></g>
<g><path style="opacity:1" fill="#784b40" d="M 58.5,43.5 C 55.0321,44.1009 51.6988,45.1009 48.5,46.5C 45.3752,45.5206 42.0419,45.1872 38.5,45.5C 38.9175,44.7784 39.5842,44.2784 40.5,44C 45,43.5 49.5,43 54,42.5C 55.7067,42.5085 57.2067,42.8418 58.5,43.5 Z"/></g>
<g><path style="opacity: .7;" fill="#8a8380" d="M 88.5,37.5 C 88.4142,38.4959 88.7476,39.3292 89.5,40C 88.2899,41.0391 87.2899,42.2058 86.5,43.5C 84.901,43.7678 83.5676,43.4345 82.5,42.5C 83.8333,41.1667 85.1667,39.8333 86.5,38.5C 87.1667,38.1667 87.8333,37.8333 88.5,37.5 Z"/></g>
<g><path style="opacity: .7;" fill="#9d7966" d="M 67.5,35.5 C 67.8333,35.5 68.1667,35.5 68.5,35.5C 67.8486,38.803 66.182,41.4697 63.5,43.5C 63.1667,43.5 62.8333,43.5 62.5,43.5C 64.1933,40.8159 65.86,38.1492 67.5,35.5 Z"/></g>
<g><path style="opacity:1" fill="#bb4d3c" d="M 76.5,35.5 C 77.1667,35.5 77.8333,35.5 78.5,35.5C 76.9456,36.8946 77.279,37.5613 79.5,37.5C 80.8492,37.1543 82.1825,36.821 83.5,36.5C 84.4916,36.3284 85.1583,36.6618 85.5,37.5C 81.7668,38.6126 78.1001,39.6126 74.5,40.5C 72.457,41.5794 71.1237,43.246 70.5,45.5C 69.6993,47.0418 69.366,48.7085 69.5,50.5C 68.8333,50.5 68.1667,50.5 67.5,50.5C 67.7646,46.8701 69.0979,43.7034 71.5,41C 71.2716,40.6012 70.9382,40.4346 70.5,40.5C 71.2049,37.4572 73.2049,35.7905 76.5,35.5 Z"/></g>
<g><path style="opacity:1" fill="#774338" d="M 85.5,34.5 C 86.209,35.404 87.209,35.7373 88.5,35.5C 89.5063,35.9377 89.5063,36.6043 88.5,37.5C 87.8333,37.8333 87.1667,38.1667 86.5,38.5C 86.5,37.8333 86.1667,37.5 85.5,37.5C 85.1583,36.6618 84.4916,36.3284 83.5,36.5C 83.8333,35.5 84.5,34.8333 85.5,34.5 Z"/></g>
<g><path style="opacity: .7;" fill="#8d7f7b" d="M 88.5,30.5 C 88.8333,30.5 89.1667,30.5 89.5,30.5C 89.3713,32.2161 89.038,33.8828 88.5,35.5C 87.209,35.7373 86.209,35.404 85.5,34.5C 86.1667,34.5 86.5,34.1667 86.5,33.5C 87.1667,32.5 87.8333,31.5 88.5,30.5 Z"/></g>
<g><path style="opacity:1" fill="#903026" d="M 86.5,33.5 C 86.5,34.1667 86.1667,34.5 85.5,34.5C 84.5,34.8333 83.8333,35.5 83.5,36.5C 82.1825,36.821 80.8492,37.1543 79.5,37.5C 77.279,37.5613 76.9456,36.8946 78.5,35.5C 80.6382,35.297 82.3049,34.297 83.5,32.5C 84.4168,33.1272 85.4168,33.4606 86.5,33.5 Z"/></g>
<g><path style="opacity:1" fill="#c8493d" d="M 88.5,30.5 C 87.8333,31.5 87.1667,32.5 86.5,33.5C 85.4168,33.4606 84.4168,33.1272 83.5,32.5C 82.3049,34.297 80.6382,35.297 78.5,35.5C 81.7912,32.5876 83.7912,28.921 84.5,24.5C 87.0715,25.7277 88.4048,27.7277 88.5,30.5 Z"/></g>
<g><path style="opacity:1" fill="#c8463a" d="M 75.5,18.5 C 77.2546,19.9044 79.2546,20.9044 81.5,21.5C 81.8333,21.5 82.1667,21.5 82.5,21.5C 83.0133,27.307 81.0133,31.9737 76.5,35.5C 73.2049,35.7905 71.2049,37.4572 70.5,40.5C 67.5397,43.0997 66.2063,46.433 66.5,50.5C 66.631,51.2389 66.4643,51.9056 66,52.5C 63.7492,49.9828 62.9159,46.9828 63.5,43.5C 66.182,41.4697 67.8486,38.803 68.5,35.5C 68.5,35.1667 68.5,34.8333 68.5,34.5C 74.082,30.6629 76.4154,25.3295 75.5,18.5 Z"/></g>
<g><path style="opacity:1" fill="#814035" d="M 82.5,21.5 C 86.759,23.0828 89.0923,26.0828 89.5,30.5C 89.1667,30.5 88.8333,30.5 88.5,30.5C 88.4048,27.7277 87.0715,25.7277 84.5,24.5C 83.7912,28.921 81.7912,32.5876 78.5,35.5C 77.8333,35.5 77.1667,35.5 76.5,35.5C 81.0133,31.9737 83.0133,27.307 82.5,21.5 Z"/></g>
<g><path style="opacity: .7;" fill="#8b8683" d="M 48.5,12.5 C 49.1667,12.5 49.5,12.8333 49.5,13.5C 51.8333,16.5 54.5,19.1667 57.5,21.5C 61.7755,24.1421 65.4421,27.4754 68.5,31.5C 68.5,32.5 68.5,33.5 68.5,34.5C 68.5,34.8333 68.5,35.1667 68.5,35.5C 68.1667,35.5 67.8333,35.5 67.5,35.5C 66.4566,32.9438 64.7899,30.7772 62.5,29C 54.6936,26.0368 50.0269,20.5368 48.5,12.5 Z"/></g>
<g><path style="opacity:1" fill="#8b3732" d="M 68.5,31.5 C 65.4421,27.4754 61.7755,24.1421 57.5,21.5C 60.7644,20.6758 64.0977,20.3424 67.5,20.5C 67.6427,22.2624 67.3094,23.9291 66.5,25.5C 67.2634,26.7193 68.2634,27.7193 69.5,28.5C 68.8728,29.4168 68.5394,30.4168 68.5,31.5 Z"/></g>
<g><path style="opacity:1" fill="#56221c" d="M 75.5,18.5 C 76.4154,25.3295 74.082,30.6629 68.5,34.5C 68.5,33.5 68.5,32.5 68.5,31.5C 73.1218,28.4456 74.6218,24.1123 73,18.5C 66.9956,14.8861 67.1622,14.0527 73.5,16C 74.0659,16.9947 74.7326,17.828 75.5,18.5 Z"/></g>
<g><path style="opacity:1" fill="#a3362e" d="M 74.5,9.5 C 74.2053,11.7354 74.5386,13.7354 75.5,15.5C 75.5,16.1667 75.8333,16.5 76.5,16.5C 78.1667,18.1667 79.8333,19.8333 81.5,21.5C 79.2546,20.9044 77.2546,19.9044 75.5,18.5C 74.7326,17.828 74.0659,16.9947 73.5,16C 67.1622,14.0527 66.9956,14.8861 73,18.5C 74.6218,24.1123 73.1218,28.4456 68.5,31.5C 68.5394,30.4168 68.8728,29.4168 69.5,28.5C 68.2634,27.7193 67.2634,26.7193 66.5,25.5C 67.3094,23.9291 67.6427,22.2624 67.5,20.5C 64.0977,20.3424 60.7644,20.6758 57.5,21.5C 54.5,19.1667 51.8333,16.5 49.5,13.5C 51.9541,13.6795 54.1208,13.0128 56,11.5C 58.3333,12.8333 60.6667,12.8333 63,11.5C 64.8261,12.0104 64.9928,12.8438 63.5,14C 64.7113,15.5778 66.0446,15.7445 67.5,14.5C 66.1666,13.3801 65.6666,12.0468 66,10.5C 66.5,11 67,11.5 67.5,12C 69.5213,12.1402 71.3547,12.3068 73,12.5C 73.2321,11.2625 73.7321,10.2625 74.5,9.5 Z"/></g>
<g><path style="opacity:1" fill="#c14538" d="M 75.5,7.5 C 74.6618,7.84171 74.3284,8.50838 74.5,9.5C 73.7321,10.2625 73.2321,11.2625 73,12.5C 71.3547,12.3068 69.5213,12.1402 67.5,12C 67,11.5 66.5,11 66,10.5C 65.6666,12.0468 66.1666,13.3801 67.5,14.5C 66.0446,15.7445 64.7113,15.5778 63.5,14C 64.9928,12.8438 64.8261,12.0104 63,11.5C 60.6667,12.8333 58.3333,12.8333 56,11.5C 54.1208,13.0128 51.9541,13.6795 49.5,13.5C 49.5,12.8333 49.1667,12.5 48.5,12.5C 48.2155,10.5853 48.5489,8.91866 49.5,7.5C 58.5455,7.87885 67.2122,7.87885 75.5,7.5 Z"/></g>
<g><path style="opacity: .7;" fill="#95928f" d="M 85.5,6.5 C 86.7175,7.16145 88.0508,7.82811 89.5,8.5C 85.7845,9.84739 82.1179,11.3474 78.5,13C 77.1772,13.8159 76.5106,14.9826 76.5,16.5C 75.8333,16.5 75.5,16.1667 75.5,15.5C 75.366,13.7085 75.6993,12.0418 76.5,10.5C 79.3777,8.89456 82.3777,7.56123 85.5,6.5 Z"/></g>
<g><path style="opacity:1" fill="#5f342d" d="M 75.5,7.5 C 75.6262,8.43898 75.9595,9.43898 76.5,10.5C 75.6993,12.0418 75.366,13.7085 75.5,15.5C 74.5386,13.7354 74.2053,11.7354 74.5,9.5C 74.3284,8.50838 74.6618,7.84171 75.5,7.5 Z"/></g>
<g><path style="opacity:1" fill="#95362f" d="M 51.5,5.5 C 62.8391,5.65296 74.1724,5.65296 85.5,5.5C 85.5,5.83333 85.5,6.16667 85.5,6.5C 82.3777,7.56123 79.3777,8.89456 76.5,10.5C 75.9595,9.43898 75.6262,8.43898 75.5,7.5C 67.2122,7.87885 58.5455,7.87885 49.5,7.5C 49.8333,6.5 50.5,5.83333 51.5,5.5 Z"/></g>
<g><path style="opacity:1" fill="#773832" d="M 51.5,5.5 C 51.5,4.83333 51.8333,4.5 52.5,4.5C 65.5426,4.15645 76.5426,4.48979 85.5,5.5C 74.1724,5.65296 62.8391,5.65296 51.5,5.5 Z"/></g>
<g><path style="opacity: .7;" fill="#b0a4a2" d="M 52.5,4.5 C 64.6554,3.50478 76.9887,3.17145 89.5,3.5C 89.5,4.5 89.5,5.5 89.5,6.5C 88.1667,6.5 86.8333,6.5 85.5,6.5C 85.5,6.16667 85.5,5.83333 85.5,5.5C 76.5426,4.48979 65.5426,4.15645 52.5,4.5 Z"/></g>
<g><path style="opacity:1" fill="#a83429" d="M 34.5,62.5 C 34.56,61.9569 34.8933,61.6236 35.5,61.5C 41.3813,63.7706 47.3813,64.4373 53.5,63.5C 57.1667,63.5 60.8333,63.5 64.5,63.5C 64.3893,64.1174 64.056,64.6174 63.5,65C 58.6486,65.1745 53.9819,65.6745 49.5,66.5C 49.1667,66.5 48.8333,66.5 48.5,66.5C 44.8026,65.9922 41.1359,65.3255 37.5,64.5C 36.7095,63.5987 35.7095,62.9321 34.5,62.5 Z"/></g>
<g><path style="opacity:1" fill="#bf362a" d="M 88.5,62.5 C 94.3732,62.596 100.04,63.2627 105.5,64.5C 104.167,64.8333 102.833,65.1667 101.5,65.5C 100.833,65.5 100.167,65.5 99.5,65.5C 87.645,65.5472 75.9784,66.2139 64.5,67.5C 61.1667,67.5 57.8333,67.5 54.5,67.5C 53.0813,66.5489 51.4147,66.2155 49.5,66.5C 53.9819,65.6745 58.6486,65.1745 63.5,65C 64.056,64.6174 64.3893,64.1174 64.5,63.5C 69.1667,63.5 73.8333,63.5 78.5,63.5C 82.0419,63.8128 85.3752,63.4794 88.5,62.5 Z"/></g>
<g><path style="opacity:1" fill="#573531" d="M 27.5,58.5 C 29.3718,60.6037 31.7052,61.937 34.5,62.5C 35.7095,62.9321 36.7095,63.5987 37.5,64.5C 38.6016,66.0919 37.935,66.9252 35.5,67C 37.1922,68.4007 37.8588,70.2341 37.5,72.5C 39.7857,72.595 41.7857,73.2616 43.5,74.5C 40.0076,74.446 37.0076,75.446 34.5,77.5C 33.8333,77.5 33.1667,77.5 32.5,77.5C 33.343,75.8267 34.6763,74.66 36.5,74C 32.6849,72.9655 30.0182,70.7988 28.5,67.5C 28.5,66.8333 28.5,66.1667 28.5,65.5C 28.552,63.0971 28.2186,60.7638 27.5,58.5 Z"/></g>
<g><path style="opacity:1" fill="#62342f" d="M 37.5,64.5 C 41.1359,65.3255 44.8026,65.9922 48.5,66.5C 49.3515,69.5415 49.6848,72.5415 49.5,75.5C 47.5648,74.8505 45.5648,74.5172 43.5,74.5C 41.7857,73.2616 39.7857,72.595 37.5,72.5C 37.8588,70.2341 37.1922,68.4007 35.5,67C 37.935,66.9252 38.6016,66.0919 37.5,64.5 Z"/></g>
<g><path style="opacity:1" fill="#d65749" d="M 99.5,65.5 C 96.7273,66.6572 93.7273,67.3239 90.5,67.5C 81.8333,68.8333 73.1667,68.8333 64.5,67.5C 75.9784,66.2139 87.645,65.5472 99.5,65.5 Z"/></g>
<g><path style="opacity:1" fill="#9c4a47" d="M 99.5,65.5 C 100.167,65.5 100.833,65.5 101.5,65.5C 102.209,66.404 103.209,66.7373 104.5,66.5C 104.567,67.9587 104.234,69.2921 103.5,70.5C 99.6779,71.7889 95.8445,71.7889 92,70.5C 90.9231,71.4295 89.7564,72.0962 88.5,72.5C 89.1667,70.8333 89.8333,69.1667 90.5,67.5C 93.7273,67.3239 96.7273,66.6572 99.5,65.5 Z"/></g>
<g><path style="opacity:1" fill="#b04845" d="M 54.5,67.5 C 57.8333,67.5 61.1667,67.5 64.5,67.5C 73.1667,68.8333 81.8333,68.8333 90.5,67.5C 89.8333,69.1667 89.1667,70.8333 88.5,72.5C 87.063,73.7255 85.3964,74.7255 83.5,75.5C 74.8589,76.498 66.1922,76.8314 57.5,76.5C 57.1667,76.5 56.8333,76.5 56.5,76.5C 56.8808,74.0582 56.2141,73.3915 54.5,74.5C 53.5,74.1667 52.8333,73.5 52.5,72.5C 53.9501,71.1502 54.6168,69.4835 54.5,67.5 Z"/></g>
<g><path style="opacity: .7;" fill="#8e8b88" d="M 28.5,67.5 C 30.0182,70.7988 32.6849,72.9655 36.5,74C 34.6763,74.66 33.343,75.8267 32.5,77.5C 32.1667,77.5 31.8333,77.5 31.5,77.5C 29.7084,74.4541 28.7084,71.1207 28.5,67.5 Z"/></g>
<g><path style="opacity:1" fill="#7d3f3c" d="M 103.5,70.5 C 102.833,71.8333 102.167,73.1667 101.5,74.5C 100.508,74.3284 99.8417,74.6618 99.5,75.5C 92.7862,75.7303 86.1195,76.397 79.5,77.5C 72.1667,77.5 64.8333,77.5 57.5,77.5C 57.5,77.1667 57.5,76.8333 57.5,76.5C 66.1922,76.8314 74.8589,76.498 83.5,75.5C 85.3964,74.7255 87.063,73.7255 88.5,72.5C 89.7564,72.0962 90.9231,71.4295 92,70.5C 95.8445,71.7889 99.6779,71.7889 103.5,70.5 Z"/></g>
<g><path style="opacity: .7;" fill="#8a8581" d="M 121.5,65.5 C 121.477,67.9267 120.977,70.26 120,72.5C 118.242,74.0832 116.742,75.7499 115.5,77.5C 115.167,77.5 114.833,77.5 114.5,77.5C 113.051,75.8356 111.051,75.0023 108.5,75C 109.056,74.6174 109.389,74.1174 109.5,73.5C 115.304,73.2818 119.304,70.6151 121.5,65.5 Z"/></g>
<g><path style="opacity:1" fill="#8c3d39" d="M 48.5,66.5 C 48.8333,66.5 49.1667,66.5 49.5,66.5C 51.4147,66.2155 53.0813,66.5489 54.5,67.5C 54.6168,69.4835 53.9501,71.1502 52.5,72.5C 52.8333,73.5 53.5,74.1667 54.5,74.5C 56.2141,73.3915 56.8808,74.0582 56.5,76.5C 53.9407,76.8016 51.6074,76.4682 49.5,75.5C 49.6848,72.5415 49.3515,69.5415 48.5,66.5 Z"/></g>
<g><path style="opacity:1" fill="#39221c" d="M 109.5,73.5 C 109.389,74.1174 109.056,74.6174 108.5,75C 111.051,75.0023 113.051,75.8356 114.5,77.5C 113.222,77.7822 112.222,78.4489 111.5,79.5C 111.5,78.5 111.5,77.5 111.5,76.5C 107.519,75.9791 103.519,75.6458 99.5,75.5C 99.8417,74.6618 100.508,74.3284 101.5,74.5C 104.167,74.1667 106.833,73.8333 109.5,73.5 Z"/></g>
<g><path style="opacity:1" fill="#3c211c" d="M 43.5,74.5 C 45.5648,74.5172 47.5648,74.8505 49.5,75.5C 51.6074,76.4682 53.9407,76.8016 56.5,76.5C 56.8333,76.5 57.1667,76.5 57.5,76.5C 57.5,76.8333 57.5,77.1667 57.5,77.5C 55.4727,77.3379 53.4727,77.5045 51.5,78C 53.8078,79.9357 56.4745,80.769 59.5,80.5C 54.0198,81.004 48.3531,81.004 42.5,80.5C 39.1694,80.9819 36.5027,79.9819 34.5,77.5C 37.0076,75.446 40.0076,74.446 43.5,74.5 Z"/></g>
<g><path style="opacity:1" fill="#301e1a" d="M 57.5,77.5 C 64.8333,77.5 72.1667,77.5 79.5,77.5C 82.246,78.2513 84.9127,79.2513 87.5,80.5C 81.0738,79.88 75.0738,80.5467 69.5,82.5C 66.2655,81.424 62.9322,80.7573 59.5,80.5C 56.4745,80.769 53.8078,79.9357 51.5,78C 53.4727,77.5045 55.4727,77.3379 57.5,77.5 Z"/></g>
<g><path style="opacity:1" fill="#1e1713" d="M 99.5,75.5 C 103.519,75.6458 107.519,75.9791 111.5,76.5C 111.5,77.5 111.5,78.5 111.5,79.5C 107.833,80.1667 104.167,80.8333 100.5,81.5C 95.9677,81.8182 91.6344,81.4849 87.5,80.5C 84.9127,79.2513 82.246,78.2513 79.5,77.5C 86.1195,76.397 92.7862,75.7303 99.5,75.5 Z"/></g>
<g><path style="opacity:1" fill="#973429" d="M 31.5,77.5 C 31.8333,77.5 32.1667,77.5 32.5,77.5C 33.1667,77.5 33.8333,77.5 34.5,77.5C 36.5027,79.9819 39.1694,80.9819 42.5,80.5C 45.5,81.1667 48.5,81.8333 51.5,82.5C 48.4816,82.3354 45.4816,82.502 42.5,83C 44.7226,83.5662 46.7226,84.3995 48.5,85.5C 44.1095,84.8083 39.7762,83.8083 35.5,82.5C 34.391,82.4431 33.391,82.1098 32.5,81.5C 32.5,80.8333 32.1667,80.5 31.5,80.5C 31.5,79.5 31.5,78.5 31.5,77.5 Z"/></g>
<g><path style="opacity:1" fill="#5d2a24" d="M 42.5,80.5 C 48.3531,81.004 54.0198,81.004 59.5,80.5C 62.9322,80.7573 66.2655,81.424 69.5,82.5C 74.1667,82.5 78.8333,82.5 83.5,82.5C 83.5,82.8333 83.5,83.1667 83.5,83.5C 72.8231,83.4328 62.1564,83.0995 51.5,82.5C 48.5,81.8333 45.5,81.1667 42.5,80.5 Z"/></g>
<g><path style="opacity:1" fill="#49241e" d="M 87.5,80.5 C 91.6344,81.4849 95.9677,81.8182 100.5,81.5C 95.0247,82.4889 89.358,82.8222 83.5,82.5C 78.8333,82.5 74.1667,82.5 69.5,82.5C 75.0738,80.5467 81.0738,79.88 87.5,80.5 Z"/></g>
<g><path style="opacity:1" fill="#852e24" d="M 114.5,77.5 C 114.833,77.5 115.167,77.5 115.5,77.5C 115.5,78.5 115.5,79.5 115.5,80.5C 114.263,81.9649 113.263,83.6316 112.5,85.5C 109.57,84.701 106.57,84.3677 103.5,84.5C 97.021,83.5093 90.3543,83.176 83.5,83.5C 83.5,83.1667 83.5,82.8333 83.5,82.5C 89.358,82.8222 95.0247,82.4889 100.5,81.5C 104.167,80.8333 107.833,80.1667 111.5,79.5C 112.222,78.4489 113.222,77.7822 114.5,77.5 Z"/></g>
<g><path style="opacity:1" fill="#aa3629" d="M 51.5,82.5 C 62.1564,83.0995 72.8231,83.4328 83.5,83.5C 90.3543,83.176 97.021,83.5093 103.5,84.5C 102.609,85.1098 101.609,85.4431 100.5,85.5C 95.2032,86.2745 89.8699,86.6079 84.5,86.5C 87.977,85.6773 91.6437,85.1773 95.5,85C 81.3272,84.1727 67.3272,84.3393 53.5,85.5C 52.1667,85.5 50.8333,85.5 49.5,85.5C 49.1667,85.5 48.8333,85.5 48.5,85.5C 46.7226,84.3995 44.7226,83.5662 42.5,83C 45.4816,82.502 48.4816,82.3354 51.5,82.5 Z"/></g>
<g><path style="opacity:1" fill="#7a302a" d="M 35.5,82.5 C 39.7762,83.8083 44.1095,84.8083 48.5,85.5C 48.8333,85.5 49.1667,85.5 49.5,85.5C 51.8273,87.1583 54.1606,88.825 56.5,90.5C 52.7867,89.7068 49.12,89.7068 45.5,90.5C 46.836,93.1537 48.5026,95.487 50.5,97.5C 51.0577,98.7899 52.0577,99.6232 53.5,100C 57.819,100.76 62.1523,101.427 66.5,102C 64.34,103.332 62.34,104.832 60.5,106.5C 58.7428,105.708 57.4095,104.375 56.5,102.5C 51.0472,101.036 46.7139,98.0364 43.5,93.5C 42.6143,92.675 42.281,91.675 42.5,90.5C 41.1779,90.67 40.0113,90.3366 39,89.5C 37.1207,87.4732 35.954,85.1398 35.5,82.5 Z"/></g>
<g><path style="opacity:1" fill="#cf4f3e" d="M 53.5,85.5 C 67.3272,84.3393 81.3272,84.1727 95.5,85C 91.6437,85.1773 87.977,85.6773 84.5,86.5C 74.143,86.6723 63.8097,86.339 53.5,85.5 Z"/></g>
<g><path style="opacity:1" fill="#6b2722" d="M 103.5,84.5 C 106.57,84.3677 109.57,84.701 112.5,85.5C 112.167,86.1667 111.833,86.8333 111.5,87.5C 110.178,87.67 109.011,87.3366 108,86.5C 108.024,90.4119 106.19,92.7453 102.5,93.5C 102.167,93.5 101.833,93.5 101.5,93.5C 101.5,92.1667 100.833,91.5 99.5,91.5C 97.742,91.8769 96.0754,92.5435 94.5,93.5C 94.1667,93.1667 93.8333,92.8333 93.5,92.5C 95.7488,89.9168 98.0822,87.5834 100.5,85.5C 101.609,85.4431 102.609,85.1098 103.5,84.5 Z"/></g>
<g><path style="opacity:1" fill="#892c26" d="M 49.5,85.5 C 50.8333,85.5 52.1667,85.5 53.5,85.5C 63.8097,86.339 74.143,86.6723 84.5,86.5C 89.8699,86.6079 95.2032,86.2745 100.5,85.5C 98.0822,87.5834 95.7488,89.9168 93.5,92.5C 93.8333,92.8333 94.1667,93.1667 94.5,93.5C 96.0754,92.5435 97.742,91.8769 99.5,91.5C 96.7515,94.5834 93.4182,95.25 89.5,93.5C 89.3284,92.5084 89.6618,91.8417 90.5,91.5C 91.6266,90.8783 92.6266,90.045 93.5,89C 91.444,88.6892 89.444,88.1892 87.5,87.5C 84.7173,87.7647 82.0507,88.098 79.5,88.5C 77.2492,87.1353 75.2492,87.4686 73.5,89.5C 73.5654,89.0618 73.3988,88.7284 73,88.5C 70.9589,90.9741 68.2923,91.9741 65,91.5C 62.135,91.3157 59.3016,90.9823 56.5,90.5C 54.1606,88.825 51.8273,87.1583 49.5,85.5 Z"/></g>
<g><path style="opacity:1" fill="#652721" d="M 79.5,88.5 C 82.0507,88.098 84.7173,87.7647 87.5,87.5C 89.444,88.1892 91.444,88.6892 93.5,89C 92.6266,90.045 91.6266,90.8783 90.5,91.5C 88.8333,90.1667 87.1667,90.1667 85.5,91.5C 83.5,90.5 81.5,89.5 79.5,88.5 Z"/></g>
<g><path style="opacity: .7;" fill="#888683" d="M 31.5,80.5 C 32.1667,80.5 32.5,80.8333 32.5,81.5C 37.3693,91.2396 43.7027,99.9063 51.5,107.5C 53.0248,109.216 54.0248,111.216 54.5,113.5C 54.8016,116.059 54.4682,118.393 53.5,120.5C 53.6633,118.143 53.4966,115.81 53,113.5C 46.6184,106.12 40.6184,98.4533 35,90.5C 32.9653,87.4388 31.7986,84.1055 31.5,80.5 Z"/></g>
<g><path style="opacity:1" fill="#552823" d="M 73.5,89.5 C 72.8333,90.5 72.1667,91.5 71.5,92.5C 64.8761,93.2142 58.2094,92.8809 51.5,91.5C 50.5,91.8333 49.5,92.1667 48.5,92.5C 51.1303,93.3815 53.797,94.0481 56.5,94.5C 56.3893,95.1174 56.056,95.6174 55.5,96C 57.3464,97.0298 59.0131,98.1964 60.5,99.5C 57.0968,99.1489 53.7635,98.4822 50.5,97.5C 48.5026,95.487 46.836,93.1537 45.5,90.5C 49.12,89.7068 52.7867,89.7068 56.5,90.5C 59.3016,90.9823 62.135,91.3157 65,91.5C 68.2923,91.9741 70.9589,90.9741 73,88.5C 73.3988,88.7284 73.5654,89.0618 73.5,89.5 Z"/></g>
<g><path style="opacity:1" fill="#281812" d="M 85.5,91.5 C 87.1667,90.1667 88.8333,90.1667 90.5,91.5C 89.6618,91.8417 89.3284,92.5084 89.5,93.5C 87.9382,93.2671 86.6049,92.6005 85.5,91.5 Z"/></g>
<g><path style="opacity:1" fill="#b43d37" d="M 79.5,88.5 C 81.5,89.5 83.5,90.5 85.5,91.5C 86.6049,92.6005 87.9382,93.2671 89.5,93.5C 90.9142,95.0542 92.5808,96.3875 94.5,97.5C 94.3764,98.1067 94.0431,98.44 93.5,98.5C 89.8671,95.8621 85.8671,93.8621 81.5,92.5C 78.0641,93.7815 74.7307,93.7815 71.5,92.5C 72.1667,91.5 72.8333,90.5 73.5,89.5C 75.2492,87.4686 77.2492,87.1353 79.5,88.5 Z"/></g>
<g><path style="opacity:1" fill="#77332f" d="M 81.5,92.5 C 85.8671,93.8621 89.8671,95.8621 93.5,98.5C 93.5,99.1667 93.1667,99.5 92.5,99.5C 86.7428,100.552 82.0762,98.8849 78.5,94.5C 80.1788,94.7148 81.1788,94.0481 81.5,92.5 Z"/></g>
<g><path style="opacity:1" fill="#3b241f" d="M 111.5,87.5 C 109.238,92.0897 106.238,96.0897 102.5,99.5C 102.703,97.9557 103.37,96.6223 104.5,95.5C 103.757,94.8182 103.091,94.1515 102.5,93.5C 106.19,92.7453 108.024,90.4119 108,86.5C 109.011,87.3366 110.178,87.67 111.5,87.5 Z"/></g>
<g><path style="opacity:1" fill="#291813" d="M 99.5,91.5 C 100.833,91.5 101.5,92.1667 101.5,93.5C 98.7915,96.2085 95.7915,98.5419 92.5,100.5C 92.5,100.167 92.5,99.8333 92.5,99.5C 93.1667,99.5 93.5,99.1667 93.5,98.5C 94.0431,98.44 94.3764,98.1067 94.5,97.5C 92.5808,96.3875 90.9142,95.0542 89.5,93.5C 93.4182,95.25 96.7515,94.5834 99.5,91.5 Z"/></g>
<g><path style="opacity:1" fill="#9d3a33" d="M 71.5,92.5 C 74.7307,93.7815 78.0641,93.7815 81.5,92.5C 81.1788,94.0481 80.1788,94.7148 78.5,94.5C 74.9405,94.7175 74.9405,95.7175 78.5,97.5C 78.2089,98.6491 77.3756,99.3158 76,99.5C 72.6172,99.3401 69.6172,98.3401 67,96.5C 65.9125,98.9316 65.4125,98.5983 65.5,95.5C 62.5176,95.0371 59.5176,94.7038 56.5,94.5C 53.797,94.0481 51.1303,93.3815 48.5,92.5C 49.5,92.1667 50.5,91.8333 51.5,91.5C 58.2094,92.8809 64.8761,93.2142 71.5,92.5 Z"/></g>
<g><path style="opacity:1" fill="#823a36" d="M 56.5,94.5 C 59.5176,94.7038 62.5176,95.0371 65.5,95.5C 65.4125,98.5983 65.9125,98.9316 67,96.5C 69.6172,98.3401 72.6172,99.3401 76,99.5C 77.3756,99.3158 78.2089,98.6491 78.5,97.5C 81.3066,97.9513 82.3066,99.2847 81.5,101.5C 77.1667,101.5 72.8333,101.5 68.5,101.5C 66.0948,100.232 63.4282,99.5651 60.5,99.5C 59.0131,98.1964 57.3464,97.0298 55.5,96C 56.056,95.6174 56.3893,95.1174 56.5,94.5 Z"/></g>
<g><path style="opacity:1" fill="#47211a" d="M 78.5,94.5 C 82.0762,98.8849 86.7428,100.552 92.5,99.5C 92.5,99.8333 92.5,100.167 92.5,100.5C 91.8333,100.5 91.5,100.833 91.5,101.5C 88.1667,101.5 84.8333,101.5 81.5,101.5C 82.3066,99.2847 81.3066,97.9513 78.5,97.5C 74.9405,95.7175 74.9405,94.7175 78.5,94.5 Z"/></g>
<g><path style="opacity:1" fill="#5e3531" d="M 101.5,93.5 C 101.833,93.5 102.167,93.5 102.5,93.5C 103.091,94.1515 103.757,94.8182 104.5,95.5C 103.37,96.6223 102.703,97.9557 102.5,99.5C 101.243,102.427 99.2427,104.761 96.5,106.5C 94.0971,106.448 91.7638,106.781 89.5,107.5C 91.2418,106.043 93.2418,104.876 95.5,104C 94.5494,103.282 94.3828,102.449 95,101.5C 97.7517,99.2543 99.9184,96.5877 101.5,93.5 Z"/></g>
<g><path style="opacity:1" fill="#ba5043" d="M 68.5,101.5 C 72.8333,101.5 77.1667,101.5 81.5,101.5C 84.8333,101.5 88.1667,101.5 91.5,101.5C 85.0481,103.589 78.3814,103.923 71.5,102.5C 69.1017,103.389 67.1017,104.889 65.5,107C 64.5632,107.692 63.8966,107.525 63.5,106.5C 65.3603,105.061 67.027,103.395 68.5,101.5 Z"/></g>
<g><path style="opacity:1" fill="#5c3430" d="M 32.5,81.5 C 33.391,82.1098 34.391,82.4431 35.5,82.5C 35.954,85.1398 37.1207,87.4732 39,89.5C 40.0113,90.3366 41.1779,90.67 42.5,90.5C 42.281,91.675 42.6143,92.675 43.5,93.5C 46.7139,98.0364 51.0472,101.036 56.5,102.5C 57.4095,104.375 58.7428,105.708 60.5,106.5C 59.4324,107.434 58.099,107.768 56.5,107.5C 54.602,106.904 52.9354,106.904 51.5,107.5C 43.7027,99.9063 37.3693,91.2396 32.5,81.5 Z"/></g>
<g><path style="opacity:1" fill="#89413d" d="M 101.5,93.5 C 99.9184,96.5877 97.7517,99.2543 95,101.5C 94.3828,102.449 94.5494,103.282 95.5,104C 93.2418,104.876 91.2418,106.043 89.5,107.5C 87.0521,108.473 84.3854,108.806 81.5,108.5C 75.1318,108.83 68.7985,108.496 62.5,107.5C 62.6236,106.893 62.9569,106.56 63.5,106.5C 63.8966,107.525 64.5632,107.692 65.5,107C 67.1017,104.889 69.1017,103.389 71.5,102.5C 78.3814,103.923 85.0481,103.589 91.5,101.5C 91.5,100.833 91.8333,100.5 92.5,100.5C 95.7915,98.5419 98.7915,96.2085 101.5,93.5 Z"/></g>
<g><path style="opacity: .7;" fill="#8a8885" d="M 115.5,80.5 C 115.498,84.5115 114.332,88.1781 112,91.5C 105.97,99.6854 99.8031,107.685 93.5,115.5C 93.5,114.5 93.5,113.5 93.5,112.5C 94.4706,110.517 95.4706,108.517 96.5,106.5C 99.2427,104.761 101.243,102.427 102.5,99.5C 106.238,96.0897 109.238,92.0897 111.5,87.5C 111.833,86.8333 112.167,86.1667 112.5,85.5C 113.263,83.6316 114.263,81.9649 115.5,80.5 Z"/></g>
<g><path style="opacity:1" fill="#201a16" d="M 96.5,106.5 C 95.4706,108.517 94.4706,110.517 93.5,112.5C 92.2579,113.043 90.9245,113.377 89.5,113.5C 87.8125,112.904 86.1458,112.071 84.5,111C 77.9616,110.225 71.4616,110.391 65,111.5C 63.9412,111.37 63.1079,110.87 62.5,110C 69.0133,109.828 75.3466,109.328 81.5,108.5C 84.3854,108.806 87.0521,108.473 89.5,107.5C 91.7638,106.781 94.0971,106.448 96.5,106.5 Z"/></g>
<g><path style="opacity:1" fill="#37201c" d="M 50.5,97.5 C 53.7635,98.4822 57.0968,99.1489 60.5,99.5C 63.4282,99.5651 66.0948,100.232 68.5,101.5C 67.027,103.395 65.3603,105.061 63.5,106.5C 62.9569,106.56 62.6236,106.893 62.5,107.5C 68.7985,108.496 75.1318,108.83 81.5,108.5C 75.3466,109.328 69.0133,109.828 62.5,110C 63.1079,110.87 63.9412,111.37 65,111.5C 71.4616,110.391 77.9616,110.225 84.5,111C 86.1458,112.071 87.8125,112.904 89.5,113.5C 90.9245,113.377 92.2579,113.043 93.5,112.5C 93.5,113.5 93.5,114.5 93.5,115.5C 93.7556,118.598 94.4222,121.598 95.5,124.5C 94.2921,125.234 92.9587,125.567 91.5,125.5C 92.3909,124.739 93.0576,123.739 93.5,122.5C 92.7766,120.218 92.4433,117.884 92.5,115.5C 87.3664,115.161 82.0331,115.161 76.5,115.5C 71.0399,114.263 65.3732,113.596 59.5,113.5C 59.4208,112.07 59.7542,110.736 60.5,109.5C 59.0508,108.828 57.7175,108.161 56.5,107.5C 58.099,107.768 59.4324,107.434 60.5,106.5C 62.34,104.832 64.34,103.332 66.5,102C 62.1523,101.427 57.819,100.76 53.5,100C 52.0577,99.6232 51.0577,98.7899 50.5,97.5 Z"/></g>
<g><path style="opacity:1" fill="#201813" d="M 56.5,107.5 C 57.7175,108.161 59.0508,108.828 60.5,109.5C 59.7542,110.736 59.4208,112.07 59.5,113.5C 65.3732,113.596 71.0399,114.263 76.5,115.5C 71.8333,115.5 67.1667,115.5 62.5,115.5C 60.7354,114.539 58.7354,114.205 56.5,114.5C 56.1583,113.662 55.4916,113.328 54.5,113.5C 54.0248,111.216 53.0248,109.216 51.5,107.5C 52.9354,106.904 54.602,106.904 56.5,107.5 Z"/></g>
<g><path style="opacity:1" fill="#c74537" d="M 92.5,115.5 C 91.8333,115.5 91.5,115.833 91.5,116.5C 89.1667,117.167 86.8333,117.833 84.5,118.5C 82.5,118.5 80.5,118.5 78.5,118.5C 73.1554,118.313 67.8221,117.98 62.5,117.5C 56.0143,116.224 56.0143,115.558 62.5,115.5C 67.1667,115.5 71.8333,115.5 76.5,115.5C 82.0331,115.161 87.3664,115.161 92.5,115.5 Z"/></g>
<g><path style="opacity:1" fill="#582926" d="M 54.5,113.5 C 55.4916,113.328 56.1583,113.662 56.5,114.5C 55.7463,117.023 55.0796,119.689 54.5,122.5C 56.5939,123.518 58.5939,124.518 60.5,125.5C 58.4086,125.682 56.4086,125.348 54.5,124.5C 53.6143,123.675 53.281,122.675 53.5,121.5C 53.5,121.167 53.5,120.833 53.5,120.5C 54.4682,118.393 54.8016,116.059 54.5,113.5 Z"/></g>
<g><path style="opacity:1" fill="#7e302b" d="M 56.5,114.5 C 58.7354,114.205 60.7354,114.539 62.5,115.5C 56.0143,115.558 56.0143,116.224 62.5,117.5C 62.5,118.5 62.5,119.5 62.5,120.5C 63.5,120.5 64.5,120.5 65.5,120.5C 65.2587,122.886 65.9254,124.886 67.5,126.5C 65.0971,126.552 62.7638,126.219 60.5,125.5C 58.5939,124.518 56.5939,123.518 54.5,122.5C 55.0796,119.689 55.7463,117.023 56.5,114.5 Z"/></g>
<g><path style="opacity:1" fill="#682a26" d="M 92.5,115.5 C 92.4433,117.884 92.7766,120.218 93.5,122.5C 93.0576,123.739 92.3909,124.739 91.5,125.5C 89.8333,125.5 88.1667,125.5 86.5,125.5C 86.5,123.167 86.5,120.833 86.5,118.5C 87.9305,118.421 89.2638,118.754 90.5,119.5C 91.3857,118.675 91.719,117.675 91.5,116.5C 91.5,115.833 91.8333,115.5 92.5,115.5 Z"/></g>
<g><path style="opacity:1" fill="#b62c27" d="M 62.5,117.5 C 67.8221,117.98 73.1554,118.313 78.5,118.5C 76.2818,119.016 74.2818,120.016 72.5,121.5C 73.2913,123.148 74.2913,124.815 75.5,126.5C 73.8333,126.5 72.1667,126.5 70.5,126.5C 69.5,126.5 68.5,126.5 67.5,126.5C 65.9254,124.886 65.2587,122.886 65.5,120.5C 64.5,120.5 63.5,120.5 62.5,120.5C 62.5,119.5 62.5,118.5 62.5,117.5 Z"/></g>
<g><path style="opacity:1" fill="#bd413f" d="M 78.5,118.5 C 80.5,118.5 82.5,118.5 84.5,118.5C 82.6557,120.514 81.989,122.681 82.5,125C 80.1873,125.662 77.854,126.162 75.5,126.5C 74.2913,124.815 73.2913,123.148 72.5,121.5C 74.2818,120.016 76.2818,119.016 78.5,118.5 Z"/></g>
<g><path style="opacity:1" fill="#8c312d" d="M 91.5,116.5 C 91.719,117.675 91.3857,118.675 90.5,119.5C 89.2638,118.754 87.9305,118.421 86.5,118.5C 86.5,120.833 86.5,123.167 86.5,125.5C 83.4501,126.935 80.1168,127.602 76.5,127.5C 74.3035,127.495 72.3035,127.162 70.5,126.5C 72.1667,126.5 73.8333,126.5 75.5,126.5C 77.854,126.162 80.1873,125.662 82.5,125C 81.989,122.681 82.6557,120.514 84.5,118.5C 86.8333,117.833 89.1667,117.167 91.5,116.5 Z"/></g>
<g><path style="opacity:1" fill="#231b17" d="M 53.5,121.5 C 53.281,122.675 53.6143,123.675 54.5,124.5C 56.4086,125.348 58.4086,125.682 60.5,125.5C 62.7638,126.219 65.0971,126.552 67.5,126.5C 68.5,126.5 69.5,126.5 70.5,126.5C 72.3035,127.162 74.3035,127.495 76.5,127.5C 80.1168,127.602 83.4501,126.935 86.5,125.5C 88.1667,125.5 89.8333,125.5 91.5,125.5C 92.9587,125.567 94.2921,125.234 95.5,124.5C 96.5387,126.531 98.2054,127.864 100.5,128.5C 98.5439,129.492 96.5439,130.492 94.5,131.5C 93.8333,131.5 93.1667,131.5 92.5,131.5C 85.263,130.143 77.9297,129.143 70.5,128.5C 64.2928,129.094 57.9595,129.761 51.5,130.5C 50.8333,130.5 50.1667,130.5 49.5,130.5C 48.8333,129.833 48.1667,129.167 47.5,128.5C 51.0982,127.468 53.0982,125.135 53.5,121.5 Z"/></g>
<g><path style="opacity:1" fill="#44221c" d="M 92.5,131.5 C 92.1583,132.338 91.4916,132.672 90.5,132.5C 89.5,132.5 88.5,132.5 87.5,132.5C 78.8269,132.334 70.1603,132.5 61.5,133C 62.745,133.791 64.0783,134.291 65.5,134.5C 68.817,135.497 72.1503,136.497 75.5,137.5C 75.5,137.833 75.5,138.167 75.5,138.5C 70.0167,137.784 64.6834,136.45 59.5,134.5C 57.2926,132.485 54.6259,131.485 51.5,131.5C 51.5,131.167 51.5,130.833 51.5,130.5C 57.9595,129.761 64.2928,129.094 70.5,128.5C 77.9297,129.143 85.263,130.143 92.5,131.5 Z"/></g>
<g><path style="opacity:1" fill="#70372f" d="M 47.5,128.5 C 48.1667,129.167 48.8333,129.833 49.5,130.5C 46.9028,130.721 46.9028,131.221 49.5,132C 47.5188,132.605 47.1854,133.605 48.5,135C 47.2068,135.49 45.8734,135.657 44.5,135.5C 44.9662,133.799 44.9662,132.299 44.5,131C 42.2884,130.211 40.2884,130.378 38.5,131.5C 37.1667,131.5 35.8333,131.5 34.5,131.5C 38.3934,129.124 42.7268,128.124 47.5,128.5 Z"/></g>
<g><path style="opacity:1" fill="#a6322e" d="M 102.5,132.5 C 106.804,131.239 111.137,131.572 115.5,133.5C 115.631,134.376 115.298,135.043 114.5,135.5C 113.264,134.754 111.93,134.421 110.5,134.5C 108.087,132.949 105.421,132.283 102.5,132.5 Z"/></g>
<g><path style="opacity:1" fill="#b83b37" d="M 34.5,131.5 C 35.8333,131.5 37.1667,131.5 38.5,131.5C 40.1992,131.34 41.8659,131.506 43.5,132C 43.1667,132.333 42.8333,132.667 42.5,133C 38.4315,133.114 34.7649,134.28 31.5,136.5C 32.075,134.589 33.075,132.922 34.5,131.5 Z"/></g>
<g><path style="opacity:1" fill="#942e27" d="M 87.5,132.5 C 80.1667,133.167 72.8333,133.833 65.5,134.5C 64.0783,134.291 62.745,133.791 61.5,133C 70.1603,132.5 78.8269,132.334 87.5,132.5 Z"/></g>
<g><path style="opacity:1" fill="#8f3028" d="M 38.5,131.5 C 40.2884,130.378 42.2884,130.211 44.5,131C 44.9662,132.299 44.9662,133.799 44.5,135.5C 45.8734,135.657 47.2068,135.49 48.5,135C 47.1854,133.605 47.5188,132.605 49.5,132C 46.9028,131.221 46.9028,130.721 49.5,130.5C 50.1667,130.5 50.8333,130.5 51.5,130.5C 51.5,130.833 51.5,131.167 51.5,131.5C 50.8413,135.994 48.1746,137.661 43.5,136.5C 43.5,137.833 43.5,139.167 43.5,140.5C 45.4147,140.216 47.0813,140.549 48.5,141.5C 43.6812,141.648 39.0145,140.982 34.5,139.5C 32.9731,139.573 31.9731,138.906 31.5,137.5C 31.5,137.167 31.5,136.833 31.5,136.5C 34.7649,134.28 38.4315,133.114 42.5,133C 42.8333,132.667 43.1667,132.333 43.5,132C 41.8659,131.506 40.1992,131.34 38.5,131.5 Z"/></g>
<g><path style="opacity:1" fill="#aa372b" d="M 51.5,131.5 C 54.6259,131.485 57.2926,132.485 59.5,134.5C 58.448,134.351 57.448,134.517 56.5,135C 58.364,139.339 57.364,140.339 53.5,138C 54.9928,136.844 54.8261,136.01 53,135.5C 50.2007,136.237 50.0341,137.07 52.5,138C 51.1667,139 51.1667,140 52.5,141C 59.9966,143.199 67.6632,144.032 75.5,143.5C 75.5,143.833 75.5,144.167 75.5,144.5C 68.443,144.76 61.443,144.427 54.5,143.5C 52.5,142.833 50.5,142.167 48.5,141.5C 47.0813,140.549 45.4147,140.216 43.5,140.5C 43.5,139.167 43.5,137.833 43.5,136.5C 48.1746,137.661 50.8413,135.994 51.5,131.5 Z"/></g>
<g><path style="opacity:1" fill="#c2322b" d="M 87.5,132.5 C 88.5,132.5 89.5,132.5 90.5,132.5C 90.2882,134.384 89.2882,135.717 87.5,136.5C 88.9122,137.806 90.5789,138.64 92.5,139C 86.7204,139.689 81.0537,139.189 75.5,137.5C 72.1503,136.497 68.817,135.497 65.5,134.5C 72.8333,133.833 80.1667,133.167 87.5,132.5 Z"/></g>
<g><path style="opacity:1" fill="#712b24" d="M 100.5,128.5 C 104.595,128.808 108.595,129.641 112.5,131C 113.942,131.377 114.942,132.21 115.5,133.5C 111.137,131.572 106.804,131.239 102.5,132.5C 105.174,134.001 105.007,135.001 102,135.5C 99.5,134.002 97,132.669 94.5,131.5C 96.5439,130.492 98.5439,129.492 100.5,128.5 Z"/></g>
<g><path style="opacity:1" fill="#7a544d" d="M 34.5,131.5 C 33.075,132.922 32.075,134.589 31.5,136.5C 31.5,136.833 31.5,137.167 31.5,137.5C 31.1667,137.5 30.8333,137.5 30.5,137.5C 29.8911,134.122 31.2244,132.122 34.5,131.5 Z"/></g>
<g><path style="opacity:1" fill="#50251e" d="M 115.5,133.5 C 117.048,133.821 117.715,134.821 117.5,136.5C 113.968,139.185 109.968,141.019 105.5,142C 95.5893,143.911 85.5893,144.744 75.5,144.5C 75.5,144.167 75.5,143.833 75.5,143.5C 79.4659,142.838 83.4659,142.505 87.5,142.5C 94.7693,140.864 102.103,139.364 109.5,138C 109.619,136.855 109.952,135.688 110.5,134.5C 111.93,134.421 113.264,134.754 114.5,135.5C 115.298,135.043 115.631,134.376 115.5,133.5 Z"/></g>
<g><path style="opacity:1" fill="#832920" d="M 92.5,131.5 C 93.1667,131.5 93.8333,131.5 94.5,131.5C 97,132.669 99.5,134.002 102,135.5C 105.007,135.001 105.174,134.001 102.5,132.5C 105.421,132.283 108.087,132.949 110.5,134.5C 109.952,135.688 109.619,136.855 109.5,138C 102.103,139.364 94.7693,140.864 87.5,142.5C 83.6268,140.792 79.6268,139.458 75.5,138.5C 75.5,138.167 75.5,137.833 75.5,137.5C 81.0537,139.189 86.7204,139.689 92.5,139C 90.5789,138.64 88.9122,137.806 87.5,136.5C 89.2882,135.717 90.2882,134.384 90.5,132.5C 91.4916,132.672 92.1583,132.338 92.5,131.5 Z"/></g>
<g><path style="opacity:1" fill="#c2332b" d="M 59.5,134.5 C 64.6834,136.45 70.0167,137.784 75.5,138.5C 79.6268,139.458 83.6268,140.792 87.5,142.5C 83.4659,142.505 79.4659,142.838 75.5,143.5C 67.6632,144.032 59.9966,143.199 52.5,141C 51.1667,140 51.1667,139 52.5,138C 50.0341,137.07 50.2007,136.237 53,135.5C 54.8261,136.01 54.9928,136.844 53.5,138C 57.364,140.339 58.364,139.339 56.5,135C 57.448,134.517 58.448,134.351 59.5,134.5 Z"/></g>
<g><path style="opacity: .7;" fill="#8d8b88" d="M 117.5,136.5 C 117.919,139.325 116.919,141.491 114.5,143C 107.657,145.361 100.657,146.861 93.5,147.5C 77.4828,147.7 61.4828,147.366 45.5,146.5C 41.1869,146.452 37.1869,145.285 33.5,143C 31.393,141.736 30.393,139.903 30.5,137.5C 30.8333,137.5 31.1667,137.5 31.5,137.5C 31.9731,138.906 32.9731,139.573 34.5,139.5C 35.842,140.793 37.5087,141.626 39.5,142C 44.4482,143.05 49.4482,143.55 54.5,143.5C 61.443,144.427 68.443,144.76 75.5,144.5C 85.5893,144.744 95.5893,143.911 105.5,142C 109.968,141.019 113.968,139.185 117.5,136.5 Z"/></g>
<g><path style="opacity:1" fill="#643c34" d="M 34.5,139.5 C 39.0145,140.982 43.6812,141.648 48.5,141.5C 50.5,142.167 52.5,142.833 54.5,143.5C 49.4482,143.55 44.4482,143.05 39.5,142C 37.5087,141.626 35.842,140.793 34.5,139.5 Z"/></g>
<g><path style="opacity: .7;" fill="#b4b3b1" d="M 45.5,146.5 C 61.4828,147.366 77.4828,147.7 93.5,147.5C 79.6728,148.661 65.6728,148.827 51.5,148C 49.2922,147.809 47.2922,147.309 45.5,146.5 Z"/></g>
</svg>